<?xml version="1.0" encoding="UTF-8" standalone="no"?>
<!DOCTYPE svg PUBLIC "-//W3C//DTD SVG 1.1//EN"
 "http://www.w3.org/Graphics/SVG/1.1/DTD/svg11.dtd">
<!-- Generated by graphviz version 12.2.0 (20241103.1931)
 -->
<!-- Title: include/SerialConsole.h Pages: 1 -->
<svg width="210pt" height="83pt"
 viewBox="0.00 0.00 210.12 82.50" xmlns="http://www.w3.org/2000/svg" xmlns:xlink="http://www.w3.org/1999/xlink">
<g id="graph0" class="graph" transform="scale(1 1) rotate(0) translate(4 78.5)">
<title>include/SerialConsole.h</title>
<!-- Node1 -->
<g id="Node000001" class="node">
<title>Node1</title>
<g id="a_Node000001"><a xlink:title="Debug Console Interface for Vehicle Control System.">
<polygon fill="#999999" stroke="#666666" points="170.38,-74.5 51.62,-74.5 51.62,-55.25 170.38,-55.25 170.38,-74.5"/>
<text text-anchor="middle" x="111" y="-61" font-family="Helvetica,sans-Serif" font-size="10.00">include/SerialConsole.h</text>
</a>
</g>
</g>
<!-- Node2 -->
<g id="Node000002" class="node">
<title>Node2</title>
<g id="a_Node000002"><a xlink:href="_serial_console_8cpp.html" target="_top" xlink:title="Implementation of debug console interface for vehicle control system.">
<polygon fill="white" stroke="#666666" points="112,-19.25 0,-19.25 0,0 112,0 112,-19.25"/>
<text text-anchor="middle" x="56" y="-5.75" font-family="Helvetica,sans-Serif" font-size="10.00">src/SerialConsole.cpp</text>
</a>
</g>
</g>
<!-- Node1&#45;&gt;Node2 -->
<g id="edge1_Node000001_Node000002" class="edge">
<title>Node1&#45;&gt;Node2</title>
<g id="a_edge1_Node000001_Node000002"><a xlink:title=" ">
<path fill="none" stroke="#63b8ff" d="M93.65,-47.07C84.25,-37.98 73.02,-27.1 65.28,-19.61"/>
<polygon fill="#63b8ff" stroke="#63b8ff" points="91.21,-49.59 100.83,-54.03 96.08,-44.56 91.21,-49.59"/>
</a>
</g>
</g>
<!-- Node3 -->
<g id="Node000003" class="node">
<title>Node3</title>
<g id="a_Node000003"><a xlink:href="main_8cpp.html" target="_top" xlink:title="Main Vehicle Control Unit (VCU) Program.">
<polygon fill="white" stroke="#666666" points="202.12,-19.25 129.88,-19.25 129.88,0 202.12,0 202.12,-19.25"/>
<text text-anchor="middle" x="166" y="-5.75" font-family="Helvetica,sans-Serif" font-size="10.00">src/main.cpp</text>
</a>
</g>
</g>
<!-- Node1&#45;&gt;Node3 -->
<g id="edge2_Node000001_Node000003" class="edge">
<title>Node1&#45;&gt;Node3</title>
<g id="a_edge2_Node000001_Node000003"><a xlink:title=" ">
<path fill="none" stroke="#63b8ff" d="M128.35,-47.07C137.75,-37.98 148.98,-27.1 156.72,-19.61"/>
<polygon fill="#63b8ff" stroke="#63b8ff" points="125.92,-44.56 121.17,-54.03 130.79,-49.59 125.92,-44.56"/>
</a>
</g>
</g>
</g>
</svg>
