<?xml version="1.0" encoding="UTF-8" standalone="no"?>
<!DOCTYPE svg PUBLIC "-//W3C//DTD SVG 1.1//EN"
 "http://www.w3.org/Graphics/SVG/1.1/DTD/svg11.dtd">
<!-- Generated by graphviz version 12.2.0 (20241103.1931)
 -->
<!-- Title: src/SerialConsole.cpp Pages: 1 -->
<!--zoomable 304 -->

<svg id="main" version="1.1" xmlns="http://www.w3.org/2000/svg" xmlns:xlink="http://www.w3.org/1999/xlink" xml:space="preserve" onload="init(evt)">

<style type="text/css"><![CDATA[
.node, .edge {opacity: 0.7;}
.node.selected, .edge.selected {opacity: 1;}
.edge:hover path { stroke: red; }
.edge:hover polygon { stroke: red; fill: red; }
]]></style>

<defs>
  <circle id="rim" cx="0" cy="0" r="7"/>
  <circle id="rim2" cx="0" cy="0" r="3.5"/>
  <g id="zoomPlus">
    <use xlink:href="#rim" fill="#404040"><set attributeName="fill" to="#808080" begin="zoomplus.mouseover" end="zoomplus.mouseout"/></use>
    <path d="M-4,0h8M0,-4v8" fill="none" stroke="white" stroke-width="1.5" pointer-events="none"/>
  </g>
  <g id="zoomMin">
    <use xlink:href="#rim" fill="#404040"><set attributeName="fill" to="#808080" begin="zoomminus.mouseover" end="zoomminus.mouseout"/></use>
    <path d="M-4,0h8" fill="none" stroke="white" stroke-width="1.5" pointer-events="none"/>
  </g>
  <g id="arrowUp" transform="translate(30 24)">
    <use xlink:href="#rim"/>
    <path pointer-events="none" fill="none" stroke="white" stroke-width="1.5" d="M0,-3.0v7 M-2.5,-0.5L0,-3.0L2.5,-0.5"/>
  </g>
  <g id="arrowRight" transform="rotate(90) translate(36 -43)">
    <use xlink:href="#rim"/>
    <path pointer-events="none" fill="none" stroke="white" stroke-width="1.5" d="M0,-3.0v7 M-2.5,-0.5L0,-3.0L2.5,-0.5"/>
  </g>
  <g id="arrowDown" transform="rotate(180) translate(-30 -48)">
    <use xlink:href="#rim"/>
    <path pointer-events="none" fill="none" stroke="white" stroke-width="1.5" d="M0,-3.0v7 M-2.5,-0.5L0,-3.0L2.5,-0.5"/>
  </g>
  <g id="arrowLeft" transform="rotate(270) translate(-36 17)">
    <use xlink:href="#rim"/>
    <path pointer-events="none" fill="none" stroke="white" stroke-width="1.5" d="M0,-3.0v7 M-2.5,-0.5L0,-3.0L2.5,-0.5"/>
  </g>
  <g id="resetDef">
    <use xlink:href="#rim2" fill="#404040"><set attributeName="fill" to="#808080" begin="reset.mouseover" end="reset.mouseout"/></use>
  </g>
</defs>
<script type="application/ecmascript">
var viewWidth = 603;
var viewHeight = 304;
var sectionId = 'dynsection-0';
</script>
<script type="application/ecmascript" xlink:href="svg.min.js"/>
<svg id="graph" class="graph">
<g id="viewport">
<title>src/SerialConsole.cpp</title>
<!-- Node1 -->
<g id="Node000001" class="node">
<title>Node1</title>
<g id="a_Node000001"><a xlink:title="Implementation of debug console interface for vehicle control system.">
<polygon fill="#999999" stroke="#666666" points="221.41,-295.5 109.41,-295.5 109.41,-276.25 221.41,-276.25 221.41,-295.5"/>
<text text-anchor="middle" x="165.41" y="-282" font-family="Helvetica,sans-Serif" font-size="10.00">src/SerialConsole.cpp</text>
</a>
</g>
</g>
<!-- Node2 -->
<g id="Node000002" class="node">
<title>Node2</title>
<g id="a_Node000002"><a xlink:href="_serial_console_8h.html" target="_top" xlink:title="Debug Console Interface for Vehicle Control System.">
<polygon fill="white" stroke="#666666" points="207.91,-240.25 122.91,-240.25 122.91,-221 207.91,-221 207.91,-240.25"/>
<text text-anchor="middle" x="165.41" y="-226.75" font-family="Helvetica,sans-Serif" font-size="10.00">SerialConsole.h</text>
</a>
</g>
</g>
<!-- Node1&#45;&gt;Node2 -->
<g id="edge1_Node000001_Node000002" class="edge">
<title>Node1&#45;&gt;Node2</title>
<g id="a_edge1_Node000001_Node000002"><a xlink:title=" ">
<path fill="none" stroke="#63b8ff" d="M165.41,-276.08C165.41,-269.57 165.41,-260.42 165.41,-252.12"/>
<polygon fill="#63b8ff" stroke="#63b8ff" points="168.91,-252.12 165.41,-242.12 161.91,-252.12 168.91,-252.12"/>
</a>
</g>
</g>
<!-- Node3 -->
<g id="Node000003" class="node">
<title>Node3</title>
<g id="a_Node000003"><a xlink:title=" ">
<polygon fill="#e0e0e0" stroke="#999999" points="92.03,-19.25 34.78,-19.25 34.78,0 92.03,0 92.03,-19.25"/>
<text text-anchor="middle" x="63.41" y="-5.75" font-family="Helvetica,sans-Serif" font-size="10.00">Arduino.h</text>
</a>
</g>
</g>
<!-- Node2&#45;&gt;Node3 -->
<g id="edge2_Node000002_Node000003" class="edge">
<title>Node2&#45;&gt;Node3</title>
<g id="a_edge2_Node000002_Node000003"><a xlink:title=" ">
<path fill="none" stroke="#63b8ff" d="M134,-220.5C95.51,-207.44 32,-179.33 4.41,-129.75 -3.76,-115.07 0.62,-76.94 12.41,-55.25 18.71,-43.66 29.28,-33.66 39.17,-26.08"/>
<polygon fill="#63b8ff" stroke="#63b8ff" points="40.93,-29.12 47.04,-20.46 36.87,-23.42 40.93,-29.12"/>
</a>
</g>
</g>
<!-- Node4 -->
<g id="Node000004" class="node">
<title>Node4</title>
<g id="a_Node000004"><a xlink:href="can__manager_8h.html" target="_top" xlink:title="CAN Communication Manager for Vehicle Control System.">
<polygon fill="white" stroke="#666666" points="206.41,-185 124.41,-185 124.41,-165.75 206.41,-165.75 206.41,-185"/>
<text text-anchor="middle" x="165.41" y="-171.5" font-family="Helvetica,sans-Serif" font-size="10.00">can_manager.h</text>
</a>
</g>
</g>
<!-- Node2&#45;&gt;Node4 -->
<g id="edge3_Node000002_Node000004" class="edge">
<title>Node2&#45;&gt;Node4</title>
<g id="a_edge3_Node000002_Node000004"><a xlink:title=" ">
<path fill="none" stroke="#63b8ff" d="M165.41,-220.83C165.41,-214.32 165.41,-205.17 165.41,-196.87"/>
<polygon fill="#63b8ff" stroke="#63b8ff" points="168.91,-196.87 165.41,-186.87 161.91,-196.87 168.91,-196.87"/>
</a>
</g>
</g>
<!-- Node7 -->
<g id="Node000007" class="node">
<title>Node7</title>
<g id="a_Node000007"><a xlink:href="config_8h.html" target="_top" xlink:title=" ">
<polygon fill="white" stroke="#666666" points="336.66,-74.5 286.16,-74.5 286.16,-55.25 336.66,-55.25 336.66,-74.5"/>
<text text-anchor="middle" x="311.41" y="-61" font-family="Helvetica,sans-Serif" font-size="10.00">config.h</text>
</a>
</g>
</g>
<!-- Node2&#45;&gt;Node7 -->
<g id="edge22_Node000002_Node000007" class="edge">
<title>Node2&#45;&gt;Node7</title>
<g id="a_edge22_Node000002_Node000007"><a xlink:title=" ">
<path fill="none" stroke="#63b8ff" d="M201.82,-220.51C243.53,-207.9 309.91,-180.69 339.41,-129.75 348.1,-114.74 338.3,-96.53 327.98,-83.4"/>
<polygon fill="#63b8ff" stroke="#63b8ff" points="330.79,-81.3 321.62,-76 325.48,-85.87 330.79,-81.3"/>
</a>
</g>
</g>
<!-- Node9 -->
<g id="Node000009" class="node">
<title>Node9</title>
<g id="a_Node000009"><a xlink:href="state__manager_8h.html" target="_top" xlink:title="Vehicle State Management System.">
<polygon fill="white" stroke="#666666" points="113.41,-129.75 25.41,-129.75 25.41,-110.5 113.41,-110.5 113.41,-129.75"/>
<text text-anchor="middle" x="69.41" y="-116.25" font-family="Helvetica,sans-Serif" font-size="10.00">state_manager.h</text>
</a>
</g>
</g>
<!-- Node2&#45;&gt;Node9 -->
<g id="edge14_Node000002_Node000009" class="edge">
<title>Node2&#45;&gt;Node9</title>
<g id="a_edge14_Node000002_Node000009"><a xlink:title=" ">
<path fill="none" stroke="#63b8ff" d="M154.04,-220.69C143.46,-212.11 127.55,-198.49 115.41,-185 102.42,-170.58 89.68,-152.5 80.92,-139.26"/>
<polygon fill="#63b8ff" stroke="#63b8ff" points="84.01,-137.59 75.63,-131.11 78.14,-141.4 84.01,-137.59"/>
</a>
</g>
</g>
<!-- Node10 -->
<g id="Node000010" class="node">
<title>Node10</title>
<g id="a_Node000010"><a xlink:href="vehicle__control_8h.html" target="_top" xlink:title="Vehicle Control System for Electric Vehicle.">
<polygon fill="white" stroke="#666666" points="497.16,-129.75 407.66,-129.75 407.66,-110.5 497.16,-110.5 497.16,-129.75"/>
<text text-anchor="middle" x="452.41" y="-116.25" font-family="Helvetica,sans-Serif" font-size="10.00">vehicle_control.h</text>
</a>
</g>
</g>
<!-- Node2&#45;&gt;Node10 -->
<g id="edge15_Node000002_Node000010" class="edge">
<title>Node2&#45;&gt;Node10</title>
<g id="a_edge15_Node000002_Node000010"><a xlink:title=" ">
<path fill="none" stroke="#63b8ff" d="M208.02,-229.08C255.96,-226.77 334.77,-217.74 393.41,-185 413.11,-174 429.92,-154.06 440.5,-139.38"/>
<polygon fill="#63b8ff" stroke="#63b8ff" points="443.15,-141.7 445.93,-131.48 437.38,-137.74 443.15,-141.7"/>
</a>
</g>
</g>
<!-- Node4&#45;&gt;Node3 -->
<g id="edge4_Node000004_Node000003" class="edge">
<title>Node4&#45;&gt;Node3</title>
<g id="a_edge4_Node000004_Node000003"><a xlink:title=" ">
<path fill="none" stroke="#63b8ff" d="M124.09,-174.59C89.16,-172.3 41,-162.78 16.41,-129.75 -7.37,-97.81 25.13,-52.25 46.8,-27.76"/>
<polygon fill="#63b8ff" stroke="#63b8ff" points="49.2,-30.32 53.41,-20.59 44.06,-25.57 49.2,-30.32"/>
</a>
</g>
</g>
<!-- Node5 -->
<g id="Node000005" class="node">
<title>Node5</title>
<g id="a_Node000005"><a xlink:title=" ">
<polygon fill="#e0e0e0" stroke="#999999" points="209.78,-129.75 169.03,-129.75 169.03,-110.5 209.78,-110.5 209.78,-129.75"/>
<text text-anchor="middle" x="189.41" y="-116.25" font-family="Helvetica,sans-Serif" font-size="10.00">SPI.h</text>
</a>
</g>
</g>
<!-- Node4&#45;&gt;Node5 -->
<g id="edge5_Node000004_Node000005" class="edge">
<title>Node4&#45;&gt;Node5</title>
<g id="a_edge5_Node000004_Node000005"><a xlink:title=" ">
<path fill="none" stroke="#63b8ff" d="M169.37,-165.58C172.44,-158.76 176.82,-149.06 180.7,-140.45"/>
<polygon fill="#63b8ff" stroke="#63b8ff" points="183.82,-142.04 184.74,-131.49 177.44,-139.17 183.82,-142.04"/>
</a>
</g>
</g>
<!-- Node6 -->
<g id="Node000006" class="node">
<title>Node6</title>
<g id="a_Node000006"><a xlink:title=" ">
<polygon fill="#e0e0e0" stroke="#999999" points="312.91,-129.75 227.91,-129.75 227.91,-110.5 312.91,-110.5 312.91,-129.75"/>
<text text-anchor="middle" x="270.41" y="-116.25" font-family="Helvetica,sans-Serif" font-size="10.00">mcp2515_can.h</text>
</a>
</g>
</g>
<!-- Node4&#45;&gt;Node6 -->
<g id="edge6_Node000004_Node000006" class="edge">
<title>Node4&#45;&gt;Node6</title>
<g id="a_edge6_Node000004_Node000006"><a xlink:title=" ">
<path fill="none" stroke="#63b8ff" d="M183.22,-165.34C199.44,-157.12 223.64,-144.84 242.44,-135.31"/>
<polygon fill="#63b8ff" stroke="#63b8ff" points="243.82,-138.53 251.16,-130.89 240.66,-132.29 243.82,-138.53"/>
</a>
</g>
</g>
<!-- Node4&#45;&gt;Node7 -->
<g id="edge7_Node000004_Node000007" class="edge">
<title>Node4&#45;&gt;Node7</title>
<g id="a_edge7_Node000004_Node000007"><a xlink:title=" ">
<path fill="none" stroke="#63b8ff" d="M206.62,-168.35C248.28,-161.31 308.44,-148.23 322.41,-129.75 332.05,-116.98 327.59,-98.69 321.72,-84.95"/>
<polygon fill="#63b8ff" stroke="#63b8ff" points="324.91,-83.53 317.39,-76.07 318.62,-86.59 324.91,-83.53"/>
</a>
</g>
</g>
<!-- Node8 -->
<g id="Node000008" class="node">
<title>Node8</title>
<g id="a_Node000008"><a xlink:href="vehicle__parameters_8h.html" target="_top" xlink:title="Vehicle Configuration Parameters and Operating Limits.">
<polygon fill="white" stroke="#666666" points="200.91,-74.5 91.91,-74.5 91.91,-55.25 200.91,-55.25 200.91,-74.5"/>
<text text-anchor="middle" x="146.41" y="-61" font-family="Helvetica,sans-Serif" font-size="10.00">vehicle_parameters.h</text>
</a>
</g>
</g>
<!-- Node4&#45;&gt;Node8 -->
<g id="edge9_Node000004_Node000008" class="edge">
<title>Node4&#45;&gt;Node8</title>
<g id="a_edge9_Node000004_Node000008"><a xlink:title=" ">
<path fill="none" stroke="#63b8ff" d="M163.85,-165.5C160.83,-148.25 154.11,-109.83 149.94,-86.06"/>
<polygon fill="#63b8ff" stroke="#63b8ff" points="153.42,-85.61 148.24,-76.37 146.52,-86.82 153.42,-85.61"/>
</a>
</g>
</g>
<!-- Node4&#45;&gt;Node9 -->
<g id="edge10_Node000004_Node000009" class="edge">
<title>Node4&#45;&gt;Node9</title>
<g id="a_edge10_Node000004_Node000009"><a xlink:title=" ">
<path fill="none" stroke="#63b8ff" d="M149.12,-165.34C134.5,-157.23 112.78,-145.18 95.7,-135.71"/>
<polygon fill="#63b8ff" stroke="#63b8ff" points="97.54,-132.73 87.1,-130.94 94.14,-138.85 97.54,-132.73"/>
</a>
</g>
</g>
<!-- Node7&#45;&gt;Node3 -->
<g id="edge8_Node000007_Node000003" class="edge">
<title>Node7&#45;&gt;Node3</title>
<g id="a_edge8_Node000007_Node000003"><a xlink:title=" ">
<path fill="none" stroke="#63b8ff" d="M285.8,-58.38C242.54,-49.09 154.69,-30.22 103.3,-19.19"/>
<polygon fill="#63b8ff" stroke="#63b8ff" points="104.29,-15.82 93.78,-17.15 102.82,-22.67 104.29,-15.82"/>
</a>
</g>
</g>
<!-- Node9&#45;&gt;Node3 -->
<g id="edge11_Node000009_Node000003" class="edge">
<title>Node9&#45;&gt;Node3</title>
<g id="a_edge11_Node000009_Node000003"><a xlink:title=" ">
<path fill="none" stroke="#63b8ff" d="M68.92,-110.25C67.96,-93 65.84,-54.58 64.52,-30.81"/>
<polygon fill="#63b8ff" stroke="#63b8ff" points="68.04,-30.93 63.99,-21.14 61.05,-31.32 68.04,-30.93"/>
</a>
</g>
</g>
<!-- Node9&#45;&gt;Node7 -->
<g id="edge12_Node000009_Node000007" class="edge">
<title>Node9&#45;&gt;Node7</title>
<g id="a_edge12_Node000009_Node000007"><a xlink:title=" ">
<path fill="none" stroke="#63b8ff" d="M110.73,-110.03C156.83,-99.89 230.71,-83.63 274.8,-73.93"/>
<polygon fill="#63b8ff" stroke="#63b8ff" points="275.37,-77.39 284.39,-71.82 273.87,-70.55 275.37,-77.39"/>
</a>
</g>
</g>
<!-- Node9&#45;&gt;Node8 -->
<g id="edge13_Node000009_Node000008" class="edge">
<title>Node9&#45;&gt;Node8</title>
<g id="a_edge13_Node000009_Node000008"><a xlink:title=" ">
<path fill="none" stroke="#63b8ff" d="M82.47,-110.09C93.86,-102.21 110.64,-90.61 124.15,-81.27"/>
<polygon fill="#63b8ff" stroke="#63b8ff" points="125.8,-84.38 132.04,-75.81 121.82,-78.62 125.8,-84.38"/>
</a>
</g>
</g>
<!-- Node10&#45;&gt;Node3 -->
<g id="edge16_Node000010_Node000003" class="edge">
<title>Node10&#45;&gt;Node3</title>
<g id="a_edge16_Node000010_Node000003"><a xlink:title=" ">
<path fill="none" stroke="#63b8ff" d="M438.97,-110.22C414.83,-94.38 364.83,-62.29 345.41,-55.25 262.74,-25.3 159.24,-15.43 103.47,-12.19"/>
<polygon fill="#63b8ff" stroke="#63b8ff" points="104,-8.72 93.83,-11.68 103.63,-15.71 104,-8.72"/>
</a>
</g>
</g>
<!-- Node10&#45;&gt;Node7 -->
<g id="edge19_Node000010_Node000007" class="edge">
<title>Node10&#45;&gt;Node7</title>
<g id="a_edge19_Node000010_Node000007"><a xlink:title=" ">
<path fill="none" stroke="#63b8ff" d="M428.49,-110.09C405.9,-101.56 371.77,-88.67 346.18,-79.01"/>
<polygon fill="#63b8ff" stroke="#63b8ff" points="347.45,-75.75 336.86,-75.49 344.98,-82.29 347.45,-75.75"/>
</a>
</g>
</g>
<!-- Node10&#45;&gt;Node8 -->
<g id="edge20_Node000010_Node000008" class="edge">
<title>Node10&#45;&gt;Node8</title>
<g id="a_edge20_Node000010_Node000008"><a xlink:title=" ">
<path fill="none" stroke="#63b8ff" d="M407.26,-111.27C355.01,-102.18 268.64,-87.15 209.71,-76.89"/>
<polygon fill="#63b8ff" stroke="#63b8ff" points="210.61,-73.5 200.16,-75.23 209.41,-80.39 210.61,-73.5"/>
</a>
</g>
</g>
<!-- Node11 -->
<g id="Node000011" class="node">
<title>Node11</title>
<g id="a_Node000011"><a xlink:title=" ">
<polygon fill="#e0e0e0" stroke="#999999" points="435.91,-74.5 392.91,-74.5 392.91,-55.25 435.91,-55.25 435.91,-74.5"/>
<text text-anchor="middle" x="414.41" y="-61" font-family="Helvetica,sans-Serif" font-size="10.00">cmath</text>
</a>
</g>
</g>
<!-- Node10&#45;&gt;Node11 -->
<g id="edge17_Node000010_Node000011" class="edge">
<title>Node10&#45;&gt;Node11</title>
<g id="a_edge17_Node000010_Node000011"><a xlink:title=" ">
<path fill="none" stroke="#63b8ff" d="M446.13,-110.33C441.05,-103.21 433.71,-92.93 427.38,-84.05"/>
<polygon fill="#63b8ff" stroke="#63b8ff" points="430.36,-82.2 421.7,-76.09 424.66,-86.26 430.36,-82.2"/>
</a>
</g>
</g>
<!-- Node12 -->
<g id="Node000012" class="node">
<title>Node12</title>
<g id="a_Node000012"><a xlink:title=" ">
<polygon fill="#e0e0e0" stroke="#999999" points="509.28,-74.5 453.53,-74.5 453.53,-55.25 509.28,-55.25 509.28,-74.5"/>
<text text-anchor="middle" x="481.41" y="-61" font-family="Helvetica,sans-Serif" font-size="10.00">algorithm</text>
</a>
</g>
</g>
<!-- Node10&#45;&gt;Node12 -->
<g id="edge18_Node000010_Node000012" class="edge">
<title>Node10&#45;&gt;Node12</title>
<g id="a_edge18_Node000010_Node000012"><a xlink:title=" ">
<path fill="none" stroke="#63b8ff" d="M457.2,-110.33C460.95,-103.44 466.32,-93.59 471.04,-84.91"/>
<polygon fill="#63b8ff" stroke="#63b8ff" points="474.08,-86.64 475.79,-76.19 467.93,-83.3 474.08,-86.64"/>
</a>
</g>
</g>
<!-- Node13 -->
<g id="Node000013" class="node">
<title>Node13</title>
<g id="a_Node000013"><a xlink:title=" ">
<polygon fill="#e0e0e0" stroke="#999999" points="595.28,-74.5 527.53,-74.5 527.53,-55.25 595.28,-55.25 595.28,-74.5"/>
<text text-anchor="middle" x="561.41" y="-61" font-family="Helvetica,sans-Serif" font-size="10.00">ADS1X15.h</text>
</a>
</g>
</g>
<!-- Node10&#45;&gt;Node13 -->
<g id="edge21_Node000010_Node000013" class="edge">
<title>Node10&#45;&gt;Node13</title>
<g id="a_edge21_Node000010_Node000013"><a xlink:title=" ">
<path fill="none" stroke="#63b8ff" d="M470.9,-110.09C487.81,-101.83 513.1,-89.48 532.65,-79.93"/>
<polygon fill="#63b8ff" stroke="#63b8ff" points="534.02,-83.15 541.47,-75.62 530.95,-76.86 534.02,-83.15"/>
</a>
</g>
</g>
</g>
</svg>

<g id="navigator" transform="translate(0 0)" fill="#404254">
  <rect fill="#f2f5e9" fill-opacity="0.5" stroke="#606060" stroke-width=".5" x="0" y="0" width="60" height="60"/>
  <use id="zoomplus" xlink:href="#zoomPlus" x="17" y="9" onmousedown="handleZoom(evt,'in')"/>
  <use id="zoomminus" xlink:href="#zoomMin" x="42" y="9" onmousedown="handleZoom(evt,'out')"/>
  <use id="reset" xlink:href="#resetDef" x="30" y="36" onmousedown="handleReset()"/>
   <use id="arrowup" xlink:href="#arrowUp" x="0" y="0" onmousedown="handlePan(0,-1)"/>
  <use id="arrowright" xlink:href="#arrowRight" x="0" y="0" onmousedown="handlePan(1,0)"/>
  <use id="arrowdown" xlink:href="#arrowDown" x="0" y="0" onmousedown="handlePan(0,1)"/>
  <use id="arrowleft" xlink:href="#arrowLeft" x="0" y="0" onmousedown="handlePan(-1,0)"/>
</g>
<svg viewBox="0 0 15 15" width="100%" height="30px" preserveAspectRatio="xMaxYMin meet">
 <g id="arrow_out" transform="scale(0.3 0.3)">
  <a xlink:href="_serial_console_8cpp__incl_org.svg" target="_base">
   <rect id="button" ry="5" rx="5" y="6" x="6" height="38" width="38"
        fill="#f2f5e9" fill-opacity="0.5" stroke="#606060" stroke-width="1.0"/>
   <path id="arrow"
     d="M 11.500037,31.436501 C 11.940474,20.09759 22.043105,11.32322 32.158766,21.979434 L 37.068811,17.246167 C 37.068811,17.246167 37.088388,32 37.088388,32 L 22.160133,31.978069 C 22.160133,31.978069 26.997745,27.140456 26.997745,27.140456 C 18.528582,18.264221 13.291696,25.230495 11.500037,31.436501 z"
     style="fill:#404040;"/>
  </a>
 </g>
</svg>

<style type='text/css'>
<![CDATA[
[data-mouse-over-selected='false'] { opacity: 0.7; }
[data-mouse-over-selected='true']  { opacity: 1.0; }
]]>
</style>
<script type="application/ecmascript"><![CDATA[
document.addEventListener('DOMContentLoaded', (event) => {
  highlightEdges();
  highlightAdjacentNodes();
});
]]></script>
</svg>
