<?xml version="1.0" encoding="UTF-8" standalone="no"?>
<!DOCTYPE svg PUBLIC "-//W3C//DTD SVG 1.1//EN"
 "http://www.w3.org/Graphics/SVG/1.1/DTD/svg11.dtd">
<!-- Generated by graphviz version 12.2.0 (20241103.1931)
 -->
<!-- Title: CANManager Pages: 1 -->
<svg width="392pt" height="94pt"
 viewBox="0.00 0.00 391.75 93.75" xmlns="http://www.w3.org/2000/svg" xmlns:xlink="http://www.w3.org/1999/xlink">
<g id="graph0" class="graph" transform="scale(1 1) rotate(0) translate(4 89.75)">
<title>CANManager</title>
<!-- Node1 -->
<g id="Node000001" class="node">
<title>Node1</title>
<g id="a_Node000001"><a xlink:title="CAN Communication Manager Class.">
<polygon fill="#999999" stroke="#666666" points="222,-19.25 146.75,-19.25 146.75,0 222,0 222,-19.25"/>
<text text-anchor="middle" x="184.38" y="-5.75" font-family="Helvetica,sans-Serif" font-size="10.00">CANManager</text>
</a>
</g>
</g>
<!-- Node2 -->
<g id="Node000002" class="node">
<title>Node2</title>
<g id="a_Node000002"><a xlink:href="struct_b_m_s_data.html" target="_top" xlink:title="Battery Management System data structure Contains battery state information from BMS.">
<polygon fill="white" stroke="#666666" points="58.75,-85.75 0,-85.75 0,-66.5 58.75,-66.5 58.75,-85.75"/>
<text text-anchor="middle" x="29.38" y="-72.25" font-family="Helvetica,sans-Serif" font-size="10.00">BMSData</text>
</a>
</g>
</g>
<!-- Node2&#45;&gt;Node1 -->
<g id="edge1_Node000001_Node000002" class="edge">
<title>Node2&#45;&gt;Node1</title>
<g id="a_edge1_Node000001_Node000002"><a xlink:title=" ">
<path fill="none" stroke="#9a32cd" stroke-dasharray="5,2" d="M47.89,-58.72C57.17,-51.24 68.91,-42.82 80.62,-37.25 101.45,-27.35 126.44,-20.79 146.68,-16.66"/>
<polygon fill="#9a32cd" stroke="#9a32cd" points="45.77,-55.93 40.37,-65.05 50.28,-61.29 45.77,-55.93"/>
</a>
</g>
<text text-anchor="middle" x="102" y="-39" font-family="Helvetica,sans-Serif" font-size="10.00" fill="grey"> bmsData</text>
</g>
<!-- Node3 -->
<g id="Node000003" class="node">
<title>Node3</title>
<g id="a_Node000003"><a xlink:href="struct_d_m_c_data.html" target="_top" xlink:title="Drive Motor Controller data structure Contains motor and inverter operational data.">
<polygon fill="white" stroke="#666666" points="137.5,-85.75 77.25,-85.75 77.25,-66.5 137.5,-66.5 137.5,-85.75"/>
<text text-anchor="middle" x="107.38" y="-72.25" font-family="Helvetica,sans-Serif" font-size="10.00">DMCData</text>
</a>
</g>
</g>
<!-- Node3&#45;&gt;Node1 -->
<g id="edge2_Node000001_Node000003" class="edge">
<title>Node3&#45;&gt;Node1</title>
<g id="a_edge2_Node000001_Node000003"><a xlink:title=" ">
<path fill="none" stroke="#9a32cd" stroke-dasharray="5,2" d="M119.55,-57.09C124.64,-50.37 130.92,-42.98 137.62,-37.25 145.72,-30.33 155.87,-24.29 164.65,-19.73"/>
<polygon fill="#9a32cd" stroke="#9a32cd" points="116.89,-54.8 113.93,-64.97 122.58,-58.87 116.89,-54.8"/>
</a>
</g>
<text text-anchor="middle" x="159" y="-39" font-family="Helvetica,sans-Serif" font-size="10.00" fill="grey"> dmcData</text>
</g>
<!-- Node4 -->
<g id="Node000004" class="node">
<title>Node4</title>
<g id="a_Node000004"><a xlink:href="struct_b_s_c_data.html" target="_top" xlink:title="Battery Switch Controller data structure Contains DC&#45;DC converter operational data.">
<polygon fill="white" stroke="#666666" points="213.38,-85.75 155.38,-85.75 155.38,-66.5 213.38,-66.5 213.38,-85.75"/>
<text text-anchor="middle" x="184.38" y="-72.25" font-family="Helvetica,sans-Serif" font-size="10.00">BSCData</text>
</a>
</g>
</g>
<!-- Node4&#45;&gt;Node1 -->
<g id="edge3_Node000001_Node000004" class="edge">
<title>Node4&#45;&gt;Node1</title>
<g id="a_edge3_Node000001_Node000004"><a xlink:title=" ">
<path fill="none" stroke="#9a32cd" stroke-dasharray="5,2" d="M184.38,-54.65C184.38,-42.82 184.38,-28.54 184.38,-19.52"/>
<polygon fill="#9a32cd" stroke="#9a32cd" points="180.88,-54.64 184.38,-64.64 187.88,-54.64 180.88,-54.64"/>
</a>
</g>
<text text-anchor="middle" x="204.25" y="-39" font-family="Helvetica,sans-Serif" font-size="10.00" fill="grey"> bscData</text>
</g>
<!-- Node5 -->
<g id="Node000005" class="node">
<title>Node5</title>
<g id="a_Node000005"><a xlink:href="struct_n_l_g_data.html" target="_top" xlink:title="Network Load Gateway data structure Contains charging system data.">
<polygon fill="white" stroke="#666666" points="289,-85.75 231.75,-85.75 231.75,-66.5 289,-66.5 289,-85.75"/>
<text text-anchor="middle" x="260.38" y="-72.25" font-family="Helvetica,sans-Serif" font-size="10.00">NLGData</text>
</a>
</g>
</g>
<!-- Node5&#45;&gt;Node1 -->
<g id="edge4_Node000001_Node000005" class="edge">
<title>Node5&#45;&gt;Node1</title>
<g id="a_edge4_Node000001_Node000005"><a xlink:title=" ">
<path fill="none" stroke="#9a32cd" stroke-dasharray="5,2" d="M247.25,-57.23C241.84,-50.52 235.24,-43.11 228.38,-37.25 220.36,-30.41 210.39,-24.22 201.96,-19.53"/>
<polygon fill="#9a32cd" stroke="#9a32cd" points="244.43,-59.29 253.29,-65.09 249.98,-55.03 244.43,-59.29"/>
</a>
</g>
<text text-anchor="middle" x="257.44" y="-39" font-family="Helvetica,sans-Serif" font-size="10.00" fill="grey"> nlgData</text>
</g>
<!-- Node6 -->
<g id="Node000006" class="node">
<title>Node6</title>
<g id="a_Node000006"><a xlink:href="class_state_manager.html" target="_top" xlink:title=" ">
<polygon fill="white" stroke="#666666" points="383.75,-85.75 307,-85.75 307,-66.5 383.75,-66.5 383.75,-85.75"/>
<text text-anchor="middle" x="345.38" y="-72.25" font-family="Helvetica,sans-Serif" font-size="10.00">StateManager</text>
</a>
</g>
</g>
<!-- Node6&#45;&gt;Node1 -->
<g id="edge5_Node000001_Node000006" class="edge">
<title>Node6&#45;&gt;Node1</title>
<g id="a_edge5_Node000001_Node000006"><a xlink:title=" ">
<path fill="none" stroke="#9a32cd" stroke-dasharray="5,2" d="M322.71,-60.25C310.29,-52.59 294.41,-43.56 279.38,-37.25 261.05,-29.57 239.83,-23.38 222.1,-18.91"/>
<polygon fill="#9a32cd" stroke="#9a32cd" points="320.63,-63.07 330.95,-65.46 324.37,-57.16 320.63,-63.07"/>
</a>
</g>
<text text-anchor="middle" x="333.05" y="-39" font-family="Helvetica,sans-Serif" font-size="10.00" fill="grey"> stateManager</text>
</g>
</g>
</svg>
