<?xml version="1.0" encoding="UTF-8" standalone="no"?>
<!DOCTYPE svg PUBLIC "-//W3C//DTD SVG 1.1//EN"
 "http://www.w3.org/Graphics/SVG/1.1/DTD/svg11.dtd">
<!-- Generated by graphviz version 12.2.0 (20241103.1931)
 -->
<!-- Title: SerialConsole Pages: 1 -->
<svg width="552pt" height="160pt"
 viewBox="0.00 0.00 552.25 160.25" xmlns="http://www.w3.org/2000/svg" xmlns:xlink="http://www.w3.org/1999/xlink">
<g id="graph0" class="graph" transform="scale(1 1) rotate(0) translate(4 156.25)">
<title>SerialConsole</title>
<!-- Node1 -->
<g id="Node000001" class="node">
<title>Node1</title>
<g id="a_Node000001"><a xlink:title=" ">
<polygon fill="#999999" stroke="#666666" points="422.75,-19.25 346,-19.25 346,0 422.75,0 422.75,-19.25"/>
<text text-anchor="middle" x="384.38" y="-5.75" font-family="Helvetica,sans-Serif" font-size="10.00">SerialConsole</text>
</a>
</g>
</g>
<!-- Node2 -->
<g id="Node000002" class="node">
<title>Node2</title>
<g id="a_Node000002"><a xlink:href="class_c_a_n_manager.html" target="_top" xlink:title="CAN Communication Manager Class.">
<polygon fill="white" stroke="#666666" points="254,-85.75 178.75,-85.75 178.75,-66.5 254,-66.5 254,-85.75"/>
<text text-anchor="middle" x="216.38" y="-72.25" font-family="Helvetica,sans-Serif" font-size="10.00">CANManager</text>
</a>
</g>
</g>
<!-- Node2&#45;&gt;Node1 -->
<g id="edge1_Node000001_Node000002" class="edge">
<title>Node2&#45;&gt;Node1</title>
<g id="a_edge1_Node000001_Node000002"><a xlink:title=" ">
<path fill="none" stroke="#9a32cd" stroke-dasharray="5,2" d="M250.37,-61.88C269.15,-54.58 292.91,-45.38 314.12,-37.25 329.47,-31.37 346.73,-24.83 360.3,-19.7"/>
<polygon fill="#9a32cd" stroke="#9a32cd" points="249.12,-58.61 241.07,-65.5 251.66,-65.14 249.12,-58.61"/>
</a>
</g>
<text text-anchor="middle" x="342.25" y="-39" font-family="Helvetica,sans-Serif" font-size="10.00" fill="grey"> canManager</text>
</g>
<!-- Node3 -->
<g id="Node000003" class="node">
<title>Node3</title>
<g id="a_Node000003"><a xlink:href="struct_b_m_s_data.html" target="_top" xlink:title="Battery Management System data structure Contains battery state information from BMS.">
<polygon fill="white" stroke="#666666" points="58.75,-152.25 0,-152.25 0,-133 58.75,-133 58.75,-152.25"/>
<text text-anchor="middle" x="29.38" y="-138.75" font-family="Helvetica,sans-Serif" font-size="10.00">BMSData</text>
</a>
</g>
</g>
<!-- Node3&#45;&gt;Node2 -->
<g id="edge2_Node000002_Node000003" class="edge">
<title>Node3&#45;&gt;Node2</title>
<g id="a_edge2_Node000002_Node000003"><a xlink:title=" ">
<path fill="none" stroke="#9a32cd" stroke-dasharray="5,2" d="M46.46,-124.92C55.14,-117.34 66.24,-108.94 77.62,-103.75 109.77,-89.1 149.65,-82.51 178.4,-79.54"/>
<polygon fill="#9a32cd" stroke="#9a32cd" points="44.2,-122.25 39.21,-131.6 48.94,-127.4 44.2,-122.25"/>
</a>
</g>
<text text-anchor="middle" x="99" y="-105.5" font-family="Helvetica,sans-Serif" font-size="10.00" fill="grey"> bmsData</text>
</g>
<!-- Node4 -->
<g id="Node000004" class="node">
<title>Node4</title>
<g id="a_Node000004"><a xlink:href="struct_d_m_c_data.html" target="_top" xlink:title="Drive Motor Controller data structure Contains motor and inverter operational data.">
<polygon fill="white" stroke="#666666" points="137.5,-152.25 77.25,-152.25 77.25,-133 137.5,-133 137.5,-152.25"/>
<text text-anchor="middle" x="107.38" y="-138.75" font-family="Helvetica,sans-Serif" font-size="10.00">DMCData</text>
</a>
</g>
</g>
<!-- Node4&#45;&gt;Node2 -->
<g id="edge3_Node000002_Node000004" class="edge">
<title>Node4&#45;&gt;Node2</title>
<g id="a_edge3_Node000002_Node000004"><a xlink:title=" ">
<path fill="none" stroke="#9a32cd" stroke-dasharray="5,2" d="M117.82,-123.12C122.5,-116.22 128.56,-108.84 135.62,-103.75 148.2,-94.69 164.05,-88.58 178.36,-84.53"/>
<polygon fill="#9a32cd" stroke="#9a32cd" points="115.06,-120.92 112.8,-131.27 121.02,-124.59 115.06,-120.92"/>
</a>
</g>
<text text-anchor="middle" x="157" y="-105.5" font-family="Helvetica,sans-Serif" font-size="10.00" fill="grey"> dmcData</text>
</g>
<!-- Node5 -->
<g id="Node000005" class="node">
<title>Node5</title>
<g id="a_Node000005"><a xlink:href="struct_b_s_c_data.html" target="_top" xlink:title="Battery Switch Controller data structure Contains DC&#45;DC converter operational data.">
<polygon fill="white" stroke="#666666" points="213.38,-152.25 155.38,-152.25 155.38,-133 213.38,-133 213.38,-152.25"/>
<text text-anchor="middle" x="184.38" y="-138.75" font-family="Helvetica,sans-Serif" font-size="10.00">BSCData</text>
</a>
</g>
</g>
<!-- Node5&#45;&gt;Node2 -->
<g id="edge4_Node000002_Node000005" class="edge">
<title>Node5&#45;&gt;Node2</title>
<g id="a_edge4_Node000002_Node000005"><a xlink:title=" ">
<path fill="none" stroke="#9a32cd" stroke-dasharray="5,2" d="M182.05,-121.53C182.14,-115.56 183.04,-109.18 185.62,-103.75 189.03,-96.61 195.34,-90.62 201.36,-86.14"/>
<polygon fill="#9a32cd" stroke="#9a32cd" points="178.54,-121.45 182.64,-131.22 185.53,-121.03 178.54,-121.45"/>
</a>
</g>
<text text-anchor="middle" x="205.5" y="-105.5" font-family="Helvetica,sans-Serif" font-size="10.00" fill="grey"> bscData</text>
</g>
<!-- Node6 -->
<g id="Node000006" class="node">
<title>Node6</title>
<g id="a_Node000006"><a xlink:href="struct_n_l_g_data.html" target="_top" xlink:title="Network Load Gateway data structure Contains charging system data.">
<polygon fill="white" stroke="#666666" points="289,-152.25 231.75,-152.25 231.75,-133 289,-133 289,-152.25"/>
<text text-anchor="middle" x="260.38" y="-138.75" font-family="Helvetica,sans-Serif" font-size="10.00">NLGData</text>
</a>
</g>
</g>
<!-- Node6&#45;&gt;Node2 -->
<g id="edge5_Node000002_Node000006" class="edge">
<title>Node6&#45;&gt;Node2</title>
<g id="a_edge5_Node000002_Node000006"><a xlink:title=" ">
<path fill="none" stroke="#9a32cd" stroke-dasharray="5,2" d="M247.93,-123.38C239.59,-111.16 228.99,-95.61 222.44,-86.02"/>
<polygon fill="#9a32cd" stroke="#9a32cd" points="244.88,-125.12 253.4,-131.41 250.66,-121.17 244.88,-125.12"/>
</a>
</g>
<text text-anchor="middle" x="259.38" y="-105.5" font-family="Helvetica,sans-Serif" font-size="10.00" fill="grey"> nlgData</text>
</g>
<!-- Node7 -->
<g id="Node000007" class="node">
<title>Node7</title>
<g id="a_Node000007"><a xlink:href="class_state_manager.html" target="_top" xlink:title=" ">
<polygon fill="white" stroke="#666666" points="402.75,-152.25 326,-152.25 326,-133 402.75,-133 402.75,-152.25"/>
<text text-anchor="middle" x="364.38" y="-138.75" font-family="Helvetica,sans-Serif" font-size="10.00">StateManager</text>
</a>
</g>
</g>
<!-- Node7&#45;&gt;Node1 -->
<g id="edge7_Node000001_Node000007" class="edge">
<title>Node7&#45;&gt;Node1</title>
<g id="a_edge7_Node000001_Node000007"><a xlink:title=" ">
<path fill="none" stroke="#9a32cd" stroke-dasharray="5,2" d="M369.09,-121.6C369.55,-119.38 369.99,-117.15 370.38,-115 376.67,-79.91 381.5,-37.72 383.44,-19.6"/>
<polygon fill="#9a32cd" stroke="#9a32cd" points="365.68,-120.79 366.9,-131.31 372.51,-122.32 365.68,-120.79"/>
</a>
</g>
<text text-anchor="middle" x="408.8" y="-72.25" font-family="Helvetica,sans-Serif" font-size="10.00" fill="grey"> stateManager</text>
</g>
<!-- Node7&#45;&gt;Node2 -->
<g id="edge6_Node000002_Node000007" class="edge">
<title>Node7&#45;&gt;Node2</title>
<g id="a_edge6_Node000002_Node000007"><a xlink:title=" ">
<path fill="none" stroke="#9a32cd" stroke-dasharray="5,2" d="M334.8,-127.79C319.01,-120.49 299.21,-111.47 281.38,-103.75 267.39,-97.7 251.56,-91.21 239.03,-86.15"/>
<polygon fill="#9a32cd" stroke="#9a32cd" points="333.1,-130.86 343.65,-131.89 336.05,-124.51 333.1,-130.86"/>
</a>
</g>
<text text-anchor="middle" x="337.73" y="-105.5" font-family="Helvetica,sans-Serif" font-size="10.00" fill="grey"> stateManager</text>
</g>
<!-- Node8 -->
<g id="Node000008" class="node">
<title>Node8</title>
<g id="a_Node000008"><a xlink:href="class_vehicle_control.html" target="_top" xlink:title=" ">
<polygon fill="white" stroke="#666666" points="544.25,-85.75 464.5,-85.75 464.5,-66.5 544.25,-66.5 544.25,-85.75"/>
<text text-anchor="middle" x="504.38" y="-72.25" font-family="Helvetica,sans-Serif" font-size="10.00">VehicleControl</text>
</a>
</g>
</g>
<!-- Node8&#45;&gt;Node1 -->
<g id="edge8_Node000001_Node000008" class="edge">
<title>Node8&#45;&gt;Node1</title>
<g id="a_edge8_Node000001_Node000008"><a xlink:title=" ">
<path fill="none" stroke="#9a32cd" stroke-dasharray="5,2" d="M477.47,-60.67C454.12,-48.11 421.02,-30.32 401.23,-19.68"/>
<polygon fill="#9a32cd" stroke="#9a32cd" points="475.64,-63.65 486.1,-65.3 478.95,-57.49 475.64,-63.65"/>
</a>
</g>
<text text-anchor="middle" x="484.18" y="-39" font-family="Helvetica,sans-Serif" font-size="10.00" fill="grey"> vehicleControl</text>
</g>
</g>
</svg>
