<?xml version="1.0" encoding="UTF-8" standalone="no"?>
<!DOCTYPE svg PUBLIC "-//W3C//DTD SVG 1.1//EN"
 "http://www.w3.org/Graphics/SVG/1.1/DTD/svg11.dtd">
<!-- Generated by graphviz version 12.2.0 (20241103.1931)
 -->
<!-- Title: src/main.cpp Pages: 1 -->
<svg width="1121pt" height="304pt"
 viewBox="0.00 0.00 1120.64 303.50" xmlns="http://www.w3.org/2000/svg" xmlns:xlink="http://www.w3.org/1999/xlink">
<g id="graph0" class="graph" transform="scale(1 1) rotate(0) translate(4 299.5)">
<title>src/main.cpp</title>
<!-- Node1 -->
<g id="Node000001" class="node">
<title>Node1</title>
<g id="a_Node000001"><a xlink:title="Main Vehicle Control Unit (VCU) Program.">
<polygon fill="#999999" stroke="#666666" points="507.77,-295.5 435.52,-295.5 435.52,-276.25 507.77,-276.25 507.77,-295.5"/>
<text text-anchor="middle" x="471.64" y="-282" font-family="Helvetica,sans-Serif" font-size="10.00">src/main.cpp</text>
</a>
</g>
</g>
<!-- Node2 -->
<g id="Node000002" class="node">
<title>Node2</title>
<g id="a_Node000002"><a xlink:title=" ">
<polygon fill="#e0e0e0" stroke="#999999" points="744.27,-19.25 687.02,-19.25 687.02,0 744.27,0 744.27,-19.25"/>
<text text-anchor="middle" x="715.64" y="-5.75" font-family="Helvetica,sans-Serif" font-size="10.00">Arduino.h</text>
</a>
</g>
</g>
<!-- Node1&#45;&gt;Node2 -->
<g id="edge1_Node000001_Node000002" class="edge">
<title>Node1&#45;&gt;Node2</title>
<g id="a_edge1_Node000001_Node000002"><a xlink:title=" ">
<path fill="none" stroke="#63b8ff" d="M507.98,-284.36C586.45,-282.6 777.23,-274.8 932.64,-240.25 1015.51,-221.83 1112.64,-261.26 1112.64,-176.38 1112.64,-176.38 1112.64,-176.38 1112.64,-119.12 1112.64,-45.67 856.55,-20.22 755.73,-13.04"/>
<polygon fill="#63b8ff" stroke="#63b8ff" points="756.24,-9.57 746.02,-12.38 755.76,-16.55 756.24,-9.57"/>
</a>
</g>
</g>
<!-- Node3 -->
<g id="Node000003" class="node">
<title>Node3</title>
<g id="a_Node000003"><a xlink:title=" ">
<polygon fill="#e0e0e0" stroke="#999999" points="104.14,-240.25 19.14,-240.25 19.14,-221 104.14,-221 104.14,-240.25"/>
<text text-anchor="middle" x="61.64" y="-226.75" font-family="Helvetica,sans-Serif" font-size="10.00">esp_task_wdt.h</text>
</a>
</g>
</g>
<!-- Node1&#45;&gt;Node3 -->
<g id="edge2_Node000001_Node000003" class="edge">
<title>Node1&#45;&gt;Node3</title>
<g id="a_edge2_Node000001_Node000003"><a xlink:title=" ">
<path fill="none" stroke="#63b8ff" d="M435.24,-280.83C372.36,-273.73 239.06,-258.23 115.62,-240.48"/>
<polygon fill="#63b8ff" stroke="#63b8ff" points="116.37,-237.05 105.97,-239.09 115.36,-243.98 116.37,-237.05"/>
</a>
</g>
</g>
<!-- Node4 -->
<g id="Node000004" class="node">
<title>Node4</title>
<g id="a_Node000004"><a xlink:title=" ">
<polygon fill="#e0e0e0" stroke="#999999" points="166.89,-240.25 122.39,-240.25 122.39,-221 166.89,-221 166.89,-240.25"/>
<text text-anchor="middle" x="144.64" y="-226.75" font-family="Helvetica,sans-Serif" font-size="10.00">Wire.h</text>
</a>
</g>
</g>
<!-- Node1&#45;&gt;Node4 -->
<g id="edge3_Node000001_Node000004" class="edge">
<title>Node1&#45;&gt;Node4</title>
<g id="a_edge3_Node000001_Node000004"><a xlink:title=" ">
<path fill="none" stroke="#63b8ff" d="M435.18,-280.27C379.9,-273.07 271.68,-258.1 180.64,-240.25 179.82,-240.09 178.98,-239.92 178.13,-239.75"/>
<polygon fill="#63b8ff" stroke="#63b8ff" points="179.05,-236.36 168.53,-237.62 177.54,-243.2 179.05,-236.36"/>
</a>
</g>
</g>
<!-- Node5 -->
<g id="Node000005" class="node">
<title>Node5</title>
<g id="a_Node000005"><a xlink:title=" ">
<polygon fill="#e0e0e0" stroke="#999999" points="143.02,-129.75 102.27,-129.75 102.27,-110.5 143.02,-110.5 143.02,-129.75"/>
<text text-anchor="middle" x="122.64" y="-116.25" font-family="Helvetica,sans-Serif" font-size="10.00">SPI.h</text>
</a>
</g>
</g>
<!-- Node1&#45;&gt;Node5 -->
<g id="edge4_Node000001_Node000005" class="edge">
<title>Node1&#45;&gt;Node5</title>
<g id="a_edge4_Node000001_Node000005"><a xlink:title=" ">
<path fill="none" stroke="#63b8ff" d="M435.38,-284.11C331.45,-281.56 38.12,-271.61 9.64,-240.25 -25.5,-201.55 47.69,-157.17 92.04,-135.1"/>
<polygon fill="#63b8ff" stroke="#63b8ff" points="93.51,-138.28 100.98,-130.77 90.46,-131.98 93.51,-138.28"/>
</a>
</g>
</g>
<!-- Node6 -->
<g id="Node000006" class="node">
<title>Node6</title>
<g id="a_Node000006"><a xlink:title=" ">
<polygon fill="#e0e0e0" stroke="#999999" points="415.14,-129.75 330.14,-129.75 330.14,-110.5 415.14,-110.5 415.14,-129.75"/>
<text text-anchor="middle" x="372.64" y="-116.25" font-family="Helvetica,sans-Serif" font-size="10.00">mcp2515_can.h</text>
</a>
</g>
</g>
<!-- Node1&#45;&gt;Node6 -->
<g id="edge5_Node000001_Node000006" class="edge">
<title>Node1&#45;&gt;Node6</title>
<g id="a_edge5_Node000001_Node000006"><a xlink:title=" ">
<path fill="none" stroke="#63b8ff" d="M435.17,-283.19C377.04,-279.64 267.48,-269.21 243.64,-240.25 208.43,-197.47 288.24,-155.39 337.5,-134.58"/>
<polygon fill="#63b8ff" stroke="#63b8ff" points="338.77,-137.84 346.69,-130.81 336.11,-131.37 338.77,-137.84"/>
</a>
</g>
</g>
<!-- Node7 -->
<g id="Node000007" class="node">
<title>Node7</title>
<g id="a_Node000007"><a xlink:title=" ">
<polygon fill="#e0e0e0" stroke="#999999" points="340.14,-240.25 261.14,-240.25 261.14,-221 340.14,-221 340.14,-240.25"/>
<text text-anchor="middle" x="300.64" y="-226.75" font-family="Helvetica,sans-Serif" font-size="10.00">esp_adc_cal.h</text>
</a>
</g>
</g>
<!-- Node1&#45;&gt;Node7 -->
<g id="edge6_Node000001_Node000007" class="edge">
<title>Node1&#45;&gt;Node7</title>
<g id="a_edge6_Node000001_Node000007"><a xlink:title=" ">
<path fill="none" stroke="#63b8ff" d="M442.64,-275.84C414.63,-267.12 371.99,-253.84 340.74,-244.11"/>
<polygon fill="#63b8ff" stroke="#63b8ff" points="341.83,-240.78 331.24,-241.15 339.75,-247.47 341.83,-240.78"/>
</a>
</g>
</g>
<!-- Node8 -->
<g id="Node000008" class="node">
<title>Node8</title>
<g id="a_Node000008"><a xlink:title=" ">
<polygon fill="#e0e0e0" stroke="#999999" points="443.14,-240.25 358.14,-240.25 358.14,-221 443.14,-221 443.14,-240.25"/>
<text text-anchor="middle" x="400.64" y="-226.75" font-family="Helvetica,sans-Serif" font-size="10.00">esp32&#45;hal&#45;adc.h</text>
</a>
</g>
</g>
<!-- Node1&#45;&gt;Node8 -->
<g id="edge7_Node000001_Node000008" class="edge">
<title>Node1&#45;&gt;Node8</title>
<g id="a_edge7_Node000001_Node000008"><a xlink:title=" ">
<path fill="none" stroke="#63b8ff" d="M459.6,-275.84C449.23,-268.07 434.04,-256.67 421.68,-247.4"/>
<polygon fill="#63b8ff" stroke="#63b8ff" points="423.82,-244.63 413.72,-241.43 419.62,-250.23 423.82,-244.63"/>
</a>
</g>
</g>
<!-- Node9 -->
<g id="Node000009" class="node">
<title>Node9</title>
<g id="a_Node000009"><a xlink:title=" ">
<polygon fill="#e0e0e0" stroke="#999999" points="1084.52,-129.75 1016.77,-129.75 1016.77,-110.5 1084.52,-110.5 1084.52,-129.75"/>
<text text-anchor="middle" x="1050.64" y="-116.25" font-family="Helvetica,sans-Serif" font-size="10.00">ADS1X15.h</text>
</a>
</g>
</g>
<!-- Node1&#45;&gt;Node9 -->
<g id="edge8_Node000001_Node000009" class="edge">
<title>Node1&#45;&gt;Node9</title>
<g id="a_edge8_Node000001_Node000009"><a xlink:title=" ">
<path fill="none" stroke="#63b8ff" d="M508,-283.25C618.86,-277.55 949.77,-254.9 1026.64,-185 1039.12,-173.66 1045.14,-155.19 1048.03,-141.02"/>
<polygon fill="#63b8ff" stroke="#63b8ff" points="1051.43,-141.89 1049.6,-131.45 1044.52,-140.76 1051.43,-141.89"/>
</a>
</g>
</g>
<!-- Node10 -->
<g id="Node000010" class="node">
<title>Node10</title>
<g id="a_Node000010"><a xlink:title=" ">
<polygon fill="#e0e0e0" stroke="#999999" points="567.14,-240.25 500.14,-240.25 500.14,-221 567.14,-221 567.14,-240.25"/>
<text text-anchor="middle" x="533.64" y="-226.75" font-family="Helvetica,sans-Serif" font-size="10.00">AD5593R.h</text>
</a>
</g>
</g>
<!-- Node1&#45;&gt;Node10 -->
<g id="edge9_Node000001_Node000010" class="edge">
<title>Node1&#45;&gt;Node10</title>
<g id="a_edge9_Node000001_Node000010"><a xlink:title=" ">
<path fill="none" stroke="#63b8ff" d="M482.16,-275.84C491.03,-268.22 503.95,-257.12 514.63,-247.95"/>
<polygon fill="#63b8ff" stroke="#63b8ff" points="516.83,-250.68 522.13,-241.51 512.27,-245.37 516.83,-250.68"/>
</a>
</g>
</g>
<!-- Node11 -->
<g id="Node000011" class="node">
<title>Node11</title>
<g id="a_Node000011"><a xlink:href="state__manager_8h.html" target="_top" xlink:title="Vehicle State Management System.">
<polygon fill="white" stroke="#666666" points="673.64,-129.75 585.64,-129.75 585.64,-110.5 673.64,-110.5 673.64,-129.75"/>
<text text-anchor="middle" x="629.64" y="-116.25" font-family="Helvetica,sans-Serif" font-size="10.00">state_manager.h</text>
</a>
</g>
</g>
<!-- Node1&#45;&gt;Node11 -->
<g id="edge10_Node000001_Node000011" class="edge">
<title>Node1&#45;&gt;Node11</title>
<g id="a_edge10_Node000001_Node000011"><a xlink:title=" ">
<path fill="none" stroke="#63b8ff" d="M508.06,-276.66C530.25,-270.04 557.86,-258.72 576.64,-240.25 604.8,-212.56 619.19,-167.29 625.51,-141.26"/>
<polygon fill="#63b8ff" stroke="#63b8ff" points="628.89,-142.19 627.65,-131.66 622.05,-140.66 628.89,-142.19"/>
</a>
</g>
</g>
<!-- Node12 -->
<g id="Node000012" class="node">
<title>Node12</title>
<g id="a_Node000012"><a xlink:href="config_8h.html" target="_top" xlink:title=" ">
<polygon fill="white" stroke="#666666" points="521.89,-74.5 471.39,-74.5 471.39,-55.25 521.89,-55.25 521.89,-74.5"/>
<text text-anchor="middle" x="496.64" y="-61" font-family="Helvetica,sans-Serif" font-size="10.00">config.h</text>
</a>
</g>
</g>
<!-- Node1&#45;&gt;Node12 -->
<g id="edge35_Node000001_Node000012" class="edge">
<title>Node1&#45;&gt;Node12</title>
<g id="a_edge35_Node000001_Node000012"><a xlink:title=" ">
<path fill="none" stroke="#63b8ff" d="M470.85,-275.79C469.3,-262.59 464.87,-237.86 452.64,-221 407.72,-159.07 273.66,-170.88 320.64,-110.5 337.52,-88.82 413.02,-75.97 459.48,-69.98"/>
<polygon fill="#63b8ff" stroke="#63b8ff" points="459.9,-73.46 469.4,-68.76 459.04,-66.51 459.9,-73.46"/>
</a>
</g>
</g>
<!-- Node14 -->
<g id="Node000014" class="node">
<title>Node14</title>
<g id="a_Node000014"><a xlink:href="can__manager_8h.html" target="_top" xlink:title="CAN Communication Manager for Vehicle Control System.">
<polygon fill="white" stroke="#666666" points="522.64,-185 440.64,-185 440.64,-165.75 522.64,-165.75 522.64,-185"/>
<text text-anchor="middle" x="481.64" y="-171.5" font-family="Helvetica,sans-Serif" font-size="10.00">can_manager.h</text>
</a>
</g>
</g>
<!-- Node1&#45;&gt;Node14 -->
<g id="edge15_Node000001_Node000014" class="edge">
<title>Node1&#45;&gt;Node14</title>
<g id="a_edge15_Node000001_Node000014"><a xlink:title=" ">
<path fill="none" stroke="#63b8ff" d="M435.07,-282.89C378.63,-278.98 274.4,-268.08 251.64,-240.25 246.23,-233.63 246.2,-227.6 251.64,-221 273.71,-194.25 368.41,-183.33 429.21,-179.03"/>
<polygon fill="#63b8ff" stroke="#63b8ff" points="429.26,-182.53 439,-178.38 428.79,-175.55 429.26,-182.53"/>
</a>
</g>
</g>
<!-- Node15 -->
<g id="Node000015" class="node">
<title>Node15</title>
<g id="a_Node000015"><a xlink:href="vehicle__control_8h.html" target="_top" xlink:title="Vehicle Control System for Electric Vehicle.">
<polygon fill="white" stroke="#666666" points="834.39,-185 744.89,-185 744.89,-165.75 834.39,-165.75 834.39,-185"/>
<text text-anchor="middle" x="789.64" y="-171.5" font-family="Helvetica,sans-Serif" font-size="10.00">vehicle_control.h</text>
</a>
</g>
</g>
<!-- Node1&#45;&gt;Node15 -->
<g id="edge22_Node000001_Node000015" class="edge">
<title>Node1&#45;&gt;Node15</title>
<g id="a_edge22_Node000001_Node000015"><a xlink:title=" ">
<path fill="none" stroke="#63b8ff" d="M507.9,-284.45C557.82,-282.53 649.38,-274.19 718.64,-240.25 741.36,-229.12 762.22,-208.56 775.37,-193.78"/>
<polygon fill="#63b8ff" stroke="#63b8ff" points="778.01,-196.07 781.85,-186.2 772.69,-191.52 778.01,-196.07"/>
</a>
</g>
</g>
<!-- Node18 -->
<g id="Node000018" class="node">
<title>Node18</title>
<g id="a_Node000018"><a xlink:href="setup_8h.html" target="_top" xlink:title="System Initialization and Safety Configuration.">
<polygon fill="white" stroke="#666666" points="813.77,-240.25 765.52,-240.25 765.52,-221 813.77,-221 813.77,-240.25"/>
<text text-anchor="middle" x="789.64" y="-226.75" font-family="Helvetica,sans-Serif" font-size="10.00">setup.h</text>
</a>
</g>
</g>
<!-- Node1&#45;&gt;Node18 -->
<g id="edge29_Node000001_Node000018" class="edge">
<title>Node1&#45;&gt;Node18</title>
<g id="a_edge29_Node000001_Node000018"><a xlink:title=" ">
<path fill="none" stroke="#63b8ff" d="M508.02,-279.85C561.56,-272.28 664.64,-257.04 751.64,-240.25 752.47,-240.09 753.3,-239.93 754.13,-239.76"/>
<polygon fill="#63b8ff" stroke="#63b8ff" points="754.62,-243.23 763.68,-237.74 753.17,-236.39 754.62,-243.23"/>
</a>
</g>
</g>
<!-- Node19 -->
<g id="Node000019" class="node">
<title>Node19</title>
<g id="a_Node000019"><a xlink:href="_serial_console_8h.html" target="_top" xlink:title="Debug Console Interface for Vehicle Control System.">
<polygon fill="white" stroke="#666666" points="709.14,-240.25 624.14,-240.25 624.14,-221 709.14,-221 709.14,-240.25"/>
<text text-anchor="middle" x="666.64" y="-226.75" font-family="Helvetica,sans-Serif" font-size="10.00">SerialConsole.h</text>
</a>
</g>
</g>
<!-- Node1&#45;&gt;Node19 -->
<g id="edge36_Node000001_Node000019" class="edge">
<title>Node1&#45;&gt;Node19</title>
<g id="a_edge36_Node000001_Node000019"><a xlink:title=" ">
<path fill="none" stroke="#63b8ff" d="M504.72,-275.84C537.08,-267.01 586.57,-253.49 622.32,-243.73"/>
<polygon fill="#63b8ff" stroke="#63b8ff" points="623.22,-247.11 631.94,-241.1 621.37,-240.36 623.22,-247.11"/>
</a>
</g>
</g>
<!-- Node11&#45;&gt;Node2 -->
<g id="edge11_Node000011_Node000002" class="edge">
<title>Node11&#45;&gt;Node2</title>
<g id="a_edge11_Node000011_Node000002"><a xlink:title=" ">
<path fill="none" stroke="#63b8ff" d="M636.68,-110.25C650.79,-92.44 682.78,-52.08 701.43,-28.56"/>
<polygon fill="#63b8ff" stroke="#63b8ff" points="704.1,-30.82 707.57,-20.81 698.61,-26.48 704.1,-30.82"/>
</a>
</g>
</g>
<!-- Node11&#45;&gt;Node12 -->
<g id="edge12_Node000011_Node000012" class="edge">
<title>Node11&#45;&gt;Node12</title>
<g id="a_edge12_Node000011_Node000012"><a xlink:title=" ">
<path fill="none" stroke="#63b8ff" d="M607.08,-110.09C585.87,-101.6 553.87,-88.79 529.77,-79.14"/>
<polygon fill="#63b8ff" stroke="#63b8ff" points="531.31,-75.98 520.72,-75.52 528.7,-82.48 531.31,-75.98"/>
</a>
</g>
</g>
<!-- Node13 -->
<g id="Node000013" class="node">
<title>Node13</title>
<g id="a_Node000013"><a xlink:href="vehicle__parameters_8h.html" target="_top" xlink:title="Vehicle Configuration Parameters and Operating Limits.">
<polygon fill="white" stroke="#666666" points="649.14,-74.5 540.14,-74.5 540.14,-55.25 649.14,-55.25 649.14,-74.5"/>
<text text-anchor="middle" x="594.64" y="-61" font-family="Helvetica,sans-Serif" font-size="10.00">vehicle_parameters.h</text>
</a>
</g>
</g>
<!-- Node11&#45;&gt;Node13 -->
<g id="edge14_Node000011_Node000013" class="edge">
<title>Node11&#45;&gt;Node13</title>
<g id="a_edge14_Node000011_Node000013"><a xlink:title=" ">
<path fill="none" stroke="#63b8ff" d="M623.86,-110.33C619.23,-103.28 612.57,-93.15 606.78,-84.33"/>
<polygon fill="#63b8ff" stroke="#63b8ff" points="609.8,-82.56 601.38,-76.12 603.95,-86.4 609.8,-82.56"/>
</a>
</g>
</g>
<!-- Node12&#45;&gt;Node2 -->
<g id="edge13_Node000012_Node000002" class="edge">
<title>Node12&#45;&gt;Node2</title>
<g id="a_edge13_Node000012_Node000002"><a xlink:title=" ">
<path fill="none" stroke="#63b8ff" d="M522.25,-57.55C525.42,-56.77 528.6,-55.99 531.64,-55.25 581.27,-43.12 638.46,-29.27 675.74,-20.26"/>
<polygon fill="#63b8ff" stroke="#63b8ff" points="676.27,-23.73 685.16,-17.98 674.62,-16.93 676.27,-23.73"/>
</a>
</g>
</g>
<!-- Node14&#45;&gt;Node2 -->
<g id="edge16_Node000014_Node000002" class="edge">
<title>Node14&#45;&gt;Node2</title>
<g id="a_edge16_Node000014_Node000002"><a xlink:title=" ">
<path fill="none" stroke="#63b8ff" d="M476.02,-165.36C463.28,-143.64 435.32,-87.82 462.64,-55.25 489.36,-23.41 611.3,-14.28 675.63,-11.67"/>
<polygon fill="#63b8ff" stroke="#63b8ff" points="675.56,-15.17 685.43,-11.31 675.3,-8.18 675.56,-15.17"/>
</a>
</g>
</g>
<!-- Node14&#45;&gt;Node5 -->
<g id="edge17_Node000014_Node000005" class="edge">
<title>Node14&#45;&gt;Node5</title>
<g id="a_edge17_Node000014_Node000005"><a xlink:title=" ">
<path fill="none" stroke="#63b8ff" d="M440.46,-168.27C368.16,-157.54 219.89,-135.55 154.65,-125.87"/>
<polygon fill="#63b8ff" stroke="#63b8ff" points="155.38,-122.44 144.97,-124.44 154.35,-129.37 155.38,-122.44"/>
</a>
</g>
</g>
<!-- Node14&#45;&gt;Node6 -->
<g id="edge18_Node000014_Node000006" class="edge">
<title>Node14&#45;&gt;Node6</title>
<g id="a_edge18_Node000014_Node000006"><a xlink:title=" ">
<path fill="none" stroke="#63b8ff" d="M463.15,-165.34C446.24,-157.08 420.96,-144.73 401.41,-135.18"/>
<polygon fill="#63b8ff" stroke="#63b8ff" points="403.11,-132.11 392.58,-130.87 400.03,-138.4 403.11,-132.11"/>
</a>
</g>
</g>
<!-- Node14&#45;&gt;Node11 -->
<g id="edge21_Node000014_Node000011" class="edge">
<title>Node14&#45;&gt;Node11</title>
<g id="a_edge21_Node000014_Node000011"><a xlink:title=" ">
<path fill="none" stroke="#63b8ff" d="M506.75,-165.34C530.67,-156.74 566.93,-143.69 593.87,-134"/>
<polygon fill="#63b8ff" stroke="#63b8ff" points="594.77,-137.39 602.99,-130.71 592.4,-130.81 594.77,-137.39"/>
</a>
</g>
</g>
<!-- Node14&#45;&gt;Node12 -->
<g id="edge19_Node000014_Node000012" class="edge">
<title>Node14&#45;&gt;Node12</title>
<g id="a_edge19_Node000014_Node000012"><a xlink:title=" ">
<path fill="none" stroke="#63b8ff" d="M482.87,-165.5C485.26,-148.25 490.57,-109.83 493.85,-86.06"/>
<polygon fill="#63b8ff" stroke="#63b8ff" points="497.29,-86.76 495.19,-76.38 490.36,-85.8 497.29,-86.76"/>
</a>
</g>
</g>
<!-- Node14&#45;&gt;Node13 -->
<g id="edge20_Node000014_Node000013" class="edge">
<title>Node14&#45;&gt;Node13</title>
<g id="a_edge20_Node000014_Node000013"><a xlink:title=" ">
<path fill="none" stroke="#63b8ff" d="M490.89,-165.5C509.76,-147.38 552.98,-105.88 577.26,-82.57"/>
<polygon fill="#63b8ff" stroke="#63b8ff" points="579.39,-85.38 584.18,-75.92 574.54,-80.33 579.39,-85.38"/>
</a>
</g>
</g>
<!-- Node15&#45;&gt;Node2 -->
<g id="edge23_Node000015_Node000002" class="edge">
<title>Node15&#45;&gt;Node2</title>
<g id="a_edge23_Node000015_Node000002"><a xlink:title=" ">
<path fill="none" stroke="#63b8ff" d="M834.89,-170.75C885.24,-164.77 956.47,-149.33 931.64,-110.5 892.83,-49.79 806.64,-25.44 755.65,-16.09"/>
<polygon fill="#63b8ff" stroke="#63b8ff" points="756.35,-12.66 745.9,-14.43 755.17,-19.56 756.35,-12.66"/>
</a>
</g>
</g>
<!-- Node15&#45;&gt;Node9 -->
<g id="edge28_Node000015_Node000009" class="edge">
<title>Node15&#45;&gt;Node9</title>
<g id="a_edge28_Node000015_Node000009"><a xlink:title=" ">
<path fill="none" stroke="#63b8ff" d="M834.21,-165.28C882.06,-155.52 957.66,-140.1 1005.67,-130.3"/>
<polygon fill="#63b8ff" stroke="#63b8ff" points="1006.07,-133.79 1015.17,-128.36 1004.67,-126.93 1006.07,-133.79"/>
</a>
</g>
</g>
<!-- Node15&#45;&gt;Node12 -->
<g id="edge26_Node000015_Node000012" class="edge">
<title>Node15&#45;&gt;Node12</title>
<g id="a_edge26_Node000015_Node000012"><a xlink:title=" ">
<path fill="none" stroke="#63b8ff" d="M777.45,-165.39C758.24,-151.64 719.32,-125.41 682.64,-110.5 621.85,-85.79 600.75,-90.22 533.06,-74.76"/>
<polygon fill="#63b8ff" stroke="#63b8ff" points="534.26,-71.44 523.73,-72.56 532.66,-78.26 534.26,-71.44"/>
</a>
</g>
</g>
<!-- Node15&#45;&gt;Node13 -->
<g id="edge27_Node000015_Node000013" class="edge">
<title>Node15&#45;&gt;Node13</title>
<g id="a_edge27_Node000015_Node000013"><a xlink:title=" ">
<path fill="none" stroke="#63b8ff" d="M787.07,-165.49C782.6,-151.63 772.07,-124.96 753.64,-110.5 727.13,-89.69 691.44,-78.58 660.59,-72.65"/>
<polygon fill="#63b8ff" stroke="#63b8ff" points="661.41,-69.24 650.96,-70.95 660.2,-76.14 661.41,-69.24"/>
</a>
</g>
</g>
<!-- Node16 -->
<g id="Node000016" class="node">
<title>Node16</title>
<g id="a_Node000016"><a xlink:title=" ">
<polygon fill="#e0e0e0" stroke="#999999" points="849.14,-129.75 806.14,-129.75 806.14,-110.5 849.14,-110.5 849.14,-129.75"/>
<text text-anchor="middle" x="827.64" y="-116.25" font-family="Helvetica,sans-Serif" font-size="10.00">cmath</text>
</a>
</g>
</g>
<!-- Node15&#45;&gt;Node16 -->
<g id="edge24_Node000015_Node000016" class="edge">
<title>Node15&#45;&gt;Node16</title>
<g id="a_edge24_Node000015_Node000016"><a xlink:title=" ">
<path fill="none" stroke="#63b8ff" d="M795.92,-165.58C801,-158.46 808.34,-148.18 814.68,-139.3"/>
<polygon fill="#63b8ff" stroke="#63b8ff" points="817.39,-141.51 820.35,-131.34 811.7,-137.45 817.39,-141.51"/>
</a>
</g>
</g>
<!-- Node17 -->
<g id="Node000017" class="node">
<title>Node17</title>
<g id="a_Node000017"><a xlink:title=" ">
<polygon fill="#e0e0e0" stroke="#999999" points="922.52,-129.75 866.77,-129.75 866.77,-110.5 922.52,-110.5 922.52,-129.75"/>
<text text-anchor="middle" x="894.64" y="-116.25" font-family="Helvetica,sans-Serif" font-size="10.00">algorithm</text>
</a>
</g>
</g>
<!-- Node15&#45;&gt;Node17 -->
<g id="edge25_Node000015_Node000017" class="edge">
<title>Node15&#45;&gt;Node17</title>
<g id="a_edge25_Node000015_Node000017"><a xlink:title=" ">
<path fill="none" stroke="#63b8ff" d="M807.46,-165.34C823.67,-157.12 847.88,-144.84 866.67,-135.31"/>
<polygon fill="#63b8ff" stroke="#63b8ff" points="868.06,-138.53 875.39,-130.89 864.89,-132.29 868.06,-138.53"/>
</a>
</g>
</g>
<!-- Node18&#45;&gt;Node2 -->
<g id="edge30_Node000018_Node000002" class="edge">
<title>Node18&#45;&gt;Node2</title>
<g id="a_edge30_Node000018_Node000002"><a xlink:title=" ">
<path fill="none" stroke="#63b8ff" d="M814.21,-223.87C864.66,-210.64 973.2,-174.23 948.64,-110.5 919.92,-35.96 814.81,-16.91 756.06,-12.14"/>
<polygon fill="#63b8ff" stroke="#63b8ff" points="756.35,-8.65 746.13,-11.45 755.86,-15.63 756.35,-8.65"/>
</a>
</g>
</g>
<!-- Node18&#45;&gt;Node9 -->
<g id="edge34_Node000018_Node000009" class="edge">
<title>Node18&#45;&gt;Node9</title>
<g id="a_edge34_Node000018_Node000009"><a xlink:title=" ">
<path fill="none" stroke="#63b8ff" d="M814.06,-229.92C855.93,-229.32 942.71,-223.12 1002.64,-185 1019.81,-174.09 1033.05,-154.72 1041.24,-140.16"/>
<polygon fill="#63b8ff" stroke="#63b8ff" points="1044.23,-142.01 1045.79,-131.53 1038.04,-138.74 1044.23,-142.01"/>
</a>
</g>
</g>
<!-- Node18&#45;&gt;Node11 -->
<g id="edge31_Node000018_Node000011" class="edge">
<title>Node18&#45;&gt;Node11</title>
<g id="a_edge31_Node000018_Node000011"><a xlink:title=" ">
<path fill="none" stroke="#63b8ff" d="M776.28,-220.56C748.91,-202.01 686.25,-159.51 652.38,-136.54"/>
<polygon fill="#63b8ff" stroke="#63b8ff" points="654.35,-133.65 644.11,-130.94 650.42,-139.45 654.35,-133.65"/>
</a>
</g>
</g>
<!-- Node18&#45;&gt;Node14 -->
<g id="edge32_Node000018_Node000014" class="edge">
<title>Node18&#45;&gt;Node14</title>
<g id="a_edge32_Node000018_Node000014"><a xlink:title=" ">
<path fill="none" stroke="#63b8ff" d="M765.22,-225.4C715.52,-216.81 601.65,-197.12 534.3,-185.48"/>
<polygon fill="#63b8ff" stroke="#63b8ff" points="535.04,-182.05 524.59,-183.8 533.85,-188.95 535.04,-182.05"/>
</a>
</g>
</g>
<!-- Node18&#45;&gt;Node15 -->
<g id="edge33_Node000018_Node000015" class="edge">
<title>Node18&#45;&gt;Node15</title>
<g id="a_edge33_Node000018_Node000015"><a xlink:title=" ">
<path fill="none" stroke="#63b8ff" d="M789.64,-220.83C789.64,-214.32 789.64,-205.17 789.64,-196.87"/>
<polygon fill="#63b8ff" stroke="#63b8ff" points="793.14,-196.87 789.64,-186.87 786.14,-196.87 793.14,-196.87"/>
</a>
</g>
</g>
<!-- Node19&#45;&gt;Node2 -->
<g id="edge37_Node000019_Node000002" class="edge">
<title>Node19&#45;&gt;Node2</title>
<g id="a_edge37_Node000019_Node000002"><a xlink:title=" ">
<path fill="none" stroke="#63b8ff" d="M668.62,-220.77C675.86,-188.44 700.95,-76.28 711.22,-30.41"/>
<polygon fill="#63b8ff" stroke="#63b8ff" points="714.59,-31.35 713.36,-20.83 707.76,-29.82 714.59,-31.35"/>
</a>
</g>
</g>
<!-- Node19&#45;&gt;Node11 -->
<g id="edge39_Node000019_Node000011" class="edge">
<title>Node19&#45;&gt;Node11</title>
<g id="a_edge39_Node000019_Node000011"><a xlink:title=" ">
<path fill="none" stroke="#63b8ff" d="M663.62,-220.75C657.71,-203.42 644.51,-164.73 636.42,-140.99"/>
<polygon fill="#63b8ff" stroke="#63b8ff" points="639.74,-139.89 633.2,-131.56 633.12,-142.15 639.74,-139.89"/>
</a>
</g>
</g>
<!-- Node19&#45;&gt;Node12 -->
<g id="edge41_Node000019_Node000012" class="edge">
<title>Node19&#45;&gt;Node12</title>
<g id="a_edge41_Node000019_Node000012"><a xlink:title=" ">
<path fill="none" stroke="#63b8ff" d="M657.5,-220.82C630.29,-194.61 549.49,-116.78 513.86,-82.45"/>
<polygon fill="#63b8ff" stroke="#63b8ff" points="516.55,-80.19 506.92,-75.77 511.69,-85.23 516.55,-80.19"/>
</a>
</g>
</g>
<!-- Node19&#45;&gt;Node14 -->
<g id="edge38_Node000019_Node000014" class="edge">
<title>Node19&#45;&gt;Node14</title>
<g id="a_edge38_Node000019_Node000014"><a xlink:title=" ">
<path fill="none" stroke="#63b8ff" d="M635.26,-220.59C604.7,-211.79 558.02,-198.36 524.14,-188.61"/>
<polygon fill="#63b8ff" stroke="#63b8ff" points="525.21,-185.27 514.63,-185.87 523.28,-192 525.21,-185.27"/>
</a>
</g>
</g>
<!-- Node19&#45;&gt;Node15 -->
<g id="edge40_Node000019_Node000015" class="edge">
<title>Node19&#45;&gt;Node15</title>
<g id="a_edge40_Node000019_Node000015"><a xlink:title=" ">
<path fill="none" stroke="#63b8ff" d="M687.51,-220.59C706.95,-212.18 736.19,-199.52 758.41,-189.9"/>
<polygon fill="#63b8ff" stroke="#63b8ff" points="759.5,-193.24 767.29,-186.05 756.72,-186.81 759.5,-193.24"/>
</a>
</g>
</g>
</g>
</svg>
