<?xml version="1.0" encoding="UTF-8" standalone="no"?>
<!DOCTYPE svg PUBLIC "-//W3C//DTD SVG 1.1//EN"
 "http://www.w3.org/Graphics/SVG/1.1/DTD/svg11.dtd">
<!-- Generated by graphviz version 12.2.0 (20241103.1931)
 -->
<!-- Title: include/setup.h Pages: 1 -->
<svg width="540pt" height="248pt"
 viewBox="0.00 0.00 539.70 248.25" xmlns="http://www.w3.org/2000/svg" xmlns:xlink="http://www.w3.org/1999/xlink">
<g id="graph0" class="graph" transform="scale(1 1) rotate(0) translate(4 244.25)">
<title>include/setup.h</title>
<!-- Node1 -->
<g id="Node000001" class="node">
<title>Node1</title>
<g id="a_Node000001"><a xlink:title="System Initialization and Safety Configuration.">
<polygon fill="#999999" stroke="#666666" points="232.82,-240.25 150.82,-240.25 150.82,-221 232.82,-221 232.82,-240.25"/>
<text text-anchor="middle" x="191.82" y="-226.75" font-family="Helvetica,sans-Serif" font-size="10.00">include/setup.h</text>
</a>
</g>
</g>
<!-- Node2 -->
<g id="Node000002" class="node">
<title>Node2</title>
<g id="a_Node000002"><a xlink:title=" ">
<polygon fill="#e0e0e0" stroke="#999999" points="95.45,-19.25 38.2,-19.25 38.2,0 95.45,0 95.45,-19.25"/>
<text text-anchor="middle" x="66.82" y="-5.75" font-family="Helvetica,sans-Serif" font-size="10.00">Arduino.h</text>
</a>
</g>
</g>
<!-- Node1&#45;&gt;Node2 -->
<g id="edge1_Node000001_Node000002" class="edge">
<title>Node1&#45;&gt;Node2</title>
<g id="a_edge1_Node000001_Node000002"><a xlink:title=" ">
<path fill="none" stroke="#63b8ff" d="M150.39,-220.7C105.54,-208.59 36.24,-182.15 4.82,-129.75 -3.72,-115.5 -0.06,-78.18 12.82,-55.25 19.42,-43.52 30.4,-33.59 40.74,-26.1"/>
<polygon fill="#63b8ff" stroke="#63b8ff" points="42.69,-29.01 49.04,-20.53 38.79,-23.2 42.69,-29.01"/>
</a>
</g>
</g>
<!-- Node3 -->
<g id="Node000003" class="node">
<title>Node3</title>
<g id="a_Node000003"><a xlink:href="state__manager_8h.html" target="_top" xlink:title="Vehicle State Management System.">
<polygon fill="white" stroke="#666666" points="113.82,-129.75 25.82,-129.75 25.82,-110.5 113.82,-110.5 113.82,-129.75"/>
<text text-anchor="middle" x="69.82" y="-116.25" font-family="Helvetica,sans-Serif" font-size="10.00">state_manager.h</text>
</a>
</g>
</g>
<!-- Node1&#45;&gt;Node3 -->
<g id="edge2_Node000001_Node000003" class="edge">
<title>Node1&#45;&gt;Node3</title>
<g id="a_edge2_Node000001_Node000003"><a xlink:title=" ">
<path fill="none" stroke="#63b8ff" d="M181.84,-220.75C161.38,-202.55 114.4,-160.77 88.25,-137.51"/>
<polygon fill="#63b8ff" stroke="#63b8ff" points="90.88,-135.16 81.08,-131.13 86.22,-140.39 90.88,-135.16"/>
</a>
</g>
</g>
<!-- Node6 -->
<g id="Node000006" class="node">
<title>Node6</title>
<g id="a_Node000006"><a xlink:href="can__manager_8h.html" target="_top" xlink:title="CAN Communication Manager for Vehicle Control System.">
<polygon fill="white" stroke="#666666" points="232.82,-185 150.82,-185 150.82,-165.75 232.82,-165.75 232.82,-185"/>
<text text-anchor="middle" x="191.82" y="-171.5" font-family="Helvetica,sans-Serif" font-size="10.00">can_manager.h</text>
</a>
</g>
</g>
<!-- Node1&#45;&gt;Node6 -->
<g id="edge7_Node000001_Node000006" class="edge">
<title>Node1&#45;&gt;Node6</title>
<g id="a_edge7_Node000001_Node000006"><a xlink:title=" ">
<path fill="none" stroke="#63b8ff" d="M191.82,-220.83C191.82,-214.32 191.82,-205.17 191.82,-196.87"/>
<polygon fill="#63b8ff" stroke="#63b8ff" points="195.32,-196.87 191.82,-186.87 188.32,-196.87 195.32,-196.87"/>
</a>
</g>
</g>
<!-- Node9 -->
<g id="Node000009" class="node">
<title>Node9</title>
<g id="a_Node000009"><a xlink:href="vehicle__control_8h.html" target="_top" xlink:title="Vehicle Control System for Electric Vehicle.">
<polygon fill="white" stroke="#666666" points="459.57,-129.75 370.07,-129.75 370.07,-110.5 459.57,-110.5 459.57,-129.75"/>
<text text-anchor="middle" x="414.82" y="-116.25" font-family="Helvetica,sans-Serif" font-size="10.00">vehicle_control.h</text>
</a>
</g>
</g>
<!-- Node1&#45;&gt;Node9 -->
<g id="edge14_Node000001_Node000009" class="edge">
<title>Node1&#45;&gt;Node9</title>
<g id="a_edge14_Node000001_Node000009"><a xlink:title=" ">
<path fill="none" stroke="#63b8ff" d="M210.45,-220.56C249.31,-201.65 339.27,-157.89 385.79,-135.25"/>
<polygon fill="#63b8ff" stroke="#63b8ff" points="387.27,-138.42 394.73,-130.9 384.21,-132.13 387.27,-138.42"/>
</a>
</g>
</g>
<!-- Node12 -->
<g id="Node000012" class="node">
<title>Node12</title>
<g id="a_Node000012"><a xlink:title=" ">
<polygon fill="#e0e0e0" stroke="#999999" points="531.7,-74.5 463.95,-74.5 463.95,-55.25 531.7,-55.25 531.7,-74.5"/>
<text text-anchor="middle" x="497.82" y="-61" font-family="Helvetica,sans-Serif" font-size="10.00">ADS1X15.h</text>
</a>
</g>
</g>
<!-- Node1&#45;&gt;Node12 -->
<g id="edge21_Node000001_Node000012" class="edge">
<title>Node1&#45;&gt;Node12</title>
<g id="a_edge21_Node000001_Node000012"><a xlink:title=" ">
<path fill="none" stroke="#63b8ff" d="M233.22,-224.91C292.43,-216.14 401.54,-192.14 468.82,-129.75 481.53,-117.97 489.07,-99.54 493.27,-85.51"/>
<polygon fill="#63b8ff" stroke="#63b8ff" points="496.6,-86.6 495.75,-76.04 489.83,-84.82 496.6,-86.6"/>
</a>
</g>
</g>
<!-- Node3&#45;&gt;Node2 -->
<g id="edge3_Node000003_Node000002" class="edge">
<title>Node3&#45;&gt;Node2</title>
<g id="a_edge3_Node000003_Node000002"><a xlink:title=" ">
<path fill="none" stroke="#63b8ff" d="M69.58,-110.25C69.1,-93 68.04,-54.58 67.38,-30.81"/>
<polygon fill="#63b8ff" stroke="#63b8ff" points="70.89,-31.04 67.11,-21.14 63.89,-31.23 70.89,-31.04"/>
</a>
</g>
</g>
<!-- Node4 -->
<g id="Node000004" class="node">
<title>Node4</title>
<g id="a_Node000004"><a xlink:href="config_8h.html" target="_top" xlink:title=" ">
<polygon fill="white" stroke="#666666" points="273.07,-74.5 222.57,-74.5 222.57,-55.25 273.07,-55.25 273.07,-74.5"/>
<text text-anchor="middle" x="247.82" y="-61" font-family="Helvetica,sans-Serif" font-size="10.00">config.h</text>
</a>
</g>
</g>
<!-- Node3&#45;&gt;Node4 -->
<g id="edge4_Node000003_Node000004" class="edge">
<title>Node3&#45;&gt;Node4</title>
<g id="a_edge4_Node000003_Node000004"><a xlink:title=" ">
<path fill="none" stroke="#63b8ff" d="M100.02,-110.09C130.72,-100.91 178.31,-86.67 211.16,-76.84"/>
<polygon fill="#63b8ff" stroke="#63b8ff" points="212.08,-80.22 220.66,-74 210.08,-73.51 212.08,-80.22"/>
</a>
</g>
</g>
<!-- Node5 -->
<g id="Node000005" class="node">
<title>Node5</title>
<g id="a_Node000005"><a xlink:href="vehicle__parameters_8h.html" target="_top" xlink:title="Vehicle Configuration Parameters and Operating Limits.">
<polygon fill="white" stroke="#666666" points="204.32,-74.5 95.32,-74.5 95.32,-55.25 204.32,-55.25 204.32,-74.5"/>
<text text-anchor="middle" x="149.82" y="-61" font-family="Helvetica,sans-Serif" font-size="10.00">vehicle_parameters.h</text>
</a>
</g>
</g>
<!-- Node3&#45;&gt;Node5 -->
<g id="edge6_Node000003_Node000005" class="edge">
<title>Node3&#45;&gt;Node5</title>
<g id="a_edge6_Node000003_Node000005"><a xlink:title=" ">
<path fill="none" stroke="#63b8ff" d="M83.39,-110.09C95.23,-102.21 112.66,-90.61 126.7,-81.27"/>
<polygon fill="#63b8ff" stroke="#63b8ff" points="128.54,-84.25 134.93,-75.79 124.66,-78.42 128.54,-84.25"/>
</a>
</g>
</g>
<!-- Node4&#45;&gt;Node2 -->
<g id="edge5_Node000004_Node000002" class="edge">
<title>Node4&#45;&gt;Node2</title>
<g id="a_edge5_Node000004_Node000002"><a xlink:title=" ">
<path fill="none" stroke="#63b8ff" d="M222.27,-56.36C192.2,-47.51 141.91,-32.71 106.69,-22.35"/>
<polygon fill="#63b8ff" stroke="#63b8ff" points="107.87,-19.05 97.29,-19.59 105.89,-25.77 107.87,-19.05"/>
</a>
</g>
</g>
<!-- Node6&#45;&gt;Node2 -->
<g id="edge8_Node000006_Node000002" class="edge">
<title>Node6&#45;&gt;Node2</title>
<g id="a_edge8_Node000006_Node000002"><a xlink:title=" ">
<path fill="none" stroke="#63b8ff" d="M150.56,-169.67C104.14,-163.42 33.08,-150.67 16.82,-129.75 -7.93,-97.89 26.8,-51.98 49.64,-27.5"/>
<polygon fill="#63b8ff" stroke="#63b8ff" points="51.87,-30.22 56.32,-20.6 46.85,-25.34 51.87,-30.22"/>
</a>
</g>
</g>
<!-- Node6&#45;&gt;Node3 -->
<g id="edge13_Node000006_Node000003" class="edge">
<title>Node6&#45;&gt;Node3</title>
<g id="a_edge13_Node000006_Node000003"><a xlink:title=" ">
<path fill="none" stroke="#63b8ff" d="M171.13,-165.34C151.94,-156.97 123.11,-144.38 101.11,-134.78"/>
<polygon fill="#63b8ff" stroke="#63b8ff" points="102.57,-131.6 92.01,-130.81 99.77,-138.02 102.57,-131.6"/>
</a>
</g>
</g>
<!-- Node6&#45;&gt;Node4 -->
<g id="edge11_Node000006_Node000004" class="edge">
<title>Node6&#45;&gt;Node4</title>
<g id="a_edge11_Node000006_Node000004"><a xlink:title=" ">
<path fill="none" stroke="#63b8ff" d="M233.18,-168.88C257.27,-163.33 285.78,-152.16 300.82,-129.75 312.72,-112.02 293.09,-93.42 274.44,-80.89"/>
<polygon fill="#63b8ff" stroke="#63b8ff" points="276.57,-78.09 266.24,-75.73 272.84,-84.02 276.57,-78.09"/>
</a>
</g>
</g>
<!-- Node6&#45;&gt;Node5 -->
<g id="edge12_Node000006_Node000005" class="edge">
<title>Node6&#45;&gt;Node5</title>
<g id="a_edge12_Node000006_Node000005"><a xlink:title=" ">
<path fill="none" stroke="#63b8ff" d="M227.75,-165.27C261.23,-154.97 303.41,-136.22 284.82,-110.5 275.15,-97.11 238.68,-85.52 206.08,-77.51"/>
<polygon fill="#63b8ff" stroke="#63b8ff" points="207.23,-74.19 196.69,-75.28 205.61,-81 207.23,-74.19"/>
</a>
</g>
</g>
<!-- Node7 -->
<g id="Node000007" class="node">
<title>Node7</title>
<g id="a_Node000007"><a xlink:title=" ">
<polygon fill="#e0e0e0" stroke="#999999" points="172.2,-129.75 131.45,-129.75 131.45,-110.5 172.2,-110.5 172.2,-129.75"/>
<text text-anchor="middle" x="151.82" y="-116.25" font-family="Helvetica,sans-Serif" font-size="10.00">SPI.h</text>
</a>
</g>
</g>
<!-- Node6&#45;&gt;Node7 -->
<g id="edge9_Node000006_Node000007" class="edge">
<title>Node6&#45;&gt;Node7</title>
<g id="a_edge9_Node000006_Node000007"><a xlink:title=" ">
<path fill="none" stroke="#63b8ff" d="M185.22,-165.58C179.87,-158.46 172.14,-148.18 165.47,-139.3"/>
<polygon fill="#63b8ff" stroke="#63b8ff" points="168.29,-137.21 159.48,-131.32 162.69,-141.42 168.29,-137.21"/>
</a>
</g>
</g>
<!-- Node8 -->
<g id="Node000008" class="node">
<title>Node8</title>
<g id="a_Node000008"><a xlink:title=" ">
<polygon fill="#e0e0e0" stroke="#999999" points="275.32,-129.75 190.32,-129.75 190.32,-110.5 275.32,-110.5 275.32,-129.75"/>
<text text-anchor="middle" x="232.82" y="-116.25" font-family="Helvetica,sans-Serif" font-size="10.00">mcp2515_can.h</text>
</a>
</g>
</g>
<!-- Node6&#45;&gt;Node8 -->
<g id="edge10_Node000006_Node000008" class="edge">
<title>Node6&#45;&gt;Node8</title>
<g id="a_edge10_Node000006_Node000008"><a xlink:title=" ">
<path fill="none" stroke="#63b8ff" d="M198.59,-165.58C204.14,-158.38 212.17,-147.96 219.05,-139.01"/>
<polygon fill="#63b8ff" stroke="#63b8ff" points="221.66,-141.37 224.98,-131.31 216.11,-137.1 221.66,-141.37"/>
</a>
</g>
</g>
<!-- Node9&#45;&gt;Node2 -->
<g id="edge15_Node000009_Node000002" class="edge">
<title>Node9&#45;&gt;Node2</title>
<g id="a_edge15_Node000009_Node000002"><a xlink:title=" ">
<path fill="none" stroke="#63b8ff" d="M395.7,-110.15C376.68,-101.2 346.68,-87.02 320.82,-74.5 303.43,-66.08 300.1,-61.54 281.82,-55.25 222.56,-34.84 150.73,-22.24 106.92,-15.84"/>
<polygon fill="#63b8ff" stroke="#63b8ff" points="107.51,-12.38 97.11,-14.44 106.52,-19.32 107.51,-12.38"/>
</a>
</g>
</g>
<!-- Node9&#45;&gt;Node4 -->
<g id="edge18_Node000009_Node000004" class="edge">
<title>Node9&#45;&gt;Node4</title>
<g id="a_edge18_Node000009_Node000004"><a xlink:title=" ">
<path fill="none" stroke="#63b8ff" d="M386.49,-110.09C358.32,-101.11 314.96,-87.28 284.24,-77.49"/>
<polygon fill="#63b8ff" stroke="#63b8ff" points="285.58,-74.24 274.99,-74.54 283.45,-80.91 285.58,-74.24"/>
</a>
</g>
</g>
<!-- Node9&#45;&gt;Node5 -->
<g id="edge19_Node000009_Node000005" class="edge">
<title>Node9&#45;&gt;Node5</title>
<g id="a_edge19_Node000009_Node000005"><a xlink:title=" ">
<path fill="none" stroke="#63b8ff" d="M369.87,-110.09C324.66,-101.01 254.84,-86.98 206.01,-77.16"/>
<polygon fill="#63b8ff" stroke="#63b8ff" points="206.98,-73.79 196.48,-75.25 205.6,-80.65 206.98,-73.79"/>
</a>
</g>
</g>
<!-- Node10 -->
<g id="Node000010" class="node">
<title>Node10</title>
<g id="a_Node000010"><a xlink:title=" ">
<polygon fill="#e0e0e0" stroke="#999999" points="372.32,-74.5 329.32,-74.5 329.32,-55.25 372.32,-55.25 372.32,-74.5"/>
<text text-anchor="middle" x="350.82" y="-61" font-family="Helvetica,sans-Serif" font-size="10.00">cmath</text>
</a>
</g>
</g>
<!-- Node9&#45;&gt;Node10 -->
<g id="edge16_Node000009_Node000010" class="edge">
<title>Node9&#45;&gt;Node10</title>
<g id="a_edge16_Node000009_Node000010"><a xlink:title=" ">
<path fill="none" stroke="#63b8ff" d="M403.97,-110.09C394.72,-102.4 381.2,-91.15 370.11,-81.93"/>
<polygon fill="#63b8ff" stroke="#63b8ff" points="372.61,-79.45 362.68,-75.74 368.13,-84.83 372.61,-79.45"/>
</a>
</g>
</g>
<!-- Node11 -->
<g id="Node000011" class="node">
<title>Node11</title>
<g id="a_Node000011"><a xlink:title=" ">
<polygon fill="#e0e0e0" stroke="#999999" points="445.7,-74.5 389.95,-74.5 389.95,-55.25 445.7,-55.25 445.7,-74.5"/>
<text text-anchor="middle" x="417.82" y="-61" font-family="Helvetica,sans-Serif" font-size="10.00">algorithm</text>
</a>
</g>
</g>
<!-- Node9&#45;&gt;Node11 -->
<g id="edge17_Node000009_Node000011" class="edge">
<title>Node9&#45;&gt;Node11</title>
<g id="a_edge17_Node000009_Node000011"><a xlink:title=" ">
<path fill="none" stroke="#63b8ff" d="M415.32,-110.33C415.69,-103.74 416.21,-94.46 416.69,-86.07"/>
<polygon fill="#63b8ff" stroke="#63b8ff" points="420.16,-86.55 417.23,-76.37 413.18,-86.16 420.16,-86.55"/>
</a>
</g>
</g>
<!-- Node9&#45;&gt;Node12 -->
<g id="edge20_Node000009_Node000012" class="edge">
<title>Node9&#45;&gt;Node12</title>
<g id="a_edge20_Node000009_Node000012"><a xlink:title=" ">
<path fill="none" stroke="#63b8ff" d="M428.9,-110.09C441.3,-102.14 459.62,-90.39 474.25,-81"/>
<polygon fill="#63b8ff" stroke="#63b8ff" points="475.87,-84.12 482.4,-75.77 472.09,-78.22 475.87,-84.12"/>
</a>
</g>
</g>
</g>
</svg>
