<?xml version="1.0" encoding="UTF-8" standalone="no"?>
<!DOCTYPE svg PUBLIC "-//W3C//DTD SVG 1.1//EN"
 "http://www.w3.org/Graphics/SVG/1.1/DTD/svg11.dtd">
<!-- Generated by graphviz version 12.2.0 (20241103.1931)
 -->
<!-- Title: include/state_manager.h Pages: 1 -->
<svg width="509pt" height="193pt"
 viewBox="0.00 0.00 508.50 193.00" xmlns="http://www.w3.org/2000/svg" xmlns:xlink="http://www.w3.org/1999/xlink">
<g id="graph0" class="graph" transform="scale(1 1) rotate(0) translate(4 189)">
<title>include/state_manager.h</title>
<!-- Node1 -->
<g id="Node000001" class="node">
<title>Node1</title>
<g id="a_Node000001"><a xlink:title="Vehicle State Management System.">
<polygon fill="#999999" stroke="#666666" points="336.88,-185 215.12,-185 215.12,-165.75 336.88,-165.75 336.88,-185"/>
<text text-anchor="middle" x="276" y="-171.5" font-family="Helvetica,sans-Serif" font-size="10.00">include/state_manager.h</text>
</a>
</g>
</g>
<!-- Node2 -->
<g id="Node000002" class="node">
<title>Node2</title>
<g id="a_Node000002"><a xlink:href="_serial_console_8h.html" target="_top" xlink:title="Debug Console Interface for Vehicle Control System.">
<polygon fill="white" stroke="#666666" points="119.38,-74.5 0.62,-74.5 0.62,-55.25 119.38,-55.25 119.38,-74.5"/>
<text text-anchor="middle" x="60" y="-61" font-family="Helvetica,sans-Serif" font-size="10.00">include/SerialConsole.h</text>
</a>
</g>
</g>
<!-- Node1&#45;&gt;Node2 -->
<g id="edge1_Node000001_Node000002" class="edge">
<title>Node1&#45;&gt;Node2</title>
<g id="a_edge1_Node000001_Node000002"><a xlink:title=" ">
<path fill="none" stroke="#63b8ff" d="M219.63,-162.57C192.36,-155.44 159.82,-144.78 133,-129.75 105.97,-114.61 80.08,-88.23 67.66,-74.6"/>
<polygon fill="#63b8ff" stroke="#63b8ff" points="218.54,-165.9 229.1,-164.95 220.25,-159.12 218.54,-165.9"/>
</a>
</g>
</g>
<!-- Node4 -->
<g id="Node000004" class="node">
<title>Node4</title>
<g id="a_Node000004"><a xlink:href="main_8cpp.html" target="_top" xlink:title="Main Vehicle Control Unit (VCU) Program.">
<polygon fill="white" stroke="#666666" points="202.12,-19.25 129.88,-19.25 129.88,0 202.12,0 202.12,-19.25"/>
<text text-anchor="middle" x="166" y="-5.75" font-family="Helvetica,sans-Serif" font-size="10.00">src/main.cpp</text>
</a>
</g>
</g>
<!-- Node1&#45;&gt;Node4 -->
<g id="edge13_Node000001_Node000004" class="edge">
<title>Node1&#45;&gt;Node4</title>
<g id="a_edge13_Node000001_Node000004"><a xlink:title=" ">
<path fill="none" stroke="#63b8ff" d="M209.74,-161.61C192.67,-155 176.25,-144.97 166,-129.75 142.66,-95.1 156.15,-40.96 162.88,-19.66"/>
<polygon fill="#63b8ff" stroke="#63b8ff" points="208.37,-164.84 218.96,-164.8 210.66,-158.22 208.37,-164.84"/>
</a>
</g>
</g>
<!-- Node5 -->
<g id="Node000005" class="node">
<title>Node5</title>
<g id="a_Node000005"><a xlink:href="can__manager_8h.html" target="_top" xlink:title="CAN Communication Manager for Vehicle Control System.">
<polygon fill="white" stroke="#666666" points="290.88,-129.75 175.12,-129.75 175.12,-110.5 290.88,-110.5 290.88,-129.75"/>
<text text-anchor="middle" x="233" y="-116.25" font-family="Helvetica,sans-Serif" font-size="10.00">include/can_manager.h</text>
</a>
</g>
</g>
<!-- Node1&#45;&gt;Node5 -->
<g id="edge4_Node000001_Node000005" class="edge">
<title>Node1&#45;&gt;Node5</title>
<g id="a_edge4_Node000001_Node000005"><a xlink:title=" ">
<path fill="none" stroke="#63b8ff" d="M261.75,-156.72C254.55,-147.81 246.12,-137.37 240.25,-130.11"/>
<polygon fill="#63b8ff" stroke="#63b8ff" points="258.94,-158.82 267.95,-164.4 264.39,-154.43 258.94,-158.82"/>
</a>
</g>
</g>
<!-- Node6 -->
<g id="Node000006" class="node">
<title>Node6</title>
<g id="a_Node000006"><a xlink:href="setup_8h.html" target="_top" xlink:title="System Initialization and Safety Configuration.">
<polygon fill="white" stroke="#666666" points="295,-74.5 213,-74.5 213,-55.25 295,-55.25 295,-74.5"/>
<text text-anchor="middle" x="254" y="-61" font-family="Helvetica,sans-Serif" font-size="10.00">include/setup.h</text>
</a>
</g>
</g>
<!-- Node1&#45;&gt;Node6 -->
<g id="edge11_Node000001_Node000006" class="edge">
<title>Node1&#45;&gt;Node6</title>
<g id="a_edge11_Node000001_Node000006"><a xlink:title=" ">
<path fill="none" stroke="#63b8ff" d="M290.22,-156.45C298.63,-143.56 306.48,-125.82 300,-110.5 293.58,-95.33 279.21,-82.79 268.23,-74.9"/>
<polygon fill="#63b8ff" stroke="#63b8ff" points="287.51,-154.22 284.5,-164.38 293.19,-158.31 287.51,-154.22"/>
</a>
</g>
</g>
<!-- Node8 -->
<g id="Node000008" class="node">
<title>Node8</title>
<g id="a_Node000008"><a xlink:href="can__manager_8cpp.html" target="_top" xlink:title="Implementation of CAN communication management system.">
<polygon fill="white" stroke="#666666" points="422.5,-74.5 313.5,-74.5 313.5,-55.25 422.5,-55.25 422.5,-74.5"/>
<text text-anchor="middle" x="368" y="-61" font-family="Helvetica,sans-Serif" font-size="10.00">src/can_manager.cpp</text>
</a>
</g>
</g>
<!-- Node1&#45;&gt;Node8 -->
<g id="edge12_Node000001_Node000008" class="edge">
<title>Node1&#45;&gt;Node8</title>
<g id="a_edge12_Node000001_Node000008"><a xlink:title=" ">
<path fill="none" stroke="#63b8ff" d="M291.24,-157.14C298.49,-148.89 307.24,-138.86 315,-129.75 331.63,-110.22 350.76,-86.97 360.87,-74.61"/>
<polygon fill="#63b8ff" stroke="#63b8ff" points="288.83,-154.59 284.84,-164.41 294.08,-159.22 288.83,-154.59"/>
</a>
</g>
</g>
<!-- Node9 -->
<g id="Node000009" class="node">
<title>Node9</title>
<g id="a_Node000009"><a xlink:href="state__manager_8cpp.html" target="_top" xlink:title="Implementation of the vehicle state management system.">
<polygon fill="white" stroke="#666666" points="500.5,-129.75 385.5,-129.75 385.5,-110.5 500.5,-110.5 500.5,-129.75"/>
<text text-anchor="middle" x="443" y="-116.25" font-family="Helvetica,sans-Serif" font-size="10.00">src/state_manager.cpp</text>
</a>
</g>
</g>
<!-- Node1&#45;&gt;Node9 -->
<g id="edge14_Node000001_Node000009" class="edge">
<title>Node1&#45;&gt;Node9</title>
<g id="a_edge14_Node000001_Node000009"><a xlink:title=" ">
<path fill="none" stroke="#63b8ff" d="M315.01,-161.94C345.48,-152.22 387.13,-138.94 414.53,-130.2"/>
<polygon fill="#63b8ff" stroke="#63b8ff" points="314.24,-158.51 305.77,-164.88 316.36,-165.18 314.24,-158.51"/>
</a>
</g>
</g>
<!-- Node3 -->
<g id="Node000003" class="node">
<title>Node3</title>
<g id="a_Node000003"><a xlink:href="_serial_console_8cpp.html" target="_top" xlink:title="Implementation of debug console interface for vehicle control system.">
<polygon fill="white" stroke="#666666" points="112,-19.25 0,-19.25 0,0 112,0 112,-19.25"/>
<text text-anchor="middle" x="56" y="-5.75" font-family="Helvetica,sans-Serif" font-size="10.00">src/SerialConsole.cpp</text>
</a>
</g>
</g>
<!-- Node2&#45;&gt;Node3 -->
<g id="edge2_Node000002_Node000003" class="edge">
<title>Node2&#45;&gt;Node3</title>
<g id="a_edge2_Node000002_Node000003"><a xlink:title=" ">
<path fill="none" stroke="#63b8ff" d="M58.48,-43.63C57.86,-35.34 57.17,-26.17 56.67,-19.61"/>
<polygon fill="#63b8ff" stroke="#63b8ff" points="54.99,-43.86 59.23,-53.57 61.97,-43.34 54.99,-43.86"/>
</a>
</g>
</g>
<!-- Node2&#45;&gt;Node4 -->
<g id="edge3_Node000002_Node000004" class="edge">
<title>Node2&#45;&gt;Node4</title>
<g id="a_edge3_Node000002_Node000004"><a xlink:title=" ">
<path fill="none" stroke="#63b8ff" d="M88.13,-49.74C107.09,-40.22 131.53,-27.94 147.93,-19.7"/>
<polygon fill="#63b8ff" stroke="#63b8ff" points="86.7,-46.55 79.33,-54.16 89.84,-52.8 86.7,-46.55"/>
</a>
</g>
</g>
<!-- Node5&#45;&gt;Node2 -->
<g id="edge5_Node000005_Node000002" class="edge">
<title>Node5&#45;&gt;Node2</title>
<g id="a_edge5_Node000005_Node000002"><a xlink:title=" ">
<path fill="none" stroke="#63b8ff" d="M193.01,-106.82C161.4,-97.09 118,-83.73 89.49,-74.95"/>
<polygon fill="#63b8ff" stroke="#63b8ff" points="191.62,-110.05 202.21,-109.65 193.68,-103.36 191.62,-110.05"/>
</a>
</g>
</g>
<!-- Node5&#45;&gt;Node4 -->
<g id="edge10_Node000005_Node000004" class="edge">
<title>Node5&#45;&gt;Node4</title>
<g id="a_edge10_Node000005_Node000004"><a xlink:title=" ">
<path fill="none" stroke="#63b8ff" d="M220.88,-100.83C215.62,-92.8 209.43,-83.23 204,-74.5 191.87,-55 178.24,-31.73 171.05,-19.37"/>
<polygon fill="#63b8ff" stroke="#63b8ff" points="217.86,-102.61 226.29,-109.04 223.71,-98.76 217.86,-102.61"/>
</a>
</g>
</g>
<!-- Node5&#45;&gt;Node6 -->
<g id="edge6_Node000005_Node000006" class="edge">
<title>Node5&#45;&gt;Node6</title>
<g id="a_edge6_Node000005_Node000006"><a xlink:title=" ">
<path fill="none" stroke="#63b8ff" d="M240.64,-99.75C244,-91.24 247.78,-81.65 250.46,-74.86"/>
<polygon fill="#63b8ff" stroke="#63b8ff" points="237.44,-98.34 237.02,-108.92 243.95,-100.91 237.44,-98.34"/>
</a>
</g>
</g>
<!-- Node5&#45;&gt;Node8 -->
<g id="edge9_Node000005_Node000008" class="edge">
<title>Node5&#45;&gt;Node8</title>
<g id="a_edge9_Node000005_Node000008"><a xlink:title=" ">
<path fill="none" stroke="#63b8ff" d="M266.49,-105.91C290.93,-96.27 323.42,-83.46 344.99,-74.95"/>
<polygon fill="#63b8ff" stroke="#63b8ff" points="265.33,-102.61 257.31,-109.54 267.9,-109.12 265.33,-102.61"/>
</a>
</g>
</g>
<!-- Node6&#45;&gt;Node4 -->
<g id="edge7_Node000006_Node000004" class="edge">
<title>Node6&#45;&gt;Node4</title>
<g id="a_edge7_Node000006_Node000004"><a xlink:title=" ">
<path fill="none" stroke="#63b8ff" d="M229.54,-49.07C213.97,-39.65 194.3,-27.75 181,-19.7"/>
<polygon fill="#63b8ff" stroke="#63b8ff" points="227.41,-51.88 237.78,-54.06 231.03,-45.89 227.41,-51.88"/>
</a>
</g>
</g>
<!-- Node7 -->
<g id="Node000007" class="node">
<title>Node7</title>
<g id="a_Node000007"><a xlink:href="setup_8cpp.html" target="_top" xlink:title="System initialization and hardware setup implementation.">
<polygon fill="white" stroke="#666666" points="295.62,-19.25 220.38,-19.25 220.38,0 295.62,0 295.62,-19.25"/>
<text text-anchor="middle" x="258" y="-5.75" font-family="Helvetica,sans-Serif" font-size="10.00">src/setup.cpp</text>
</a>
</g>
</g>
<!-- Node6&#45;&gt;Node7 -->
<g id="edge8_Node000006_Node000007" class="edge">
<title>Node6&#45;&gt;Node7</title>
<g id="a_edge8_Node000006_Node000007"><a xlink:title=" ">
<path fill="none" stroke="#63b8ff" d="M255.52,-43.63C256.14,-35.34 256.83,-26.17 257.33,-19.61"/>
<polygon fill="#63b8ff" stroke="#63b8ff" points="252.03,-43.34 254.77,-53.57 259.01,-43.86 252.03,-43.34"/>
</a>
</g>
</g>
</g>
</svg>
