<?xml version="1.0" encoding="UTF-8" standalone="no"?>
<!DOCTYPE svg PUBLIC "-//W3C//DTD SVG 1.1//EN"
 "http://www.w3.org/Graphics/SVG/1.1/DTD/svg11.dtd">
<!-- Generated by graphviz version 12.2.0 (20241103.1931)
 -->
<!-- Title: src/state_manager.cpp Pages: 1 -->
<svg width="263pt" height="193pt"
 viewBox="0.00 0.00 262.56 193.00" xmlns="http://www.w3.org/2000/svg" xmlns:xlink="http://www.w3.org/1999/xlink">

<svg id="main" version="1.1" xmlns="http://www.w3.org/2000/svg" xmlns:xlink="http://www.w3.org/1999/xlink" xml:space="preserve">

<style type="text/css"><![CDATA[
.node, .edge {opacity: 0.7;}
.node.selected, .edge.selected {opacity: 1;}
.edge:hover path { stroke: red; }
.edge:hover polygon { stroke: red; fill: red; }
]]></style>
<script type="application/ecmascript" xlink:href="svg.min.js"/>
<svg id="graph" class="graph">
<g id="graph0" class="graph" transform="scale(1 1) rotate(0) translate(4 189)">
<title>src/state_manager.cpp</title>
<!-- Node1 -->
<g id="Node000001" class="node">
<title>Node1</title>
<g id="a_Node000001"><a xlink:title="Implementation of the vehicle state management system.">
<polygon fill="#999999" stroke="#666666" points="215.81,-185 100.81,-185 100.81,-165.75 215.81,-165.75 215.81,-185"/>
<text text-anchor="middle" x="158.31" y="-171.5" font-family="Helvetica,sans-Serif" font-size="10.00">src/state_manager.cpp</text>
</a>
</g>
</g>
<!-- Node2 -->
<g id="Node000002" class="node">
<title>Node2</title>
<g id="a_Node000002"><a xlink:href="state__manager_8h.html" target="_top" xlink:title="Vehicle State Management System.">
<polygon fill="white" stroke="#666666" points="124.31,-129.75 36.31,-129.75 36.31,-110.5 124.31,-110.5 124.31,-129.75"/>
<text text-anchor="middle" x="80.31" y="-116.25" font-family="Helvetica,sans-Serif" font-size="10.00">state_manager.h</text>
</a>
</g>
</g>
<!-- Node1&#45;&gt;Node2 -->
<g id="edge1_Node000001_Node000002" class="edge">
<title>Node1&#45;&gt;Node2</title>
<g id="a_edge1_Node000001_Node000002"><a xlink:title=" ">
<path fill="none" stroke="#63b8ff" d="M145.08,-165.34C133.53,-157.46 116.54,-145.86 102.86,-136.52"/>
<polygon fill="#63b8ff" stroke="#63b8ff" points="105.09,-133.8 94.85,-131.06 101.14,-139.58 105.09,-133.8"/>
</a>
</g>
</g>
<!-- Node4 -->
<g id="Node000004" class="node">
<title>Node4</title>
<g id="a_Node000004"><a xlink:href="config_8h.html" target="_top" xlink:title=" ">
<polygon fill="white" stroke="#666666" points="190.56,-74.5 140.06,-74.5 140.06,-55.25 190.56,-55.25 190.56,-74.5"/>
<text text-anchor="middle" x="165.31" y="-61" font-family="Helvetica,sans-Serif" font-size="10.00">config.h</text>
</a>
</g>
</g>
<!-- Node1&#45;&gt;Node4 -->
<g id="edge6_Node000001_Node000004" class="edge">
<title>Node1&#45;&gt;Node4</title>
<g id="a_edge6_Node000001_Node000004"><a xlink:title=" ">
<path fill="none" stroke="#63b8ff" d="M158.88,-165.5C159.99,-148.25 162.47,-109.83 164.01,-86.06"/>
<polygon fill="#63b8ff" stroke="#63b8ff" points="167.48,-86.59 164.63,-76.39 160.49,-86.14 167.48,-86.59"/>
</a>
</g>
</g>
<!-- Node6 -->
<g id="Node000006" class="node">
<title>Node6</title>
<g id="a_Node000006"><a xlink:title=" ">
<polygon fill="#e0e0e0" stroke="#999999" points="254.56,-129.75 186.06,-129.75 186.06,-110.5 254.56,-110.5 254.56,-129.75"/>
<text text-anchor="middle" x="220.31" y="-116.25" font-family="Helvetica,sans-Serif" font-size="10.00">esp_sleep.h</text>
</a>
</g>
</g>
<!-- Node1&#45;&gt;Node6 -->
<g id="edge7_Node000001_Node000006" class="edge">
<title>Node1&#45;&gt;Node6</title>
<g id="a_edge7_Node000001_Node000006"><a xlink:title=" ">
<path fill="none" stroke="#63b8ff" d="M168.83,-165.34C177.7,-157.72 190.62,-146.62 201.3,-137.45"/>
<polygon fill="#63b8ff" stroke="#63b8ff" points="203.49,-140.18 208.8,-131.01 198.93,-134.87 203.49,-140.18"/>
</a>
</g>
</g>
<!-- Node3 -->
<g id="Node000003" class="node">
<title>Node3</title>
<g id="a_Node000003"><a xlink:title=" ">
<polygon fill="#e0e0e0" stroke="#999999" points="102.93,-19.25 45.68,-19.25 45.68,0 102.93,0 102.93,-19.25"/>
<text text-anchor="middle" x="74.31" y="-5.75" font-family="Helvetica,sans-Serif" font-size="10.00">Arduino.h</text>
</a>
</g>
</g>
<!-- Node2&#45;&gt;Node3 -->
<g id="edge2_Node000002_Node000003" class="edge">
<title>Node2&#45;&gt;Node3</title>
<g id="a_edge2_Node000002_Node000003"><a xlink:title=" ">
<path fill="none" stroke="#63b8ff" d="M50.39,-110.14C33.34,-103.31 13.41,-92.04 3.31,-74.5 -8.73,-53.6 15.84,-35.83 39.3,-24.38"/>
<polygon fill="#63b8ff" stroke="#63b8ff" points="40.49,-27.68 48.14,-20.35 37.59,-21.31 40.49,-27.68"/>
</a>
</g>
</g>
<!-- Node2&#45;&gt;Node4 -->
<g id="edge3_Node000002_Node000004" class="edge">
<title>Node2&#45;&gt;Node4</title>
<g id="a_edge3_Node000002_Node000004"><a xlink:title=" ">
<path fill="none" stroke="#63b8ff" d="M94.73,-110.09C107.43,-102.14 126.18,-90.39 141.17,-81"/>
<polygon fill="#63b8ff" stroke="#63b8ff" points="142.92,-84.03 149.54,-75.76 139.2,-78.1 142.92,-84.03"/>
</a>
</g>
</g>
<!-- Node5 -->
<g id="Node000005" class="node">
<title>Node5</title>
<g id="a_Node000005"><a xlink:href="vehicle__parameters_8h.html" target="_top" xlink:title="Vehicle Configuration Parameters and Operating Limits.">
<polygon fill="white" stroke="#666666" points="121.81,-74.5 12.81,-74.5 12.81,-55.25 121.81,-55.25 121.81,-74.5"/>
<text text-anchor="middle" x="67.31" y="-61" font-family="Helvetica,sans-Serif" font-size="10.00">vehicle_parameters.h</text>
</a>
</g>
</g>
<!-- Node2&#45;&gt;Node5 -->
<g id="edge5_Node000002_Node000005" class="edge">
<title>Node2&#45;&gt;Node5</title>
<g id="a_edge5_Node000002_Node000005"><a xlink:title=" ">
<path fill="none" stroke="#63b8ff" d="M78.16,-110.33C76.53,-103.67 74.23,-94.24 72.17,-85.78"/>
<polygon fill="#63b8ff" stroke="#63b8ff" points="75.63,-85.21 69.86,-76.33 68.83,-86.87 75.63,-85.21"/>
</a>
</g>
</g>
<!-- Node4&#45;&gt;Node3 -->
<g id="edge4_Node000004_Node000003" class="edge">
<title>Node4&#45;&gt;Node3</title>
<g id="a_edge4_Node000004_Node000003"><a xlink:title=" ">
<path fill="none" stroke="#63b8ff" d="M149.87,-54.84C136.14,-46.81 115.81,-34.91 99.69,-25.48"/>
<polygon fill="#63b8ff" stroke="#63b8ff" points="101.53,-22.5 91.13,-20.47 97.99,-28.54 101.53,-22.5"/>
</a>
</g>
</g>
</g>
</svg>
</svg>

<style type='text/css'>
<![CDATA[
[data-mouse-over-selected='false'] { opacity: 0.7; }
[data-mouse-over-selected='true']  { opacity: 1.0; }
]]>
</style>
<script type="application/ecmascript"><![CDATA[
document.addEventListener('DOMContentLoaded', (event) => {
  highlightEdges();
  highlightAdjacentNodes();
});
]]></script>
</svg>
