<?xml version="1.0" encoding="UTF-8" standalone="no"?>
<!DOCTYPE svg PUBLIC "-//W3C//DTD SVG 1.1//EN"
 "http://www.w3.org/Graphics/SVG/1.1/DTD/svg11.dtd">
<!-- Generated by graphviz version 12.2.0 (20241103.1931)
 -->
<!-- Title: src/vehicle_control.cpp Pages: 1 -->
<svg width="443pt" height="193pt"
 viewBox="0.00 0.00 443.12 193.00" xmlns="http://www.w3.org/2000/svg" xmlns:xlink="http://www.w3.org/1999/xlink">
<g id="graph0" class="graph" transform="scale(1 1) rotate(0) translate(4 189)">
<title>src/vehicle_control.cpp</title>
<!-- Node1 -->
<g id="Node000001" class="node">
<title>Node1</title>
<g id="a_Node000001"><a xlink:title="Implementation of vehicle driving dynamics and motor control system.">
<polygon fill="#999999" stroke="#666666" points="219.5,-185 103,-185 103,-165.75 219.5,-165.75 219.5,-185"/>
<text text-anchor="middle" x="161.25" y="-171.5" font-family="Helvetica,sans-Serif" font-size="10.00">src/vehicle_control.cpp</text>
</a>
</g>
</g>
<!-- Node2 -->
<g id="Node000002" class="node">
<title>Node2</title>
<g id="a_Node000002"><a xlink:href="vehicle__control_8h.html" target="_top" xlink:title="Vehicle Control System for Electric Vehicle.">
<polygon fill="white" stroke="#666666" points="206,-129.75 116.5,-129.75 116.5,-110.5 206,-110.5 206,-129.75"/>
<text text-anchor="middle" x="161.25" y="-116.25" font-family="Helvetica,sans-Serif" font-size="10.00">vehicle_control.h</text>
</a>
</g>
</g>
<!-- Node1&#45;&gt;Node2 -->
<g id="edge1_Node000001_Node000002" class="edge">
<title>Node1&#45;&gt;Node2</title>
<g id="a_edge1_Node000001_Node000002"><a xlink:title=" ">
<path fill="none" stroke="#63b8ff" d="M161.25,-165.58C161.25,-159.07 161.25,-149.92 161.25,-141.62"/>
<polygon fill="#63b8ff" stroke="#63b8ff" points="164.75,-141.62 161.25,-131.62 157.75,-141.62 164.75,-141.62"/>
</a>
</g>
</g>
<!-- Node6 -->
<g id="Node000006" class="node">
<title>Node6</title>
<g id="a_Node000006"><a xlink:href="config_8h.html" target="_top" xlink:title=" ">
<polygon fill="white" stroke="#666666" points="50.5,-74.5 0,-74.5 0,-55.25 50.5,-55.25 50.5,-74.5"/>
<text text-anchor="middle" x="25.25" y="-61" font-family="Helvetica,sans-Serif" font-size="10.00">config.h</text>
</a>
</g>
</g>
<!-- Node1&#45;&gt;Node6 -->
<g id="edge9_Node000001_Node000006" class="edge">
<title>Node1&#45;&gt;Node6</title>
<g id="a_edge9_Node000001_Node000006"><a xlink:title=" ">
<path fill="none" stroke="#63b8ff" d="M150.12,-165.5C127.21,-147.22 74.48,-105.15 45.41,-81.96"/>
<polygon fill="#63b8ff" stroke="#63b8ff" points="47.72,-79.32 37.72,-75.82 43.35,-84.79 47.72,-79.32"/>
</a>
</g>
</g>
<!-- Node8 -->
<g id="Node000008" class="node">
<title>Node8</title>
<g id="a_Node000008"><a xlink:title=" ">
<polygon fill="#e0e0e0" stroke="#999999" points="435.12,-74.5 367.38,-74.5 367.38,-55.25 435.12,-55.25 435.12,-74.5"/>
<text text-anchor="middle" x="401.25" y="-61" font-family="Helvetica,sans-Serif" font-size="10.00">ADS1X15.h</text>
</a>
</g>
</g>
<!-- Node1&#45;&gt;Node8 -->
<g id="edge10_Node000001_Node000008" class="edge">
<title>Node1&#45;&gt;Node8</title>
<g id="a_edge10_Node000001_Node000008"><a xlink:title=" ">
<path fill="none" stroke="#63b8ff" d="M181.3,-165.31C223.3,-146.32 320.75,-102.27 370.63,-79.72"/>
<polygon fill="#63b8ff" stroke="#63b8ff" points="372.04,-82.92 379.71,-75.61 369.16,-76.54 372.04,-82.92"/>
</a>
</g>
</g>
<!-- Node3 -->
<g id="Node000003" class="node">
<title>Node3</title>
<g id="a_Node000003"><a xlink:title=" ">
<polygon fill="#e0e0e0" stroke="#999999" points="79.88,-19.25 22.63,-19.25 22.63,0 79.88,0 79.88,-19.25"/>
<text text-anchor="middle" x="51.25" y="-5.75" font-family="Helvetica,sans-Serif" font-size="10.00">Arduino.h</text>
</a>
</g>
</g>
<!-- Node2&#45;&gt;Node3 -->
<g id="edge2_Node000002_Node000003" class="edge">
<title>Node2&#45;&gt;Node3</title>
<g id="a_edge2_Node000002_Node000003"><a xlink:title=" ">
<path fill="none" stroke="#63b8ff" d="M145.14,-110.01C131.47,-101.8 111.82,-88.85 97.25,-74.5 83.42,-60.88 70.78,-42.71 62.26,-29.23"/>
<polygon fill="#63b8ff" stroke="#63b8ff" points="65.37,-27.6 57.16,-20.9 59.39,-31.26 65.37,-27.6"/>
</a>
</g>
</g>
<!-- Node4 -->
<g id="Node000004" class="node">
<title>Node4</title>
<g id="a_Node000004"><a xlink:title=" ">
<polygon fill="#e0e0e0" stroke="#999999" points="149.75,-74.5 106.75,-74.5 106.75,-55.25 149.75,-55.25 149.75,-74.5"/>
<text text-anchor="middle" x="128.25" y="-61" font-family="Helvetica,sans-Serif" font-size="10.00">cmath</text>
</a>
</g>
</g>
<!-- Node2&#45;&gt;Node4 -->
<g id="edge3_Node000002_Node000004" class="edge">
<title>Node2&#45;&gt;Node4</title>
<g id="a_edge3_Node000002_Node000004"><a xlink:title=" ">
<path fill="none" stroke="#63b8ff" d="M155.8,-110.33C151.48,-103.36 145.29,-93.37 139.87,-84.62"/>
<polygon fill="#63b8ff" stroke="#63b8ff" points="142.86,-82.8 134.61,-76.15 136.91,-86.49 142.86,-82.8"/>
</a>
</g>
</g>
<!-- Node5 -->
<g id="Node000005" class="node">
<title>Node5</title>
<g id="a_Node000005"><a xlink:title=" ">
<polygon fill="#e0e0e0" stroke="#999999" points="223.12,-74.5 167.38,-74.5 167.38,-55.25 223.12,-55.25 223.12,-74.5"/>
<text text-anchor="middle" x="195.25" y="-61" font-family="Helvetica,sans-Serif" font-size="10.00">algorithm</text>
</a>
</g>
</g>
<!-- Node2&#45;&gt;Node5 -->
<g id="edge4_Node000002_Node000005" class="edge">
<title>Node2&#45;&gt;Node5</title>
<g id="a_edge4_Node000002_Node000005"><a xlink:title=" ">
<path fill="none" stroke="#63b8ff" d="M166.86,-110.33C171.37,-103.28 177.84,-93.15 183.46,-84.33"/>
<polygon fill="#63b8ff" stroke="#63b8ff" points="186.27,-86.45 188.7,-76.13 180.37,-82.68 186.27,-86.45"/>
</a>
</g>
</g>
<!-- Node2&#45;&gt;Node6 -->
<g id="edge5_Node000002_Node000006" class="edge">
<title>Node2&#45;&gt;Node6</title>
<g id="a_edge5_Node000002_Node000006"><a xlink:title=" ">
<path fill="none" stroke="#63b8ff" d="M138.18,-110.09C116.49,-101.6 83.77,-88.79 59.12,-79.14"/>
<polygon fill="#63b8ff" stroke="#63b8ff" points="60.43,-75.89 49.84,-75.5 57.88,-82.41 60.43,-75.89"/>
</a>
</g>
</g>
<!-- Node7 -->
<g id="Node000007" class="node">
<title>Node7</title>
<g id="a_Node000007"><a xlink:href="vehicle__parameters_8h.html" target="_top" xlink:title="Vehicle Configuration Parameters and Operating Limits.">
<polygon fill="white" stroke="#666666" points="349.75,-74.5 240.75,-74.5 240.75,-55.25 349.75,-55.25 349.75,-74.5"/>
<text text-anchor="middle" x="295.25" y="-61" font-family="Helvetica,sans-Serif" font-size="10.00">vehicle_parameters.h</text>
</a>
</g>
</g>
<!-- Node2&#45;&gt;Node7 -->
<g id="edge7_Node000002_Node000007" class="edge">
<title>Node2&#45;&gt;Node7</title>
<g id="a_edge7_Node000002_Node000007"><a xlink:title=" ">
<path fill="none" stroke="#63b8ff" d="M183.98,-110.09C205.35,-101.6 237.59,-88.79 261.88,-79.14"/>
<polygon fill="#63b8ff" stroke="#63b8ff" points="263,-82.46 271,-75.51 260.41,-75.95 263,-82.46"/>
</a>
</g>
</g>
<!-- Node2&#45;&gt;Node8 -->
<g id="edge8_Node000002_Node000008" class="edge">
<title>Node2&#45;&gt;Node8</title>
<g id="a_edge8_Node000002_Node000008"><a xlink:title=" ">
<path fill="none" stroke="#63b8ff" d="M202.23,-110.03C244.97,-100.55 311.78,-85.73 356.03,-75.91"/>
<polygon fill="#63b8ff" stroke="#63b8ff" points="356.56,-79.38 365.56,-73.79 355.04,-72.54 356.56,-79.38"/>
</a>
</g>
</g>
<!-- Node6&#45;&gt;Node3 -->
<g id="edge6_Node000006_Node000003" class="edge">
<title>Node6&#45;&gt;Node3</title>
<g id="a_edge6_Node000006_Node000003"><a xlink:title=" ">
<path fill="none" stroke="#63b8ff" d="M29.54,-55.08C32.87,-48.26 37.61,-38.56 41.81,-29.95"/>
<polygon fill="#63b8ff" stroke="#63b8ff" points="44.96,-31.49 46.2,-20.97 38.67,-28.42 44.96,-31.49"/>
</a>
</g>
</g>
</g>
</svg>
