<?xml version="1.0" encoding="UTF-8" standalone="no"?>
<!DOCTYPE svg PUBLIC "-//W3C//DTD SVG 1.1//EN"
 "http://www.w3.org/Graphics/SVG/1.1/DTD/svg11.dtd">
<!-- Generated by graphviz version 12.2.0 (20241103.1931)
 -->
<!-- Title: include/vehicle_control.h Pages: 1 -->
<svg width="418pt" height="138pt"
 viewBox="0.00 0.00 418.25 137.75" xmlns="http://www.w3.org/2000/svg" xmlns:xlink="http://www.w3.org/1999/xlink">

<svg id="main" version="1.1" xmlns="http://www.w3.org/2000/svg" xmlns:xlink="http://www.w3.org/1999/xlink" xml:space="preserve">

<style type="text/css"><![CDATA[
.node, .edge {opacity: 0.7;}
.node.selected, .edge.selected {opacity: 1;}
.edge:hover path { stroke: red; }
.edge:hover polygon { stroke: red; fill: red; }
]]></style>
<script type="application/ecmascript" xlink:href="svg.min.js"/>
<svg id="graph" class="graph">
<g id="graph0" class="graph" transform="scale(1 1) rotate(0) translate(4 133.75)">
<title>include/vehicle_control.h</title>
<!-- Node1 -->
<g id="Node000001" class="node">
<title>Node1</title>
<g id="a_Node000001"><a xlink:title="Vehicle Control System for Electric Vehicle.">
<polygon fill="#999999" stroke="#666666" points="261.62,-129.75 138.38,-129.75 138.38,-110.5 261.62,-110.5 261.62,-129.75"/>
<text text-anchor="middle" x="200" y="-116.25" font-family="Helvetica,sans-Serif" font-size="10.00">include/vehicle_control.h</text>
</a>
</g>
</g>
<!-- Node2 -->
<g id="Node000002" class="node">
<title>Node2</title>
<g id="a_Node000002"><a xlink:href="_serial_console_8h.html" target="_top" xlink:title="Debug Console Interface for Vehicle Control System.">
<polygon fill="white" stroke="#666666" points="138.38,-74.5 19.62,-74.5 19.62,-55.25 138.38,-55.25 138.38,-74.5"/>
<text text-anchor="middle" x="79" y="-61" font-family="Helvetica,sans-Serif" font-size="10.00">include/SerialConsole.h</text>
</a>
</g>
</g>
<!-- Node1&#45;&gt;Node2 -->
<g id="edge1_Node000001_Node000002" class="edge">
<title>Node1&#45;&gt;Node2</title>
<g id="a_edge1_Node000001_Node000002"><a xlink:title=" ">
<path fill="none" stroke="#63b8ff" d="M169.09,-105.52C147.29,-95.93 118.69,-83.34 99.63,-74.95"/>
<polygon fill="#63b8ff" stroke="#63b8ff" points="167.53,-108.66 178.09,-109.48 170.35,-102.25 167.53,-108.66"/>
</a>
</g>
</g>
<!-- Node4 -->
<g id="Node000004" class="node">
<title>Node4</title>
<g id="a_Node000004"><a xlink:href="main_8cpp.html" target="_top" xlink:title="Main Vehicle Control Unit (VCU) Program.">
<polygon fill="white" stroke="#666666" points="202.12,-19.25 129.88,-19.25 129.88,0 202.12,0 202.12,-19.25"/>
<text text-anchor="middle" x="166" y="-5.75" font-family="Helvetica,sans-Serif" font-size="10.00">src/main.cpp</text>
</a>
</g>
</g>
<!-- Node1&#45;&gt;Node4 -->
<g id="edge7_Node000001_Node000004" class="edge">
<title>Node1&#45;&gt;Node4</title>
<g id="a_edge7_Node000001_Node000004"><a xlink:title=" ">
<path fill="none" stroke="#63b8ff" d="M193.2,-99.4C190.58,-91.66 187.59,-82.68 185,-74.5 178.78,-54.87 172.03,-31.66 168.49,-19.33"/>
<polygon fill="#63b8ff" stroke="#63b8ff" points="189.88,-100.5 196.43,-108.83 196.51,-98.24 189.88,-100.5"/>
</a>
</g>
</g>
<!-- Node5 -->
<g id="Node000005" class="node">
<title>Node5</title>
<g id="a_Node000005"><a xlink:href="setup_8h.html" target="_top" xlink:title="System Initialization and Safety Configuration.">
<polygon fill="white" stroke="#666666" points="276,-74.5 194,-74.5 194,-55.25 276,-55.25 276,-74.5"/>
<text text-anchor="middle" x="235" y="-61" font-family="Helvetica,sans-Serif" font-size="10.00">include/setup.h</text>
</a>
</g>
</g>
<!-- Node1&#45;&gt;Node5 -->
<g id="edge4_Node000001_Node000005" class="edge">
<title>Node1&#45;&gt;Node5</title>
<g id="a_edge4_Node000001_Node000005"><a xlink:title=" ">
<path fill="none" stroke="#63b8ff" d="M211.98,-100.9C217.75,-92.11 224.43,-81.96 229.09,-74.86"/>
<polygon fill="#63b8ff" stroke="#63b8ff" points="209.18,-98.79 206.61,-109.07 215.03,-102.63 209.18,-98.79"/>
</a>
</g>
</g>
<!-- Node7 -->
<g id="Node000007" class="node">
<title>Node7</title>
<g id="a_Node000007"><a xlink:href="vehicle__control_8cpp.html" target="_top" xlink:title="Implementation of vehicle driving dynamics and motor control system.">
<polygon fill="white" stroke="#666666" points="410.25,-74.5 293.75,-74.5 293.75,-55.25 410.25,-55.25 410.25,-74.5"/>
<text text-anchor="middle" x="352" y="-61" font-family="Helvetica,sans-Serif" font-size="10.00">src/vehicle_control.cpp</text>
</a>
</g>
</g>
<!-- Node1&#45;&gt;Node7 -->
<g id="edge8_Node000001_Node000007" class="edge">
<title>Node1&#45;&gt;Node7</title>
<g id="a_edge8_Node000001_Node000007"><a xlink:title=" ">
<path fill="none" stroke="#63b8ff" d="M236.6,-106.3C264.24,-96.62 301.48,-83.57 326.09,-74.95"/>
<polygon fill="#63b8ff" stroke="#63b8ff" points="235.49,-102.98 227.21,-109.59 237.81,-109.59 235.49,-102.98"/>
</a>
</g>
</g>
<!-- Node3 -->
<g id="Node000003" class="node">
<title>Node3</title>
<g id="a_Node000003"><a xlink:href="_serial_console_8cpp.html" target="_top" xlink:title="Implementation of debug console interface for vehicle control system.">
<polygon fill="white" stroke="#666666" points="112,-19.25 0,-19.25 0,0 112,0 112,-19.25"/>
<text text-anchor="middle" x="56" y="-5.75" font-family="Helvetica,sans-Serif" font-size="10.00">src/SerialConsole.cpp</text>
</a>
</g>
</g>
<!-- Node2&#45;&gt;Node3 -->
<g id="edge2_Node000002_Node000003" class="edge">
<title>Node2&#45;&gt;Node3</title>
<g id="a_edge2_Node000002_Node000003"><a xlink:title=" ">
<path fill="none" stroke="#63b8ff" d="M70.76,-44.79C67.05,-36.21 62.85,-26.48 59.88,-19.61"/>
<polygon fill="#63b8ff" stroke="#63b8ff" points="67.42,-45.9 74.6,-53.69 73.85,-43.12 67.42,-45.9"/>
</a>
</g>
</g>
<!-- Node2&#45;&gt;Node4 -->
<g id="edge3_Node000002_Node000004" class="edge">
<title>Node2&#45;&gt;Node4</title>
<g id="a_edge3_Node000002_Node000004"><a xlink:title=" ">
<path fill="none" stroke="#63b8ff" d="M103.18,-49.07C118.58,-39.65 138.02,-27.75 151.17,-19.7"/>
<polygon fill="#63b8ff" stroke="#63b8ff" points="101.75,-45.85 95.05,-54.05 105.41,-51.82 101.75,-45.85"/>
</a>
</g>
</g>
<!-- Node5&#45;&gt;Node4 -->
<g id="edge5_Node000005_Node000004" class="edge">
<title>Node5&#45;&gt;Node4</title>
<g id="a_edge5_Node000005_Node000004"><a xlink:title=" ">
<path fill="none" stroke="#63b8ff" d="M214.35,-47.94C202.3,-38.64 187.55,-27.26 177.53,-19.52"/>
<polygon fill="#63b8ff" stroke="#63b8ff" points="212.04,-50.58 222.1,-53.92 216.32,-45.04 212.04,-50.58"/>
</a>
</g>
</g>
<!-- Node6 -->
<g id="Node000006" class="node">
<title>Node6</title>
<g id="a_Node000006"><a xlink:href="setup_8cpp.html" target="_top" xlink:title="System initialization and hardware setup implementation.">
<polygon fill="white" stroke="#666666" points="295.62,-19.25 220.38,-19.25 220.38,0 295.62,0 295.62,-19.25"/>
<text text-anchor="middle" x="258" y="-5.75" font-family="Helvetica,sans-Serif" font-size="10.00">src/setup.cpp</text>
</a>
</g>
</g>
<!-- Node5&#45;&gt;Node6 -->
<g id="edge6_Node000005_Node000006" class="edge">
<title>Node5&#45;&gt;Node6</title>
<g id="a_edge6_Node000005_Node000006"><a xlink:title=" ">
<path fill="none" stroke="#63b8ff" d="M243.24,-44.79C246.95,-36.21 251.15,-26.48 254.12,-19.61"/>
<polygon fill="#63b8ff" stroke="#63b8ff" points="240.15,-43.12 239.4,-53.69 246.58,-45.9 240.15,-43.12"/>
</a>
</g>
</g>
</g>
</svg>
</svg>

<style type='text/css'>
<![CDATA[
[data-mouse-over-selected='false'] { opacity: 0.7; }
[data-mouse-over-selected='true']  { opacity: 1.0; }
]]>
</style>
<script type="application/ecmascript"><![CDATA[
document.addEventListener('DOMContentLoaded', (event) => {
  highlightEdges();
  highlightAdjacentNodes();
});
]]></script>
</svg>
