<?xml version="1.0" encoding="UTF-8" standalone="no"?>
<!DOCTYPE svg PUBLIC "-//W3C//DTD SVG 1.1//EN"
 "http://www.w3.org/Graphics/SVG/1.1/DTD/svg11.dtd">
<!-- Generated by graphviz version 12.2.0 (20241103.1931)
 -->
<!-- Title: include/can_manager.h Pages: 1 -->
<svg width="345pt" height="193pt"
 viewBox="0.00 0.00 344.68 193.00" xmlns="http://www.w3.org/2000/svg" xmlns:xlink="http://www.w3.org/1999/xlink">
<g id="graph0" class="graph" transform="scale(1 1) rotate(0) translate(4 189)">
<title>include/can_manager.h</title>
<!-- Node1 -->
<g id="Node000001" class="node">
<title>Node1</title>
<g id="a_Node000001"><a xlink:title="CAN Communication Manager for Vehicle Control System.">
<polygon fill="#999999" stroke="#666666" points="226.02,-185 110.27,-185 110.27,-165.75 226.02,-165.75 226.02,-185"/>
<text text-anchor="middle" x="168.14" y="-171.5" font-family="Helvetica,sans-Serif" font-size="10.00">include/can_manager.h</text>
</a>
</g>
</g>
<!-- Node2 -->
<g id="Node000002" class="node">
<title>Node2</title>
<g id="a_Node000002"><a xlink:title=" ">
<polygon fill="#e0e0e0" stroke="#999999" points="215.77,-19.25 158.52,-19.25 158.52,0 215.77,0 215.77,-19.25"/>
<text text-anchor="middle" x="187.14" y="-5.75" font-family="Helvetica,sans-Serif" font-size="10.00">Arduino.h</text>
</a>
</g>
</g>
<!-- Node1&#45;&gt;Node2 -->
<g id="edge1_Node000001_Node000002" class="edge">
<title>Node1&#45;&gt;Node2</title>
<g id="a_edge1_Node000001_Node000002"><a xlink:title=" ">
<path fill="none" stroke="#63b8ff" d="M210.55,-165.29C235.67,-158.44 267.17,-147.18 291.14,-129.75 316.31,-111.45 324.04,-103.93 334.14,-74.5 349.87,-28.67 276.18,-15.63 227.45,-11.98"/>
<polygon fill="#63b8ff" stroke="#63b8ff" points="227.67,-8.49 217.47,-11.35 227.23,-15.48 227.67,-8.49"/>
</a>
</g>
</g>
<!-- Node3 -->
<g id="Node000003" class="node">
<title>Node3</title>
<g id="a_Node000003"><a xlink:title=" ">
<polygon fill="#e0e0e0" stroke="#999999" points="55.52,-129.75 14.77,-129.75 14.77,-110.5 55.52,-110.5 55.52,-129.75"/>
<text text-anchor="middle" x="35.14" y="-116.25" font-family="Helvetica,sans-Serif" font-size="10.00">SPI.h</text>
</a>
</g>
</g>
<!-- Node1&#45;&gt;Node3 -->
<g id="edge2_Node000001_Node000003" class="edge">
<title>Node1&#45;&gt;Node3</title>
<g id="a_edge2_Node000001_Node000003"><a xlink:title=" ">
<path fill="none" stroke="#63b8ff" d="M145.58,-165.34C123.73,-156.59 90.42,-143.26 66.1,-133.52"/>
<polygon fill="#63b8ff" stroke="#63b8ff" points="67.62,-130.36 57.03,-129.89 65.01,-136.86 67.62,-130.36"/>
</a>
</g>
</g>
<!-- Node4 -->
<g id="Node000004" class="node">
<title>Node4</title>
<g id="a_Node000004"><a xlink:title=" ">
<polygon fill="#e0e0e0" stroke="#999999" points="158.64,-129.75 73.64,-129.75 73.64,-110.5 158.64,-110.5 158.64,-129.75"/>
<text text-anchor="middle" x="116.14" y="-116.25" font-family="Helvetica,sans-Serif" font-size="10.00">mcp2515_can.h</text>
</a>
</g>
</g>
<!-- Node1&#45;&gt;Node4 -->
<g id="edge3_Node000001_Node000004" class="edge">
<title>Node1&#45;&gt;Node4</title>
<g id="a_edge3_Node000001_Node000004"><a xlink:title=" ">
<path fill="none" stroke="#63b8ff" d="M159.55,-165.58C152.3,-158.15 141.69,-147.29 132.78,-138.16"/>
<polygon fill="#63b8ff" stroke="#63b8ff" points="135.46,-135.9 125.97,-131.19 130.45,-140.79 135.46,-135.9"/>
</a>
</g>
</g>
<!-- Node5 -->
<g id="Node000005" class="node">
<title>Node5</title>
<g id="a_Node000005"><a xlink:href="config_8h.html" target="_top" xlink:title=" ">
<polygon fill="white" stroke="#666666" points="159.39,-74.5 108.89,-74.5 108.89,-55.25 159.39,-55.25 159.39,-74.5"/>
<text text-anchor="middle" x="134.14" y="-61" font-family="Helvetica,sans-Serif" font-size="10.00">config.h</text>
</a>
</g>
</g>
<!-- Node1&#45;&gt;Node5 -->
<g id="edge4_Node000001_Node000005" class="edge">
<title>Node1&#45;&gt;Node5</title>
<g id="a_edge4_Node000001_Node000005"><a xlink:title=" ">
<path fill="none" stroke="#63b8ff" d="M109.98,-165.89C68.88,-158.57 18.91,-146.52 6.14,-129.75 -20.5,-94.78 50.89,-77.63 97.49,-70.38"/>
<polygon fill="#63b8ff" stroke="#63b8ff" points="97.83,-73.87 107.22,-68.96 96.83,-66.94 97.83,-73.87"/>
</a>
</g>
</g>
<!-- Node6 -->
<g id="Node000006" class="node">
<title>Node6</title>
<g id="a_Node000006"><a xlink:href="vehicle__parameters_8h.html" target="_top" xlink:title="Vehicle Configuration Parameters and Operating Limits.">
<polygon fill="white" stroke="#666666" points="324.64,-74.5 215.64,-74.5 215.64,-55.25 324.64,-55.25 324.64,-74.5"/>
<text text-anchor="middle" x="270.14" y="-61" font-family="Helvetica,sans-Serif" font-size="10.00">vehicle_parameters.h</text>
</a>
</g>
</g>
<!-- Node1&#45;&gt;Node6 -->
<g id="edge6_Node000001_Node000006" class="edge">
<title>Node1&#45;&gt;Node6</title>
<g id="a_edge6_Node000001_Node000006"><a xlink:title=" ">
<path fill="none" stroke="#63b8ff" d="M220.11,-165.33C240.52,-158.96 261.94,-148.13 274.14,-129.75 282.71,-116.85 280.76,-99.07 277.21,-85.54"/>
<polygon fill="#63b8ff" stroke="#63b8ff" points="280.55,-84.51 274.21,-76.02 273.88,-86.61 280.55,-84.51"/>
</a>
</g>
</g>
<!-- Node7 -->
<g id="Node000007" class="node">
<title>Node7</title>
<g id="a_Node000007"><a xlink:href="state__manager_8h.html" target="_top" xlink:title="Vehicle State Management System.">
<polygon fill="white" stroke="#666666" points="265.14,-129.75 177.14,-129.75 177.14,-110.5 265.14,-110.5 265.14,-129.75"/>
<text text-anchor="middle" x="221.14" y="-116.25" font-family="Helvetica,sans-Serif" font-size="10.00">state_manager.h</text>
</a>
</g>
</g>
<!-- Node1&#45;&gt;Node7 -->
<g id="edge7_Node000001_Node000007" class="edge">
<title>Node1&#45;&gt;Node7</title>
<g id="a_edge7_Node000001_Node000007"><a xlink:title=" ">
<path fill="none" stroke="#63b8ff" d="M176.89,-165.58C184.29,-158.15 195.1,-147.29 204.19,-138.16"/>
<polygon fill="#63b8ff" stroke="#63b8ff" points="206.56,-140.74 211.13,-131.18 201.6,-135.8 206.56,-140.74"/>
</a>
</g>
</g>
<!-- Node5&#45;&gt;Node2 -->
<g id="edge5_Node000005_Node000002" class="edge">
<title>Node5&#45;&gt;Node2</title>
<g id="a_edge5_Node000005_Node000002"><a xlink:title=" ">
<path fill="none" stroke="#63b8ff" d="M142.89,-55.08C150.29,-47.65 161.1,-36.79 170.19,-27.66"/>
<polygon fill="#63b8ff" stroke="#63b8ff" points="172.56,-30.24 177.13,-20.68 167.6,-25.3 172.56,-30.24"/>
</a>
</g>
</g>
<!-- Node7&#45;&gt;Node2 -->
<g id="edge8_Node000007_Node000002" class="edge">
<title>Node7&#45;&gt;Node2</title>
<g id="a_edge8_Node000007_Node000002"><a xlink:title=" ">
<path fill="none" stroke="#63b8ff" d="M218.35,-110.24C215.52,-101.23 211.03,-86.9 207.14,-74.5 202.51,-59.71 197.27,-42.99 193.32,-30.37"/>
<polygon fill="#63b8ff" stroke="#63b8ff" points="196.77,-29.66 190.44,-21.17 190.09,-31.76 196.77,-29.66"/>
</a>
</g>
</g>
<!-- Node7&#45;&gt;Node5 -->
<g id="edge9_Node000007_Node000005" class="edge">
<title>Node7&#45;&gt;Node5</title>
<g id="a_edge9_Node000007_Node000005"><a xlink:title=" ">
<path fill="none" stroke="#63b8ff" d="M206.38,-110.09C193.26,-102.06 173.82,-90.16 158.41,-80.73"/>
<polygon fill="#63b8ff" stroke="#63b8ff" points="160.62,-77.98 150.26,-75.74 156.96,-83.95 160.62,-77.98"/>
</a>
</g>
</g>
<!-- Node7&#45;&gt;Node6 -->
<g id="edge10_Node000007_Node000006" class="edge">
<title>Node7&#45;&gt;Node6</title>
<g id="a_edge10_Node000007_Node000006"><a xlink:title=" ">
<path fill="none" stroke="#63b8ff" d="M229.23,-110.33C236,-102.98 245.86,-92.26 254.21,-83.19"/>
<polygon fill="#63b8ff" stroke="#63b8ff" points="256.65,-85.7 260.85,-75.97 251.5,-80.96 256.65,-85.7"/>
</a>
</g>
</g>
</g>
</svg>
