<?xml version="1.0" encoding="UTF-8" standalone="no"?>
<!DOCTYPE svg PUBLIC "-//W3C//DTD SVG 1.1//EN"
 "http://www.w3.org/Graphics/SVG/1.1/DTD/svg11.dtd">
<!-- Generated by graphviz version 12.2.0 (20241103.1931)
 -->
<!-- Title: src/can_manager.cpp Pages: 1 -->
<svg width="391pt" height="248pt"
 viewBox="0.00 0.00 391.12 248.25" xmlns="http://www.w3.org/2000/svg" xmlns:xlink="http://www.w3.org/1999/xlink">

<svg id="main" version="1.1" xmlns="http://www.w3.org/2000/svg" xmlns:xlink="http://www.w3.org/1999/xlink" xml:space="preserve">

<style type="text/css"><![CDATA[
.node, .edge {opacity: 0.7;}
.node.selected, .edge.selected {opacity: 1;}
.edge:hover path { stroke: red; }
.edge:hover polygon { stroke: red; fill: red; }
]]></style>
<script type="application/ecmascript" xlink:href="svg.min.js"/>
<svg id="graph" class="graph">
<g id="graph0" class="graph" transform="scale(1 1) rotate(0) translate(4 244.25)">
<title>src/can_manager.cpp</title>
<!-- Node1 -->
<g id="Node000001" class="node">
<title>Node1</title>
<g id="a_Node000001"><a xlink:title="Implementation of CAN communication management system.">
<polygon fill="#999999" stroke="#666666" points="219.75,-240.25 110.75,-240.25 110.75,-221 219.75,-221 219.75,-240.25"/>
<text text-anchor="middle" x="165.25" y="-226.75" font-family="Helvetica,sans-Serif" font-size="10.00">src/can_manager.cpp</text>
</a>
</g>
</g>
<!-- Node2 -->
<g id="Node000002" class="node">
<title>Node2</title>
<g id="a_Node000002"><a xlink:href="can__manager_8h.html" target="_top" xlink:title="CAN Communication Manager for Vehicle Control System.">
<polygon fill="white" stroke="#666666" points="206.25,-185 124.25,-185 124.25,-165.75 206.25,-165.75 206.25,-185"/>
<text text-anchor="middle" x="165.25" y="-171.5" font-family="Helvetica,sans-Serif" font-size="10.00">can_manager.h</text>
</a>
</g>
</g>
<!-- Node1&#45;&gt;Node2 -->
<g id="edge1_Node000001_Node000002" class="edge">
<title>Node1&#45;&gt;Node2</title>
<g id="a_edge1_Node000001_Node000002"><a xlink:title=" ">
<path fill="none" stroke="#63b8ff" d="M165.25,-220.83C165.25,-214.32 165.25,-205.17 165.25,-196.87"/>
<polygon fill="#63b8ff" stroke="#63b8ff" points="168.75,-196.87 165.25,-186.87 161.75,-196.87 168.75,-196.87"/>
</a>
</g>
</g>
<!-- Node6 -->
<g id="Node000006" class="node">
<title>Node6</title>
<g id="a_Node000006"><a xlink:href="config_8h.html" target="_top" xlink:title=" ">
<polygon fill="white" stroke="#666666" points="50.5,-74.5 0,-74.5 0,-55.25 50.5,-55.25 50.5,-74.5"/>
<text text-anchor="middle" x="25.25" y="-61" font-family="Helvetica,sans-Serif" font-size="10.00">config.h</text>
</a>
</g>
</g>
<!-- Node1&#45;&gt;Node6 -->
<g id="edge14_Node000001_Node000006" class="edge">
<title>Node1&#45;&gt;Node6</title>
<g id="a_edge14_Node000001_Node000006"><a xlink:title=" ">
<path fill="none" stroke="#63b8ff" d="M139.68,-220.61C105.44,-206.97 46.13,-177.51 21.25,-129.75 14.18,-116.17 15.88,-98.7 18.96,-85.46"/>
<polygon fill="#63b8ff" stroke="#63b8ff" points="22.23,-86.76 21.55,-76.19 15.49,-84.88 22.23,-86.76"/>
</a>
</g>
</g>
<!-- Node8 -->
<g id="Node000008" class="node">
<title>Node8</title>
<g id="a_Node000008"><a xlink:href="state__manager_8h.html" target="_top" xlink:title="Vehicle State Management System.">
<polygon fill="white" stroke="#666666" points="131.25,-129.75 43.25,-129.75 43.25,-110.5 131.25,-110.5 131.25,-129.75"/>
<text text-anchor="middle" x="87.25" y="-116.25" font-family="Helvetica,sans-Serif" font-size="10.00">state_manager.h</text>
</a>
</g>
</g>
<!-- Node1&#45;&gt;Node8 -->
<g id="edge12_Node000001_Node000008" class="edge">
<title>Node1&#45;&gt;Node8</title>
<g id="a_edge12_Node000001_Node000008"><a xlink:title=" ">
<path fill="none" stroke="#63b8ff" d="M152.34,-220.6C141.32,-212.36 125.64,-199.31 115.25,-185 105.45,-171.49 98.09,-154.02 93.38,-140.76"/>
<polygon fill="#63b8ff" stroke="#63b8ff" points="96.76,-139.83 90.28,-131.44 90.11,-142.04 96.76,-139.83"/>
</a>
</g>
</g>
<!-- Node9 -->
<g id="Node000009" class="node">
<title>Node9</title>
<g id="a_Node000009"><a xlink:title=" ">
<polygon fill="#e0e0e0" stroke="#999999" points="309.75,-185 224.75,-185 224.75,-165.75 309.75,-165.75 309.75,-185"/>
<text text-anchor="middle" x="267.25" y="-171.5" font-family="Helvetica,sans-Serif" font-size="10.00">esp_task_wdt.h</text>
</a>
</g>
</g>
<!-- Node1&#45;&gt;Node9 -->
<g id="edge13_Node000001_Node000009" class="edge">
<title>Node1&#45;&gt;Node9</title>
<g id="a_edge13_Node000001_Node000009"><a xlink:title=" ">
<path fill="none" stroke="#63b8ff" d="M182.55,-220.59C198.23,-212.41 221.6,-200.21 239.83,-190.69"/>
<polygon fill="#63b8ff" stroke="#63b8ff" points="241.28,-193.88 248.52,-186.15 238.04,-187.68 241.28,-193.88"/>
</a>
</g>
</g>
<!-- Node10 -->
<g id="Node000010" class="node">
<title>Node10</title>
<g id="a_Node000010"><a xlink:title=" ">
<polygon fill="#e0e0e0" stroke="#999999" points="383.12,-185 327.38,-185 327.38,-165.75 383.12,-165.75 383.12,-185"/>
<text text-anchor="middle" x="355.25" y="-171.5" font-family="Helvetica,sans-Serif" font-size="10.00">algorithm</text>
</a>
</g>
</g>
<!-- Node1&#45;&gt;Node10 -->
<g id="edge15_Node000001_Node000010" class="edge">
<title>Node1&#45;&gt;Node10</title>
<g id="a_edge15_Node000001_Node000010"><a xlink:title=" ">
<path fill="none" stroke="#63b8ff" d="M197.48,-220.59C230.25,-211.41 281.05,-197.17 316.11,-187.34"/>
<polygon fill="#63b8ff" stroke="#63b8ff" points="316.76,-190.8 325.44,-184.73 314.87,-184.06 316.76,-190.8"/>
</a>
</g>
</g>
<!-- Node3 -->
<g id="Node000003" class="node">
<title>Node3</title>
<g id="a_Node000003"><a xlink:title=" ">
<polygon fill="#e0e0e0" stroke="#999999" points="115.88,-19.25 58.62,-19.25 58.62,0 115.88,0 115.88,-19.25"/>
<text text-anchor="middle" x="87.25" y="-5.75" font-family="Helvetica,sans-Serif" font-size="10.00">Arduino.h</text>
</a>
</g>
</g>
<!-- Node2&#45;&gt;Node3 -->
<g id="edge2_Node000002_Node000003" class="edge">
<title>Node2&#45;&gt;Node3</title>
<g id="a_edge2_Node000002_Node000003"><a xlink:title=" ">
<path fill="none" stroke="#63b8ff" d="M205.36,-165.3C248.32,-155.17 311.32,-138.99 318.25,-129.75 323.38,-122.91 320.41,-118.78 318.25,-110.5 311.13,-83.26 309.84,-72.05 287.25,-55.25 240.18,-20.24 170.78,-11.82 127.34,-10.26"/>
<polygon fill="#63b8ff" stroke="#63b8ff" points="127.67,-6.76 117.59,-10.02 127.5,-13.76 127.67,-6.76"/>
</a>
</g>
</g>
<!-- Node4 -->
<g id="Node000004" class="node">
<title>Node4</title>
<g id="a_Node000004"><a xlink:title=" ">
<polygon fill="#e0e0e0" stroke="#999999" points="189.62,-129.75 148.88,-129.75 148.88,-110.5 189.62,-110.5 189.62,-129.75"/>
<text text-anchor="middle" x="169.25" y="-116.25" font-family="Helvetica,sans-Serif" font-size="10.00">SPI.h</text>
</a>
</g>
</g>
<!-- Node2&#45;&gt;Node4 -->
<g id="edge3_Node000002_Node000004" class="edge">
<title>Node2&#45;&gt;Node4</title>
<g id="a_edge3_Node000002_Node000004"><a xlink:title=" ">
<path fill="none" stroke="#63b8ff" d="M165.91,-165.58C166.41,-158.99 167.1,-149.71 167.73,-141.32"/>
<polygon fill="#63b8ff" stroke="#63b8ff" points="171.2,-141.85 168.46,-131.62 164.22,-141.33 171.2,-141.85"/>
</a>
</g>
</g>
<!-- Node5 -->
<g id="Node000005" class="node">
<title>Node5</title>
<g id="a_Node000005"><a xlink:title=" ">
<polygon fill="#e0e0e0" stroke="#999999" points="292.75,-129.75 207.75,-129.75 207.75,-110.5 292.75,-110.5 292.75,-129.75"/>
<text text-anchor="middle" x="250.25" y="-116.25" font-family="Helvetica,sans-Serif" font-size="10.00">mcp2515_can.h</text>
</a>
</g>
</g>
<!-- Node2&#45;&gt;Node5 -->
<g id="edge4_Node000002_Node000005" class="edge">
<title>Node2&#45;&gt;Node5</title>
<g id="a_edge4_Node000002_Node000005"><a xlink:title=" ">
<path fill="none" stroke="#63b8ff" d="M179.67,-165.34C192.37,-157.39 211.12,-145.64 226.11,-136.25"/>
<polygon fill="#63b8ff" stroke="#63b8ff" points="227.86,-139.28 234.48,-131.01 224.15,-133.35 227.86,-139.28"/>
</a>
</g>
</g>
<!-- Node2&#45;&gt;Node6 -->
<g id="edge5_Node000002_Node000006" class="edge">
<title>Node2&#45;&gt;Node6</title>
<g id="a_edge5_Node000002_Node000006"><a xlink:title=" ">
<path fill="none" stroke="#63b8ff" d="M124.01,-171.44C94.46,-167.04 56.15,-156.22 34.25,-129.75 24.3,-117.73 22.52,-99.87 22.96,-86.09"/>
<polygon fill="#63b8ff" stroke="#63b8ff" points="26.43,-86.61 23.7,-76.37 19.45,-86.08 26.43,-86.61"/>
</a>
</g>
</g>
<!-- Node7 -->
<g id="Node000007" class="node">
<title>Node7</title>
<g id="a_Node000007"><a xlink:href="vehicle__parameters_8h.html" target="_top" xlink:title="Vehicle Configuration Parameters and Operating Limits.">
<polygon fill="white" stroke="#666666" points="277.75,-74.5 168.75,-74.5 168.75,-55.25 277.75,-55.25 277.75,-74.5"/>
<text text-anchor="middle" x="223.25" y="-61" font-family="Helvetica,sans-Serif" font-size="10.00">vehicle_parameters.h</text>
</a>
</g>
</g>
<!-- Node2&#45;&gt;Node7 -->
<g id="edge7_Node000002_Node000007" class="edge">
<title>Node2&#45;&gt;Node7</title>
<g id="a_edge7_Node000002_Node000007"><a xlink:title=" ">
<path fill="none" stroke="#63b8ff" d="M206.73,-166.42C242.73,-158.57 290.82,-145.49 302.25,-129.75 317.57,-108.64 288.84,-90.61 261.83,-79.14"/>
<polygon fill="#63b8ff" stroke="#63b8ff" points="263.26,-75.94 252.67,-75.49 260.67,-82.44 263.26,-75.94"/>
</a>
</g>
</g>
<!-- Node2&#45;&gt;Node8 -->
<g id="edge8_Node000002_Node000008" class="edge">
<title>Node2&#45;&gt;Node8</title>
<g id="a_edge8_Node000002_Node000008"><a xlink:title=" ">
<path fill="none" stroke="#63b8ff" d="M152.02,-165.34C140.48,-157.46 123.48,-145.86 109.8,-136.52"/>
<polygon fill="#63b8ff" stroke="#63b8ff" points="112.03,-133.8 101.8,-131.06 108.08,-139.58 112.03,-133.8"/>
</a>
</g>
</g>
<!-- Node6&#45;&gt;Node3 -->
<g id="edge6_Node000006_Node000003" class="edge">
<title>Node6&#45;&gt;Node3</title>
<g id="a_edge6_Node000006_Node000003"><a xlink:title=" ">
<path fill="none" stroke="#63b8ff" d="M35.77,-54.84C44.64,-47.22 57.56,-36.12 68.24,-26.95"/>
<polygon fill="#63b8ff" stroke="#63b8ff" points="70.43,-29.68 75.74,-20.51 65.87,-24.37 70.43,-29.68"/>
</a>
</g>
</g>
<!-- Node8&#45;&gt;Node3 -->
<g id="edge9_Node000008_Node000003" class="edge">
<title>Node8&#45;&gt;Node3</title>
<g id="a_edge9_Node000008_Node000003"><a xlink:title=" ">
<path fill="none" stroke="#63b8ff" d="M87.25,-110.25C87.25,-93 87.25,-54.58 87.25,-30.81"/>
<polygon fill="#63b8ff" stroke="#63b8ff" points="90.75,-31.14 87.25,-21.14 83.75,-31.14 90.75,-31.14"/>
</a>
</g>
</g>
<!-- Node8&#45;&gt;Node6 -->
<g id="edge10_Node000008_Node000006" class="edge">
<title>Node8&#45;&gt;Node6</title>
<g id="a_edge10_Node000008_Node000006"><a xlink:title=" ">
<path fill="none" stroke="#63b8ff" d="M76.73,-110.09C67.86,-102.47 54.94,-91.37 44.26,-82.2"/>
<polygon fill="#63b8ff" stroke="#63b8ff" points="46.63,-79.62 36.76,-75.76 42.07,-84.93 46.63,-79.62"/>
</a>
</g>
</g>
<!-- Node8&#45;&gt;Node7 -->
<g id="edge11_Node000008_Node000007" class="edge">
<title>Node8&#45;&gt;Node7</title>
<g id="a_edge11_Node000008_Node000007"><a xlink:title=" ">
<path fill="none" stroke="#63b8ff" d="M110.32,-110.09C132.01,-101.6 164.73,-88.79 189.38,-79.14"/>
<polygon fill="#63b8ff" stroke="#63b8ff" points="190.62,-82.41 198.66,-75.5 188.07,-75.89 190.62,-82.41"/>
</a>
</g>
</g>
</g>
</svg>
</svg>

<style type='text/css'>
<![CDATA[
[data-mouse-over-selected='false'] { opacity: 0.7; }
[data-mouse-over-selected='true']  { opacity: 1.0; }
]]>
</style>
<script type="application/ecmascript"><![CDATA[
document.addEventListener('DOMContentLoaded', (event) => {
  highlightEdges();
  highlightAdjacentNodes();
});
]]></script>
</svg>
