<?xml version="1.0" encoding="UTF-8" standalone="no"?>
<!DOCTYPE svg PUBLIC "-//W3C//DTD SVG 1.1//EN"
 "http://www.w3.org/Graphics/SVG/1.1/DTD/svg11.dtd">
<!-- Generated by graphviz version 12.2.0 (20241103.1931)
 -->
<!-- Title: CANManager Pages: 1 -->
<svg width="297pt" height="160pt"
 viewBox="0.00 0.00 297.00 160.25" xmlns="http://www.w3.org/2000/svg" xmlns:xlink="http://www.w3.org/1999/xlink">

<svg id="main" version="1.1" xmlns="http://www.w3.org/2000/svg" xmlns:xlink="http://www.w3.org/1999/xlink" xml:space="preserve">

<style type="text/css"><![CDATA[
.node, .edge {opacity: 0.7;}
.node.selected, .edge.selected {opacity: 1;}
.edge:hover path { stroke: red; }
.edge:hover polygon { stroke: red; fill: red; }
]]></style>
<script type="application/ecmascript" xlink:href="svg.min.js"/>
<svg id="graph" class="graph">
<g id="graph0" class="graph" transform="scale(1 1) rotate(0) translate(4 156.25)">
<title>CANManager</title>
<!-- Node1 -->
<g id="Node000001" class="node">
<title>Node1</title>
<g id="a_Node000001"><a xlink:title="CAN Communication Manager Class.">
<polygon fill="#999999" stroke="#666666" points="183,-85.75 107.75,-85.75 107.75,-66.5 183,-66.5 183,-85.75"/>
<text text-anchor="middle" x="145.38" y="-72.25" font-family="Helvetica,sans-Serif" font-size="10.00">CANManager</text>
</a>
</g>
</g>
<!-- Node6 -->
<g id="Node000006" class="node">
<title>Node6</title>
<g id="a_Node000006"><a xlink:href="class_state_manager.html" target="_top" xlink:title=" ">
<polygon fill="white" stroke="#666666" points="183.75,-19.25 107,-19.25 107,0 183.75,0 183.75,-19.25"/>
<text text-anchor="middle" x="145.38" y="-5.75" font-family="Helvetica,sans-Serif" font-size="10.00">StateManager</text>
</a>
</g>
</g>
<!-- Node1&#45;&gt;Node6 -->
<g id="edge6_Node000006_Node000001" class="edge">
<title>Node1&#45;&gt;Node6</title>
<g id="a_edge6_Node000006_Node000001"><a xlink:title=" ">
<path fill="none" stroke="#9a32cd" stroke-dasharray="5,2" d="M113.21,-60.04C109.17,-56.8 105.6,-52.98 103.12,-48.5 96.51,-36.51 109.53,-26.38 122.82,-19.61"/>
<polygon fill="#9a32cd" stroke="#9a32cd" points="111.01,-62.78 121.28,-65.38 114.87,-56.95 111.01,-62.78"/>
</a>
</g>
<text text-anchor="middle" x="131.25" y="-39" font-family="Helvetica,sans-Serif" font-size="10.00" fill="grey"> canManager</text>
</g>
<!-- Node2 -->
<g id="Node000002" class="node">
<title>Node2</title>
<g id="a_Node000002"><a xlink:href="struct_b_m_s_data.html" target="_top" xlink:title="Battery Management System data structure Contains battery state information from BMS.">
<polygon fill="white" stroke="#666666" points="58.75,-152.25 0,-152.25 0,-133 58.75,-133 58.75,-152.25"/>
<text text-anchor="middle" x="29.38" y="-138.75" font-family="Helvetica,sans-Serif" font-size="10.00">BMSData</text>
</a>
</g>
</g>
<!-- Node2&#45;&gt;Node1 -->
<g id="edge1_Node000001_Node000002" class="edge">
<title>Node2&#45;&gt;Node1</title>
<g id="a_edge1_Node000001_Node000002"><a xlink:title=" ">
<path fill="none" stroke="#9a32cd" stroke-dasharray="5,2" d="M43.79,-124.22C50.43,-117.08 58.8,-109.22 67.62,-103.75 79.87,-96.15 94.56,-90.41 107.85,-86.23"/>
<polygon fill="#9a32cd" stroke="#9a32cd" points="41.35,-121.69 37.38,-131.51 46.61,-126.31 41.35,-121.69"/>
</a>
</g>
<text text-anchor="middle" x="89" y="-105.5" font-family="Helvetica,sans-Serif" font-size="10.00" fill="grey"> bmsData</text>
</g>
<!-- Node3 -->
<g id="Node000003" class="node">
<title>Node3</title>
<g id="a_Node000003"><a xlink:href="struct_d_m_c_data.html" target="_top" xlink:title="Drive Motor Controller data structure Contains motor and inverter operational data.">
<polygon fill="white" stroke="#666666" points="137.5,-152.25 77.25,-152.25 77.25,-133 137.5,-133 137.5,-152.25"/>
<text text-anchor="middle" x="107.38" y="-138.75" font-family="Helvetica,sans-Serif" font-size="10.00">DMCData</text>
</a>
</g>
</g>
<!-- Node3&#45;&gt;Node1 -->
<g id="edge2_Node000001_Node000003" class="edge">
<title>Node3&#45;&gt;Node1</title>
<g id="a_edge2_Node000001_Node000003"><a xlink:title=" ">
<path fill="none" stroke="#9a32cd" stroke-dasharray="5,2" d="M111.87,-121.98C113.75,-115.88 116.29,-109.31 119.62,-103.75 123.6,-97.13 129.5,-90.87 134.66,-86.08"/>
<polygon fill="#9a32cd" stroke="#9a32cd" points="108.59,-120.7 109.44,-131.26 115.36,-122.48 108.59,-120.7"/>
</a>
</g>
<text text-anchor="middle" x="141" y="-105.5" font-family="Helvetica,sans-Serif" font-size="10.00" fill="grey"> dmcData</text>
</g>
<!-- Node4 -->
<g id="Node000004" class="node">
<title>Node4</title>
<g id="a_Node000004"><a xlink:href="struct_b_s_c_data.html" target="_top" xlink:title="Battery Switch Controller data structure Contains DC&#45;DC converter operational data.">
<polygon fill="white" stroke="#666666" points="213.38,-152.25 155.38,-152.25 155.38,-133 213.38,-133 213.38,-152.25"/>
<text text-anchor="middle" x="184.38" y="-138.75" font-family="Helvetica,sans-Serif" font-size="10.00">BSCData</text>
</a>
</g>
</g>
<!-- Node4&#45;&gt;Node1 -->
<g id="edge3_Node000001_Node000004" class="edge">
<title>Node4&#45;&gt;Node1</title>
<g id="a_edge3_Node000001_Node000004"><a xlink:title=" ">
<path fill="none" stroke="#9a32cd" stroke-dasharray="5,2" d="M173.54,-122.6C170.03,-116.55 166.08,-109.84 162.38,-103.75 158.72,-97.76 154.47,-91.1 151.14,-85.94"/>
<polygon fill="#9a32cd" stroke="#9a32cd" points="170.47,-124.29 178.48,-131.22 176.54,-120.8 170.47,-124.29"/>
</a>
</g>
<text text-anchor="middle" x="188.43" y="-105.5" font-family="Helvetica,sans-Serif" font-size="10.00" fill="grey"> bscData</text>
</g>
<!-- Node5 -->
<g id="Node000005" class="node">
<title>Node5</title>
<g id="a_Node000005"><a xlink:href="struct_n_l_g_data.html" target="_top" xlink:title="Network Load Gateway data structure Contains charging system data.">
<polygon fill="white" stroke="#666666" points="289,-152.25 231.75,-152.25 231.75,-133 289,-133 289,-152.25"/>
<text text-anchor="middle" x="260.38" y="-138.75" font-family="Helvetica,sans-Serif" font-size="10.00">NLGData</text>
</a>
</g>
</g>
<!-- Node5&#45;&gt;Node1 -->
<g id="edge4_Node000001_Node000005" class="edge">
<title>Node5&#45;&gt;Node1</title>
<g id="a_edge4_Node000001_Node000005"><a xlink:title=" ">
<path fill="none" stroke="#9a32cd" stroke-dasharray="5,2" d="M242.26,-125.28C233.63,-118.05 222.91,-109.83 212.38,-103.75 200.12,-96.68 185.63,-90.67 173.27,-86.15"/>
<polygon fill="#9a32cd" stroke="#9a32cd" points="239.7,-127.69 249.55,-131.6 244.28,-122.4 239.7,-127.69"/>
</a>
</g>
<text text-anchor="middle" x="247.51" y="-105.5" font-family="Helvetica,sans-Serif" font-size="10.00" fill="grey"> nlgData</text>
</g>
<!-- Node6&#45;&gt;Node1 -->
<g id="edge5_Node000001_Node000006" class="edge">
<title>Node6&#45;&gt;Node1</title>
<g id="a_edge5_Node000001_Node000006"><a xlink:title=" ">
<path fill="none" stroke="#9a32cd" stroke-dasharray="5,2" d="M160.2,-28.91C163.45,-34.99 165.4,-41.9 163.38,-48.5 161.35,-55.12 157.06,-61.57 153.18,-66.47"/>
<polygon fill="#9a32cd" stroke="#9a32cd" points="163.3,-27.25 154.81,-20.91 157.5,-31.16 163.3,-27.25"/>
</a>
</g>
<text text-anchor="middle" x="195.32" y="-39" font-family="Helvetica,sans-Serif" font-size="10.00" fill="grey"> stateManager</text>
</g>
</g>
</svg>
</svg>

<style type='text/css'>
<![CDATA[
[data-mouse-over-selected='false'] { opacity: 0.7; }
[data-mouse-over-selected='true']  { opacity: 1.0; }
]]>
</style>
<script type="application/ecmascript"><![CDATA[
document.addEventListener('DOMContentLoaded', (event) => {
  highlightEdges();
  highlightAdjacentNodes();
});
]]></script>
</svg>
