<?xml version="1.0" encoding="UTF-8" standalone="no"?>
<!DOCTYPE svg PUBLIC "-//W3C//DTD SVG 1.1//EN"
 "http://www.w3.org/Graphics/SVG/1.1/DTD/svg11.dtd">
<!-- Generated by graphviz version 12.2.0 (20241103.1931)
 -->
<!-- Title: StateManager Pages: 1 -->
<svg width="425pt" height="94pt"
 viewBox="0.00 0.00 425.00 93.75" xmlns="http://www.w3.org/2000/svg" xmlns:xlink="http://www.w3.org/1999/xlink">

<svg id="main" version="1.1" xmlns="http://www.w3.org/2000/svg" xmlns:xlink="http://www.w3.org/1999/xlink" xml:space="preserve">

<style type="text/css"><![CDATA[
.node, .edge {opacity: 0.7;}
.node.selected, .edge.selected {opacity: 1;}
.edge:hover path { stroke: red; }
.edge:hover polygon { stroke: red; fill: red; }
]]></style>
<script type="application/ecmascript" xlink:href="svg.min.js"/>
<svg id="graph" class="graph">
<g id="graph0" class="graph" transform="scale(1 1) rotate(0) translate(4 89.75)">
<title>StateManager</title>
<!-- Node1 -->
<g id="Node000001" class="node">
<title>Node1</title>
<g id="a_Node000001"><a xlink:title=" ">
<polygon fill="#999999" stroke="#666666" points="76.75,-85.75 0,-85.75 0,-66.5 76.75,-66.5 76.75,-85.75"/>
<text text-anchor="middle" x="38.38" y="-72.25" font-family="Helvetica,sans-Serif" font-size="10.00">StateManager</text>
</a>
</g>
</g>
<!-- Node2 -->
<g id="Node000002" class="node">
<title>Node2</title>
<g id="a_Node000002"><a xlink:href="class_c_a_n_manager.html" target="_top" xlink:title="CAN Communication Manager Class.">
<polygon fill="white" stroke="#666666" points="240,-19.25 164.75,-19.25 164.75,0 240,0 240,-19.25"/>
<text text-anchor="middle" x="202.38" y="-5.75" font-family="Helvetica,sans-Serif" font-size="10.00">CANManager</text>
</a>
</g>
</g>
<!-- Node1&#45;&gt;Node2 -->
<g id="edge6_Node000002_Node000001" class="edge">
<title>Node1&#45;&gt;Node2</title>
<g id="a_edge6_Node000002_Node000001"><a xlink:title=" ">
<path fill="none" stroke="#9a32cd" stroke-dasharray="5,2" d="M19.3,-58.08C13.86,-51.23 10.71,-43.49 16.12,-37.25 34.9,-15.6 115.47,-11.12 164.28,-10.44"/>
<polygon fill="#9a32cd" stroke="#9a32cd" points="16.46,-60.17 25.89,-65.01 21.53,-55.35 16.46,-60.17"/>
</a>
</g>
<text text-anchor="middle" x="47.25" y="-39" font-family="Helvetica,sans-Serif" font-size="10.00" fill="grey"> stateManager</text>
</g>
<!-- Node2&#45;&gt;Node1 -->
<g id="edge1_Node000001_Node000002" class="edge">
<title>Node2&#45;&gt;Node1</title>
<g id="a_edge1_Node000001_Node000002"><a xlink:title=" ">
<path fill="none" stroke="#9a32cd" stroke-dasharray="5,2" d="M153.58,-21.45C137.83,-25.6 120.49,-30.9 105.12,-37.25 85.79,-45.24 65.07,-57.67 51.93,-66.1"/>
<polygon fill="#9a32cd" stroke="#9a32cd" points="154.41,-24.85 163.24,-18.99 152.69,-18.06 154.41,-24.85"/>
</a>
</g>
<text text-anchor="middle" x="133.25" y="-39" font-family="Helvetica,sans-Serif" font-size="10.00" fill="grey"> canManager</text>
</g>
<!-- Node3 -->
<g id="Node000003" class="node">
<title>Node3</title>
<g id="a_Node000003"><a xlink:href="struct_b_m_s_data.html" target="_top" xlink:title="Battery Management System data structure Contains battery state information from BMS.">
<polygon fill="white" stroke="#666666" points="186.75,-85.75 128,-85.75 128,-66.5 186.75,-66.5 186.75,-85.75"/>
<text text-anchor="middle" x="157.38" y="-72.25" font-family="Helvetica,sans-Serif" font-size="10.00">BMSData</text>
</a>
</g>
</g>
<!-- Node3&#45;&gt;Node2 -->
<g id="edge2_Node000002_Node000003" class="edge">
<title>Node3&#45;&gt;Node2</title>
<g id="a_edge2_Node000002_Node000003"><a xlink:title=" ">
<path fill="none" stroke="#9a32cd" stroke-dasharray="5,2" d="M162.11,-55.26C164.14,-49.15 166.91,-42.63 170.62,-37.25 175.37,-30.39 182.33,-24.27 188.53,-19.64"/>
<polygon fill="#9a32cd" stroke="#9a32cd" points="158.82,-54.05 159.51,-64.62 165.56,-55.93 158.82,-54.05"/>
</a>
</g>
<text text-anchor="middle" x="192" y="-39" font-family="Helvetica,sans-Serif" font-size="10.00" fill="grey"> bmsData</text>
</g>
<!-- Node4 -->
<g id="Node000004" class="node">
<title>Node4</title>
<g id="a_Node000004"><a xlink:href="struct_d_m_c_data.html" target="_top" xlink:title="Drive Motor Controller data structure Contains motor and inverter operational data.">
<polygon fill="white" stroke="#666666" points="265.5,-85.75 205.25,-85.75 205.25,-66.5 265.5,-66.5 265.5,-85.75"/>
<text text-anchor="middle" x="235.38" y="-72.25" font-family="Helvetica,sans-Serif" font-size="10.00">DMCData</text>
</a>
</g>
</g>
<!-- Node4&#45;&gt;Node2 -->
<g id="edge3_Node000002_Node000004" class="edge">
<title>Node4&#45;&gt;Node2</title>
<g id="a_edge3_Node000002_Node000004"><a xlink:title=" ">
<path fill="none" stroke="#9a32cd" stroke-dasharray="5,2" d="M225.66,-56.14C219.47,-44.04 211.74,-28.92 206.92,-19.52"/>
<polygon fill="#9a32cd" stroke="#9a32cd" points="222.43,-57.5 230.1,-64.81 228.66,-54.31 222.43,-57.5"/>
</a>
</g>
<text text-anchor="middle" x="242.23" y="-39" font-family="Helvetica,sans-Serif" font-size="10.00" fill="grey"> dmcData</text>
</g>
<!-- Node5 -->
<g id="Node000005" class="node">
<title>Node5</title>
<g id="a_Node000005"><a xlink:href="struct_b_s_c_data.html" target="_top" xlink:title="Battery Switch Controller data structure Contains DC&#45;DC converter operational data.">
<polygon fill="white" stroke="#666666" points="341.38,-85.75 283.38,-85.75 283.38,-66.5 341.38,-66.5 341.38,-85.75"/>
<text text-anchor="middle" x="312.38" y="-72.25" font-family="Helvetica,sans-Serif" font-size="10.00">BSCData</text>
</a>
</g>
</g>
<!-- Node5&#45;&gt;Node2 -->
<g id="edge4_Node000002_Node000005" class="edge">
<title>Node5&#45;&gt;Node2</title>
<g id="a_edge4_Node000002_Node000005"><a xlink:title=" ">
<path fill="none" stroke="#9a32cd" stroke-dasharray="5,2" d="M294.99,-58.3C287.02,-51.18 277.17,-43.18 267.38,-37.25 255.69,-30.18 241.79,-24.2 229.85,-19.71"/>
<polygon fill="#9a32cd" stroke="#9a32cd" points="292.56,-60.81 302.27,-65.05 297.32,-55.68 292.56,-60.81"/>
</a>
</g>
<text text-anchor="middle" x="303.08" y="-39" font-family="Helvetica,sans-Serif" font-size="10.00" fill="grey"> bscData</text>
</g>
<!-- Node6 -->
<g id="Node000006" class="node">
<title>Node6</title>
<g id="a_Node000006"><a xlink:href="struct_n_l_g_data.html" target="_top" xlink:title="Network Load Gateway data structure Contains charging system data.">
<polygon fill="white" stroke="#666666" points="417,-85.75 359.75,-85.75 359.75,-66.5 417,-66.5 417,-85.75"/>
<text text-anchor="middle" x="388.38" y="-72.25" font-family="Helvetica,sans-Serif" font-size="10.00">NLGData</text>
</a>
</g>
</g>
<!-- Node6&#45;&gt;Node2 -->
<g id="edge5_Node000002_Node000006" class="edge">
<title>Node6&#45;&gt;Node2</title>
<g id="a_edge5_Node000002_Node000006"><a xlink:title=" ">
<path fill="none" stroke="#9a32cd" stroke-dasharray="5,2" d="M367.81,-59.86C356.41,-52.05 341.68,-43.01 327.38,-37.25 299.28,-25.94 265.61,-19.12 240.29,-15.22"/>
<polygon fill="#9a32cd" stroke="#9a32cd" points="365.46,-62.48 375.64,-65.41 369.51,-56.77 365.46,-62.48"/>
</a>
</g>
<text text-anchor="middle" x="366.92" y="-39" font-family="Helvetica,sans-Serif" font-size="10.00" fill="grey"> nlgData</text>
</g>
</g>
</svg>
</svg>

<style type='text/css'>
<![CDATA[
[data-mouse-over-selected='false'] { opacity: 0.7; }
[data-mouse-over-selected='true']  { opacity: 1.0; }
]]>
</style>
<script type="application/ecmascript"><![CDATA[
document.addEventListener('DOMContentLoaded', (event) => {
  highlightEdges();
  highlightAdjacentNodes();
});
]]></script>
</svg>
