<?xml version="1.0" encoding="UTF-8" standalone="no"?>
<!DOCTYPE svg PUBLIC "-//W3C//DTD SVG 1.1//EN"
 "http://www.w3.org/Graphics/SVG/1.1/DTD/svg11.dtd">
<!-- Generated by graphviz version 12.2.0 (20241103.1931)
 -->
<!-- Title: SerialConsole Pages: 1 -->
<svg width="375pt" height="227pt"
 viewBox="0.00 0.00 375.13 226.75" xmlns="http://www.w3.org/2000/svg" xmlns:xlink="http://www.w3.org/1999/xlink">

<svg id="main" version="1.1" xmlns="http://www.w3.org/2000/svg" xmlns:xlink="http://www.w3.org/1999/xlink" xml:space="preserve">

<style type="text/css"><![CDATA[
.node, .edge {opacity: 0.7;}
.node.selected, .edge.selected {opacity: 1;}
.edge:hover path { stroke: red; }
.edge:hover polygon { stroke: red; fill: red; }
]]></style>
<script type="application/ecmascript" xlink:href="svg.min.js"/>
<svg id="graph" class="graph">
<g id="graph0" class="graph" transform="scale(1 1) rotate(0) translate(4 222.75)">
<title>SerialConsole</title>
<!-- Node1 -->
<g id="Node000001" class="node">
<title>Node1</title>
<g id="a_Node000001"><a xlink:title=" ">
<polygon fill="#999999" stroke="#666666" points="262.75,-19.25 186,-19.25 186,0 262.75,0 262.75,-19.25"/>
<text text-anchor="middle" x="224.38" y="-5.75" font-family="Helvetica,sans-Serif" font-size="10.00">SerialConsole</text>
</a>
</g>
</g>
<!-- Node2 -->
<g id="Node000002" class="node">
<title>Node2</title>
<g id="a_Node000002"><a xlink:href="class_c_a_n_manager.html" target="_top" xlink:title="CAN Communication Manager Class.">
<polygon fill="white" stroke="#666666" points="183,-152.25 107.75,-152.25 107.75,-133 183,-133 183,-152.25"/>
<text text-anchor="middle" x="145.38" y="-138.75" font-family="Helvetica,sans-Serif" font-size="10.00">CANManager</text>
</a>
</g>
</g>
<!-- Node2&#45;&gt;Node1 -->
<g id="edge1_Node000001_Node000002" class="edge">
<title>Node2&#45;&gt;Node1</title>
<g id="a_edge1_Node000001_Node000002"><a xlink:title=" ">
<path fill="none" stroke="#9a32cd" stroke-dasharray="5,2" d="M131.46,-123.54C121.09,-107.7 110.42,-84.46 121.12,-66.5 135.63,-42.16 164.82,-27.78 188.48,-19.72"/>
<polygon fill="#9a32cd" stroke="#9a32cd" points="128.48,-125.4 137.12,-131.52 134.19,-121.34 128.48,-125.4"/>
</a>
</g>
<text text-anchor="middle" x="149.25" y="-72.25" font-family="Helvetica,sans-Serif" font-size="10.00" fill="grey"> canManager</text>
</g>
<!-- Node7 -->
<g id="Node000007" class="node">
<title>Node7</title>
<g id="a_Node000007"><a xlink:href="class_state_manager.html" target="_top" xlink:title=" ">
<polygon fill="white" stroke="#666666" points="262.75,-85.75 186,-85.75 186,-66.5 262.75,-66.5 262.75,-85.75"/>
<text text-anchor="middle" x="224.38" y="-72.25" font-family="Helvetica,sans-Serif" font-size="10.00">StateManager</text>
</a>
</g>
</g>
<!-- Node2&#45;&gt;Node7 -->
<g id="edge7_Node000007_Node000002" class="edge">
<title>Node2&#45;&gt;Node7</title>
<g id="a_edge7_Node000007_Node000002"><a xlink:title=" ">
<path fill="none" stroke="#9a32cd" stroke-dasharray="5,2" d="M138.76,-121.55C137.93,-115.35 138.43,-108.82 142.12,-103.75 147.6,-96.22 167.07,-89.74 185.69,-85.06"/>
<polygon fill="#9a32cd" stroke="#9a32cd" points="135.33,-122.28 141.14,-131.14 142.13,-120.6 135.33,-122.28"/>
</a>
</g>
<text text-anchor="middle" x="170.25" y="-105.5" font-family="Helvetica,sans-Serif" font-size="10.00" fill="grey"> canManager</text>
</g>
<!-- Node3 -->
<g id="Node000003" class="node">
<title>Node3</title>
<g id="a_Node000003"><a xlink:href="struct_b_m_s_data.html" target="_top" xlink:title="Battery Management System data structure Contains battery state information from BMS.">
<polygon fill="white" stroke="#666666" points="58.75,-218.75 0,-218.75 0,-199.5 58.75,-199.5 58.75,-218.75"/>
<text text-anchor="middle" x="29.38" y="-205.25" font-family="Helvetica,sans-Serif" font-size="10.00">BMSData</text>
</a>
</g>
</g>
<!-- Node3&#45;&gt;Node2 -->
<g id="edge2_Node000002_Node000003" class="edge">
<title>Node3&#45;&gt;Node2</title>
<g id="a_edge2_Node000002_Node000003"><a xlink:title=" ">
<path fill="none" stroke="#9a32cd" stroke-dasharray="5,2" d="M43.79,-190.72C50.43,-183.58 58.8,-175.72 67.62,-170.25 79.87,-162.65 94.56,-156.91 107.85,-152.73"/>
<polygon fill="#9a32cd" stroke="#9a32cd" points="41.35,-188.19 37.38,-198.01 46.61,-192.81 41.35,-188.19"/>
</a>
</g>
<text text-anchor="middle" x="89" y="-172" font-family="Helvetica,sans-Serif" font-size="10.00" fill="grey"> bmsData</text>
</g>
<!-- Node4 -->
<g id="Node000004" class="node">
<title>Node4</title>
<g id="a_Node000004"><a xlink:href="struct_d_m_c_data.html" target="_top" xlink:title="Drive Motor Controller data structure Contains motor and inverter operational data.">
<polygon fill="white" stroke="#666666" points="137.5,-218.75 77.25,-218.75 77.25,-199.5 137.5,-199.5 137.5,-218.75"/>
<text text-anchor="middle" x="107.38" y="-205.25" font-family="Helvetica,sans-Serif" font-size="10.00">DMCData</text>
</a>
</g>
</g>
<!-- Node4&#45;&gt;Node2 -->
<g id="edge3_Node000002_Node000004" class="edge">
<title>Node4&#45;&gt;Node2</title>
<g id="a_edge3_Node000002_Node000004"><a xlink:title=" ">
<path fill="none" stroke="#9a32cd" stroke-dasharray="5,2" d="M111.87,-188.48C113.75,-182.38 116.29,-175.81 119.62,-170.25 123.6,-163.63 129.5,-157.37 134.66,-152.58"/>
<polygon fill="#9a32cd" stroke="#9a32cd" points="108.59,-187.2 109.44,-197.76 115.36,-188.98 108.59,-187.2"/>
</a>
</g>
<text text-anchor="middle" x="141" y="-172" font-family="Helvetica,sans-Serif" font-size="10.00" fill="grey"> dmcData</text>
</g>
<!-- Node5 -->
<g id="Node000005" class="node">
<title>Node5</title>
<g id="a_Node000005"><a xlink:href="struct_b_s_c_data.html" target="_top" xlink:title="Battery Switch Controller data structure Contains DC&#45;DC converter operational data.">
<polygon fill="white" stroke="#666666" points="213.38,-218.75 155.38,-218.75 155.38,-199.5 213.38,-199.5 213.38,-218.75"/>
<text text-anchor="middle" x="184.38" y="-205.25" font-family="Helvetica,sans-Serif" font-size="10.00">BSCData</text>
</a>
</g>
</g>
<!-- Node5&#45;&gt;Node2 -->
<g id="edge4_Node000002_Node000005" class="edge">
<title>Node5&#45;&gt;Node2</title>
<g id="a_edge4_Node000002_Node000005"><a xlink:title=" ">
<path fill="none" stroke="#9a32cd" stroke-dasharray="5,2" d="M173.54,-189.1C170.03,-183.05 166.08,-176.34 162.38,-170.25 158.72,-164.26 154.47,-157.6 151.14,-152.44"/>
<polygon fill="#9a32cd" stroke="#9a32cd" points="170.47,-190.79 178.48,-197.72 176.54,-187.3 170.47,-190.79"/>
</a>
</g>
<text text-anchor="middle" x="188.43" y="-172" font-family="Helvetica,sans-Serif" font-size="10.00" fill="grey"> bscData</text>
</g>
<!-- Node6 -->
<g id="Node000006" class="node">
<title>Node6</title>
<g id="a_Node000006"><a xlink:href="struct_n_l_g_data.html" target="_top" xlink:title="Network Load Gateway data structure Contains charging system data.">
<polygon fill="white" stroke="#666666" points="289,-218.75 231.75,-218.75 231.75,-199.5 289,-199.5 289,-218.75"/>
<text text-anchor="middle" x="260.38" y="-205.25" font-family="Helvetica,sans-Serif" font-size="10.00">NLGData</text>
</a>
</g>
</g>
<!-- Node6&#45;&gt;Node2 -->
<g id="edge5_Node000002_Node000006" class="edge">
<title>Node6&#45;&gt;Node2</title>
<g id="a_edge5_Node000002_Node000006"><a xlink:title=" ">
<path fill="none" stroke="#9a32cd" stroke-dasharray="5,2" d="M242.26,-191.78C233.63,-184.55 222.91,-176.33 212.38,-170.25 200.12,-163.18 185.63,-157.17 173.27,-152.65"/>
<polygon fill="#9a32cd" stroke="#9a32cd" points="239.7,-194.19 249.55,-198.1 244.28,-188.9 239.7,-194.19"/>
</a>
</g>
<text text-anchor="middle" x="247.51" y="-172" font-family="Helvetica,sans-Serif" font-size="10.00" fill="grey"> nlgData</text>
</g>
<!-- Node7&#45;&gt;Node1 -->
<g id="edge8_Node000001_Node000007" class="edge">
<title>Node7&#45;&gt;Node1</title>
<g id="a_edge8_Node000001_Node000007"><a xlink:title=" ">
<path fill="none" stroke="#9a32cd" stroke-dasharray="5,2" d="M224.38,-54.65C224.38,-42.82 224.38,-28.54 224.38,-19.52"/>
<polygon fill="#9a32cd" stroke="#9a32cd" points="220.88,-54.64 224.38,-64.64 227.88,-54.64 220.88,-54.64"/>
</a>
</g>
<text text-anchor="middle" x="255.5" y="-39" font-family="Helvetica,sans-Serif" font-size="10.00" fill="grey"> stateManager</text>
</g>
<!-- Node7&#45;&gt;Node2 -->
<g id="edge6_Node000002_Node000007" class="edge">
<title>Node7&#45;&gt;Node2</title>
<g id="a_edge6_Node000002_Node000007"><a xlink:title=" ">
<path fill="none" stroke="#9a32cd" stroke-dasharray="5,2" d="M216.2,-96.22C212.68,-102.8 208.05,-109.81 202.38,-115 194.07,-122.59 183.22,-128.39 173.22,-132.6"/>
<polygon fill="#9a32cd" stroke="#9a32cd" points="219.3,-97.86 220.42,-87.33 212.97,-94.86 219.3,-97.86"/>
</a>
</g>
<text text-anchor="middle" x="242.67" y="-105.5" font-family="Helvetica,sans-Serif" font-size="10.00" fill="grey"> stateManager</text>
</g>
<!-- Node8 -->
<g id="Node000008" class="node">
<title>Node8</title>
<g id="a_Node000008"><a xlink:href="class_vehicle_control.html" target="_top" xlink:title=" ">
<polygon fill="white" stroke="#666666" points="360.25,-85.75 280.5,-85.75 280.5,-66.5 360.25,-66.5 360.25,-85.75"/>
<text text-anchor="middle" x="320.38" y="-72.25" font-family="Helvetica,sans-Serif" font-size="10.00">VehicleControl</text>
</a>
</g>
</g>
<!-- Node8&#45;&gt;Node1 -->
<g id="edge9_Node000001_Node000008" class="edge">
<title>Node8&#45;&gt;Node1</title>
<g id="a_edge9_Node000001_Node000008"><a xlink:title=" ">
<path fill="none" stroke="#9a32cd" stroke-dasharray="5,2" d="M308.9,-56.87C303.88,-50.01 297.51,-42.58 290.38,-37.25 280.28,-29.7 267.76,-23.94 256.34,-19.74"/>
<polygon fill="#9a32cd" stroke="#9a32cd" points="305.87,-58.63 314.37,-64.96 311.67,-54.71 305.87,-58.63"/>
</a>
</g>
<text text-anchor="middle" x="334.51" y="-39" font-family="Helvetica,sans-Serif" font-size="10.00" fill="grey"> vehicleControl</text>
</g>
<!-- Node9 -->
<g id="Node000009" class="node">
<title>Node9</title>
<g id="a_Node000009"><a xlink:href="class_p_i_d_controller.html" target="_top" xlink:title=" ">
<polygon fill="white" stroke="#666666" points="358,-152.25 282.75,-152.25 282.75,-133 358,-133 358,-152.25"/>
<text text-anchor="middle" x="320.38" y="-138.75" font-family="Helvetica,sans-Serif" font-size="10.00">PIDController</text>
</a>
</g>
</g>
<!-- Node9&#45;&gt;Node8 -->
<g id="edge10_Node000008_Node000009" class="edge">
<title>Node9&#45;&gt;Node8</title>
<g id="a_edge10_Node000008_Node000009"><a xlink:title=" ">
<path fill="none" stroke="#9a32cd" stroke-dasharray="5,2" d="M320.38,-121.15C320.38,-109.32 320.38,-95.04 320.38,-86.02"/>
<polygon fill="#9a32cd" stroke="#9a32cd" points="316.88,-121.14 320.38,-131.14 323.88,-121.14 316.88,-121.14"/>
</a>
</g>
<text text-anchor="middle" x="336.88" y="-105.5" font-family="Helvetica,sans-Serif" font-size="10.00" fill="grey"> opdPid</text>
</g>
</g>
</svg>
</svg>

<style type='text/css'>
<![CDATA[
[data-mouse-over-selected='false'] { opacity: 0.7; }
[data-mouse-over-selected='true']  { opacity: 1.0; }
]]>
</style>
<script type="application/ecmascript"><![CDATA[
document.addEventListener('DOMContentLoaded', (event) => {
  highlightEdges();
  highlightAdjacentNodes();
});
]]></script>
</svg>
