<?xml version="1.0" encoding="UTF-8" standalone="no"?>
<!DOCTYPE svg PUBLIC "-//W3C//DTD SVG 1.1//EN"
 "http://www.w3.org/Graphics/SVG/1.1/DTD/svg11.dtd">
<!-- Generated by graphviz version 12.2.0 (20241103.1931)
 -->
<!-- Title: include/config.h Pages: 1 -->
<!--zoomable 248 -->

<svg id="main" version="1.1" xmlns="http://www.w3.org/2000/svg" xmlns:xlink="http://www.w3.org/1999/xlink" xml:space="preserve" onload="init(evt)">

<style type="text/css"><![CDATA[
.node, .edge {opacity: 0.7;}
.node.selected, .edge.selected {opacity: 1;}
.edge:hover path { stroke: red; }
.edge:hover polygon { stroke: red; fill: red; }
]]></style>

<defs>
  <circle id="rim" cx="0" cy="0" r="7"/>
  <circle id="rim2" cx="0" cy="0" r="3.5"/>
  <g id="zoomPlus">
    <use xlink:href="#rim" fill="#404040"><set attributeName="fill" to="#808080" begin="zoomplus.mouseover" end="zoomplus.mouseout"/></use>
    <path d="M-4,0h8M0,-4v8" fill="none" stroke="white" stroke-width="1.5" pointer-events="none"/>
  </g>
  <g id="zoomMin">
    <use xlink:href="#rim" fill="#404040"><set attributeName="fill" to="#808080" begin="zoomminus.mouseover" end="zoomminus.mouseout"/></use>
    <path d="M-4,0h8" fill="none" stroke="white" stroke-width="1.5" pointer-events="none"/>
  </g>
  <g id="arrowUp" transform="translate(30 24)">
    <use xlink:href="#rim"/>
    <path pointer-events="none" fill="none" stroke="white" stroke-width="1.5" d="M0,-3.0v7 M-2.5,-0.5L0,-3.0L2.5,-0.5"/>
  </g>
  <g id="arrowRight" transform="rotate(90) translate(36 -43)">
    <use xlink:href="#rim"/>
    <path pointer-events="none" fill="none" stroke="white" stroke-width="1.5" d="M0,-3.0v7 M-2.5,-0.5L0,-3.0L2.5,-0.5"/>
  </g>
  <g id="arrowDown" transform="rotate(180) translate(-30 -48)">
    <use xlink:href="#rim"/>
    <path pointer-events="none" fill="none" stroke="white" stroke-width="1.5" d="M0,-3.0v7 M-2.5,-0.5L0,-3.0L2.5,-0.5"/>
  </g>
  <g id="arrowLeft" transform="rotate(270) translate(-36 17)">
    <use xlink:href="#rim"/>
    <path pointer-events="none" fill="none" stroke="white" stroke-width="1.5" d="M0,-3.0v7 M-2.5,-0.5L0,-3.0L2.5,-0.5"/>
  </g>
  <g id="resetDef">
    <use xlink:href="#rim2" fill="#404040"><set attributeName="fill" to="#808080" begin="reset.mouseover" end="reset.mouseout"/></use>
  </g>
</defs>
<script type="application/ecmascript">
var viewWidth = 657;
var viewHeight = 248;
var sectionId = 'dynsection-1';
</script>
<script type="application/ecmascript" xlink:href="svg.min.js"/>
<svg id="graph" class="graph">
<g id="viewport">
<title>include/config.h</title>
<!-- Node1 -->
<g id="Node000001" class="node">
<title>Node1</title>
<g id="a_Node000001"><a xlink:title=" ">
<polygon fill="#999999" stroke="#666666" points="405.07,-240.25 320.82,-240.25 320.82,-221 405.07,-221 405.07,-240.25"/>
<text text-anchor="middle" x="362.94" y="-226.75" font-family="Helvetica,sans-Serif" font-size="10.00">include/config.h</text>
</a>
</g>
</g>
<!-- Node2 -->
<g id="Node000002" class="node">
<title>Node2</title>
<g id="a_Node000002"><a xlink:href="_serial_console_8h.html" target="_top" xlink:title="Debug Console Interface for Vehicle Control System.">
<polygon fill="white" stroke="#666666" points="135.32,-74.5 16.57,-74.5 16.57,-55.25 135.32,-55.25 135.32,-74.5"/>
<text text-anchor="middle" x="75.94" y="-61" font-family="Helvetica,sans-Serif" font-size="10.00">include/SerialConsole.h</text>
</a>
</g>
</g>
<!-- Node1&#45;&gt;Node2 -->
<g id="edge1_Node000001_Node000002" class="edge">
<title>Node1&#45;&gt;Node2</title>
<g id="a_edge1_Node000001_Node000002"><a xlink:title=" ">
<path fill="none" stroke="#63b8ff" d="M309.01,-223.24C263.51,-216.79 197.16,-204.89 141.94,-185 93.07,-167.39 65.62,-174.33 38.94,-129.75 27.23,-110.18 49.69,-86.94 64.47,-74.6"/>
<polygon fill="#63b8ff" stroke="#63b8ff" points="308.52,-226.7 318.9,-224.59 309.47,-219.77 308.52,-226.7"/>
</a>
</g>
</g>
<!-- Node4 -->
<g id="Node000004" class="node">
<title>Node4</title>
<g id="a_Node000004"><a xlink:href="main_8cpp.html" target="_top" xlink:title="Main Vehicle Control Unit (VCU) Program.">
<polygon fill="white" stroke="#666666" points="230.07,-19.25 157.82,-19.25 157.82,0 230.07,0 230.07,-19.25"/>
<text text-anchor="middle" x="193.94" y="-5.75" font-family="Helvetica,sans-Serif" font-size="10.00">src/main.cpp</text>
</a>
</g>
</g>
<!-- Node1&#45;&gt;Node4 -->
<g id="edge24_Node000001_Node000004" class="edge">
<title>Node1&#45;&gt;Node4</title>
<g id="a_edge24_Node000001_Node000004"><a xlink:title=" ">
<path fill="none" stroke="#63b8ff" d="M309.3,-226.13C236.96,-220.62 112.71,-208.08 73.94,-185 47.44,-169.22 47.53,-156.37 31.94,-129.75 14.36,-99.73 -13.6,-82.57 7.94,-55.25 17.22,-43.48 105.88,-26.12 157.37,-16.91"/>
<polygon fill="#63b8ff" stroke="#63b8ff" points="308.7,-229.6 318.94,-226.85 309.22,-222.62 308.7,-229.6"/>
</a>
</g>
</g>
<!-- Node5 -->
<g id="Node000005" class="node">
<title>Node5</title>
<g id="a_Node000005"><a xlink:href="can__manager_8h.html" target="_top" xlink:title="CAN Communication Manager for Vehicle Control System.">
<polygon fill="white" stroke="#666666" points="172.82,-129.75 57.07,-129.75 57.07,-110.5 172.82,-110.5 172.82,-129.75"/>
<text text-anchor="middle" x="114.94" y="-116.25" font-family="Helvetica,sans-Serif" font-size="10.00">include/can_manager.h</text>
</a>
</g>
</g>
<!-- Node1&#45;&gt;Node5 -->
<g id="edge4_Node000001_Node000005" class="edge">
<title>Node1&#45;&gt;Node5</title>
<g id="a_edge4_Node000001_Node000005"><a xlink:title=" ">
<path fill="none" stroke="#63b8ff" d="M309.31,-226.45C268.3,-221.94 211.74,-211.09 168.94,-185 146.13,-171.09 128.21,-144.18 119.94,-130.14"/>
<polygon fill="#63b8ff" stroke="#63b8ff" points="308.9,-229.92 319.19,-227.43 309.59,-222.96 308.9,-229.92"/>
</a>
</g>
</g>
<!-- Node7 -->
<g id="Node000007" class="node">
<title>Node7</title>
<g id="a_Node000007"><a xlink:href="setup_8cpp.html" target="_top" xlink:title="System initialization and hardware setup implementation.">
<polygon fill="white" stroke="#666666" points="569.57,-19.25 494.32,-19.25 494.32,0 569.57,0 569.57,-19.25"/>
<text text-anchor="middle" x="531.94" y="-5.75" font-family="Helvetica,sans-Serif" font-size="10.00">src/setup.cpp</text>
</a>
</g>
</g>
<!-- Node1&#45;&gt;Node7 -->
<g id="edge25_Node000001_Node000007" class="edge">
<title>Node1&#45;&gt;Node7</title>
<g id="a_edge25_Node000001_Node000007"><a xlink:title=" ">
<path fill="none" stroke="#63b8ff" d="M416.84,-227.94C462.52,-224.38 528.32,-214.08 577.94,-185 606.01,-168.55 610.63,-158.45 625.94,-129.75 641.84,-99.95 659.76,-83.29 640.94,-55.25 625.22,-31.82 594.77,-20.68 570.05,-15.39"/>
<polygon fill="#63b8ff" stroke="#63b8ff" points="416.63,-224.45 406.9,-228.62 417.11,-231.43 416.63,-224.45"/>
</a>
</g>
</g>
<!-- Node8 -->
<g id="Node000008" class="node">
<title>Node8</title>
<g id="a_Node000008"><a xlink:href="can__manager_8cpp.html" target="_top" xlink:title="Implementation of CAN communication management system.">
<polygon fill="white" stroke="#666666" points="338.44,-74.5 229.44,-74.5 229.44,-55.25 338.44,-55.25 338.44,-74.5"/>
<text text-anchor="middle" x="283.94" y="-61" font-family="Helvetica,sans-Serif" font-size="10.00">src/can_manager.cpp</text>
</a>
</g>
</g>
<!-- Node1&#45;&gt;Node8 -->
<g id="edge23_Node000001_Node000008" class="edge">
<title>Node1&#45;&gt;Node8</title>
<g id="a_edge23_Node000001_Node000008"><a xlink:title=" ">
<path fill="none" stroke="#63b8ff" d="M383.6,-213.67C411.62,-190.07 455.43,-144.94 429.94,-110.5 418.47,-95 372.88,-82.7 335.65,-74.98"/>
<polygon fill="#63b8ff" stroke="#63b8ff" points="381.55,-210.82 375.99,-219.85 385.96,-216.26 381.55,-210.82"/>
</a>
</g>
</g>
<!-- Node9 -->
<g id="Node000009" class="node">
<title>Node9</title>
<g id="a_Node000009"><a xlink:href="state__manager_8h.html" target="_top" xlink:title="Vehicle State Management System.">
<polygon fill="white" stroke="#666666" points="299.82,-185 178.07,-185 178.07,-165.75 299.82,-165.75 299.82,-185"/>
<text text-anchor="middle" x="238.94" y="-171.5" font-family="Helvetica,sans-Serif" font-size="10.00">include/state_manager.h</text>
</a>
</g>
</g>
<!-- Node1&#45;&gt;Node9 -->
<g id="edge11_Node000001_Node000009" class="edge">
<title>Node1&#45;&gt;Node9</title>
<g id="a_edge11_Node000001_Node000009"><a xlink:title=" ">
<path fill="none" stroke="#63b8ff" d="M331.57,-216.15C309.19,-206.54 279.71,-193.88 260.08,-185.45"/>
<polygon fill="#63b8ff" stroke="#63b8ff" points="329.95,-219.26 340.52,-219.99 332.71,-212.83 329.95,-219.26"/>
</a>
</g>
</g>
<!-- Node10 -->
<g id="Node000010" class="node">
<title>Node10</title>
<g id="a_Node000010"><a xlink:href="state__manager_8cpp.html" target="_top" xlink:title="Implementation of the vehicle state management system.">
<polygon fill="white" stroke="#666666" points="420.44,-129.75 305.44,-129.75 305.44,-110.5 420.44,-110.5 420.44,-129.75"/>
<text text-anchor="middle" x="362.94" y="-116.25" font-family="Helvetica,sans-Serif" font-size="10.00">src/state_manager.cpp</text>
</a>
</g>
</g>
<!-- Node1&#45;&gt;Node10 -->
<g id="edge26_Node000001_Node000010" class="edge">
<title>Node1&#45;&gt;Node10</title>
<g id="a_edge26_Node000001_Node000010"><a xlink:title=" ">
<path fill="none" stroke="#63b8ff" d="M362.94,-209.28C362.94,-185.55 362.94,-147.39 362.94,-130.13"/>
<polygon fill="#63b8ff" stroke="#63b8ff" points="359.44,-209.23 362.94,-219.23 366.44,-209.23 359.44,-209.23"/>
</a>
</g>
</g>
<!-- Node11 -->
<g id="Node000011" class="node">
<title>Node11</title>
<g id="a_Node000011"><a xlink:href="vehicle__control_8h.html" target="_top" xlink:title="Vehicle Control System for Electric Vehicle.">
<polygon fill="white" stroke="#666666" points="600.57,-129.75 477.32,-129.75 477.32,-110.5 600.57,-110.5 600.57,-129.75"/>
<text text-anchor="middle" x="538.94" y="-116.25" font-family="Helvetica,sans-Serif" font-size="10.00">include/vehicle_control.h</text>
</a>
</g>
</g>
<!-- Node1&#45;&gt;Node11 -->
<g id="edge18_Node000001_Node000011" class="edge">
<title>Node1&#45;&gt;Node11</title>
<g id="a_edge18_Node000001_Node000011"><a xlink:title=" ">
<path fill="none" stroke="#63b8ff" d="M398.81,-216.46C418.43,-208.57 442.78,-197.62 462.94,-185 489.53,-168.36 516.73,-143.09 530.23,-129.88"/>
<polygon fill="#63b8ff" stroke="#63b8ff" points="397.61,-213.17 389.57,-220.08 400.16,-219.69 397.61,-213.17"/>
</a>
</g>
</g>
<!-- Node12 -->
<g id="Node000012" class="node">
<title>Node12</title>
<g id="a_Node000012"><a xlink:href="vehicle__control_8cpp.html" target="_top" xlink:title="Implementation of vehicle driving dynamics and motor control system.">
<polygon fill="white" stroke="#666666" points="632.19,-74.5 515.69,-74.5 515.69,-55.25 632.19,-55.25 632.19,-74.5"/>
<text text-anchor="middle" x="573.94" y="-61" font-family="Helvetica,sans-Serif" font-size="10.00">src/vehicle_control.cpp</text>
</a>
</g>
</g>
<!-- Node1&#45;&gt;Node12 -->
<g id="edge27_Node000001_Node000012" class="edge">
<title>Node1&#45;&gt;Node12</title>
<g id="a_edge27_Node000001_Node000012"><a xlink:title=" ">
<path fill="none" stroke="#63b8ff" d="M416.77,-225.37C476,-217.45 568.31,-194.75 609.94,-129.75 622.16,-110.67 599.98,-87.24 585.34,-74.74"/>
<polygon fill="#63b8ff" stroke="#63b8ff" points="416.39,-221.89 406.89,-226.58 417.25,-228.84 416.39,-221.89"/>
</a>
</g>
</g>
<!-- Node3 -->
<g id="Node000003" class="node">
<title>Node3</title>
<g id="a_Node000003"><a xlink:href="_serial_console_8cpp.html" target="_top" xlink:title="Implementation of debug console interface for vehicle control system.">
<polygon fill="white" stroke="#666666" points="131.94,-19.25 19.94,-19.25 19.94,0 131.94,0 131.94,-19.25"/>
<text text-anchor="middle" x="75.94" y="-5.75" font-family="Helvetica,sans-Serif" font-size="10.00">src/SerialConsole.cpp</text>
</a>
</g>
</g>
<!-- Node2&#45;&gt;Node3 -->
<g id="edge2_Node000002_Node000003" class="edge">
<title>Node2&#45;&gt;Node3</title>
<g id="a_edge2_Node000002_Node000003"><a xlink:title=" ">
<path fill="none" stroke="#63b8ff" d="M75.94,-43.63C75.94,-35.34 75.94,-26.17 75.94,-19.61"/>
<polygon fill="#63b8ff" stroke="#63b8ff" points="72.44,-43.57 75.94,-53.57 79.44,-43.57 72.44,-43.57"/>
</a>
</g>
</g>
<!-- Node2&#45;&gt;Node4 -->
<g id="edge3_Node000002_Node000004" class="edge">
<title>Node2&#45;&gt;Node4</title>
<g id="a_edge3_Node000002_Node000004"><a xlink:title=" ">
<path fill="none" stroke="#63b8ff" d="M106.38,-50.14C127.6,-40.56 155.32,-28.06 173.83,-19.7"/>
<polygon fill="#63b8ff" stroke="#63b8ff" points="105.01,-46.92 97.34,-54.22 107.89,-53.3 105.01,-46.92"/>
</a>
</g>
</g>
<!-- Node5&#45;&gt;Node2 -->
<g id="edge5_Node000005_Node000002" class="edge">
<title>Node5&#45;&gt;Node2</title>
<g id="a_edge5_Node000005_Node000002"><a xlink:title=" ">
<path fill="none" stroke="#63b8ff" d="M101.81,-101.19C95.32,-92.34 87.78,-82.04 82.52,-74.86"/>
<polygon fill="#63b8ff" stroke="#63b8ff" points="98.88,-103.11 107.61,-109.11 104.52,-98.98 98.88,-103.11"/>
</a>
</g>
</g>
<!-- Node5&#45;&gt;Node4 -->
<g id="edge10_Node000005_Node000004" class="edge">
<title>Node5&#45;&gt;Node4</title>
<g id="a_edge10_Node000005_Node000004"><a xlink:title=" ">
<path fill="none" stroke="#63b8ff" d="M128.11,-101.04C145.22,-77.55 174.41,-37.45 187.39,-19.63"/>
<polygon fill="#63b8ff" stroke="#63b8ff" points="125.35,-98.88 122.3,-109.02 131.01,-103 125.35,-98.88"/>
</a>
</g>
</g>
<!-- Node6 -->
<g id="Node000006" class="node">
<title>Node6</title>
<g id="a_Node000006"><a xlink:href="setup_8h.html" target="_top" xlink:title="System Initialization and Safety Configuration.">
<polygon fill="white" stroke="#666666" points="438.94,-74.5 356.94,-74.5 356.94,-55.25 438.94,-55.25 438.94,-74.5"/>
<text text-anchor="middle" x="397.94" y="-61" font-family="Helvetica,sans-Serif" font-size="10.00">include/setup.h</text>
</a>
</g>
</g>
<!-- Node5&#45;&gt;Node6 -->
<g id="edge6_Node000005_Node000006" class="edge">
<title>Node5&#45;&gt;Node6</title>
<g id="a_edge6_Node000005_Node000006"><a xlink:title=" ">
<path fill="none" stroke="#63b8ff" d="M174.54,-107.91C229.21,-97.62 308.76,-82.66 356.71,-73.63"/>
<polygon fill="#63b8ff" stroke="#63b8ff" points="173.94,-104.46 164.76,-109.75 175.23,-111.34 173.94,-104.46"/>
</a>
</g>
</g>
<!-- Node5&#45;&gt;Node8 -->
<g id="edge9_Node000005_Node000008" class="edge">
<title>Node5&#45;&gt;Node8</title>
<g id="a_edge9_Node000005_Node000008"><a xlink:title=" ">
<path fill="none" stroke="#63b8ff" d="M154.41,-106.69C185.26,-96.97 227.41,-83.69 255.13,-74.95"/>
<polygon fill="#63b8ff" stroke="#63b8ff" points="153.54,-103.29 145.05,-109.64 155.64,-109.97 153.54,-103.29"/>
</a>
</g>
</g>
<!-- Node6&#45;&gt;Node4 -->
<g id="edge7_Node000006_Node000004" class="edge">
<title>Node6&#45;&gt;Node4</title>
<g id="a_edge7_Node000006_Node000004"><a xlink:title=" ">
<path fill="none" stroke="#63b8ff" d="M352.24,-51.95C314.86,-42.19 262.77,-28.59 228.72,-19.7"/>
<polygon fill="#63b8ff" stroke="#63b8ff" points="351.31,-55.32 361.87,-54.46 353.08,-48.55 351.31,-55.32"/>
</a>
</g>
</g>
<!-- Node6&#45;&gt;Node7 -->
<g id="edge8_Node000006_Node000007" class="edge">
<title>Node6&#45;&gt;Node7</title>
<g id="a_edge8_Node000006_Node000007"><a xlink:title=" ">
<path fill="none" stroke="#63b8ff" d="M431.19,-50.66C455.45,-41.02 487.69,-28.21 509.1,-19.7"/>
<polygon fill="#63b8ff" stroke="#63b8ff" points="430.08,-47.34 422.08,-54.28 432.67,-53.84 430.08,-47.34"/>
</a>
</g>
</g>
<!-- Node9&#45;&gt;Node2 -->
<g id="edge12_Node000009_Node000002" class="edge">
<title>Node9&#45;&gt;Node2</title>
<g id="a_edge12_Node000009_Node000002"><a xlink:title=" ">
<path fill="none" stroke="#63b8ff" d="M166.69,-166.8C119.06,-160.14 62.83,-148.52 47.94,-129.75 34.4,-112.68 53.74,-88.03 66.42,-74.91"/>
<polygon fill="#63b8ff" stroke="#63b8ff" points="166.07,-170.25 176.45,-168.1 167,-163.31 166.07,-170.25"/>
</a>
</g>
</g>
<!-- Node9&#45;&gt;Node4 -->
<g id="edge16_Node000009_Node000004" class="edge">
<title>Node9&#45;&gt;Node4</title>
<g id="a_edge16_Node000009_Node000004"><a xlink:title=" ">
<path fill="none" stroke="#63b8ff" d="M233.53,-154.69C223.73,-119 203.38,-44.96 196.37,-19.47"/>
<polygon fill="#63b8ff" stroke="#63b8ff" points="230.1,-155.4 236.12,-164.11 236.85,-153.54 230.1,-155.4"/>
</a>
</g>
</g>
<!-- Node9&#45;&gt;Node5 -->
<g id="edge13_Node000009_Node000005" class="edge">
<title>Node9&#45;&gt;Node5</title>
<g id="a_edge13_Node000009_Node000005"><a xlink:title=" ">
<path fill="none" stroke="#63b8ff" d="M207.57,-160.9C185.19,-151.29 155.71,-138.63 136.08,-130.2"/>
<polygon fill="#63b8ff" stroke="#63b8ff" points="205.95,-164.01 216.52,-164.74 208.71,-157.58 205.95,-164.01"/>
</a>
</g>
</g>
<!-- Node9&#45;&gt;Node6 -->
<g id="edge14_Node000009_Node000006" class="edge">
<title>Node9&#45;&gt;Node6</title>
<g id="a_edge14_Node000009_Node000006"><a xlink:title=" ">
<path fill="none" stroke="#63b8ff" d="M251.94,-156.35C262.73,-142.39 279.15,-123.33 296.94,-110.5 319.18,-94.47 348.09,-82.42 369.27,-74.91"/>
<polygon fill="#63b8ff" stroke="#63b8ff" points="249.23,-154.13 246.04,-164.23 254.83,-158.32 249.23,-154.13"/>
</a>
</g>
</g>
<!-- Node9&#45;&gt;Node8 -->
<g id="edge15_Node000009_Node000008" class="edge">
<title>Node9&#45;&gt;Node8</title>
<g id="a_edge15_Node000009_Node000008"><a xlink:title=" ">
<path fill="none" stroke="#63b8ff" d="M245.8,-154.9C250.4,-142.16 256.73,-125.22 262.94,-110.5 268.27,-97.88 275.14,-83.6 279.55,-74.67"/>
<polygon fill="#63b8ff" stroke="#63b8ff" points="242.55,-153.59 242.49,-164.18 249.14,-155.94 242.55,-153.59"/>
</a>
</g>
</g>
<!-- Node9&#45;&gt;Node10 -->
<g id="edge17_Node000009_Node000010" class="edge">
<title>Node9&#45;&gt;Node10</title>
<g id="a_edge17_Node000009_Node000010"><a xlink:title=" ">
<path fill="none" stroke="#63b8ff" d="M270.32,-160.9C292.69,-151.29 322.17,-138.63 341.8,-130.2"/>
<polygon fill="#63b8ff" stroke="#63b8ff" points="269.18,-157.58 261.37,-164.74 271.94,-164.01 269.18,-157.58"/>
</a>
</g>
</g>
<!-- Node11&#45;&gt;Node2 -->
<g id="edge19_Node000011_Node000002" class="edge">
<title>Node11&#45;&gt;Node2</title>
<g id="a_edge19_Node000011_Node000002"><a xlink:title=" ">
<path fill="none" stroke="#63b8ff" d="M465.62,-110.69C374.34,-100.19 220.17,-82.46 135.7,-72.75"/>
<polygon fill="#63b8ff" stroke="#63b8ff" points="465.14,-114.16 475.48,-111.83 465.94,-107.21 465.14,-114.16"/>
</a>
</g>
</g>
<!-- Node11&#45;&gt;Node4 -->
<g id="edge21_Node000011_Node000004" class="edge">
<title>Node11&#45;&gt;Node4</title>
<g id="a_edge21_Node000011_Node000004"><a xlink:title=" ">
<path fill="none" stroke="#63b8ff" d="M520.62,-102.56C503.2,-87.77 475.62,-66.73 447.94,-55.25 374.53,-24.82 280.81,-15.13 230.24,-12.06"/>
<polygon fill="#63b8ff" stroke="#63b8ff" points="518.2,-105.11 528.04,-109.04 522.81,-99.83 518.2,-105.11"/>
</a>
</g>
</g>
<!-- Node11&#45;&gt;Node6 -->
<g id="edge20_Node000011_Node000006" class="edge">
<title>Node11&#45;&gt;Node6</title>
<g id="a_edge20_Node000011_Node000006"><a xlink:title=" ">
<path fill="none" stroke="#63b8ff" d="M504.3,-106.04C478.74,-96.39 444.6,-83.5 421.98,-74.95"/>
<polygon fill="#63b8ff" stroke="#63b8ff" points="503.02,-109.3 513.61,-109.56 505.49,-102.75 503.02,-109.3"/>
</a>
</g>
</g>
<!-- Node11&#45;&gt;Node12 -->
<g id="edge22_Node000011_Node000012" class="edge">
<title>Node11&#45;&gt;Node12</title>
<g id="a_edge22_Node000011_Node000012"><a xlink:title=" ">
<path fill="none" stroke="#63b8ff" d="M550.92,-100.9C556.7,-92.11 563.37,-81.96 568.04,-74.86"/>
<polygon fill="#63b8ff" stroke="#63b8ff" points="548.12,-98.79 545.55,-109.07 553.97,-102.63 548.12,-98.79"/>
</a>
</g>
</g>
</g>
</svg>

<g id="navigator" transform="translate(0 0)" fill="#404254">
  <rect fill="#f2f5e9" fill-opacity="0.5" stroke="#606060" stroke-width=".5" x="0" y="0" width="60" height="60"/>
  <use id="zoomplus" xlink:href="#zoomPlus" x="17" y="9" onmousedown="handleZoom(evt,'in')"/>
  <use id="zoomminus" xlink:href="#zoomMin" x="42" y="9" onmousedown="handleZoom(evt,'out')"/>
  <use id="reset" xlink:href="#resetDef" x="30" y="36" onmousedown="handleReset()"/>
   <use id="arrowup" xlink:href="#arrowUp" x="0" y="0" onmousedown="handlePan(0,-1)"/>
  <use id="arrowright" xlink:href="#arrowRight" x="0" y="0" onmousedown="handlePan(1,0)"/>
  <use id="arrowdown" xlink:href="#arrowDown" x="0" y="0" onmousedown="handlePan(0,1)"/>
  <use id="arrowleft" xlink:href="#arrowLeft" x="0" y="0" onmousedown="handlePan(-1,0)"/>
</g>
<svg viewBox="0 0 15 15" width="100%" height="30px" preserveAspectRatio="xMaxYMin meet">
 <g id="arrow_out" transform="scale(0.3 0.3)">
  <a xlink:href="config_8h__dep__incl_org.svg" target="_base">
   <rect id="button" ry="5" rx="5" y="6" x="6" height="38" width="38"
        fill="#f2f5e9" fill-opacity="0.5" stroke="#606060" stroke-width="1.0"/>
   <path id="arrow"
     d="M 11.500037,31.436501 C 11.940474,20.09759 22.043105,11.32322 32.158766,21.979434 L 37.068811,17.246167 C 37.068811,17.246167 37.088388,32 37.088388,32 L 22.160133,31.978069 C 22.160133,31.978069 26.997745,27.140456 26.997745,27.140456 C 18.528582,18.264221 13.291696,25.230495 11.500037,31.436501 z"
     style="fill:#404040;"/>
  </a>
 </g>
</svg>

<style type='text/css'>
<![CDATA[
[data-mouse-over-selected='false'] { opacity: 0.7; }
[data-mouse-over-selected='true']  { opacity: 1.0; }
]]>
</style>
<script type="application/ecmascript"><![CDATA[
document.addEventListener('DOMContentLoaded', (event) => {
  highlightEdges();
  highlightAdjacentNodes();
});
]]></script>
</svg>
