<?xml version="1.0" encoding="UTF-8" standalone="no"?>
<!DOCTYPE svg PUBLIC "-//W3C//DTD SVG 1.1//EN"
 "http://www.w3.org/Graphics/SVG/1.1/DTD/svg11.dtd">
<!-- Generated by graphviz version 12.2.0 (20241103.1931)
 -->
<!-- Title: include/config.h Pages: 1 -->
<!--zoomable 248 -->

<svg id="main" version="1.1" xmlns="http://www.w3.org/2000/svg" xmlns:xlink="http://www.w3.org/1999/xlink" xml:space="preserve" onload="init(evt)">

<style type="text/css"><![CDATA[
.node, .edge {opacity: 0.7;}
.node.selected, .edge.selected {opacity: 1;}
.edge:hover path { stroke: red; }
.edge:hover polygon { stroke: red; fill: red; }
]]></style>

<defs>
  <circle id="rim" cx="0" cy="0" r="7"/>
  <circle id="rim2" cx="0" cy="0" r="3.5"/>
  <g id="zoomPlus">
    <use xlink:href="#rim" fill="#404040"><set attributeName="fill" to="#808080" begin="zoomplus.mouseover" end="zoomplus.mouseout"/></use>
    <path d="M-4,0h8M0,-4v8" fill="none" stroke="white" stroke-width="1.5" pointer-events="none"/>
  </g>
  <g id="zoomMin">
    <use xlink:href="#rim" fill="#404040"><set attributeName="fill" to="#808080" begin="zoomminus.mouseover" end="zoomminus.mouseout"/></use>
    <path d="M-4,0h8" fill="none" stroke="white" stroke-width="1.5" pointer-events="none"/>
  </g>
  <g id="arrowUp" transform="translate(30 24)">
    <use xlink:href="#rim"/>
    <path pointer-events="none" fill="none" stroke="white" stroke-width="1.5" d="M0,-3.0v7 M-2.5,-0.5L0,-3.0L2.5,-0.5"/>
  </g>
  <g id="arrowRight" transform="rotate(90) translate(36 -43)">
    <use xlink:href="#rim"/>
    <path pointer-events="none" fill="none" stroke="white" stroke-width="1.5" d="M0,-3.0v7 M-2.5,-0.5L0,-3.0L2.5,-0.5"/>
  </g>
  <g id="arrowDown" transform="rotate(180) translate(-30 -48)">
    <use xlink:href="#rim"/>
    <path pointer-events="none" fill="none" stroke="white" stroke-width="1.5" d="M0,-3.0v7 M-2.5,-0.5L0,-3.0L2.5,-0.5"/>
  </g>
  <g id="arrowLeft" transform="rotate(270) translate(-36 17)">
    <use xlink:href="#rim"/>
    <path pointer-events="none" fill="none" stroke="white" stroke-width="1.5" d="M0,-3.0v7 M-2.5,-0.5L0,-3.0L2.5,-0.5"/>
  </g>
  <g id="resetDef">
    <use xlink:href="#rim2" fill="#404040"><set attributeName="fill" to="#808080" begin="reset.mouseover" end="reset.mouseout"/></use>
  </g>
</defs>
<script type="application/ecmascript">
var viewWidth = 804;
var viewHeight = 248;
var sectionId = 'dynsection-1';
</script>
<script type="application/ecmascript" xlink:href="svg.min.js"/>
<svg id="graph" class="graph">
<g id="viewport">
<title>include/config.h</title>
<!-- Node1 -->
<g id="Node000001" class="node">
<title>Node1</title>
<g id="a_Node000001"><a xlink:title=" ">
<polygon fill="#999999" stroke="#666666" points="336.2,-240.25 251.95,-240.25 251.95,-221 336.2,-221 336.2,-240.25"/>
<text text-anchor="middle" x="294.07" y="-226.75" font-family="Helvetica,sans-Serif" font-size="10.00">include/config.h</text>
</a>
</g>
</g>
<!-- Node2 -->
<g id="Node000002" class="node">
<title>Node2</title>
<g id="a_Node000002"><a xlink:href="_serial_console_8h.html" target="_top" xlink:title="Debug Console Interface for Vehicle Control System.">
<polygon fill="white" stroke="#666666" points="624.45,-74.5 505.7,-74.5 505.7,-55.25 624.45,-55.25 624.45,-74.5"/>
<text text-anchor="middle" x="565.07" y="-61" font-family="Helvetica,sans-Serif" font-size="10.00">include/SerialConsole.h</text>
</a>
</g>
</g>
<!-- Node1&#45;&gt;Node2 -->
<g id="edge1_Node000001_Node000002" class="edge">
<title>Node1&#45;&gt;Node2</title>
<g id="a_edge1_Node000001_Node000002"><a xlink:title=" ">
<path fill="none" stroke="#63b8ff" d="M347.31,-220.57C379.24,-213.73 419.95,-202.47 453.07,-185 504.55,-157.85 545.4,-97.8 559.64,-74.94"/>
<polygon fill="#63b8ff" stroke="#63b8ff" points="346.98,-217.06 337.89,-222.5 348.39,-223.92 346.98,-217.06"/>
</a>
</g>
</g>
<!-- Node4 -->
<g id="Node000004" class="node">
<title>Node4</title>
<g id="a_Node000004"><a xlink:href="main_8cpp.html" target="_top" xlink:title="Main Vehicle Control Unit (VCU) Program.">
<polygon fill="white" stroke="#666666" points="468.2,-19.25 395.95,-19.25 395.95,0 468.2,0 468.2,-19.25"/>
<text text-anchor="middle" x="432.07" y="-5.75" font-family="Helvetica,sans-Serif" font-size="10.00">src/main.cpp</text>
</a>
</g>
</g>
<!-- Node1&#45;&gt;Node4 -->
<g id="edge25_Node000001_Node000004" class="edge">
<title>Node1&#45;&gt;Node4</title>
<g id="a_edge25_Node000001_Node000004"><a xlink:title=" ">
<path fill="none" stroke="#63b8ff" d="M249.68,-217.32C165.01,-191.79 -5.57,-129.24 60.07,-55.25 82.14,-30.37 306.34,-16.76 395.65,-12.3"/>
<polygon fill="#63b8ff" stroke="#63b8ff" points="248.51,-220.62 259.09,-220.1 250.49,-213.91 248.51,-220.62"/>
</a>
</g>
</g>
<!-- Node5 -->
<g id="Node000005" class="node">
<title>Node5</title>
<g id="a_Node000005"><a xlink:href="can__manager_8h.html" target="_top" xlink:title="CAN Communication Manager for Vehicle Control System.">
<polygon fill="white" stroke="#666666" points="397.95,-129.75 282.2,-129.75 282.2,-110.5 397.95,-110.5 397.95,-129.75"/>
<text text-anchor="middle" x="340.07" y="-116.25" font-family="Helvetica,sans-Serif" font-size="10.00">include/can_manager.h</text>
</a>
</g>
</g>
<!-- Node1&#45;&gt;Node5 -->
<g id="edge4_Node000001_Node000005" class="edge">
<title>Node1&#45;&gt;Node5</title>
<g id="a_edge4_Node000001_Node000005"><a xlink:title=" ">
<path fill="none" stroke="#63b8ff" d="M298.57,-209.85C301.82,-196.99 306.76,-180.02 313.07,-165.75 318.86,-152.67 327.79,-138.73 333.78,-129.99"/>
<polygon fill="#63b8ff" stroke="#63b8ff" points="295.25,-208.68 296.32,-219.22 302.05,-210.31 295.25,-208.68"/>
</a>
</g>
</g>
<!-- Node7 -->
<g id="Node000007" class="node">
<title>Node7</title>
<g id="a_Node000007"><a xlink:href="setup_8cpp.html" target="_top" xlink:title="System initialization and hardware setup implementation.">
<polygon fill="white" stroke="#666666" points="220.7,-19.25 145.45,-19.25 145.45,0 220.7,0 220.7,-19.25"/>
<text text-anchor="middle" x="183.07" y="-5.75" font-family="Helvetica,sans-Serif" font-size="10.00">src/setup.cpp</text>
</a>
</g>
</g>
<!-- Node1&#45;&gt;Node7 -->
<g id="edge26_Node000001_Node000007" class="edge">
<title>Node1&#45;&gt;Node7</title>
<g id="a_edge26_Node000001_Node000007"><a xlink:title=" ">
<path fill="none" stroke="#63b8ff" d="M240.49,-228.54C170.54,-225.86 53.86,-216.64 27.07,-185 -10.19,-140.99 -7.65,-101.29 27.07,-55.25 41.28,-36.41 103.68,-23.12 145.13,-16.18"/>
<polygon fill="#63b8ff" stroke="#63b8ff" points="240.08,-232.03 250.2,-228.88 240.33,-225.03 240.08,-232.03"/>
</a>
</g>
</g>
<!-- Node8 -->
<g id="Node000008" class="node">
<title>Node8</title>
<g id="a_Node000008"><a xlink:href="can__manager_8cpp.html" target="_top" xlink:title="Implementation of CAN communication management system.">
<polygon fill="white" stroke="#666666" points="178.57,-74.5 69.57,-74.5 69.57,-55.25 178.57,-55.25 178.57,-74.5"/>
<text text-anchor="middle" x="124.07" y="-61" font-family="Helvetica,sans-Serif" font-size="10.00">src/can_manager.cpp</text>
</a>
</g>
</g>
<!-- Node1&#45;&gt;Node8 -->
<g id="edge24_Node000001_Node000008" class="edge">
<title>Node1&#45;&gt;Node8</title>
<g id="a_edge24_Node000001_Node000008"><a xlink:title=" ">
<path fill="none" stroke="#63b8ff" d="M276.92,-213.1C241.34,-178.83 160.53,-100.99 133.26,-74.72"/>
<polygon fill="#63b8ff" stroke="#63b8ff" points="274.21,-215.35 283.84,-219.77 279.07,-210.31 274.21,-215.35"/>
</a>
</g>
</g>
<!-- Node9 -->
<g id="Node000009" class="node">
<title>Node9</title>
<g id="a_Node000009"><a xlink:href="state__manager_8cpp.html" target="_top" xlink:title="Implementation of the vehicle state management system.">
<polygon fill="white" stroke="#666666" points="311.57,-74.5 196.57,-74.5 196.57,-55.25 311.57,-55.25 311.57,-74.5"/>
<text text-anchor="middle" x="254.07" y="-61" font-family="Helvetica,sans-Serif" font-size="10.00">src/state_manager.cpp</text>
</a>
</g>
</g>
<!-- Node1&#45;&gt;Node9 -->
<g id="edge27_Node000001_Node000009" class="edge">
<title>Node1&#45;&gt;Node9</title>
<g id="a_edge27_Node000001_Node000009"><a xlink:title=" ">
<path fill="none" stroke="#63b8ff" d="M285.17,-210.11C276.58,-190.32 264.05,-158.58 258.07,-129.75 254.06,-110.38 253.69,-87.07 253.84,-74.66"/>
<polygon fill="#63b8ff" stroke="#63b8ff" points="281.92,-211.42 289.18,-219.13 288.31,-208.57 281.92,-211.42"/>
</a>
</g>
</g>
<!-- Node10 -->
<g id="Node000010" class="node">
<title>Node10</title>
<g id="a_Node000010"><a xlink:href="state__manager_8h.html" target="_top" xlink:title="Vehicle State Management System.">
<polygon fill="white" stroke="#666666" points="443.95,-185 322.2,-185 322.2,-165.75 443.95,-165.75 443.95,-185"/>
<text text-anchor="middle" x="383.07" y="-171.5" font-family="Helvetica,sans-Serif" font-size="10.00">include/state_manager.h</text>
</a>
</g>
</g>
<!-- Node1&#45;&gt;Node10 -->
<g id="edge12_Node000001_Node000010" class="edge">
<title>Node1&#45;&gt;Node10</title>
<g id="a_edge12_Node000001_Node000010"><a xlink:title=" ">
<path fill="none" stroke="#63b8ff" d="M318.81,-214.82C334.56,-205.4 354.45,-193.5 367.9,-185.45"/>
<polygon fill="#63b8ff" stroke="#63b8ff" points="317.25,-211.68 310.47,-219.81 320.85,-217.68 317.25,-211.68"/>
</a>
</g>
</g>
<!-- Node11 -->
<g id="Node000011" class="node">
<title>Node11</title>
<g id="a_Node000011"><a xlink:href="vehicle__control_8h.html" target="_top" xlink:title="Vehicle Control System for Electric Vehicle.">
<polygon fill="white" stroke="#666666" points="705.7,-129.75 582.45,-129.75 582.45,-110.5 705.7,-110.5 705.7,-129.75"/>
<text text-anchor="middle" x="644.07" y="-116.25" font-family="Helvetica,sans-Serif" font-size="10.00">include/vehicle_control.h</text>
</a>
</g>
</g>
<!-- Node1&#45;&gt;Node11 -->
<g id="edge19_Node000001_Node000011" class="edge">
<title>Node1&#45;&gt;Node11</title>
<g id="a_edge19_Node000001_Node000011"><a xlink:title=" ">
<path fill="none" stroke="#63b8ff" d="M347.75,-229.22C404.83,-226.92 496.56,-217.81 568.07,-185 597.21,-171.63 624.13,-143.97 636.67,-129.84"/>
<polygon fill="#63b8ff" stroke="#63b8ff" points="347.85,-225.71 337.97,-229.55 348.09,-232.71 347.85,-225.71"/>
</a>
</g>
</g>
<!-- Node12 -->
<g id="Node000012" class="node">
<title>Node12</title>
<g id="a_Node000012"><a xlink:href="vehicle__control_8cpp.html" target="_top" xlink:title="Implementation of vehicle driving dynamics and motor control system.">
<polygon fill="white" stroke="#666666" points="796.32,-74.5 679.82,-74.5 679.82,-55.25 796.32,-55.25 796.32,-74.5"/>
<text text-anchor="middle" x="738.07" y="-61" font-family="Helvetica,sans-Serif" font-size="10.00">src/vehicle_control.cpp</text>
</a>
</g>
</g>
<!-- Node1&#45;&gt;Node12 -->
<g id="edge28_Node000001_Node000012" class="edge">
<title>Node1&#45;&gt;Node12</title>
<g id="a_edge28_Node000001_Node000012"><a xlink:title=" ">
<path fill="none" stroke="#63b8ff" d="M347.91,-226.44C409.31,-221.73 512.16,-210.53 597.07,-185 652.53,-168.33 676.06,-172.54 715.07,-129.75 729.53,-113.9 735.05,-88.3 737.04,-74.83"/>
<polygon fill="#63b8ff" stroke="#63b8ff" points="347.8,-222.94 338.09,-227.17 348.32,-229.92 347.8,-222.94"/>
</a>
</g>
</g>
<!-- Node3 -->
<g id="Node000003" class="node">
<title>Node3</title>
<g id="a_Node000003"><a xlink:href="_serial_console_8cpp.html" target="_top" xlink:title="Implementation of debug console interface for vehicle control system.">
<polygon fill="white" stroke="#666666" points="621.07,-19.25 509.07,-19.25 509.07,0 621.07,0 621.07,-19.25"/>
<text text-anchor="middle" x="565.07" y="-5.75" font-family="Helvetica,sans-Serif" font-size="10.00">src/SerialConsole.cpp</text>
</a>
</g>
</g>
<!-- Node2&#45;&gt;Node3 -->
<g id="edge2_Node000002_Node000003" class="edge">
<title>Node2&#45;&gt;Node3</title>
<g id="a_edge2_Node000002_Node000003"><a xlink:title=" ">
<path fill="none" stroke="#63b8ff" d="M565.07,-43.63C565.07,-35.34 565.07,-26.17 565.07,-19.61"/>
<polygon fill="#63b8ff" stroke="#63b8ff" points="561.57,-43.57 565.07,-53.57 568.57,-43.57 561.57,-43.57"/>
</a>
</g>
</g>
<!-- Node2&#45;&gt;Node4 -->
<g id="edge3_Node000002_Node000004" class="edge">
<title>Node2&#45;&gt;Node4</title>
<g id="a_edge3_Node000002_Node000004"><a xlink:title=" ">
<path fill="none" stroke="#63b8ff" d="M532.07,-50.66C508,-41.02 475.99,-28.21 454.75,-19.7"/>
<polygon fill="#63b8ff" stroke="#63b8ff" points="530.52,-53.81 541.11,-54.28 533.12,-47.31 530.52,-53.81"/>
</a>
</g>
</g>
<!-- Node5&#45;&gt;Node2 -->
<g id="edge5_Node000005_Node000002" class="edge">
<title>Node5&#45;&gt;Node2</title>
<g id="a_edge5_Node000005_Node000002"><a xlink:title=" ">
<path fill="none" stroke="#63b8ff" d="M389.68,-107.39C431,-97.61 489.01,-83.88 526.81,-74.93"/>
<polygon fill="#63b8ff" stroke="#63b8ff" points="388.89,-103.97 379.97,-109.68 390.51,-110.79 388.89,-103.97"/>
</a>
</g>
</g>
<!-- Node5&#45;&gt;Node4 -->
<g id="edge10_Node000005_Node000004" class="edge">
<title>Node5&#45;&gt;Node4</title>
<g id="a_edge10_Node000005_Node000004"><a xlink:title=" ">
<path fill="none" stroke="#63b8ff" d="M342.19,-99.38C344.49,-85.82 349.24,-68.03 359.07,-55.25 371.75,-38.77 392.4,-26.97 408.5,-19.66"/>
<polygon fill="#63b8ff" stroke="#63b8ff" points="338.78,-98.5 340.9,-108.88 345.71,-99.44 338.78,-98.5"/>
</a>
</g>
</g>
<!-- Node6 -->
<g id="Node000006" class="node">
<title>Node6</title>
<g id="a_Node000006"><a xlink:href="setup_8h.html" target="_top" xlink:title="System Initialization and Safety Configuration.">
<polygon fill="white" stroke="#666666" points="450.07,-74.5 368.07,-74.5 368.07,-55.25 450.07,-55.25 450.07,-74.5"/>
<text text-anchor="middle" x="409.07" y="-61" font-family="Helvetica,sans-Serif" font-size="10.00">include/setup.h</text>
</a>
</g>
</g>
<!-- Node5&#45;&gt;Node6 -->
<g id="edge6_Node000005_Node000006" class="edge">
<title>Node5&#45;&gt;Node6</title>
<g id="a_edge6_Node000005_Node000006"><a xlink:title=" ">
<path fill="none" stroke="#63b8ff" d="M360.72,-103.19C372.77,-93.89 387.52,-82.51 397.54,-74.77"/>
<polygon fill="#63b8ff" stroke="#63b8ff" points="358.75,-100.29 352.98,-109.17 363.03,-105.83 358.75,-100.29"/>
</a>
</g>
</g>
<!-- Node5&#45;&gt;Node8 -->
<g id="edge9_Node000005_Node000008" class="edge">
<title>Node5&#45;&gt;Node8</title>
<g id="a_edge9_Node000005_Node000008"><a xlink:title=" ">
<path fill="none" stroke="#63b8ff" d="M292.45,-107.38C252.81,-97.61 197.19,-83.9 160.89,-74.95"/>
<polygon fill="#63b8ff" stroke="#63b8ff" points="291.42,-110.73 301.96,-109.73 293.09,-103.94 291.42,-110.73"/>
</a>
</g>
</g>
<!-- Node5&#45;&gt;Node9 -->
<g id="edge11_Node000005_Node000009" class="edge">
<title>Node5&#45;&gt;Node9</title>
<g id="a_edge11_Node000005_Node000009"><a xlink:title=" ">
<path fill="none" stroke="#63b8ff" d="M315.73,-104.05C300.59,-94.67 281.61,-82.92 268.73,-74.95"/>
<polygon fill="#63b8ff" stroke="#63b8ff" points="313.85,-107.01 324.2,-109.3 317.54,-101.05 313.85,-107.01"/>
</a>
</g>
</g>
<!-- Node6&#45;&gt;Node4 -->
<g id="edge7_Node000006_Node000004" class="edge">
<title>Node6&#45;&gt;Node4</title>
<g id="a_edge7_Node000006_Node000004"><a xlink:title=" ">
<path fill="none" stroke="#63b8ff" d="M417.32,-44.79C421.02,-36.21 425.22,-26.48 428.19,-19.61"/>
<polygon fill="#63b8ff" stroke="#63b8ff" points="414.22,-43.12 413.47,-53.69 420.65,-45.9 414.22,-43.12"/>
</a>
</g>
</g>
<!-- Node6&#45;&gt;Node7 -->
<g id="edge8_Node000006_Node000007" class="edge">
<title>Node6&#45;&gt;Node7</title>
<g id="a_edge8_Node000006_Node000007"><a xlink:title=" ">
<path fill="none" stroke="#63b8ff" d="M359.48,-52.19C317.82,-42.37 259.16,-28.55 221.13,-19.59"/>
<polygon fill="#63b8ff" stroke="#63b8ff" points="358.47,-55.55 369.01,-54.43 360.08,-48.73 358.47,-55.55"/>
</a>
</g>
</g>
<!-- Node10&#45;&gt;Node2 -->
<g id="edge13_Node000010_Node000002" class="edge">
<title>Node10&#45;&gt;Node2</title>
<g id="a_edge13_Node000010_Node000002"><a xlink:title=" ">
<path fill="none" stroke="#63b8ff" d="M423.2,-161.55C444.48,-153.88 470.6,-143.03 492.07,-129.75 518.14,-113.63 544.04,-88.15 556.84,-74.76"/>
<polygon fill="#63b8ff" stroke="#63b8ff" points="422.27,-158.17 413.98,-164.78 424.58,-164.78 422.27,-158.17"/>
</a>
</g>
</g>
<!-- Node10&#45;&gt;Node4 -->
<g id="edge17_Node000010_Node000004" class="edge">
<title>Node10&#45;&gt;Node4</title>
<g id="a_edge17_Node000010_Node000004"><a xlink:title=" ">
<path fill="none" stroke="#63b8ff" d="M402.12,-157.65C421.16,-139.46 449,-108.4 459.07,-74.5 465.11,-54.19 450.08,-31.61 440.1,-19.49"/>
<polygon fill="#63b8ff" stroke="#63b8ff" points="399.93,-154.91 394.95,-164.26 404.68,-160.05 399.93,-154.91"/>
</a>
</g>
</g>
<!-- Node10&#45;&gt;Node5 -->
<g id="edge14_Node000010_Node000005" class="edge">
<title>Node10&#45;&gt;Node5</title>
<g id="a_edge14_Node000010_Node000005"><a xlink:title=" ">
<path fill="none" stroke="#63b8ff" d="M368.82,-156.72C361.62,-147.81 353.19,-137.37 347.33,-130.11"/>
<polygon fill="#63b8ff" stroke="#63b8ff" points="366.02,-158.82 375.02,-164.4 371.46,-154.43 366.02,-158.82"/>
</a>
</g>
</g>
<!-- Node10&#45;&gt;Node6 -->
<g id="edge15_Node000010_Node000006" class="edge">
<title>Node10&#45;&gt;Node6</title>
<g id="a_edge15_Node000010_Node000006"><a xlink:title=" ">
<path fill="none" stroke="#63b8ff" d="M395.64,-155.65C400.12,-147.96 404.65,-138.76 407.07,-129.75 412.2,-110.68 411.16,-87.25 410.06,-74.74"/>
<polygon fill="#63b8ff" stroke="#63b8ff" points="392.72,-153.72 390.37,-164.05 398.65,-157.44 392.72,-153.72"/>
</a>
</g>
</g>
<!-- Node10&#45;&gt;Node8 -->
<g id="edge16_Node000010_Node000008" class="edge">
<title>Node10&#45;&gt;Node8</title>
<g id="a_edge16_Node000010_Node000008"><a xlink:title=" ">
<path fill="none" stroke="#63b8ff" d="M344.14,-161.62C319.28,-153.19 286.49,-141.56 258.07,-129.75 215.47,-112.05 166.93,-87.87 141.59,-74.93"/>
<polygon fill="#63b8ff" stroke="#63b8ff" points="342.93,-164.9 353.53,-164.77 345.16,-158.27 342.93,-164.9"/>
</a>
</g>
</g>
<!-- Node10&#45;&gt;Node9 -->
<g id="edge18_Node000010_Node000009" class="edge">
<title>Node10&#45;&gt;Node9</title>
<g id="a_edge18_Node000010_Node000009"><a xlink:title=" ">
<path fill="none" stroke="#63b8ff" d="M325.72,-161.84C306.72,-155.14 286.92,-145 273.07,-129.75 258.92,-114.16 255.29,-88.45 254.37,-74.89"/>
<polygon fill="#63b8ff" stroke="#63b8ff" points="324.42,-165.1 335.01,-164.85 326.57,-158.44 324.42,-165.1"/>
</a>
</g>
</g>
<!-- Node11&#45;&gt;Node2 -->
<g id="edge20_Node000011_Node000002" class="edge">
<title>Node11&#45;&gt;Node2</title>
<g id="a_edge20_Node000011_Node000002"><a xlink:title=" ">
<path fill="none" stroke="#63b8ff" d="M621.31,-103.78C607.46,-94.45 590.25,-82.85 578.54,-74.95"/>
<polygon fill="#63b8ff" stroke="#63b8ff" points="619.17,-106.56 629.42,-109.25 623.08,-100.75 619.17,-106.56"/>
</a>
</g>
</g>
<!-- Node11&#45;&gt;Node4 -->
<g id="edge22_Node000011_Node000004" class="edge">
<title>Node11&#45;&gt;Node4</title>
<g id="a_edge22_Node000011_Node000004"><a xlink:title=" ">
<path fill="none" stroke="#63b8ff" d="M646.04,-98.95C646.24,-84.91 644.01,-66.72 633.07,-55.25 621.76,-43.38 523.39,-25.6 468.58,-16.48"/>
<polygon fill="#63b8ff" stroke="#63b8ff" points="642.55,-98.66 645.43,-108.86 649.53,-99.09 642.55,-98.66"/>
</a>
</g>
</g>
<!-- Node11&#45;&gt;Node6 -->
<g id="edge21_Node000011_Node000006" class="edge">
<title>Node11&#45;&gt;Node6</title>
<g id="a_edge21_Node000011_Node000006"><a xlink:title=" ">
<path fill="none" stroke="#63b8ff" d="M592.82,-107.51C549.62,-97.72 488.69,-83.92 449.04,-74.93"/>
<polygon fill="#63b8ff" stroke="#63b8ff" points="591.94,-110.9 602.47,-109.7 593.49,-104.07 591.94,-110.9"/>
</a>
</g>
</g>
<!-- Node11&#45;&gt;Node12 -->
<g id="edge23_Node000011_Node000012" class="edge">
<title>Node11&#45;&gt;Node12</title>
<g id="a_edge23_Node000011_Node000012"><a xlink:title=" ">
<path fill="none" stroke="#63b8ff" d="M669.73,-104.59C686.43,-95.13 707.71,-83.08 722.05,-74.95"/>
<polygon fill="#63b8ff" stroke="#63b8ff" points="668.31,-101.37 661.34,-109.35 671.76,-107.46 668.31,-101.37"/>
</a>
</g>
</g>
</g>
</svg>

<g id="navigator" transform="translate(0 0)" fill="#404254">
  <rect fill="#f2f5e9" fill-opacity="0.5" stroke="#606060" stroke-width=".5" x="0" y="0" width="60" height="60"/>
  <use id="zoomplus" xlink:href="#zoomPlus" x="17" y="9" onmousedown="handleZoom(evt,'in')"/>
  <use id="zoomminus" xlink:href="#zoomMin" x="42" y="9" onmousedown="handleZoom(evt,'out')"/>
  <use id="reset" xlink:href="#resetDef" x="30" y="36" onmousedown="handleReset()"/>
   <use id="arrowup" xlink:href="#arrowUp" x="0" y="0" onmousedown="handlePan(0,-1)"/>
  <use id="arrowright" xlink:href="#arrowRight" x="0" y="0" onmousedown="handlePan(1,0)"/>
  <use id="arrowdown" xlink:href="#arrowDown" x="0" y="0" onmousedown="handlePan(0,1)"/>
  <use id="arrowleft" xlink:href="#arrowLeft" x="0" y="0" onmousedown="handlePan(-1,0)"/>
</g>
<svg viewBox="0 0 15 15" width="100%" height="30px" preserveAspectRatio="xMaxYMin meet">
 <g id="arrow_out" transform="scale(0.3 0.3)">
  <a xlink:href="config_8h__dep__incl_org.svg" target="_base">
   <rect id="button" ry="5" rx="5" y="6" x="6" height="38" width="38"
        fill="#f2f5e9" fill-opacity="0.5" stroke="#606060" stroke-width="1.0"/>
   <path id="arrow"
     d="M 11.500037,31.436501 C 11.940474,20.09759 22.043105,11.32322 32.158766,21.979434 L 37.068811,17.246167 C 37.068811,17.246167 37.088388,32 37.088388,32 L 22.160133,31.978069 C 22.160133,31.978069 26.997745,27.140456 26.997745,27.140456 C 18.528582,18.264221 13.291696,25.230495 11.500037,31.436501 z"
     style="fill:#404040;"/>
  </a>
 </g>
</svg>

<style type='text/css'>
<![CDATA[
[data-mouse-over-selected='false'] { opacity: 0.7; }
[data-mouse-over-selected='true']  { opacity: 1.0; }
]]>
</style>
<script type="application/ecmascript"><![CDATA[
document.addEventListener('DOMContentLoaded', (event) => {
  highlightEdges();
  highlightAdjacentNodes();
});
]]></script>
</svg>
