<?xml version="1.0" encoding="UTF-8" standalone="no"?>
<!DOCTYPE svg PUBLIC "-//W3C//DTD SVG 1.1//EN"
 "http://www.w3.org/Graphics/SVG/1.1/DTD/svg11.dtd">
<!-- Generated by graphviz version 12.2.0 (20241103.1931)
 -->
<!-- Title: src/setup.cpp Pages: 1 -->
<!--zoomable 304 -->

<svg id="main" version="1.1" xmlns="http://www.w3.org/2000/svg" xmlns:xlink="http://www.w3.org/1999/xlink" xml:space="preserve" onload="init(evt)">

<style type="text/css"><![CDATA[
.node, .edge {opacity: 0.7;}
.node.selected, .edge.selected {opacity: 1;}
.edge:hover path { stroke: red; }
.edge:hover polygon { stroke: red; fill: red; }
]]></style>

<defs>
  <circle id="rim" cx="0" cy="0" r="7"/>
  <circle id="rim2" cx="0" cy="0" r="3.5"/>
  <g id="zoomPlus">
    <use xlink:href="#rim" fill="#404040"><set attributeName="fill" to="#808080" begin="zoomplus.mouseover" end="zoomplus.mouseout"/></use>
    <path d="M-4,0h8M0,-4v8" fill="none" stroke="white" stroke-width="1.5" pointer-events="none"/>
  </g>
  <g id="zoomMin">
    <use xlink:href="#rim" fill="#404040"><set attributeName="fill" to="#808080" begin="zoomminus.mouseover" end="zoomminus.mouseout"/></use>
    <path d="M-4,0h8" fill="none" stroke="white" stroke-width="1.5" pointer-events="none"/>
  </g>
  <g id="arrowUp" transform="translate(30 24)">
    <use xlink:href="#rim"/>
    <path pointer-events="none" fill="none" stroke="white" stroke-width="1.5" d="M0,-3.0v7 M-2.5,-0.5L0,-3.0L2.5,-0.5"/>
  </g>
  <g id="arrowRight" transform="rotate(90) translate(36 -43)">
    <use xlink:href="#rim"/>
    <path pointer-events="none" fill="none" stroke="white" stroke-width="1.5" d="M0,-3.0v7 M-2.5,-0.5L0,-3.0L2.5,-0.5"/>
  </g>
  <g id="arrowDown" transform="rotate(180) translate(-30 -48)">
    <use xlink:href="#rim"/>
    <path pointer-events="none" fill="none" stroke="white" stroke-width="1.5" d="M0,-3.0v7 M-2.5,-0.5L0,-3.0L2.5,-0.5"/>
  </g>
  <g id="arrowLeft" transform="rotate(270) translate(-36 17)">
    <use xlink:href="#rim"/>
    <path pointer-events="none" fill="none" stroke="white" stroke-width="1.5" d="M0,-3.0v7 M-2.5,-0.5L0,-3.0L2.5,-0.5"/>
  </g>
  <g id="resetDef">
    <use xlink:href="#rim2" fill="#404040"><set attributeName="fill" to="#808080" begin="reset.mouseover" end="reset.mouseout"/></use>
  </g>
</defs>
<script type="application/ecmascript">
var viewWidth = 753;
var viewHeight = 304;
var sectionId = 'dynsection-0';
</script>
<script type="application/ecmascript" xlink:href="svg.min.js"/>
<svg id="graph" class="graph">
<g id="viewport">
<title>src/setup.cpp</title>
<!-- Node1 -->
<g id="Node000001" class="node">
<title>Node1</title>
<g id="a_Node000001"><a xlink:title="System initialization and hardware setup implementation.">
<polygon fill="#999999" stroke="#666666" points="685.95,-295.5 610.7,-295.5 610.7,-276.25 685.95,-276.25 685.95,-295.5"/>
<text text-anchor="middle" x="648.33" y="-282" font-family="Helvetica,sans-Serif" font-size="10.00">src/setup.cpp</text>
</a>
</g>
</g>
<!-- Node2 -->
<g id="Node000002" class="node">
<title>Node2</title>
<g id="a_Node000002"><a xlink:href="setup_8h.html" target="_top" xlink:title="System Initialization and Safety Configuration.">
<polygon fill="white" stroke="#666666" points="316.45,-240.25 268.2,-240.25 268.2,-221 316.45,-221 316.45,-240.25"/>
<text text-anchor="middle" x="292.33" y="-226.75" font-family="Helvetica,sans-Serif" font-size="10.00">setup.h</text>
</a>
</g>
</g>
<!-- Node1&#45;&gt;Node2 -->
<g id="edge1_Node000001_Node000002" class="edge">
<title>Node1&#45;&gt;Node2</title>
<g id="a_edge1_Node000001_Node000002"><a xlink:title=" ">
<path fill="none" stroke="#63b8ff" d="M610.23,-279.18C541.02,-268.82 395.59,-247.07 328.12,-236.98"/>
<polygon fill="#63b8ff" stroke="#63b8ff" points="328.75,-233.53 318.34,-235.52 327.71,-240.46 328.75,-233.53"/>
</a>
</g>
</g>
<!-- Node5 -->
<g id="Node000005" class="node">
<title>Node5</title>
<g id="a_Node000005"><a xlink:href="config_8h.html" target="_top" xlink:title=" ">
<polygon fill="white" stroke="#666666" points="499.58,-74.5 449.08,-74.5 449.08,-55.25 499.58,-55.25 499.58,-74.5"/>
<text text-anchor="middle" x="474.33" y="-61" font-family="Helvetica,sans-Serif" font-size="10.00">config.h</text>
</a>
</g>
</g>
<!-- Node1&#45;&gt;Node5 -->
<g id="edge23_Node000001_Node000005" class="edge">
<title>Node1&#45;&gt;Node5</title>
<g id="a_edge23_Node000001_Node000005"><a xlink:title=" ">
<path fill="none" stroke="#63b8ff" d="M646.6,-276.03C640.72,-248.15 619.04,-160.9 569.33,-110.5 553.21,-94.16 529.95,-83.09 510.48,-76.07"/>
<polygon fill="#63b8ff" stroke="#63b8ff" points="511.86,-72.84 501.26,-72.97 509.62,-79.47 511.86,-72.84"/>
</a>
</g>
</g>
<!-- Node14 -->
<g id="Node000014" class="node">
<title>Node14</title>
<g id="a_Node000014"><a xlink:title=" ">
<polygon fill="#e0e0e0" stroke="#999999" points="744.58,-240.25 676.08,-240.25 676.08,-221 744.58,-221 744.58,-240.25"/>
<text text-anchor="middle" x="710.33" y="-226.75" font-family="Helvetica,sans-Serif" font-size="10.00">esp_sleep.h</text>
</a>
</g>
</g>
<!-- Node1&#45;&gt;Node14 -->
<g id="edge24_Node000001_Node000014" class="edge">
<title>Node1&#45;&gt;Node14</title>
<g id="a_edge24_Node000001_Node000014"><a xlink:title=" ">
<path fill="none" stroke="#63b8ff" d="M658.85,-275.84C667.72,-268.22 680.64,-257.12 691.32,-247.95"/>
<polygon fill="#63b8ff" stroke="#63b8ff" points="693.51,-250.68 698.82,-241.51 688.95,-245.37 693.51,-250.68"/>
</a>
</g>
</g>
<!-- Node3 -->
<g id="Node000003" class="node">
<title>Node3</title>
<g id="a_Node000003"><a xlink:title=" ">
<polygon fill="#e0e0e0" stroke="#999999" points="449.95,-19.25 392.7,-19.25 392.7,0 449.95,0 449.95,-19.25"/>
<text text-anchor="middle" x="421.33" y="-5.75" font-family="Helvetica,sans-Serif" font-size="10.00">Arduino.h</text>
</a>
</g>
</g>
<!-- Node2&#45;&gt;Node3 -->
<g id="edge2_Node000002_Node000003" class="edge">
<title>Node2&#45;&gt;Node3</title>
<g id="a_edge2_Node000002_Node000003"><a xlink:title=" ">
<path fill="none" stroke="#63b8ff" d="M267.95,-224.8C186.7,-207.74 -65.27,-146.33 16.33,-55.25 40.4,-28.38 283.27,-16 380.95,-12.08"/>
<polygon fill="#63b8ff" stroke="#63b8ff" points="381.02,-15.58 390.88,-11.69 380.75,-8.58 381.02,-15.58"/>
</a>
</g>
</g>
<!-- Node4 -->
<g id="Node000004" class="node">
<title>Node4</title>
<g id="a_Node000004"><a xlink:href="state__manager_8h.html" target="_top" xlink:title="Vehicle State Management System.">
<polygon fill="white" stroke="#666666" points="382.33,-129.75 294.33,-129.75 294.33,-110.5 382.33,-110.5 382.33,-129.75"/>
<text text-anchor="middle" x="338.33" y="-116.25" font-family="Helvetica,sans-Serif" font-size="10.00">state_manager.h</text>
</a>
</g>
</g>
<!-- Node2&#45;&gt;Node4 -->
<g id="edge3_Node000002_Node000004" class="edge">
<title>Node2&#45;&gt;Node4</title>
<g id="a_edge3_Node000002_Node000004"><a xlink:title=" ">
<path fill="none" stroke="#63b8ff" d="M296.09,-220.75C303.47,-203.34 319.99,-164.37 330.05,-140.66"/>
<polygon fill="#63b8ff" stroke="#63b8ff" points="333.24,-142.09 333.92,-131.52 326.79,-139.36 333.24,-142.09"/>
</a>
</g>
</g>
<!-- Node7 -->
<g id="Node000007" class="node">
<title>Node7</title>
<g id="a_Node000007"><a xlink:href="can__manager_8h.html" target="_top" xlink:title="CAN Communication Manager for Vehicle Control System.">
<polygon fill="white" stroke="#666666" points="484.33,-185 402.33,-185 402.33,-165.75 484.33,-165.75 484.33,-185"/>
<text text-anchor="middle" x="443.33" y="-171.5" font-family="Helvetica,sans-Serif" font-size="10.00">can_manager.h</text>
</a>
</g>
</g>
<!-- Node2&#45;&gt;Node7 -->
<g id="edge8_Node000002_Node000007" class="edge">
<title>Node2&#45;&gt;Node7</title>
<g id="a_edge8_Node000002_Node000007"><a xlink:title=" ">
<path fill="none" stroke="#63b8ff" d="M316.92,-220.95C341.34,-212.34 379.06,-199.04 406.95,-189.2"/>
<polygon fill="#63b8ff" stroke="#63b8ff" points="407.78,-192.62 416.05,-185.99 405.45,-186.02 407.78,-192.62"/>
</a>
</g>
</g>
<!-- Node10 -->
<g id="Node000010" class="node">
<title>Node10</title>
<g id="a_Node000010"><a xlink:href="vehicle__control_8h.html" target="_top" xlink:title="Vehicle Control System for Electric Vehicle.">
<polygon fill="white" stroke="#666666" points="238.08,-129.75 148.58,-129.75 148.58,-110.5 238.08,-110.5 238.08,-129.75"/>
<text text-anchor="middle" x="193.33" y="-116.25" font-family="Helvetica,sans-Serif" font-size="10.00">vehicle_control.h</text>
</a>
</g>
</g>
<!-- Node2&#45;&gt;Node10 -->
<g id="edge15_Node000002_Node000010" class="edge">
<title>Node2&#45;&gt;Node10</title>
<g id="a_edge15_Node000002_Node000010"><a xlink:title=" ">
<path fill="none" stroke="#63b8ff" d="M284.23,-220.75C267.84,-202.78 230.5,-161.86 209.12,-138.44"/>
<polygon fill="#63b8ff" stroke="#63b8ff" points="211.89,-136.27 202.56,-131.24 206.72,-140.99 211.89,-136.27"/>
</a>
</g>
</g>
<!-- Node13 -->
<g id="Node000013" class="node">
<title>Node13</title>
<g id="a_Node000013"><a xlink:title=" ">
<polygon fill="#e0e0e0" stroke="#999999" points="93.2,-74.5 25.45,-74.5 25.45,-55.25 93.2,-55.25 93.2,-74.5"/>
<text text-anchor="middle" x="59.33" y="-61" font-family="Helvetica,sans-Serif" font-size="10.00">ADS1X15.h</text>
</a>
</g>
</g>
<!-- Node2&#45;&gt;Node13 -->
<g id="edge22_Node000002_Node000013" class="edge">
<title>Node2&#45;&gt;Node13</title>
<g id="a_edge22_Node000002_Node000013"><a xlink:title=" ">
<path fill="none" stroke="#63b8ff" d="M277.68,-220.71C250.07,-203.77 188.68,-165.44 139.33,-129.75 117.9,-114.25 94.35,-95.19 78.39,-81.95"/>
<polygon fill="#63b8ff" stroke="#63b8ff" points="81.02,-79.58 71.1,-75.86 76.54,-84.96 81.02,-79.58"/>
</a>
</g>
</g>
<!-- Node4&#45;&gt;Node3 -->
<g id="edge4_Node000004_Node000003" class="edge">
<title>Node4&#45;&gt;Node3</title>
<g id="a_edge4_Node000004_Node000003"><a xlink:title=" ">
<path fill="none" stroke="#63b8ff" d="M357.8,-110.05C372.08,-102.46 390.91,-90.31 402.33,-74.5 411.57,-61.71 416.36,-44.41 418.81,-31.04"/>
<polygon fill="#63b8ff" stroke="#63b8ff" points="422.27,-31.61 420.3,-21.2 415.34,-30.57 422.27,-31.61"/>
</a>
</g>
</g>
<!-- Node4&#45;&gt;Node5 -->
<g id="edge5_Node000004_Node000005" class="edge">
<title>Node4&#45;&gt;Node5</title>
<g id="a_edge5_Node000004_Node000005"><a xlink:title=" ">
<path fill="none" stroke="#63b8ff" d="M361.4,-110.09C383.09,-101.6 415.81,-88.79 440.46,-79.14"/>
<polygon fill="#63b8ff" stroke="#63b8ff" points="441.7,-82.41 449.73,-75.5 439.15,-75.89 441.7,-82.41"/>
</a>
</g>
</g>
<!-- Node6 -->
<g id="Node000006" class="node">
<title>Node6</title>
<g id="a_Node000006"><a xlink:href="vehicle__parameters_8h.html" target="_top" xlink:title="Vehicle Configuration Parameters and Operating Limits.">
<polygon fill="white" stroke="#666666" points="392.83,-74.5 283.83,-74.5 283.83,-55.25 392.83,-55.25 392.83,-74.5"/>
<text text-anchor="middle" x="338.33" y="-61" font-family="Helvetica,sans-Serif" font-size="10.00">vehicle_parameters.h</text>
</a>
</g>
</g>
<!-- Node4&#45;&gt;Node6 -->
<g id="edge7_Node000004_Node000006" class="edge">
<title>Node4&#45;&gt;Node6</title>
<g id="a_edge7_Node000004_Node000006"><a xlink:title=" ">
<path fill="none" stroke="#63b8ff" d="M338.33,-110.33C338.33,-103.82 338.33,-94.67 338.33,-86.37"/>
<polygon fill="#63b8ff" stroke="#63b8ff" points="341.83,-86.37 338.33,-76.37 334.83,-86.37 341.83,-86.37"/>
</a>
</g>
</g>
<!-- Node5&#45;&gt;Node3 -->
<g id="edge6_Node000005_Node000003" class="edge">
<title>Node5&#45;&gt;Node3</title>
<g id="a_edge6_Node000005_Node000003"><a xlink:title=" ">
<path fill="none" stroke="#63b8ff" d="M465.58,-55.08C458.18,-47.65 447.37,-36.79 438.28,-27.66"/>
<polygon fill="#63b8ff" stroke="#63b8ff" points="440.87,-25.3 431.34,-20.68 435.91,-30.24 440.87,-25.3"/>
</a>
</g>
</g>
<!-- Node7&#45;&gt;Node3 -->
<g id="edge9_Node000007_Node000003" class="edge">
<title>Node7&#45;&gt;Node3</title>
<g id="a_edge9_Node000007_Node000003"><a xlink:title=" ">
<path fill="none" stroke="#63b8ff" d="M484.45,-170.16C527.25,-163.72 585.93,-147.94 569.33,-110.5 549.43,-65.62 497.51,-38.05 460.8,-23.54"/>
<polygon fill="#63b8ff" stroke="#63b8ff" points="462.43,-20.42 451.84,-20.16 459.96,-26.97 462.43,-20.42"/>
</a>
</g>
</g>
<!-- Node7&#45;&gt;Node4 -->
<g id="edge14_Node000007_Node000004" class="edge">
<title>Node7&#45;&gt;Node4</title>
<g id="a_edge14_Node000007_Node000004"><a xlink:title=" ">
<path fill="none" stroke="#63b8ff" d="M425.52,-165.34C409.3,-157.12 385.09,-144.84 366.3,-135.31"/>
<polygon fill="#63b8ff" stroke="#63b8ff" points="368.08,-132.29 357.58,-130.89 364.91,-138.53 368.08,-132.29"/>
</a>
</g>
</g>
<!-- Node7&#45;&gt;Node5 -->
<g id="edge12_Node000007_Node000005" class="edge">
<title>Node7&#45;&gt;Node5</title>
<g id="a_edge12_Node000007_Node000005"><a xlink:title=" ">
<path fill="none" stroke="#63b8ff" d="M484.78,-169.05C509.14,-163.56 538.07,-152.4 553.33,-129.75 568.24,-107.6 537.89,-89.31 510.59,-78.06"/>
<polygon fill="#63b8ff" stroke="#63b8ff" points="511.99,-74.85 501.4,-74.5 509.46,-81.38 511.99,-74.85"/>
</a>
</g>
</g>
<!-- Node7&#45;&gt;Node6 -->
<g id="edge13_Node000007_Node000006" class="edge">
<title>Node7&#45;&gt;Node6</title>
<g id="a_edge13_Node000007_Node000006"><a xlink:title=" ">
<path fill="none" stroke="#63b8ff" d="M401.86,-168.38C359.94,-161.38 299.39,-148.33 285.33,-129.75 272.37,-112.63 292.46,-93.79 311.51,-81.04"/>
<polygon fill="#63b8ff" stroke="#63b8ff" points="313.3,-84.05 319.91,-75.78 309.58,-78.12 313.3,-84.05"/>
</a>
</g>
</g>
<!-- Node8 -->
<g id="Node000008" class="node">
<title>Node8</title>
<g id="a_Node000008"><a xlink:title=" ">
<polygon fill="#e0e0e0" stroke="#999999" points="544.7,-129.75 503.95,-129.75 503.95,-110.5 544.7,-110.5 544.7,-129.75"/>
<text text-anchor="middle" x="524.33" y="-116.25" font-family="Helvetica,sans-Serif" font-size="10.00">SPI.h</text>
</a>
</g>
</g>
<!-- Node7&#45;&gt;Node8 -->
<g id="edge10_Node000007_Node000008" class="edge">
<title>Node7&#45;&gt;Node8</title>
<g id="a_edge10_Node000007_Node000008"><a xlink:title=" ">
<path fill="none" stroke="#63b8ff" d="M457.07,-165.34C469.05,-157.46 486.7,-145.86 500.91,-136.52"/>
<polygon fill="#63b8ff" stroke="#63b8ff" points="502.82,-139.45 509.25,-131.03 498.98,-133.6 502.82,-139.45"/>
</a>
</g>
</g>
<!-- Node9 -->
<g id="Node000009" class="node">
<title>Node9</title>
<g id="a_Node000009"><a xlink:title=" ">
<polygon fill="#e0e0e0" stroke="#999999" points="485.83,-129.75 400.83,-129.75 400.83,-110.5 485.83,-110.5 485.83,-129.75"/>
<text text-anchor="middle" x="443.33" y="-116.25" font-family="Helvetica,sans-Serif" font-size="10.00">mcp2515_can.h</text>
</a>
</g>
</g>
<!-- Node7&#45;&gt;Node9 -->
<g id="edge11_Node000007_Node000009" class="edge">
<title>Node7&#45;&gt;Node9</title>
<g id="a_edge11_Node000007_Node000009"><a xlink:title=" ">
<path fill="none" stroke="#63b8ff" d="M443.33,-165.58C443.33,-159.07 443.33,-149.92 443.33,-141.62"/>
<polygon fill="#63b8ff" stroke="#63b8ff" points="446.83,-141.62 443.33,-131.62 439.83,-141.62 446.83,-141.62"/>
</a>
</g>
</g>
<!-- Node10&#45;&gt;Node3 -->
<g id="edge16_Node000010_Node000003" class="edge">
<title>Node10&#45;&gt;Node3</title>
<g id="a_edge16_Node000010_Node000003"><a xlink:title=" ">
<path fill="none" stroke="#63b8ff" d="M202.15,-110.44C216.39,-96.86 245.86,-70.56 275.33,-55.25 309.22,-37.64 351.21,-25.72 381.45,-18.66"/>
<polygon fill="#63b8ff" stroke="#63b8ff" points="381.96,-22.13 390.94,-16.52 380.42,-15.3 381.96,-22.13"/>
</a>
</g>
</g>
<!-- Node10&#45;&gt;Node5 -->
<g id="edge19_Node000010_Node000005" class="edge">
<title>Node10&#45;&gt;Node5</title>
<g id="a_edge19_Node000010_Node000005"><a xlink:title=" ">
<path fill="none" stroke="#63b8ff" d="M238.48,-110.57C293.74,-100.1 386.29,-82.56 437.47,-72.86"/>
<polygon fill="#63b8ff" stroke="#63b8ff" points="437.99,-76.32 447.16,-71.02 436.68,-69.45 437.99,-76.32"/>
</a>
</g>
</g>
<!-- Node10&#45;&gt;Node6 -->
<g id="edge20_Node000010_Node000006" class="edge">
<title>Node10&#45;&gt;Node6</title>
<g id="a_edge20_Node000010_Node000006"><a xlink:title=" ">
<path fill="none" stroke="#63b8ff" d="M217.92,-110.09C241.26,-101.52 276.57,-88.56 302.92,-78.88"/>
<polygon fill="#63b8ff" stroke="#63b8ff" points="304.01,-82.21 312.19,-75.47 301.6,-75.64 304.01,-82.21"/>
</a>
</g>
</g>
<!-- Node11 -->
<g id="Node000011" class="node">
<title>Node11</title>
<g id="a_Node000011"><a xlink:title=" ">
<polygon fill="#e0e0e0" stroke="#999999" points="153.83,-74.5 110.83,-74.5 110.83,-55.25 153.83,-55.25 153.83,-74.5"/>
<text text-anchor="middle" x="132.33" y="-61" font-family="Helvetica,sans-Serif" font-size="10.00">cmath</text>
</a>
</g>
</g>
<!-- Node10&#45;&gt;Node11 -->
<g id="edge17_Node000010_Node000011" class="edge">
<title>Node10&#45;&gt;Node11</title>
<g id="a_edge17_Node000010_Node000011"><a xlink:title=" ">
<path fill="none" stroke="#63b8ff" d="M182.98,-110.09C174.25,-102.47 161.54,-91.37 151.03,-82.2"/>
<polygon fill="#63b8ff" stroke="#63b8ff" points="153.5,-79.71 143.66,-75.77 148.89,-84.98 153.5,-79.71"/>
</a>
</g>
</g>
<!-- Node12 -->
<g id="Node000012" class="node">
<title>Node12</title>
<g id="a_Node000012"><a xlink:title=" ">
<polygon fill="#e0e0e0" stroke="#999999" points="227.2,-74.5 171.45,-74.5 171.45,-55.25 227.2,-55.25 227.2,-74.5"/>
<text text-anchor="middle" x="199.33" y="-61" font-family="Helvetica,sans-Serif" font-size="10.00">algorithm</text>
</a>
</g>
</g>
<!-- Node10&#45;&gt;Node12 -->
<g id="edge18_Node000010_Node000012" class="edge">
<title>Node10&#45;&gt;Node12</title>
<g id="a_edge18_Node000010_Node000012"><a xlink:title=" ">
<path fill="none" stroke="#63b8ff" d="M194.32,-110.33C195.06,-103.74 196.11,-94.46 197.05,-86.07"/>
<polygon fill="#63b8ff" stroke="#63b8ff" points="200.5,-86.69 198.15,-76.36 193.55,-85.91 200.5,-86.69"/>
</a>
</g>
</g>
<!-- Node10&#45;&gt;Node13 -->
<g id="edge21_Node000010_Node000013" class="edge">
<title>Node10&#45;&gt;Node13</title>
<g id="a_edge21_Node000010_Node000013"><a xlink:title=" ">
<path fill="none" stroke="#63b8ff" d="M170.6,-110.09C149.23,-101.6 116.99,-88.79 92.7,-79.14"/>
<polygon fill="#63b8ff" stroke="#63b8ff" points="94.16,-75.95 83.58,-75.51 91.58,-82.46 94.16,-75.95"/>
</a>
</g>
</g>
</g>
</svg>

<g id="navigator" transform="translate(0 0)" fill="#404254">
  <rect fill="#f2f5e9" fill-opacity="0.5" stroke="#606060" stroke-width=".5" x="0" y="0" width="60" height="60"/>
  <use id="zoomplus" xlink:href="#zoomPlus" x="17" y="9" onmousedown="handleZoom(evt,'in')"/>
  <use id="zoomminus" xlink:href="#zoomMin" x="42" y="9" onmousedown="handleZoom(evt,'out')"/>
  <use id="reset" xlink:href="#resetDef" x="30" y="36" onmousedown="handleReset()"/>
   <use id="arrowup" xlink:href="#arrowUp" x="0" y="0" onmousedown="handlePan(0,-1)"/>
  <use id="arrowright" xlink:href="#arrowRight" x="0" y="0" onmousedown="handlePan(1,0)"/>
  <use id="arrowdown" xlink:href="#arrowDown" x="0" y="0" onmousedown="handlePan(0,1)"/>
  <use id="arrowleft" xlink:href="#arrowLeft" x="0" y="0" onmousedown="handlePan(-1,0)"/>
</g>
<svg viewBox="0 0 15 15" width="100%" height="30px" preserveAspectRatio="xMaxYMin meet">
 <g id="arrow_out" transform="scale(0.3 0.3)">
  <a xlink:href="setup_8cpp__incl_org.svg" target="_base">
   <rect id="button" ry="5" rx="5" y="6" x="6" height="38" width="38"
        fill="#f2f5e9" fill-opacity="0.5" stroke="#606060" stroke-width="1.0"/>
   <path id="arrow"
     d="M 11.500037,31.436501 C 11.940474,20.09759 22.043105,11.32322 32.158766,21.979434 L 37.068811,17.246167 C 37.068811,17.246167 37.088388,32 37.088388,32 L 22.160133,31.978069 C 22.160133,31.978069 26.997745,27.140456 26.997745,27.140456 C 18.528582,18.264221 13.291696,25.230495 11.500037,31.436501 z"
     style="fill:#404040;"/>
  </a>
 </g>
</svg>

<style type='text/css'>
<![CDATA[
[data-mouse-over-selected='false'] { opacity: 0.7; }
[data-mouse-over-selected='true']  { opacity: 1.0; }
]]>
</style>
<script type="application/ecmascript"><![CDATA[
document.addEventListener('DOMContentLoaded', (event) => {
  highlightEdges();
  highlightAdjacentNodes();
});
]]></script>
</svg>
