<?xml version="1.0" encoding="UTF-8" standalone="no"?>
<!DOCTYPE svg PUBLIC "-//W3C//DTD SVG 1.1//EN"
 "http://www.w3.org/Graphics/SVG/1.1/DTD/svg11.dtd">
<!-- Generated by graphviz version 12.2.0 (20241103.1931)
 -->
<!-- Title: include/state_manager.h Pages: 1 -->
<svg width="564pt" height="193pt"
 viewBox="0.00 0.00 563.50 193.00" xmlns="http://www.w3.org/2000/svg" xmlns:xlink="http://www.w3.org/1999/xlink">
<g id="graph0" class="graph" transform="scale(1 1) rotate(0) translate(4 189)">
<title>include/state_manager.h</title>
<!-- Node1 -->
<g id="Node000001" class="node">
<title>Node1</title>
<g id="a_Node000001"><a xlink:title="Vehicle State Management System.">
<polygon fill="#999999" stroke="#666666" points="341.88,-185 220.12,-185 220.12,-165.75 341.88,-165.75 341.88,-185"/>
<text text-anchor="middle" x="281" y="-171.5" font-family="Helvetica,sans-Serif" font-size="10.00">include/state_manager.h</text>
</a>
</g>
</g>
<!-- Node2 -->
<g id="Node000002" class="node">
<title>Node2</title>
<g id="a_Node000002"><a xlink:href="_serial_console_8h.html" target="_top" xlink:title="Debug Console Interface for Vehicle Control System.">
<polygon fill="white" stroke="#666666" points="119.38,-74.5 0.62,-74.5 0.62,-55.25 119.38,-55.25 119.38,-74.5"/>
<text text-anchor="middle" x="60" y="-61" font-family="Helvetica,sans-Serif" font-size="10.00">include/SerialConsole.h</text>
</a>
</g>
</g>
<!-- Node1&#45;&gt;Node2 -->
<g id="edge1_Node000001_Node000002" class="edge">
<title>Node1&#45;&gt;Node2</title>
<g id="a_edge1_Node000001_Node000002"><a xlink:title=" ">
<path fill="none" stroke="#63b8ff" d="M221.76,-162.64C193.73,-155.59 160.46,-144.96 133,-129.75 105.89,-114.74 80.04,-88.31 67.64,-74.63"/>
<polygon fill="#63b8ff" stroke="#63b8ff" points="220.61,-165.97 231.15,-164.91 222.25,-159.16 220.61,-165.97"/>
</a>
</g>
</g>
<!-- Node4 -->
<g id="Node000004" class="node">
<title>Node4</title>
<g id="a_Node000004"><a xlink:href="main_8cpp.html" target="_top" xlink:title="Main Vehicle Control Unit (VCU) Program.">
<polygon fill="white" stroke="#666666" points="202.12,-19.25 129.88,-19.25 129.88,0 202.12,0 202.12,-19.25"/>
<text text-anchor="middle" x="166" y="-5.75" font-family="Helvetica,sans-Serif" font-size="10.00">src/main.cpp</text>
</a>
</g>
</g>
<!-- Node1&#45;&gt;Node4 -->
<g id="edge14_Node000001_Node000004" class="edge">
<title>Node1&#45;&gt;Node4</title>
<g id="a_edge14_Node000001_Node000004"><a xlink:title=" ">
<path fill="none" stroke="#63b8ff" d="M215.85,-161.6C198.55,-154.99 181.71,-144.96 171,-129.75 146.92,-95.57 157.73,-41.16 163.36,-19.73"/>
<polygon fill="#63b8ff" stroke="#63b8ff" points="214.61,-164.88 225.21,-164.81 216.88,-158.26 214.61,-164.88"/>
</a>
</g>
</g>
<!-- Node5 -->
<g id="Node000005" class="node">
<title>Node5</title>
<g id="a_Node000005"><a xlink:href="can__manager_8h.html" target="_top" xlink:title="CAN Communication Manager for Vehicle Control System.">
<polygon fill="white" stroke="#666666" points="295.88,-129.75 180.12,-129.75 180.12,-110.5 295.88,-110.5 295.88,-129.75"/>
<text text-anchor="middle" x="238" y="-116.25" font-family="Helvetica,sans-Serif" font-size="10.00">include/can_manager.h</text>
</a>
</g>
</g>
<!-- Node1&#45;&gt;Node5 -->
<g id="edge4_Node000001_Node000005" class="edge">
<title>Node1&#45;&gt;Node5</title>
<g id="a_edge4_Node000001_Node000005"><a xlink:title=" ">
<path fill="none" stroke="#63b8ff" d="M266.75,-156.72C259.55,-147.81 251.12,-137.37 245.25,-130.11"/>
<polygon fill="#63b8ff" stroke="#63b8ff" points="263.94,-158.82 272.95,-164.4 269.39,-154.43 263.94,-158.82"/>
</a>
</g>
</g>
<!-- Node6 -->
<g id="Node000006" class="node">
<title>Node6</title>
<g id="a_Node000006"><a xlink:href="setup_8h.html" target="_top" xlink:title="System Initialization and Safety Configuration.">
<polygon fill="white" stroke="#666666" points="295,-74.5 213,-74.5 213,-55.25 295,-55.25 295,-74.5"/>
<text text-anchor="middle" x="254" y="-61" font-family="Helvetica,sans-Serif" font-size="10.00">include/setup.h</text>
</a>
</g>
</g>
<!-- Node1&#45;&gt;Node6 -->
<g id="edge12_Node000001_Node000006" class="edge">
<title>Node1&#45;&gt;Node6</title>
<g id="a_edge12_Node000001_Node000006"><a xlink:title=" ">
<path fill="none" stroke="#63b8ff" d="M295.46,-156.34C303.98,-143.4 311.88,-125.65 305,-110.5 297.9,-94.86 282.31,-82.54 270.23,-74.85"/>
<polygon fill="#63b8ff" stroke="#63b8ff" points="292.7,-154.18 289.64,-164.32 298.36,-158.3 292.7,-154.18"/>
</a>
</g>
</g>
<!-- Node8 -->
<g id="Node000008" class="node">
<title>Node8</title>
<g id="a_Node000008"><a xlink:href="can__manager_8cpp.html" target="_top" xlink:title="Implementation of CAN communication management system.">
<polygon fill="white" stroke="#666666" points="422.5,-74.5 313.5,-74.5 313.5,-55.25 422.5,-55.25 422.5,-74.5"/>
<text text-anchor="middle" x="368" y="-61" font-family="Helvetica,sans-Serif" font-size="10.00">src/can_manager.cpp</text>
</a>
</g>
</g>
<!-- Node1&#45;&gt;Node8 -->
<g id="edge13_Node000001_Node000008" class="edge">
<title>Node1&#45;&gt;Node8</title>
<g id="a_edge13_Node000001_Node000008"><a xlink:title=" ">
<path fill="none" stroke="#63b8ff" d="M296.72,-157C303.95,-148.84 312.56,-138.92 320,-129.75 335.55,-110.57 352.68,-87.18 361.68,-74.71"/>
<polygon fill="#63b8ff" stroke="#63b8ff" points="294.34,-154.4 290.28,-164.19 299.56,-159.07 294.34,-154.4"/>
</a>
</g>
</g>
<!-- Node9 -->
<g id="Node000009" class="node">
<title>Node9</title>
<g id="a_Node000009"><a xlink:href="state__manager_8cpp.html" target="_top" xlink:title="Implementation of the vehicle state management system.">
<polygon fill="white" stroke="#666666" points="555.5,-74.5 440.5,-74.5 440.5,-55.25 555.5,-55.25 555.5,-74.5"/>
<text text-anchor="middle" x="498" y="-61" font-family="Helvetica,sans-Serif" font-size="10.00">src/state_manager.cpp</text>
</a>
</g>
</g>
<!-- Node1&#45;&gt;Node9 -->
<g id="edge15_Node000001_Node000009" class="edge">
<title>Node1&#45;&gt;Node9</title>
<g id="a_edge15_Node000001_Node000009"><a xlink:title=" ">
<path fill="none" stroke="#63b8ff" d="M309.42,-160.16C354.7,-137.53 441.95,-93.9 479.77,-74.99"/>
<polygon fill="#63b8ff" stroke="#63b8ff" points="307.86,-157.03 300.48,-164.63 310.99,-163.29 307.86,-157.03"/>
</a>
</g>
</g>
<!-- Node3 -->
<g id="Node000003" class="node">
<title>Node3</title>
<g id="a_Node000003"><a xlink:href="_serial_console_8cpp.html" target="_top" xlink:title="Implementation of debug console interface for vehicle control system.">
<polygon fill="white" stroke="#666666" points="112,-19.25 0,-19.25 0,0 112,0 112,-19.25"/>
<text text-anchor="middle" x="56" y="-5.75" font-family="Helvetica,sans-Serif" font-size="10.00">src/SerialConsole.cpp</text>
</a>
</g>
</g>
<!-- Node2&#45;&gt;Node3 -->
<g id="edge2_Node000002_Node000003" class="edge">
<title>Node2&#45;&gt;Node3</title>
<g id="a_edge2_Node000002_Node000003"><a xlink:title=" ">
<path fill="none" stroke="#63b8ff" d="M58.48,-43.63C57.86,-35.34 57.17,-26.17 56.67,-19.61"/>
<polygon fill="#63b8ff" stroke="#63b8ff" points="54.99,-43.86 59.23,-53.57 61.97,-43.34 54.99,-43.86"/>
</a>
</g>
</g>
<!-- Node2&#45;&gt;Node4 -->
<g id="edge3_Node000002_Node000004" class="edge">
<title>Node2&#45;&gt;Node4</title>
<g id="a_edge3_Node000002_Node000004"><a xlink:title=" ">
<path fill="none" stroke="#63b8ff" d="M88.13,-49.74C107.09,-40.22 131.53,-27.94 147.93,-19.7"/>
<polygon fill="#63b8ff" stroke="#63b8ff" points="86.7,-46.55 79.33,-54.16 89.84,-52.8 86.7,-46.55"/>
</a>
</g>
</g>
<!-- Node5&#45;&gt;Node2 -->
<g id="edge5_Node000005_Node000002" class="edge">
<title>Node5&#45;&gt;Node2</title>
<g id="a_edge5_Node000005_Node000002"><a xlink:title=" ">
<path fill="none" stroke="#63b8ff" d="M196.85,-106.82C164.33,-97.09 119.67,-83.73 90.34,-74.95"/>
<polygon fill="#63b8ff" stroke="#63b8ff" points="195.77,-110.15 206.35,-109.66 197.78,-103.44 195.77,-110.15"/>
</a>
</g>
</g>
<!-- Node5&#45;&gt;Node4 -->
<g id="edge10_Node000005_Node000004" class="edge">
<title>Node5&#45;&gt;Node4</title>
<g id="a_edge10_Node000005_Node000004"><a xlink:title=" ">
<path fill="none" stroke="#63b8ff" d="M223.68,-101.3C217.42,-93.27 210.12,-83.57 204,-74.5 191.15,-55.46 177.8,-32.02 170.85,-19.5"/>
<polygon fill="#63b8ff" stroke="#63b8ff" points="220.76,-103.26 229.71,-108.93 226.26,-98.92 220.76,-103.26"/>
</a>
</g>
</g>
<!-- Node5&#45;&gt;Node6 -->
<g id="edge6_Node000005_Node000006" class="edge">
<title>Node5&#45;&gt;Node6</title>
<g id="a_edge6_Node000005_Node000006"><a xlink:title=" ">
<path fill="none" stroke="#63b8ff" d="M243.91,-99.46C246.44,-91.02 249.28,-81.58 251.3,-74.86"/>
<polygon fill="#63b8ff" stroke="#63b8ff" points="240.6,-98.3 241.08,-108.88 247.31,-100.31 240.6,-98.3"/>
</a>
</g>
</g>
<!-- Node5&#45;&gt;Node8 -->
<g id="edge9_Node000005_Node000008" class="edge">
<title>Node5&#45;&gt;Node8</title>
<g id="a_edge9_Node000005_Node000008"><a xlink:title=" ">
<path fill="none" stroke="#63b8ff" d="M270.57,-105.78C294.07,-96.16 325.17,-83.42 345.84,-74.95"/>
<polygon fill="#63b8ff" stroke="#63b8ff" points="269.38,-102.49 261.45,-109.52 272.03,-108.97 269.38,-102.49"/>
</a>
</g>
</g>
<!-- Node5&#45;&gt;Node9 -->
<g id="edge11_Node000005_Node000009" class="edge">
<title>Node5&#45;&gt;Node9</title>
<g id="a_edge11_Node000005_Node000009"><a xlink:title=" ">
<path fill="none" stroke="#63b8ff" d="M293.49,-107.76C341.35,-97.96 409.54,-83.99 453.78,-74.93"/>
<polygon fill="#63b8ff" stroke="#63b8ff" points="292.98,-104.29 283.88,-109.73 294.38,-111.15 292.98,-104.29"/>
</a>
</g>
</g>
<!-- Node6&#45;&gt;Node4 -->
<g id="edge7_Node000006_Node000004" class="edge">
<title>Node6&#45;&gt;Node4</title>
<g id="a_edge7_Node000006_Node000004"><a xlink:title=" ">
<path fill="none" stroke="#63b8ff" d="M229.54,-49.07C213.97,-39.65 194.3,-27.75 181,-19.7"/>
<polygon fill="#63b8ff" stroke="#63b8ff" points="227.41,-51.88 237.78,-54.06 231.03,-45.89 227.41,-51.88"/>
</a>
</g>
</g>
<!-- Node7 -->
<g id="Node000007" class="node">
<title>Node7</title>
<g id="a_Node000007"><a xlink:href="setup_8cpp.html" target="_top" xlink:title="System initialization and hardware setup implementation.">
<polygon fill="white" stroke="#666666" points="295.62,-19.25 220.38,-19.25 220.38,0 295.62,0 295.62,-19.25"/>
<text text-anchor="middle" x="258" y="-5.75" font-family="Helvetica,sans-Serif" font-size="10.00">src/setup.cpp</text>
</a>
</g>
</g>
<!-- Node6&#45;&gt;Node7 -->
<g id="edge8_Node000006_Node000007" class="edge">
<title>Node6&#45;&gt;Node7</title>
<g id="a_edge8_Node000006_Node000007"><a xlink:title=" ">
<path fill="none" stroke="#63b8ff" d="M255.52,-43.63C256.14,-35.34 256.83,-26.17 257.33,-19.61"/>
<polygon fill="#63b8ff" stroke="#63b8ff" points="252.03,-43.34 254.77,-53.57 259.01,-43.86 252.03,-43.34"/>
</a>
</g>
</g>
</g>
</svg>
