<?xml version="1.0" encoding="UTF-8" standalone="no"?>
<!DOCTYPE svg PUBLIC "-//W3C//DTD SVG 1.1//EN"
 "http://www.w3.org/Graphics/SVG/1.1/DTD/svg11.dtd">
<!-- Generated by graphviz version 12.2.0 (20241103.1931)
 -->
<!-- Title: include/vehicle_control.h Pages: 1 -->
<svg width="419pt" height="138pt"
 viewBox="0.00 0.00 419.18 137.75" xmlns="http://www.w3.org/2000/svg" xmlns:xlink="http://www.w3.org/1999/xlink">
<g id="graph0" class="graph" transform="scale(1 1) rotate(0) translate(4 133.75)">
<title>include/vehicle_control.h</title>
<!-- Node1 -->
<g id="Node000001" class="node">
<title>Node1</title>
<g id="a_Node000001"><a xlink:title="Vehicle Control System for Electric Vehicle.">
<polygon fill="#999999" stroke="#666666" points="198.93,-129.75 75.68,-129.75 75.68,-110.5 198.93,-110.5 198.93,-129.75"/>
<text text-anchor="middle" x="137.31" y="-116.25" font-family="Helvetica,sans-Serif" font-size="10.00">include/vehicle_control.h</text>
</a>
</g>
</g>
<!-- Node2 -->
<g id="Node000002" class="node">
<title>Node2</title>
<g id="a_Node000002"><a xlink:title=" ">
<polygon fill="#e0e0e0" stroke="#999999" points="107.93,-19.25 50.68,-19.25 50.68,0 107.93,0 107.93,-19.25"/>
<text text-anchor="middle" x="79.31" y="-5.75" font-family="Helvetica,sans-Serif" font-size="10.00">Arduino.h</text>
</a>
</g>
</g>
<!-- Node1&#45;&gt;Node2 -->
<g id="edge1_Node000001_Node000002" class="edge">
<title>Node1&#45;&gt;Node2</title>
<g id="a_edge1_Node000001_Node000002"><a xlink:title=" ">
<path fill="none" stroke="#63b8ff" d="M75.25,-114.05C48.92,-108.45 20.59,-97.14 4.31,-74.5 -10.52,-53.88 17.1,-35.68 42.91,-24.04"/>
<polygon fill="#63b8ff" stroke="#63b8ff" points="44.13,-27.33 51.97,-20.2 41.4,-20.88 44.13,-27.33"/>
</a>
</g>
</g>
<!-- Node3 -->
<g id="Node000003" class="node">
<title>Node3</title>
<g id="a_Node000003"><a xlink:title=" ">
<polygon fill="#e0e0e0" stroke="#999999" points="56.81,-74.5 13.81,-74.5 13.81,-55.25 56.81,-55.25 56.81,-74.5"/>
<text text-anchor="middle" x="35.31" y="-61" font-family="Helvetica,sans-Serif" font-size="10.00">cmath</text>
</a>
</g>
</g>
<!-- Node1&#45;&gt;Node3 -->
<g id="edge2_Node000001_Node000003" class="edge">
<title>Node1&#45;&gt;Node3</title>
<g id="a_edge2_Node000001_Node000003"><a xlink:title=" ">
<path fill="none" stroke="#63b8ff" d="M120.01,-110.09C104.33,-101.91 80.96,-89.71 62.73,-80.19"/>
<polygon fill="#63b8ff" stroke="#63b8ff" points="64.52,-77.18 54.04,-75.65 61.28,-83.38 64.52,-77.18"/>
</a>
</g>
</g>
<!-- Node4 -->
<g id="Node000004" class="node">
<title>Node4</title>
<g id="a_Node000004"><a xlink:title=" ">
<polygon fill="#e0e0e0" stroke="#999999" points="130.18,-74.5 74.43,-74.5 74.43,-55.25 130.18,-55.25 130.18,-74.5"/>
<text text-anchor="middle" x="102.31" y="-61" font-family="Helvetica,sans-Serif" font-size="10.00">algorithm</text>
</a>
</g>
</g>
<!-- Node1&#45;&gt;Node4 -->
<g id="edge3_Node000001_Node000004" class="edge">
<title>Node1&#45;&gt;Node4</title>
<g id="a_edge3_Node000001_Node000004"><a xlink:title=" ">
<path fill="none" stroke="#63b8ff" d="M131.53,-110.33C126.9,-103.28 120.23,-93.15 114.44,-84.33"/>
<polygon fill="#63b8ff" stroke="#63b8ff" points="117.46,-82.56 109.05,-76.12 111.61,-86.4 117.46,-82.56"/>
</a>
</g>
</g>
<!-- Node5 -->
<g id="Node000005" class="node">
<title>Node5</title>
<g id="a_Node000005"><a xlink:href="config_8h.html" target="_top" xlink:title=" ">
<polygon fill="white" stroke="#666666" points="198.56,-74.5 148.06,-74.5 148.06,-55.25 198.56,-55.25 198.56,-74.5"/>
<text text-anchor="middle" x="173.31" y="-61" font-family="Helvetica,sans-Serif" font-size="10.00">config.h</text>
</a>
</g>
</g>
<!-- Node1&#45;&gt;Node5 -->
<g id="edge4_Node000001_Node000005" class="edge">
<title>Node1&#45;&gt;Node5</title>
<g id="a_edge4_Node000001_Node000005"><a xlink:title=" ">
<path fill="none" stroke="#63b8ff" d="M143.25,-110.33C148.02,-103.28 154.87,-93.15 160.83,-84.33"/>
<polygon fill="#63b8ff" stroke="#63b8ff" points="163.69,-86.36 166.39,-76.11 157.89,-82.44 163.69,-86.36"/>
</a>
</g>
</g>
<!-- Node6 -->
<g id="Node000006" class="node">
<title>Node6</title>
<g id="a_Node000006"><a xlink:href="vehicle__parameters_8h.html" target="_top" xlink:title="Vehicle Configuration Parameters and Operating Limits.">
<polygon fill="white" stroke="#666666" points="325.81,-74.5 216.81,-74.5 216.81,-55.25 325.81,-55.25 325.81,-74.5"/>
<text text-anchor="middle" x="271.31" y="-61" font-family="Helvetica,sans-Serif" font-size="10.00">vehicle_parameters.h</text>
</a>
</g>
</g>
<!-- Node1&#45;&gt;Node6 -->
<g id="edge6_Node000001_Node000006" class="edge">
<title>Node1&#45;&gt;Node6</title>
<g id="a_edge6_Node000001_Node000006"><a xlink:title=" ">
<path fill="none" stroke="#63b8ff" d="M160.04,-110.09C181.41,-101.6 213.65,-88.79 237.94,-79.14"/>
<polygon fill="#63b8ff" stroke="#63b8ff" points="239.06,-82.46 247.06,-75.51 236.47,-75.95 239.06,-82.46"/>
</a>
</g>
</g>
<!-- Node7 -->
<g id="Node000007" class="node">
<title>Node7</title>
<g id="a_Node000007"><a xlink:title=" ">
<polygon fill="#e0e0e0" stroke="#999999" points="411.18,-74.5 343.43,-74.5 343.43,-55.25 411.18,-55.25 411.18,-74.5"/>
<text text-anchor="middle" x="377.31" y="-61" font-family="Helvetica,sans-Serif" font-size="10.00">ADS1X15.h</text>
</a>
</g>
</g>
<!-- Node1&#45;&gt;Node7 -->
<g id="edge7_Node000001_Node000007" class="edge">
<title>Node1&#45;&gt;Node7</title>
<g id="a_edge7_Node000001_Node000007"><a xlink:title=" ">
<path fill="none" stroke="#63b8ff" d="M178.29,-110.03C221.03,-100.55 287.84,-85.73 332.09,-75.91"/>
<polygon fill="#63b8ff" stroke="#63b8ff" points="332.62,-79.38 341.62,-73.79 331.1,-72.54 332.62,-79.38"/>
</a>
</g>
</g>
<!-- Node5&#45;&gt;Node2 -->
<g id="edge5_Node000005_Node000002" class="edge">
<title>Node5&#45;&gt;Node2</title>
<g id="a_edge5_Node000005_Node000002"><a xlink:title=" ">
<path fill="none" stroke="#63b8ff" d="M157.36,-54.84C143.05,-46.73 121.78,-34.68 105.06,-25.21"/>
<polygon fill="#63b8ff" stroke="#63b8ff" points="107.08,-22.33 96.65,-20.45 103.63,-28.42 107.08,-22.33"/>
</a>
</g>
</g>
</g>
</svg>
