<?xml version="1.0" encoding="UTF-8" standalone="no"?>
<!DOCTYPE svg PUBLIC "-//W3C//DTD SVG 1.1//EN"
 "http://www.w3.org/Graphics/SVG/1.1/DTD/svg11.dtd">
<!-- Generated by graphviz version 12.2.0 (20241103.1931)
 -->
<!-- Title: include/vehicle_parameters.h Pages: 1 -->
<svg width="613pt" height="248pt"
 viewBox="0.00 0.00 612.75 248.25" xmlns="http://www.w3.org/2000/svg" xmlns:xlink="http://www.w3.org/1999/xlink">
<g id="graph0" class="graph" transform="scale(1 1) rotate(0) translate(4 244.25)">
<title>include/vehicle_parameters.h</title>
<!-- Node1 -->
<g id="Node000001" class="node">
<title>Node1</title>
<g id="a_Node000001"><a xlink:title="Vehicle Configuration Parameters and Operating Limits.">
<polygon fill="#999999" stroke="#666666" points="420.62,-240.25 277.88,-240.25 277.88,-221 420.62,-221 420.62,-240.25"/>
<text text-anchor="middle" x="349.25" y="-226.75" font-family="Helvetica,sans-Serif" font-size="10.00">include/vehicle_parameters.h</text>
</a>
</g>
</g>
<!-- Node2 -->
<g id="Node000002" class="node">
<title>Node2</title>
<g id="a_Node000002"><a xlink:href="can__manager_8h.html" target="_top" xlink:title="CAN Communication Manager for Vehicle Control System.">
<polygon fill="white" stroke="#666666" points="522.12,-129.75 406.38,-129.75 406.38,-110.5 522.12,-110.5 522.12,-129.75"/>
<text text-anchor="middle" x="464.25" y="-116.25" font-family="Helvetica,sans-Serif" font-size="10.00">include/can_manager.h</text>
</a>
</g>
</g>
<!-- Node1&#45;&gt;Node2 -->
<g id="edge1_Node000001_Node000002" class="edge">
<title>Node1&#45;&gt;Node2</title>
<g id="a_edge1_Node000001_Node000002"><a xlink:title=" ">
<path fill="none" stroke="#63b8ff" d="M377.37,-215.09C390.92,-207.27 406.87,-196.82 419.25,-185 436.91,-168.14 451.98,-143.41 459.38,-130.21"/>
<polygon fill="#63b8ff" stroke="#63b8ff" points="375.94,-211.88 368.9,-219.79 379.34,-218 375.94,-211.88"/>
</a>
</g>
</g>
<!-- Node9 -->
<g id="Node000009" class="node">
<title>Node9</title>
<g id="a_Node000009"><a xlink:href="state__manager_8h.html" target="_top" xlink:title="Vehicle State Management System.">
<polygon fill="white" stroke="#666666" points="410.12,-185 288.38,-185 288.38,-165.75 410.12,-165.75 410.12,-185"/>
<text text-anchor="middle" x="349.25" y="-171.5" font-family="Helvetica,sans-Serif" font-size="10.00">include/state_manager.h</text>
</a>
</g>
</g>
<!-- Node1&#45;&gt;Node9 -->
<g id="edge10_Node000001_Node000009" class="edge">
<title>Node1&#45;&gt;Node9</title>
<g id="a_edge10_Node000001_Node000009"><a xlink:title=" ">
<path fill="none" stroke="#63b8ff" d="M349.25,-209.38C349.25,-201.09 349.25,-191.92 349.25,-185.36"/>
<polygon fill="#63b8ff" stroke="#63b8ff" points="345.75,-209.32 349.25,-219.32 352.75,-209.32 345.75,-209.32"/>
</a>
</g>
</g>
<!-- Node11 -->
<g id="Node000011" class="node">
<title>Node11</title>
<g id="a_Node000011"><a xlink:href="vehicle__control_8h.html" target="_top" xlink:title="Vehicle Control System for Electric Vehicle.">
<polygon fill="white" stroke="#666666" points="139.88,-129.75 16.62,-129.75 16.62,-110.5 139.88,-110.5 139.88,-129.75"/>
<text text-anchor="middle" x="78.25" y="-116.25" font-family="Helvetica,sans-Serif" font-size="10.00">include/vehicle_control.h</text>
</a>
</g>
</g>
<!-- Node1&#45;&gt;Node11 -->
<g id="edge17_Node000001_Node000011" class="edge">
<title>Node1&#45;&gt;Node11</title>
<g id="a_edge17_Node000001_Node000011"><a xlink:title=" ">
<path fill="none" stroke="#63b8ff" d="M316.23,-216.41C260.45,-194.07 148.95,-149.43 101.02,-130.24"/>
<polygon fill="#63b8ff" stroke="#63b8ff" points="314.62,-219.53 325.21,-220 317.22,-213.03 314.62,-219.53"/>
</a>
</g>
</g>
<!-- Node3 -->
<g id="Node000003" class="node">
<title>Node3</title>
<g id="a_Node000003"><a xlink:href="_serial_console_8h.html" target="_top" xlink:title="Debug Console Interface for Vehicle Control System.">
<polygon fill="white" stroke="#666666" points="439.62,-74.5 320.88,-74.5 320.88,-55.25 439.62,-55.25 439.62,-74.5"/>
<text text-anchor="middle" x="380.25" y="-61" font-family="Helvetica,sans-Serif" font-size="10.00">include/SerialConsole.h</text>
</a>
</g>
</g>
<!-- Node2&#45;&gt;Node3 -->
<g id="edge2_Node000002_Node000003" class="edge">
<title>Node2&#45;&gt;Node3</title>
<g id="a_edge2_Node000002_Node000003"><a xlink:title=" ">
<path fill="none" stroke="#63b8ff" d="M440.48,-104.05C425.68,-94.67 407.14,-82.92 394.57,-74.95"/>
<polygon fill="#63b8ff" stroke="#63b8ff" points="438.4,-106.88 448.72,-109.28 442.15,-100.97 438.4,-106.88"/>
</a>
</g>
</g>
<!-- Node5 -->
<g id="Node000005" class="node">
<title>Node5</title>
<g id="a_Node000005"><a xlink:href="main_8cpp.html" target="_top" xlink:title="Main Vehicle Control Unit (VCU) Program.">
<polygon fill="white" stroke="#666666" points="329.38,-19.25 257.12,-19.25 257.12,0 329.38,0 329.38,-19.25"/>
<text text-anchor="middle" x="293.25" y="-5.75" font-family="Helvetica,sans-Serif" font-size="10.00">src/main.cpp</text>
</a>
</g>
</g>
<!-- Node2&#45;&gt;Node5 -->
<g id="edge9_Node000002_Node000005" class="edge">
<title>Node2&#45;&gt;Node5</title>
<g id="a_edge9_Node000002_Node000005"><a xlink:title=" ">
<path fill="none" stroke="#63b8ff" d="M464.24,-99.02C463.16,-85.01 459.44,-66.83 448.25,-55.25 439.89,-46.59 372.79,-29.42 329.66,-19.09"/>
<polygon fill="#63b8ff" stroke="#63b8ff" points="460.74,-99.01 464.58,-108.89 467.73,-98.77 460.74,-99.01"/>
</a>
</g>
</g>
<!-- Node6 -->
<g id="Node000006" class="node">
<title>Node6</title>
<g id="a_Node000006"><a xlink:href="setup_8h.html" target="_top" xlink:title="System Initialization and Safety Configuration.">
<polygon fill="white" stroke="#666666" points="254.25,-74.5 172.25,-74.5 172.25,-55.25 254.25,-55.25 254.25,-74.5"/>
<text text-anchor="middle" x="213.25" y="-61" font-family="Helvetica,sans-Serif" font-size="10.00">include/setup.h</text>
</a>
</g>
</g>
<!-- Node2&#45;&gt;Node6 -->
<g id="edge5_Node000002_Node000006" class="edge">
<title>Node2&#45;&gt;Node6</title>
<g id="a_edge5_Node000002_Node000006"><a xlink:title=" ">
<path fill="none" stroke="#63b8ff" d="M410.28,-107.68C363.65,-97.78 297.23,-83.69 254.68,-74.67"/>
<polygon fill="#63b8ff" stroke="#63b8ff" points="409.4,-111.07 419.91,-109.72 410.85,-104.22 409.4,-111.07"/>
</a>
</g>
</g>
<!-- Node8 -->
<g id="Node000008" class="node">
<title>Node8</title>
<g id="a_Node000008"><a xlink:href="can__manager_8cpp.html" target="_top" xlink:title="Implementation of CAN communication management system.">
<polygon fill="white" stroke="#666666" points="604.75,-74.5 495.75,-74.5 495.75,-55.25 604.75,-55.25 604.75,-74.5"/>
<text text-anchor="middle" x="550.25" y="-61" font-family="Helvetica,sans-Serif" font-size="10.00">src/can_manager.cpp</text>
</a>
</g>
</g>
<!-- Node2&#45;&gt;Node8 -->
<g id="edge8_Node000002_Node000008" class="edge">
<title>Node2&#45;&gt;Node8</title>
<g id="a_edge8_Node000002_Node000008"><a xlink:title=" ">
<path fill="none" stroke="#63b8ff" d="M488.59,-104.05C503.74,-94.67 522.72,-82.92 535.59,-74.95"/>
<polygon fill="#63b8ff" stroke="#63b8ff" points="486.79,-101.05 480.13,-109.3 490.47,-107.01 486.79,-101.05"/>
</a>
</g>
</g>
<!-- Node4 -->
<g id="Node000004" class="node">
<title>Node4</title>
<g id="a_Node000004"><a xlink:href="_serial_console_8cpp.html" target="_top" xlink:title="Implementation of debug console interface for vehicle control system.">
<polygon fill="white" stroke="#666666" points="459.25,-19.25 347.25,-19.25 347.25,0 459.25,0 459.25,-19.25"/>
<text text-anchor="middle" x="403.25" y="-5.75" font-family="Helvetica,sans-Serif" font-size="10.00">src/SerialConsole.cpp</text>
</a>
</g>
</g>
<!-- Node3&#45;&gt;Node4 -->
<g id="edge3_Node000003_Node000004" class="edge">
<title>Node3&#45;&gt;Node4</title>
<g id="a_edge3_Node000003_Node000004"><a xlink:title=" ">
<path fill="none" stroke="#63b8ff" d="M388.49,-44.79C392.2,-36.21 396.4,-26.48 399.37,-19.61"/>
<polygon fill="#63b8ff" stroke="#63b8ff" points="385.4,-43.12 384.65,-53.69 391.83,-45.9 385.4,-43.12"/>
</a>
</g>
</g>
<!-- Node3&#45;&gt;Node5 -->
<g id="edge4_Node000003_Node000005" class="edge">
<title>Node3&#45;&gt;Node5</title>
<g id="a_edge4_Node000003_Node000005"><a xlink:title=" ">
<path fill="none" stroke="#63b8ff" d="M356.07,-49.07C340.67,-39.65 321.23,-27.75 308.08,-19.7"/>
<polygon fill="#63b8ff" stroke="#63b8ff" points="353.84,-51.82 364.2,-54.05 357.5,-45.85 353.84,-51.82"/>
</a>
</g>
</g>
<!-- Node6&#45;&gt;Node5 -->
<g id="edge6_Node000006_Node000005" class="edge">
<title>Node6&#45;&gt;Node5</title>
<g id="a_edge6_Node000006_Node000005"><a xlink:title=" ">
<path fill="none" stroke="#63b8ff" d="M236.3,-48.53C250.32,-39.2 267.75,-27.6 279.61,-19.7"/>
<polygon fill="#63b8ff" stroke="#63b8ff" points="234.47,-45.55 228.08,-54 238.34,-51.38 234.47,-45.55"/>
</a>
</g>
</g>
<!-- Node7 -->
<g id="Node000007" class="node">
<title>Node7</title>
<g id="a_Node000007"><a xlink:href="setup_8cpp.html" target="_top" xlink:title="System initialization and hardware setup implementation.">
<polygon fill="white" stroke="#666666" points="238.88,-19.25 163.62,-19.25 163.62,0 238.88,0 238.88,-19.25"/>
<text text-anchor="middle" x="201.25" y="-5.75" font-family="Helvetica,sans-Serif" font-size="10.00">src/setup.cpp</text>
</a>
</g>
</g>
<!-- Node6&#45;&gt;Node7 -->
<g id="edge7_Node000006_Node000007" class="edge">
<title>Node6&#45;&gt;Node7</title>
<g id="a_edge7_Node000006_Node000007"><a xlink:title=" ">
<path fill="none" stroke="#63b8ff" d="M208.75,-43.92C206.87,-35.55 204.77,-26.25 203.27,-19.61"/>
<polygon fill="#63b8ff" stroke="#63b8ff" points="205.32,-44.62 210.94,-53.61 212.15,-43.08 205.32,-44.62"/>
</a>
</g>
</g>
<!-- Node9&#45;&gt;Node2 -->
<g id="edge12_Node000009_Node000002" class="edge">
<title>Node9&#45;&gt;Node2</title>
<g id="a_edge12_Node000009_Node000002"><a xlink:title=" ">
<path fill="none" stroke="#63b8ff" d="M379.2,-160.51C399.84,-150.95 426.69,-138.52 444.65,-130.2"/>
<polygon fill="#63b8ff" stroke="#63b8ff" points="377.74,-157.33 370.13,-164.71 380.68,-163.68 377.74,-157.33"/>
</a>
</g>
</g>
<!-- Node9&#45;&gt;Node3 -->
<g id="edge11_Node000009_Node000003" class="edge">
<title>Node9&#45;&gt;Node3</title>
<g id="a_edge11_Node000009_Node000003"><a xlink:title=" ">
<path fill="none" stroke="#63b8ff" d="M354.88,-154.68C361.64,-131.01 372.7,-92.3 377.68,-74.88"/>
<polygon fill="#63b8ff" stroke="#63b8ff" points="351.58,-153.46 352.2,-164.04 358.32,-155.39 351.58,-153.46"/>
</a>
</g>
</g>
<!-- Node9&#45;&gt;Node5 -->
<g id="edge15_Node000009_Node000005" class="edge">
<title>Node9&#45;&gt;Node5</title>
<g id="a_edge15_Node000009_Node000005"><a xlink:title=" ">
<path fill="none" stroke="#63b8ff" d="M341.58,-154.83C333.81,-134.8 321.65,-102.67 312.25,-74.5 305.73,-54.96 299.09,-31.71 295.65,-19.36"/>
<polygon fill="#63b8ff" stroke="#63b8ff" points="338.24,-155.9 345.13,-163.95 344.76,-153.36 338.24,-155.9"/>
</a>
</g>
</g>
<!-- Node9&#45;&gt;Node6 -->
<g id="edge13_Node000009_Node000006" class="edge">
<title>Node9&#45;&gt;Node6</title>
<g id="a_edge13_Node000009_Node000006"><a xlink:title=" ">
<path fill="none" stroke="#63b8ff" d="M277.47,-163.2C239.95,-155.74 199.52,-144.56 188.25,-129.75 175.27,-112.69 192.91,-88.04 204.52,-74.91"/>
<polygon fill="#63b8ff" stroke="#63b8ff" points="276.5,-166.58 286.98,-165.02 277.81,-159.7 276.5,-166.58"/>
</a>
</g>
</g>
<!-- Node9&#45;&gt;Node8 -->
<g id="edge14_Node000009_Node000008" class="edge">
<title>Node9&#45;&gt;Node8</title>
<g id="a_edge14_Node000009_Node000008"><a xlink:title=" ">
<path fill="none" stroke="#63b8ff" d="M421.47,-164.16C465.1,-156.6 515.27,-144.97 531.25,-129.75 546.66,-115.07 549.74,-88.49 550.24,-74.71"/>
<polygon fill="#63b8ff" stroke="#63b8ff" points="421.03,-160.68 411.75,-165.79 422.19,-167.59 421.03,-160.68"/>
</a>
</g>
</g>
<!-- Node10 -->
<g id="Node000010" class="node">
<title>Node10</title>
<g id="a_Node000010"><a xlink:href="state__manager_8cpp.html" target="_top" xlink:title="Implementation of the vehicle state management system.">
<polygon fill="white" stroke="#666666" points="311.75,-129.75 196.75,-129.75 196.75,-110.5 311.75,-110.5 311.75,-129.75"/>
<text text-anchor="middle" x="254.25" y="-116.25" font-family="Helvetica,sans-Serif" font-size="10.00">src/state_manager.cpp</text>
</a>
</g>
</g>
<!-- Node9&#45;&gt;Node10 -->
<g id="edge16_Node000009_Node000010" class="edge">
<title>Node9&#45;&gt;Node10</title>
<g id="a_edge16_Node000009_Node000010"><a xlink:title=" ">
<path fill="none" stroke="#63b8ff" d="M323.32,-159.84C306.44,-150.38 284.94,-138.33 270.44,-130.2"/>
<polygon fill="#63b8ff" stroke="#63b8ff" points="321.38,-162.77 331.81,-164.6 324.8,-156.66 321.38,-162.77"/>
</a>
</g>
</g>
<!-- Node11&#45;&gt;Node3 -->
<g id="edge18_Node000011_Node000003" class="edge">
<title>Node11&#45;&gt;Node3</title>
<g id="a_edge18_Node000011_Node000003"><a xlink:title=" ">
<path fill="none" stroke="#63b8ff" d="M140.94,-108.07C196.51,-98.27 276.69,-84.13 328.64,-74.98"/>
<polygon fill="#63b8ff" stroke="#63b8ff" points="140.55,-104.59 131.31,-109.77 141.77,-111.48 140.55,-104.59"/>
</a>
</g>
</g>
<!-- Node11&#45;&gt;Node5 -->
<g id="edge20_Node000011_Node000005" class="edge">
<title>Node11&#45;&gt;Node5</title>
<g id="a_edge20_Node000011_Node000005"><a xlink:title=" ">
<path fill="none" stroke="#63b8ff" d="M96.62,-102.61C113.1,-88.49 138.44,-68.41 163.25,-55.25 193.4,-39.26 230.43,-27.21 257.24,-19.69"/>
<polygon fill="#63b8ff" stroke="#63b8ff" points="94.37,-99.93 89.15,-109.15 98.98,-105.2 94.37,-99.93"/>
</a>
</g>
</g>
<!-- Node11&#45;&gt;Node6 -->
<g id="edge19_Node000011_Node000006" class="edge">
<title>Node11&#45;&gt;Node6</title>
<g id="a_edge19_Node000011_Node000006"><a xlink:title=" ">
<path fill="none" stroke="#63b8ff" d="M111.74,-105.91C136.18,-96.27 168.67,-83.46 190.24,-74.95"/>
<polygon fill="#63b8ff" stroke="#63b8ff" points="110.58,-102.61 102.56,-109.54 113.15,-109.12 110.58,-102.61"/>
</a>
</g>
</g>
<!-- Node12 -->
<g id="Node000012" class="node">
<title>Node12</title>
<g id="a_Node000012"><a xlink:href="vehicle__control_8cpp.html" target="_top" xlink:title="Implementation of vehicle driving dynamics and motor control system.">
<polygon fill="white" stroke="#666666" points="116.5,-74.5 0,-74.5 0,-55.25 116.5,-55.25 116.5,-74.5"/>
<text text-anchor="middle" x="58.25" y="-61" font-family="Helvetica,sans-Serif" font-size="10.00">src/vehicle_control.cpp</text>
</a>
</g>
</g>
<!-- Node11&#45;&gt;Node12 -->
<g id="edge21_Node000011_Node000012" class="edge">
<title>Node11&#45;&gt;Node12</title>
<g id="a_edge21_Node000011_Node000012"><a xlink:title=" ">
<path fill="none" stroke="#63b8ff" d="M70.97,-99.75C67.78,-91.24 64.18,-81.65 61.62,-74.86"/>
<polygon fill="#63b8ff" stroke="#63b8ff" points="67.62,-100.78 74.42,-108.91 74.18,-98.32 67.62,-100.78"/>
</a>
</g>
</g>
</g>
</svg>
