<?xml version="1.0" encoding="UTF-8" standalone="no"?>
<!DOCTYPE svg PUBLIC "-//W3C//DTD SVG 1.1//EN"
 "http://www.w3.org/Graphics/SVG/1.1/DTD/svg11.dtd">
<!-- Generated by graphviz version 12.2.0 (20241103.1931)
 -->
<!-- Title: include/vehicle_parameters.h Pages: 1 -->
<svg width="719pt" height="248pt"
 viewBox="0.00 0.00 719.24 248.25" xmlns="http://www.w3.org/2000/svg" xmlns:xlink="http://www.w3.org/1999/xlink">
<g id="graph0" class="graph" transform="scale(1 1) rotate(0) translate(4 244.25)">
<title>include/vehicle_parameters.h</title>
<!-- Node1 -->
<g id="Node000001" class="node">
<title>Node1</title>
<g id="a_Node000001"><a xlink:title="Vehicle Configuration Parameters and Operating Limits.">
<polygon fill="#999999" stroke="#666666" points="441.62,-240.25 298.88,-240.25 298.88,-221 441.62,-221 441.62,-240.25"/>
<text text-anchor="middle" x="370.25" y="-226.75" font-family="Helvetica,sans-Serif" font-size="10.00">include/vehicle_parameters.h</text>
</a>
</g>
</g>
<!-- Node2 -->
<g id="Node000002" class="node">
<title>Node2</title>
<g id="a_Node000002"><a xlink:href="can__manager_8h.html" target="_top" xlink:title="CAN Communication Manager for Vehicle Control System.">
<polygon fill="white" stroke="#666666" points="429.12,-129.75 313.38,-129.75 313.38,-110.5 429.12,-110.5 429.12,-129.75"/>
<text text-anchor="middle" x="371.25" y="-116.25" font-family="Helvetica,sans-Serif" font-size="10.00">include/can_manager.h</text>
</a>
</g>
</g>
<!-- Node1&#45;&gt;Node2 -->
<g id="edge1_Node000001_Node000002" class="edge">
<title>Node1&#45;&gt;Node2</title>
<g id="a_edge1_Node000001_Node000002"><a xlink:title=" ">
<path fill="none" stroke="#63b8ff" d="M370.44,-209.28C370.66,-185.55 371.01,-147.39 371.17,-130.13"/>
<polygon fill="#63b8ff" stroke="#63b8ff" points="366.94,-209.2 370.35,-219.23 373.94,-209.27 366.94,-209.2"/>
</a>
</g>
</g>
<!-- Node10 -->
<g id="Node000010" class="node">
<title>Node10</title>
<g id="a_Node000010"><a xlink:href="state__manager_8h.html" target="_top" xlink:title="Vehicle State Management System.">
<polygon fill="white" stroke="#666666" points="520.12,-185 398.38,-185 398.38,-165.75 520.12,-165.75 520.12,-185"/>
<text text-anchor="middle" x="459.25" y="-171.5" font-family="Helvetica,sans-Serif" font-size="10.00">include/state_manager.h</text>
</a>
</g>
</g>
<!-- Node1&#45;&gt;Node10 -->
<g id="edge11_Node000001_Node000010" class="edge">
<title>Node1&#45;&gt;Node10</title>
<g id="a_edge11_Node000001_Node000010"><a xlink:title=" ">
<path fill="none" stroke="#63b8ff" d="M394.99,-214.82C410.74,-205.4 430.63,-193.5 444.08,-185.45"/>
<polygon fill="#63b8ff" stroke="#63b8ff" points="393.43,-211.68 386.65,-219.81 397.02,-217.68 393.43,-211.68"/>
</a>
</g>
</g>
<!-- Node11 -->
<g id="Node000011" class="node">
<title>Node11</title>
<g id="a_Node000011"><a xlink:href="vehicle__control_8h.html" target="_top" xlink:title="Vehicle Control System for Electric Vehicle.">
<polygon fill="white" stroke="#666666" points="256.88,-129.75 133.62,-129.75 133.62,-110.5 256.88,-110.5 256.88,-129.75"/>
<text text-anchor="middle" x="195.25" y="-116.25" font-family="Helvetica,sans-Serif" font-size="10.00">include/vehicle_control.h</text>
</a>
</g>
</g>
<!-- Node1&#45;&gt;Node11 -->
<g id="edge18_Node000001_Node000011" class="edge">
<title>Node1&#45;&gt;Node11</title>
<g id="a_edge18_Node000001_Node000011"><a xlink:title=" ">
<path fill="none" stroke="#63b8ff" d="M346.13,-214.67C309.2,-191.77 239.75,-148.71 209.7,-130.09"/>
<polygon fill="#63b8ff" stroke="#63b8ff" points="344,-217.47 354.34,-219.76 347.69,-211.52 344,-217.47"/>
</a>
</g>
</g>
<!-- Node3 -->
<g id="Node000003" class="node">
<title>Node3</title>
<g id="a_Node000003"><a xlink:href="_serial_console_8h.html" target="_top" xlink:title="Debug Console Interface for Vehicle Control System.">
<polygon fill="white" stroke="#666666" points="428.62,-74.5 309.88,-74.5 309.88,-55.25 428.62,-55.25 428.62,-74.5"/>
<text text-anchor="middle" x="369.25" y="-61" font-family="Helvetica,sans-Serif" font-size="10.00">include/SerialConsole.h</text>
</a>
</g>
</g>
<!-- Node2&#45;&gt;Node3 -->
<g id="edge2_Node000002_Node000003" class="edge">
<title>Node2&#45;&gt;Node3</title>
<g id="a_edge2_Node000002_Node000003"><a xlink:title=" ">
<path fill="none" stroke="#63b8ff" d="M370.49,-98.88C370.18,-90.59 369.83,-81.42 369.59,-74.86"/>
<polygon fill="#63b8ff" stroke="#63b8ff" points="366.99,-98.96 370.86,-108.82 373.99,-98.7 366.99,-98.96"/>
</a>
</g>
</g>
<!-- Node5 -->
<g id="Node000005" class="node">
<title>Node5</title>
<g id="a_Node000005"><a xlink:href="main_8cpp.html" target="_top" xlink:title="Main Vehicle Control Unit (VCU) Program.">
<polygon fill="white" stroke="#666666" points="318.38,-19.25 246.12,-19.25 246.12,0 318.38,0 318.38,-19.25"/>
<text text-anchor="middle" x="282.25" y="-5.75" font-family="Helvetica,sans-Serif" font-size="10.00">src/main.cpp</text>
</a>
</g>
</g>
<!-- Node2&#45;&gt;Node5 -->
<g id="edge9_Node000002_Node000005" class="edge">
<title>Node2&#45;&gt;Node5</title>
<g id="a_edge9_Node000002_Node000005"><a xlink:title=" ">
<path fill="none" stroke="#63b8ff" d="M339.08,-104.95C325.68,-97.6 311,-87.43 301.25,-74.5 288.57,-57.69 284.32,-32.5 282.92,-19.34"/>
<polygon fill="#63b8ff" stroke="#63b8ff" points="337.13,-107.89 347.62,-109.33 340.32,-101.66 337.13,-107.89"/>
</a>
</g>
</g>
<!-- Node6 -->
<g id="Node000006" class="node">
<title>Node6</title>
<g id="a_Node000006"><a xlink:href="setup_8h.html" target="_top" xlink:title="System Initialization and Safety Configuration.">
<polygon fill="white" stroke="#666666" points="254.25,-74.5 172.25,-74.5 172.25,-55.25 254.25,-55.25 254.25,-74.5"/>
<text text-anchor="middle" x="213.25" y="-61" font-family="Helvetica,sans-Serif" font-size="10.00">include/setup.h</text>
</a>
</g>
</g>
<!-- Node2&#45;&gt;Node6 -->
<g id="edge5_Node000002_Node000006" class="edge">
<title>Node2&#45;&gt;Node6</title>
<g id="a_edge5_Node000002_Node000006"><a xlink:title=" ">
<path fill="none" stroke="#63b8ff" d="M333.59,-106.43C304.82,-96.74 265.88,-83.61 240.18,-74.95"/>
<polygon fill="#63b8ff" stroke="#63b8ff" points="332.42,-109.73 343.01,-109.61 334.65,-103.1 332.42,-109.73"/>
</a>
</g>
</g>
<!-- Node8 -->
<g id="Node000008" class="node">
<title>Node8</title>
<g id="a_Node000008"><a xlink:href="can__manager_8cpp.html" target="_top" xlink:title="Implementation of CAN communication management system.">
<polygon fill="white" stroke="#666666" points="555.75,-74.5 446.75,-74.5 446.75,-55.25 555.75,-55.25 555.75,-74.5"/>
<text text-anchor="middle" x="501.25" y="-61" font-family="Helvetica,sans-Serif" font-size="10.00">src/can_manager.cpp</text>
</a>
</g>
</g>
<!-- Node2&#45;&gt;Node8 -->
<g id="edge8_Node000002_Node000008" class="edge">
<title>Node2&#45;&gt;Node8</title>
<g id="a_edge8_Node000002_Node000008"><a xlink:title=" ">
<path fill="none" stroke="#63b8ff" d="M403.82,-105.78C427.32,-96.16 458.42,-83.42 479.09,-74.95"/>
<polygon fill="#63b8ff" stroke="#63b8ff" points="402.63,-102.49 394.7,-109.52 405.28,-108.97 402.63,-102.49"/>
</a>
</g>
</g>
<!-- Node9 -->
<g id="Node000009" class="node">
<title>Node9</title>
<g id="a_Node000009"><a xlink:href="state__manager_8cpp.html" target="_top" xlink:title="Implementation of the vehicle state management system.">
<polygon fill="white" stroke="#666666" points="688.75,-74.5 573.75,-74.5 573.75,-55.25 688.75,-55.25 688.75,-74.5"/>
<text text-anchor="middle" x="631.25" y="-61" font-family="Helvetica,sans-Serif" font-size="10.00">src/state_manager.cpp</text>
</a>
</g>
</g>
<!-- Node2&#45;&gt;Node9 -->
<g id="edge10_Node000002_Node000009" class="edge">
<title>Node2&#45;&gt;Node9</title>
<g id="a_edge10_Node000002_Node000009"><a xlink:title=" ">
<path fill="none" stroke="#63b8ff" d="M426.74,-107.76C474.6,-97.96 542.79,-83.99 587.03,-74.93"/>
<polygon fill="#63b8ff" stroke="#63b8ff" points="426.23,-104.29 417.13,-109.73 427.63,-111.15 426.23,-104.29"/>
</a>
</g>
</g>
<!-- Node4 -->
<g id="Node000004" class="node">
<title>Node4</title>
<g id="a_Node000004"><a xlink:href="_serial_console_8cpp.html" target="_top" xlink:title="Implementation of debug console interface for vehicle control system.">
<polygon fill="white" stroke="#666666" points="448.25,-19.25 336.25,-19.25 336.25,0 448.25,0 448.25,-19.25"/>
<text text-anchor="middle" x="392.25" y="-5.75" font-family="Helvetica,sans-Serif" font-size="10.00">src/SerialConsole.cpp</text>
</a>
</g>
</g>
<!-- Node3&#45;&gt;Node4 -->
<g id="edge3_Node000003_Node000004" class="edge">
<title>Node3&#45;&gt;Node4</title>
<g id="a_edge3_Node000003_Node000004"><a xlink:title=" ">
<path fill="none" stroke="#63b8ff" d="M377.49,-44.79C381.2,-36.21 385.4,-26.48 388.37,-19.61"/>
<polygon fill="#63b8ff" stroke="#63b8ff" points="374.4,-43.12 373.65,-53.69 380.83,-45.9 374.4,-43.12"/>
</a>
</g>
</g>
<!-- Node3&#45;&gt;Node5 -->
<g id="edge4_Node000003_Node000005" class="edge">
<title>Node3&#45;&gt;Node5</title>
<g id="a_edge4_Node000003_Node000005"><a xlink:title=" ">
<path fill="none" stroke="#63b8ff" d="M345.07,-49.07C329.67,-39.65 310.23,-27.75 297.08,-19.7"/>
<polygon fill="#63b8ff" stroke="#63b8ff" points="342.84,-51.82 353.2,-54.05 346.5,-45.85 342.84,-51.82"/>
</a>
</g>
</g>
<!-- Node6&#45;&gt;Node5 -->
<g id="edge6_Node000006_Node000005" class="edge">
<title>Node6&#45;&gt;Node5</title>
<g id="a_edge6_Node000006_Node000005"><a xlink:title=" ">
<path fill="none" stroke="#63b8ff" d="M233.9,-47.94C245.95,-38.64 260.7,-27.26 270.72,-19.52"/>
<polygon fill="#63b8ff" stroke="#63b8ff" points="231.93,-45.04 226.15,-53.92 236.21,-50.58 231.93,-45.04"/>
</a>
</g>
</g>
<!-- Node7 -->
<g id="Node000007" class="node">
<title>Node7</title>
<g id="a_Node000007"><a xlink:href="setup_8cpp.html" target="_top" xlink:title="System initialization and hardware setup implementation.">
<polygon fill="white" stroke="#666666" points="227.88,-19.25 152.62,-19.25 152.62,0 227.88,0 227.88,-19.25"/>
<text text-anchor="middle" x="190.25" y="-5.75" font-family="Helvetica,sans-Serif" font-size="10.00">src/setup.cpp</text>
</a>
</g>
</g>
<!-- Node6&#45;&gt;Node7 -->
<g id="edge7_Node000006_Node000007" class="edge">
<title>Node6&#45;&gt;Node7</title>
<g id="a_edge7_Node000006_Node000007"><a xlink:title=" ">
<path fill="none" stroke="#63b8ff" d="M205.01,-44.79C201.3,-36.21 197.1,-26.48 194.13,-19.61"/>
<polygon fill="#63b8ff" stroke="#63b8ff" points="201.67,-45.9 208.85,-53.69 208.1,-43.12 201.67,-45.9"/>
</a>
</g>
</g>
<!-- Node10&#45;&gt;Node2 -->
<g id="edge13_Node000010_Node000002" class="edge">
<title>Node10&#45;&gt;Node2</title>
<g id="a_edge13_Node000010_Node000002"><a xlink:title=" ">
<path fill="none" stroke="#63b8ff" d="M434.79,-159.57C419.22,-150.15 399.55,-138.25 386.25,-130.2"/>
<polygon fill="#63b8ff" stroke="#63b8ff" points="432.66,-162.38 443.03,-164.56 436.28,-156.39 432.66,-162.38"/>
</a>
</g>
</g>
<!-- Node10&#45;&gt;Node3 -->
<g id="edge12_Node000010_Node000003" class="edge">
<title>Node10&#45;&gt;Node3</title>
<g id="a_edge12_Node000010_Node000003"><a xlink:title=" ">
<path fill="none" stroke="#63b8ff" d="M456.33,-154.69C453.53,-141.16 448.19,-123.38 438.25,-110.5 425.87,-94.46 406,-82.49 390.75,-75"/>
<polygon fill="#63b8ff" stroke="#63b8ff" points="452.82,-154.93 457.99,-164.17 459.71,-153.72 452.82,-154.93"/>
</a>
</g>
</g>
<!-- Node10&#45;&gt;Node5 -->
<g id="edge16_Node000010_Node000005" class="edge">
<title>Node10&#45;&gt;Node5</title>
<g id="a_edge16_Node000010_Node000005"><a xlink:title=" ">
<path fill="none" stroke="#63b8ff" d="M531.52,-164.32C620.33,-149.12 752.93,-115.5 698.25,-55.25 670.41,-24.58 368.24,-25.15 327.25,-19.25 324.42,-18.84 321.49,-18.38 318.55,-17.88"/>
<polygon fill="#63b8ff" stroke="#63b8ff" points="531.16,-160.83 521.87,-165.92 532.31,-167.73 531.16,-160.83"/>
</a>
</g>
</g>
<!-- Node10&#45;&gt;Node6 -->
<g id="edge14_Node000010_Node000006" class="edge">
<title>Node10&#45;&gt;Node6</title>
<g id="a_edge14_Node000010_Node000006"><a xlink:title=" ">
<path fill="none" stroke="#63b8ff" d="M401.91,-162.68C371.94,-155.38 335.16,-144.54 304.25,-129.75 272.39,-114.51 239.58,-88.42 223.46,-74.78"/>
<polygon fill="#63b8ff" stroke="#63b8ff" points="401.02,-166.07 411.56,-164.95 402.63,-159.25 401.02,-166.07"/>
</a>
</g>
</g>
<!-- Node10&#45;&gt;Node8 -->
<g id="edge15_Node000010_Node000008" class="edge">
<title>Node10&#45;&gt;Node8</title>
<g id="a_edge15_Node000010_Node000008"><a xlink:title=" ">
<path fill="none" stroke="#63b8ff" d="M466.75,-155.01C475.9,-131.37 490.99,-92.38 497.77,-74.88"/>
<polygon fill="#63b8ff" stroke="#63b8ff" points="463.58,-153.5 463.23,-164.08 470.11,-156.02 463.58,-153.5"/>
</a>
</g>
</g>
<!-- Node10&#45;&gt;Node9 -->
<g id="edge17_Node000010_Node000009" class="edge">
<title>Node10&#45;&gt;Node9</title>
<g id="a_edge17_Node000010_Node000009"><a xlink:title=" ">
<path fill="none" stroke="#63b8ff" d="M482.95,-159.42C519.25,-136.52 587.52,-93.46 617.04,-74.84"/>
<polygon fill="#63b8ff" stroke="#63b8ff" points="481.49,-156.21 474.9,-164.5 485.22,-162.13 481.49,-156.21"/>
</a>
</g>
</g>
<!-- Node11&#45;&gt;Node3 -->
<g id="edge19_Node000011_Node000003" class="edge">
<title>Node11&#45;&gt;Node3</title>
<g id="a_edge19_Node000011_Node000003"><a xlink:title=" ">
<path fill="none" stroke="#63b8ff" d="M235.47,-106.82C267.26,-97.09 310.92,-83.73 339.59,-74.95"/>
<polygon fill="#63b8ff" stroke="#63b8ff" points="234.75,-103.38 226.21,-109.65 236.8,-110.07 234.75,-103.38"/>
</a>
</g>
</g>
<!-- Node11&#45;&gt;Node5 -->
<g id="edge21_Node000011_Node000005" class="edge">
<title>Node11&#45;&gt;Node5</title>
<g id="a_edge21_Node000011_Node000005"><a xlink:title=" ">
<path fill="none" stroke="#63b8ff" d="M176.89,-102.13C164.8,-88.82 152.93,-70.14 163.25,-55.25 172.99,-41.2 214.56,-27.8 245.85,-19.42"/>
<polygon fill="#63b8ff" stroke="#63b8ff" points="174.07,-104.25 183.58,-108.92 179.06,-99.34 174.07,-104.25"/>
</a>
</g>
</g>
<!-- Node11&#45;&gt;Node6 -->
<g id="edge20_Node000011_Node000006" class="edge">
<title>Node11&#45;&gt;Node6</title>
<g id="a_edge20_Node000011_Node000006"><a xlink:title=" ">
<path fill="none" stroke="#63b8ff" d="M201.9,-99.46C204.75,-91.02 207.94,-81.58 210.21,-74.86"/>
<polygon fill="#63b8ff" stroke="#63b8ff" points="198.59,-98.3 198.71,-108.9 205.23,-100.55 198.59,-98.3"/>
</a>
</g>
</g>
<!-- Node12 -->
<g id="Node000012" class="node">
<title>Node12</title>
<g id="a_Node000012"><a xlink:href="vehicle__control_8cpp.html" target="_top" xlink:title="Implementation of vehicle driving dynamics and motor control system.">
<polygon fill="white" stroke="#666666" points="116.5,-74.5 0,-74.5 0,-55.25 116.5,-55.25 116.5,-74.5"/>
<text text-anchor="middle" x="58.25" y="-61" font-family="Helvetica,sans-Serif" font-size="10.00">src/vehicle_control.cpp</text>
</a>
</g>
</g>
<!-- Node11&#45;&gt;Node12 -->
<g id="edge22_Node000011_Node000012" class="edge">
<title>Node11&#45;&gt;Node12</title>
<g id="a_edge22_Node000011_Node000012"><a xlink:title=" ">
<path fill="none" stroke="#63b8ff" d="M161.59,-106.04C136.76,-96.39 103.59,-83.5 81.6,-74.95"/>
<polygon fill="#63b8ff" stroke="#63b8ff" points="160.01,-109.18 170.6,-109.54 162.55,-102.66 160.01,-109.18"/>
</a>
</g>
</g>
</g>
</svg>
