M48
; DRILL file {KiCad 8.0.6} date 2025-05-06T21:58:27+0200
; FORMAT={-:-/ absolute / metric / decimal}
; #@! TF.CreationDate,2025-05-06T21:58:27+02:00
; #@! TF.GenerationSoftware,Kicad,Pcbnew,8.0.6
; #@! TF.FileFunction,Plated,1,4,PTH
FMAT,2
METRIC
; #@! TA.AperFunction,Plated,PTH,ViaDrill
T1C0.200
; #@! TA.AperFunction,Plated,PTH,ViaDrill
T2C0.400
; #@! TA.AperFunction,Plated,PTH,ComponentDrill
T3C0.400
; #@! TA.AperFunction,Plated,PTH,ComponentDrill
T4C0.600
; #@! TA.AperFunction,Plated,PTH,ComponentDrill
T5C1.050
; #@! TA.AperFunction,Plated,PTH,ComponentDrill
T6C1.100
; #@! TA.AperFunction,Plated,PTH,ComponentDrill
T7C1.500
; #@! TA.AperFunction,Plated,PTH,ComponentDrill
T8C3.200
%
G90
G05
T1
X27.051Y-123.19
X27.051Y-123.698
X27.675Y-132.538
X27.686Y-123.19
X27.686Y-123.698
X28.321Y-123.19
X28.321Y-123.698
X28.956Y-123.19
X28.956Y-123.698
X29.591Y-123.19
X29.591Y-123.698
X30.226Y-123.19
X30.226Y-123.698
X30.861Y-123.19
X30.861Y-123.698
X31.496Y-123.19
X31.496Y-123.698
X32.12Y-145.873
X32.131Y-123.19
X32.131Y-123.698
X32.766Y-123.19
X32.766Y-123.698
X34.841Y-121.688
X35.052Y-115.824
X37.098Y-112.768
X38.149Y-112.768
X41.683Y-123.417
X42.418Y-123.952
X52.324Y-117.094
X53.975Y-133.985
X54.864Y-115.062
X55.56Y-127.642
X56.515Y-116.84
X56.515Y-117.475
X56.515Y-118.11
X56.515Y-118.745
X57.785Y-141.605
X57.785Y-142.24
X59.055Y-127.0
X59.653Y-127.598
X61.468Y-144.526
X61.468Y-145.161
X61.468Y-145.796
X61.468Y-146.431
X61.468Y-147.066
X61.468Y-147.701
X61.468Y-148.336
X61.468Y-148.971
X61.468Y-149.606
X61.468Y-150.241
X64.008Y-145.288
X64.008Y-145.923
X64.008Y-146.558
X64.008Y-147.193
X64.008Y-147.828
X64.008Y-148.463
X64.008Y-149.098
X64.008Y-149.733
X64.008Y-150.368
X64.008Y-151.003
X65.024Y-154.178
X65.659Y-154.178
X66.294Y-154.178
X66.548Y-145.288
X66.548Y-145.923
X66.548Y-146.558
X66.548Y-147.193
X66.548Y-147.828
X66.548Y-148.463
X66.548Y-149.098
X66.548Y-149.733
X66.548Y-150.368
X66.548Y-151.003
X66.672Y-120.635
X66.929Y-154.178
X67.945Y-117.094
X67.945Y-117.602
X68.199Y-154.178
X68.58Y-117.094
X68.58Y-117.602
X68.834Y-154.178
X69.088Y-145.288
X69.088Y-145.923
X69.088Y-146.558
X69.088Y-147.193
X69.088Y-147.828
X69.088Y-148.463
X69.088Y-149.098
X69.088Y-149.733
X69.088Y-150.368
X69.088Y-151.003
X69.215Y-117.094
X69.215Y-117.602
X69.469Y-154.178
X69.85Y-117.094
X69.85Y-117.602
X70.104Y-154.178
X70.485Y-117.094
X70.485Y-117.602
X71.12Y-117.094
X71.12Y-117.602
X71.12Y-132.08
X71.12Y-139.7
X71.628Y-145.288
X71.628Y-145.923
X71.628Y-146.558
X71.628Y-147.193
X71.628Y-147.828
X71.628Y-148.463
X71.628Y-149.098
X71.628Y-149.733
X71.628Y-150.368
X71.628Y-151.003
X71.755Y-117.094
X71.755Y-117.602
X72.39Y-117.094
X72.39Y-117.602
X72.39Y-139.7
X73.025Y-117.094
X73.025Y-117.602
X73.66Y-117.094
X73.66Y-117.602
X73.66Y-139.7
X74.93Y-132.715
X74.93Y-139.7
X75.565Y-146.05
X75.565Y-146.558
X76.2Y-137.16
X76.2Y-146.05
X76.2Y-146.558
X76.835Y-133.35
X76.835Y-146.05
X76.835Y-146.558
X77.47Y-146.05
X77.47Y-146.558
X78.105Y-146.05
X78.105Y-146.558
X78.74Y-146.05
X78.74Y-146.558
X79.357Y-131.068
X79.367Y-118.393
X79.375Y-146.05
X79.375Y-146.558
X79.399Y-119.672
X80.01Y-146.05
X80.01Y-146.558
X80.645Y-146.05
X80.645Y-146.558
X81.026Y-129.799
X81.28Y-146.05
X81.28Y-146.558
X82.55Y-137.795
X82.55Y-138.43
X82.55Y-138.43
X82.55Y-139.065
X82.55Y-139.7
X82.55Y-140.335
X82.55Y-140.97
X82.55Y-141.605
X82.55Y-142.24
X96.647Y-122.428
X96.647Y-122.936
X96.647Y-123.444
X96.647Y-123.952
X96.647Y-124.46
X97.282Y-122.428
X97.282Y-122.936
X97.282Y-123.444
X97.282Y-123.952
X97.282Y-124.46
X97.917Y-122.428
X97.917Y-122.936
X97.917Y-123.444
X97.917Y-123.952
X97.917Y-124.46
X98.552Y-122.428
X98.552Y-122.936
X98.552Y-123.444
X98.552Y-123.952
X98.552Y-124.46
X99.187Y-122.428
X99.187Y-122.936
X99.187Y-123.444
X99.187Y-123.952
X99.187Y-124.46
X99.822Y-122.428
X99.822Y-122.936
X99.822Y-123.444
X99.822Y-123.952
X99.822Y-124.46
X100.457Y-122.428
X100.457Y-122.936
X100.457Y-123.444
X100.457Y-123.952
X100.457Y-124.46
X101.092Y-122.428
X101.092Y-122.936
X101.092Y-123.444
X101.092Y-123.952
X101.092Y-124.46
X101.6Y-147.955
X101.727Y-122.428
X101.727Y-122.936
X101.727Y-123.444
X101.727Y-123.952
X101.727Y-124.46
X102.235Y-147.955
X102.362Y-122.428
X102.362Y-122.936
X102.362Y-123.444
X102.362Y-123.952
X102.362Y-124.46
X102.87Y-147.955
X103.505Y-147.955
X104.14Y-147.955
X104.775Y-147.955
X105.41Y-147.955
X106.045Y-147.955
X106.68Y-147.955
X107.315Y-147.955
X111.379Y-143.764
X111.379Y-144.272
X112.014Y-143.764
X112.014Y-144.272
X112.649Y-143.764
X112.649Y-144.272
X113.284Y-143.764
X113.284Y-144.272
X113.411Y-163.322
X113.411Y-163.83
X113.411Y-164.338
X113.665Y-136.525
X113.919Y-143.764
X113.919Y-144.272
X114.046Y-163.322
X114.046Y-163.83
X114.046Y-164.338
X114.3Y-135.89
X114.554Y-143.764
X114.554Y-144.272
X114.681Y-163.322
X114.681Y-163.83
X114.681Y-164.338
X115.189Y-143.764
X115.189Y-144.272
X115.316Y-163.322
X115.316Y-163.83
X115.316Y-164.338
X115.824Y-143.764
X115.824Y-144.272
X115.951Y-163.322
X115.951Y-163.83
X115.951Y-164.338
X116.459Y-143.764
X116.459Y-144.272
X116.586Y-163.322
X116.586Y-163.83
X116.586Y-164.338
X117.094Y-143.764
X117.094Y-144.272
X117.221Y-163.322
X117.221Y-163.83
X117.221Y-164.338
X117.856Y-163.322
X117.856Y-163.83
X117.856Y-164.338
X118.491Y-163.322
X118.491Y-163.83
X118.491Y-164.338
X119.126Y-163.322
X119.126Y-163.83
X119.126Y-164.338
X121.793Y-148.082
X122.428Y-148.082
X123.063Y-148.082
X123.698Y-148.082
X124.333Y-148.082
X124.968Y-148.082
X125.603Y-148.082
X126.238Y-148.082
X126.873Y-148.082
X127.381Y-138.938
X127.381Y-139.446
X127.508Y-148.082
X128.016Y-138.938
X128.016Y-139.446
X128.651Y-138.938
X128.651Y-139.446
X129.286Y-138.938
X129.286Y-139.446
X129.921Y-138.938
X129.921Y-139.446
X130.556Y-138.938
X130.556Y-139.446
X131.191Y-138.938
X131.191Y-139.446
X131.826Y-138.938
X131.826Y-139.446
X132.461Y-138.938
X132.461Y-139.446
X133.096Y-138.938
X133.096Y-139.446
X133.985Y-120.396
X133.985Y-121.158
X134.62Y-120.396
X134.62Y-121.158
X135.255Y-120.396
X135.255Y-121.158
X135.89Y-120.396
X135.89Y-121.158
X136.525Y-120.396
X136.525Y-121.158
X137.16Y-120.396
X137.16Y-121.158
X137.677Y-130.199
X137.677Y-130.834
X137.677Y-131.469
X137.677Y-132.104
X137.677Y-132.739
X137.677Y-133.374
X137.795Y-120.396
X137.795Y-121.158
X138.312Y-130.199
X138.312Y-130.834
X138.312Y-131.469
X138.312Y-132.104
X138.312Y-132.739
X138.312Y-133.374
X138.43Y-120.396
X138.43Y-121.158
X138.557Y-135.89
X138.947Y-130.199
X138.947Y-130.834
X138.947Y-131.469
X138.947Y-132.104
X138.947Y-132.739
X138.947Y-133.374
X139.065Y-120.396
X139.065Y-121.158
X139.192Y-135.89
X139.582Y-130.199
X139.582Y-130.834
X139.582Y-131.469
X139.582Y-132.104
X139.582Y-132.739
X139.582Y-133.374
X139.7Y-120.396
X139.7Y-121.158
X139.827Y-135.89
X139.827Y-147.828
X140.217Y-130.199
X140.217Y-130.834
X140.217Y-131.469
X140.217Y-132.104
X140.217Y-132.739
X140.217Y-133.374
X140.462Y-135.89
X140.462Y-147.828
X141.097Y-135.89
X141.097Y-147.828
X141.732Y-135.89
X141.732Y-147.828
X142.367Y-135.89
X143.002Y-135.89
X143.637Y-135.89
X144.272Y-135.89
X148.899Y-144.645
X148.899Y-145.28
X148.899Y-145.915
X148.899Y-146.55
X148.899Y-147.185
X149.534Y-144.645
X149.534Y-145.28
X149.534Y-145.915
X149.534Y-146.55
X149.534Y-147.185
X150.169Y-144.645
X150.169Y-145.28
X150.169Y-145.915
X150.169Y-146.55
X150.169Y-147.185
X150.804Y-144.645
X150.804Y-145.28
X150.804Y-145.915
X150.804Y-146.55
X150.804Y-147.185
X151.439Y-144.645
X151.439Y-145.28
X151.439Y-145.915
X151.439Y-146.55
X151.439Y-147.185
X152.074Y-144.645
X152.074Y-145.28
X152.074Y-145.915
X152.074Y-146.55
X152.074Y-147.185
X159.766Y-140.97
X159.766Y-141.605
X159.766Y-142.24
X159.766Y-142.875
X159.766Y-143.51
X159.766Y-144.145
X159.766Y-144.78
X159.766Y-145.415
X159.766Y-146.05
X159.766Y-146.685
X160.274Y-140.97
X160.274Y-141.605
X160.274Y-142.24
X160.274Y-142.875
X160.274Y-143.51
X160.274Y-144.145
X160.274Y-144.78
X160.274Y-145.415
X160.274Y-146.05
X160.274Y-146.685
T2
X33.782Y-130.011
X37.328Y-129.341
X37.505Y-128.357
X40.894Y-145.542
X40.899Y-146.563
X46.482Y-121.158
X46.482Y-123.444
X48.514Y-134.62
X49.53Y-139.065
X50.292Y-132.842
X50.8Y-139.065
X54.61Y-139.065
X55.88Y-139.065
X59.944Y-132.842
X62.865Y-152.4
X65.405Y-152.4
X67.945Y-152.4
X70.485Y-152.4
X70.866Y-122.174
X73.406Y-121.412
X114.817Y-122.047
X116.087Y-133.477
X116.722Y-122.682
X116.722Y-124.587
X116.722Y-127.762
X119.262Y-123.952
X119.262Y-132.207
X123.707Y-133.477
X135.772Y-128.397
X135.89Y-135.8
X144.272Y-137.16
X148.782Y-123.048
X148.782Y-130.668
X150.066Y-126.23
X153.876Y-142.74
X154.511Y-123.69
X157.686Y-123.69
X158.321Y-126.23
X159.591Y-123.69
X160.226Y-121.785
T5
X40.132Y-135.382
X40.132Y-137.922
X40.132Y-140.462
X42.672Y-135.382
X42.672Y-137.922
X42.672Y-140.462
X61.214Y-137.668
X61.214Y-140.208
X63.754Y-137.668
X63.754Y-140.208
X66.294Y-137.668
X66.294Y-140.208
T6
X46.645Y-157.18
X48.03Y-160.02
X49.415Y-157.18
X50.8Y-160.02
X52.185Y-157.18
X53.57Y-160.02
X54.955Y-157.18
X56.34Y-160.02
X57.725Y-157.18
X59.11Y-160.02
X60.495Y-157.18
X61.88Y-160.02
X63.265Y-157.18
X64.65Y-160.02
X66.035Y-157.18
X67.42Y-160.02
X68.805Y-157.18
X70.19Y-160.02
X71.575Y-157.18
X72.96Y-160.02
X74.345Y-157.18
X75.73Y-160.02
X77.115Y-157.18
X78.5Y-160.02
X79.885Y-157.18
X94.509Y-117.692
X95.894Y-114.853
X97.28Y-117.692
X98.664Y-114.853
X100.049Y-117.692
X101.434Y-114.853
X102.82Y-117.692
X104.204Y-114.853
X105.589Y-117.692
X129.425Y-117.648
X130.81Y-114.808
X132.195Y-117.648
X133.58Y-114.808
X134.965Y-117.648
X136.35Y-114.808
X137.735Y-117.648
X139.12Y-114.808
X140.505Y-117.648
T7
X96.52Y-160.732
X101.6Y-160.732
X106.68Y-160.732
X111.76Y-160.732
X116.84Y-160.732
X121.92Y-160.732
X127.0Y-160.732
X132.08Y-160.732
X137.16Y-160.732
X142.24Y-160.732
X147.32Y-160.732
X152.4Y-160.732
T8
X39.745Y-158.6
X86.785Y-158.6
X87.55Y-116.272
X112.55Y-116.272
X122.465Y-116.228
X147.465Y-116.228
T3
G00X45.348Y-108.712
M15
G01X45.348Y-109.212
M16
G05
G00X49.648Y-108.712
M15
G01X49.648Y-109.212
M16
G05
G00X51.698Y-108.712
M15
G01X51.698Y-109.212
M16
G05
G00X55.998Y-108.712
M15
G01X55.998Y-109.212
M16
G05
T4
G00X33.528Y-109.697
M15
G01X33.528Y-108.997
M16
G05
G00X42.168Y-109.697
M15
G01X42.168Y-108.997
M16
G05
M30
