G04 #@! TF.GenerationSoftware,KiCad,Pcbnew,8.0.6*
G04 #@! TF.CreationDate,2025-05-06T21:58:27+02:00*
G04 #@! TF.ProjectId,VCU2.0,56435532-2e30-42e6-9b69-6361645f7063,rev?*
G04 #@! TF.SameCoordinates,Original*
G04 #@! TF.FileFunction,Paste,Top*
G04 #@! TF.FilePolarity,Positive*
%FSLAX46Y46*%
G04 Gerber Fmt 4.6, Leading zero omitted, Abs format (unit mm)*
G04 Created by KiCad (PCBNEW 8.0.6) date 2025-05-06 21:58:27*
%MOMM*%
%LPD*%
G01*
G04 APERTURE LIST*
%ADD10R,0.700000X1.925000*%
%ADD11R,0.600000X1.700000*%
%ADD12R,1.524003X0.600000*%
%ADD13R,1.000000X0.600000*%
%ADD14R,3.900000X2.100000*%
%ADD15O,0.588011X2.045009*%
%ADD16R,0.806477X0.864008*%
%ADD17R,0.864008X0.806477*%
%ADD18R,0.900000X0.800000*%
%ADD19R,0.800000X0.900000*%
%ADD20R,1.750013X3.500000*%
%ADD21R,1.410008X1.350013*%
%ADD22R,1.400000X1.200000*%
%ADD23R,0.680010X0.280010*%
%ADD24R,3.000000X2.300000*%
%ADD25R,2.300000X3.000000*%
%ADD26R,3.350013X3.350013*%
%ADD27R,0.905004X0.280010*%
%ADD28R,0.280010X0.905004*%
%ADD29O,0.364008X1.742012*%
%ADD30R,3.420015X2.424003*%
%ADD31R,0.300000X1.450013*%
%ADD32R,0.600000X1.450013*%
%ADD33R,1.800000X1.450013*%
%ADD34R,0.700000X1.250013*%
%ADD35R,1.500000X0.900000*%
%ADD36R,0.900000X1.500000*%
%ADD37R,0.900000X0.900000*%
%ADD38R,0.280010X0.680010*%
%ADD39R,1.100000X2.600000*%
%ADD40R,1.300000X0.300000*%
%ADD41R,1.350013X1.410008*%
G04 APERTURE END LIST*
D10*
G04 #@! TO.C,IC603*
X130175000Y-143510000D03*
X128905000Y-143510000D03*
X127635000Y-143510000D03*
X126365000Y-143510000D03*
X125095000Y-143510000D03*
X123825000Y-143510000D03*
X122555000Y-143510000D03*
X121285000Y-143510000D03*
X120015000Y-143510000D03*
X118745000Y-143510000D03*
X118745000Y-152934000D03*
X120015000Y-152934000D03*
X121285000Y-152934000D03*
X122555000Y-152934000D03*
X123825000Y-152934000D03*
X125095000Y-152934000D03*
X126365000Y-152934000D03*
X127635000Y-152934000D03*
X128905000Y-152934000D03*
X130175000Y-152934000D03*
G04 #@! TD*
G04 #@! TO.C,IC602*
X109855000Y-143510000D03*
X108585000Y-143510000D03*
X107315000Y-143510000D03*
X106045000Y-143510000D03*
X104775000Y-143510000D03*
X103505000Y-143510000D03*
X102235000Y-143510000D03*
X100965000Y-143510000D03*
X99695000Y-143510000D03*
X98425000Y-143510000D03*
X98425000Y-152934000D03*
X99695000Y-152934000D03*
X100965000Y-152934000D03*
X102235000Y-152934000D03*
X103505000Y-152934000D03*
X104775000Y-152934000D03*
X106045000Y-152934000D03*
X107315000Y-152934000D03*
X108585000Y-152934000D03*
X109855000Y-152934000D03*
G04 #@! TD*
D11*
G04 #@! TO.C,U307*
X52572917Y-109661987D03*
X53848000Y-109661987D03*
X55123083Y-109661987D03*
D12*
X51786024Y-107762064D03*
X55909976Y-107762064D03*
G04 #@! TD*
D11*
G04 #@! TO.C,U306*
X46222917Y-109661987D03*
X47498000Y-109661987D03*
X48773083Y-109661987D03*
D12*
X45436024Y-107762064D03*
X49559976Y-107762064D03*
G04 #@! TD*
D13*
G04 #@! TO.C,U603*
X144282180Y-152527072D03*
X144282180Y-153797075D03*
X144282180Y-155067077D03*
X144281926Y-156337080D03*
D14*
X146336028Y-153164106D03*
X146336028Y-155700047D03*
D13*
X149850125Y-152527072D03*
X149850125Y-153797075D03*
X149850125Y-155067077D03*
X149850125Y-156337080D03*
G04 #@! TD*
D15*
G04 #@! TO.C,U602*
X135304958Y-145520416D03*
X136574961Y-145520416D03*
X137844963Y-145520416D03*
X139114966Y-145520416D03*
X135304958Y-139975584D03*
X136574961Y-139975584D03*
X137844963Y-139975584D03*
X139114966Y-139975584D03*
G04 #@! TD*
G04 #@! TO.C,U601*
X141858996Y-145520416D03*
X143128999Y-145520416D03*
X144399001Y-145520416D03*
X145669004Y-145520416D03*
X141858996Y-139975584D03*
X143128999Y-139975584D03*
X144399001Y-139975584D03*
X145669004Y-139975584D03*
G04 #@! TD*
D16*
G04 #@! TO.C,R212*
X155899401Y-122420472D03*
X154392669Y-122420472D03*
G04 #@! TD*
D17*
G04 #@! TO.C,R407*
X65405000Y-147320000D03*
X65405000Y-148826732D03*
G04 #@! TD*
D16*
G04 #@! TO.C,R210*
X157567669Y-122420472D03*
X159074401Y-122420472D03*
G04 #@! TD*
D17*
G04 #@! TO.C,R206*
X115451634Y-126373634D03*
X115451634Y-127880366D03*
G04 #@! TD*
D18*
G04 #@! TO.C,C303*
X60960000Y-118175025D03*
X60960000Y-116774975D03*
G04 #@! TD*
D19*
G04 #@! TO.C,C202*
X117926609Y-128397000D03*
X119326659Y-128397000D03*
G04 #@! TD*
G04 #@! TO.C,C305*
X34163000Y-120777000D03*
X32762950Y-120777000D03*
G04 #@! TD*
D20*
G04 #@! TO.C,L202*
X153771130Y-131310472D03*
X156520940Y-131310472D03*
G04 #@! TD*
D21*
G04 #@! TO.C,C201*
X117626634Y-130302000D03*
X119626634Y-130302000D03*
G04 #@! TD*
D17*
G04 #@! TO.C,R409*
X70485000Y-147320000D03*
X70485000Y-148826732D03*
G04 #@! TD*
G04 #@! TO.C,R204*
X115451634Y-124705366D03*
X115451634Y-123198634D03*
G04 #@! TD*
D16*
G04 #@! TO.C,R307*
X39759634Y-117602000D03*
X41266366Y-117602000D03*
G04 #@! TD*
D22*
G04 #@! TO.C,X401*
X35760159Y-141847955D03*
X33560007Y-141847955D03*
X33560007Y-143547981D03*
X35760159Y-143547981D03*
G04 #@! TD*
D17*
G04 #@! TO.C,R403*
X37200083Y-153492968D03*
X37200083Y-151986236D03*
G04 #@! TD*
D21*
G04 #@! TO.C,C301*
X55864000Y-112014000D03*
X53864000Y-112014000D03*
G04 #@! TD*
D23*
G04 #@! TO.C,U201*
X117986629Y-126356975D03*
X117986629Y-125857102D03*
X117986629Y-125356975D03*
X119266791Y-125356975D03*
X119266791Y-125857102D03*
X119266791Y-126356975D03*
G04 #@! TD*
D24*
G04 #@! TO.C,C204*
X130691634Y-124409574D03*
X130691634Y-131114426D03*
G04 #@! TD*
G04 #@! TO.C,C205*
X135771634Y-124409574D03*
X135771634Y-131114426D03*
G04 #@! TD*
D17*
G04 #@! TO.C,R202*
X113546634Y-123198634D03*
X113546634Y-124705366D03*
G04 #@! TD*
D16*
G04 #@! TO.C,R203*
X115570000Y-131572000D03*
X114063268Y-131572000D03*
G04 #@! TD*
D25*
G04 #@! TO.C,C211*
X157863461Y-142740472D03*
X151158609Y-142740472D03*
G04 #@! TD*
D17*
G04 #@! TO.C,R405*
X60325000Y-147320000D03*
X60325000Y-148826732D03*
G04 #@! TD*
G04 #@! TO.C,R209*
X150701035Y-122538838D03*
X150701035Y-121032106D03*
G04 #@! TD*
G04 #@! TO.C,R415*
X67945000Y-143510000D03*
X67945000Y-145016732D03*
G04 #@! TD*
D26*
G04 #@! TO.C,U303*
X37973000Y-123952000D03*
D27*
X40350445Y-122452127D03*
X40350445Y-122952000D03*
X40350445Y-123452127D03*
X40350445Y-123952000D03*
X40350445Y-124452127D03*
X40350445Y-124952000D03*
X40350445Y-125452127D03*
D28*
X39472873Y-126329445D03*
X38973000Y-126329445D03*
X38472873Y-126329445D03*
X37973000Y-126329445D03*
X37472873Y-126329445D03*
X36973000Y-126329445D03*
X36472873Y-126329445D03*
D27*
X35595555Y-125452127D03*
X35595555Y-124952000D03*
X35595555Y-124452127D03*
X35595555Y-123952000D03*
X35595555Y-123452127D03*
X35595555Y-122952000D03*
X35595555Y-122452127D03*
D28*
X36472873Y-121574555D03*
X36973000Y-121574555D03*
X37472873Y-121574555D03*
X37973000Y-121574555D03*
X38472873Y-121574555D03*
X38973000Y-121574555D03*
X39472873Y-121574555D03*
G04 #@! TD*
D19*
G04 #@! TO.C,C212*
X155211060Y-146504702D03*
X153811010Y-146504702D03*
G04 #@! TD*
D16*
G04 #@! TO.C,R205*
X114063268Y-129667000D03*
X115570000Y-129667000D03*
G04 #@! TD*
G04 #@! TO.C,R301*
X54728366Y-116840000D03*
X53221634Y-116840000D03*
G04 #@! TD*
G04 #@! TO.C,R201*
X116603268Y-121412000D03*
X118110000Y-121412000D03*
G04 #@! TD*
D17*
G04 #@! TO.C,R211*
X152606035Y-122538838D03*
X152606035Y-121032106D03*
G04 #@! TD*
D29*
G04 #@! TO.C,U402*
X29830013Y-137313936D03*
X30480000Y-137313936D03*
X31129988Y-137313936D03*
X31779975Y-137313936D03*
X32430216Y-137313936D03*
X33080204Y-137313936D03*
X33730191Y-137313936D03*
X34380178Y-137313936D03*
X35030166Y-137313936D03*
X35680153Y-137313936D03*
X35680153Y-131572000D03*
X35030166Y-131572000D03*
X34380178Y-131572000D03*
X33730191Y-131572000D03*
X33080204Y-131572000D03*
X32430216Y-131572000D03*
X31779975Y-131572000D03*
X31129988Y-131572000D03*
X30480000Y-131572000D03*
X29830013Y-131572000D03*
G04 #@! TD*
D17*
G04 #@! TO.C,R406*
X62865000Y-147320000D03*
X62865000Y-148826732D03*
G04 #@! TD*
G04 #@! TO.C,R303*
X54610000Y-129141732D03*
X54610000Y-127635000D03*
G04 #@! TD*
G04 #@! TO.C,R417*
X73025000Y-143510000D03*
X73025000Y-145016732D03*
G04 #@! TD*
D30*
G04 #@! TO.C,L201*
X124341634Y-131040131D03*
X124341634Y-124483869D03*
G04 #@! TD*
D17*
G04 #@! TO.C,R412*
X60325000Y-143510000D03*
X60325000Y-145016732D03*
G04 #@! TD*
D31*
G04 #@! TO.C,U305*
X39597926Y-114441894D03*
X38597926Y-114441894D03*
X37097799Y-114441894D03*
X36097799Y-114441894D03*
D32*
X34597977Y-114441894D03*
X35397977Y-114441894D03*
D31*
X36597926Y-114441894D03*
X37597926Y-114441894D03*
X38097799Y-114441894D03*
X39097799Y-114441894D03*
D32*
X40297977Y-114441894D03*
X41097977Y-114441894D03*
D33*
X32778013Y-113527010D03*
X42917967Y-113527010D03*
G04 #@! TD*
D19*
G04 #@! TO.C,C402*
X37900108Y-139522968D03*
X36500058Y-139522968D03*
G04 #@! TD*
D17*
G04 #@! TO.C,R414*
X65405000Y-143510000D03*
X65405000Y-145016732D03*
G04 #@! TD*
D19*
G04 #@! TO.C,C209*
X154446010Y-120515472D03*
X155846060Y-120515472D03*
G04 #@! TD*
D18*
G04 #@! TO.C,C206*
X139581634Y-127061975D03*
X139581634Y-128462025D03*
G04 #@! TD*
D34*
G04 #@! TO.C,U302*
X48701962Y-119142000D03*
X46802038Y-119142000D03*
X47752000Y-121142000D03*
G04 #@! TD*
D16*
G04 #@! TO.C,R304*
X52324000Y-115062000D03*
X53830732Y-115062000D03*
G04 #@! TD*
D17*
G04 #@! TO.C,R408*
X67945000Y-147320000D03*
X67945000Y-148826732D03*
G04 #@! TD*
D16*
G04 #@! TO.C,R305*
X45203366Y-122428000D03*
X43696634Y-122428000D03*
G04 #@! TD*
D18*
G04 #@! TO.C,C208*
X153876035Y-124895447D03*
X153876035Y-126295497D03*
G04 #@! TD*
D19*
G04 #@! TO.C,C404*
X53975000Y-132715000D03*
X52574950Y-132715000D03*
G04 #@! TD*
D16*
G04 #@! TO.C,R401*
X27175717Y-131521968D03*
X28682449Y-131521968D03*
G04 #@! TD*
D17*
G04 #@! TO.C,R410*
X73025000Y-147320000D03*
X73025000Y-148826732D03*
G04 #@! TD*
D16*
G04 #@! TO.C,R208*
X159074401Y-120515472D03*
X157567669Y-120515472D03*
G04 #@! TD*
D17*
G04 #@! TO.C,R404*
X57785000Y-147320000D03*
X57785000Y-148826732D03*
G04 #@! TD*
D15*
G04 #@! TO.C,U401*
X35295087Y-149450552D03*
X34025084Y-149450552D03*
X32755082Y-149450552D03*
X31485079Y-149450552D03*
X31485079Y-154995384D03*
X32755082Y-154995384D03*
X34025084Y-154995384D03*
X35295087Y-154995384D03*
G04 #@! TD*
D18*
G04 #@! TO.C,C203*
X113546634Y-127827025D03*
X113546634Y-126426975D03*
G04 #@! TD*
D25*
G04 #@! TO.C,C210*
X157863461Y-137660472D03*
X151158609Y-137660472D03*
G04 #@! TD*
D17*
G04 #@! TO.C,R302*
X56515000Y-129141732D03*
X56515000Y-127635000D03*
G04 #@! TD*
D35*
G04 #@! TO.C,U301*
X64274936Y-117098542D03*
X64274936Y-118368545D03*
X64274936Y-119638547D03*
X64274936Y-120908550D03*
X64274936Y-122178552D03*
X64274936Y-123448555D03*
X64274936Y-124718557D03*
X64274936Y-125988560D03*
X64274936Y-127258563D03*
X64274936Y-128528565D03*
X64274936Y-129798568D03*
X64274936Y-131068570D03*
X64274936Y-132338573D03*
X64274936Y-133608575D03*
D36*
X66039986Y-134888484D03*
X67309989Y-134888484D03*
X68579991Y-134888484D03*
X69849994Y-134888484D03*
X71119996Y-134888484D03*
X72389999Y-134888484D03*
X73660001Y-134888484D03*
X74930004Y-134888484D03*
X76200006Y-134888484D03*
X77470009Y-134888484D03*
X78740011Y-134888484D03*
X80010014Y-134858512D03*
D35*
X81775064Y-133608575D03*
X81775064Y-132338573D03*
X81775064Y-131068570D03*
X81775064Y-129798568D03*
X81775064Y-128528565D03*
X81775064Y-127258563D03*
X81775064Y-125988560D03*
X81775064Y-124718557D03*
X81775064Y-123448555D03*
X81775064Y-122178552D03*
X81775064Y-120908550D03*
X81775064Y-119638547D03*
X81775064Y-118368545D03*
X81775064Y-117098542D03*
D37*
X70124822Y-123418583D03*
X70124822Y-124818634D03*
X70124822Y-126218684D03*
X71524873Y-123418583D03*
X71524873Y-124818634D03*
X71524873Y-126218684D03*
X72924924Y-123418583D03*
X72924924Y-124818634D03*
X72924924Y-126218684D03*
G04 #@! TD*
D38*
G04 #@! TO.C,U202*
X155916060Y-124955467D03*
X156415933Y-124955467D03*
X156916060Y-124955467D03*
X156916060Y-126235629D03*
X156415933Y-126235629D03*
X155916060Y-126235629D03*
G04 #@! TD*
D19*
G04 #@! TO.C,C401*
X32625033Y-147142968D03*
X34025083Y-147142968D03*
G04 #@! TD*
G04 #@! TO.C,C403*
X30085033Y-141427968D03*
X31485083Y-141427968D03*
G04 #@! TD*
D17*
G04 #@! TO.C,R416*
X70485000Y-143510000D03*
X70485000Y-145016732D03*
G04 #@! TD*
G04 #@! TO.C,R413*
X62865000Y-143510000D03*
X62865000Y-145016732D03*
G04 #@! TD*
G04 #@! TO.C,R411*
X57785000Y-143510000D03*
X57785000Y-145016732D03*
G04 #@! TD*
D19*
G04 #@! TO.C,C304*
X34200194Y-118775303D03*
X35600244Y-118775303D03*
G04 #@! TD*
D16*
G04 #@! TO.C,R308*
X34163000Y-116967000D03*
X35669732Y-116967000D03*
G04 #@! TD*
D34*
G04 #@! TO.C,U304*
X45399962Y-118380000D03*
X43500038Y-118380000D03*
X44450000Y-120380000D03*
G04 #@! TD*
D39*
G04 #@! TO.C,C302*
X57785000Y-118004975D03*
X57785000Y-114405025D03*
G04 #@! TD*
D40*
G04 #@! TO.C,U403*
X50989987Y-134890127D03*
X50989987Y-135390000D03*
X50989987Y-135889873D03*
X50989987Y-136390000D03*
X50989987Y-136890127D03*
X55690013Y-136889873D03*
X55690013Y-136390000D03*
X55690013Y-135890127D03*
X55690013Y-135390000D03*
X55690013Y-134889873D03*
G04 #@! TD*
D41*
G04 #@! TO.C,C207*
X151971035Y-124595472D03*
X151971035Y-126595472D03*
G04 #@! TD*
D16*
G04 #@! TO.C,R306*
X45072881Y-124460000D03*
X43566149Y-124460000D03*
G04 #@! TD*
D17*
G04 #@! TO.C,R402*
X27675083Y-135314700D03*
X27675083Y-133807968D03*
G04 #@! TD*
G04 #@! TO.C,R207*
X160861035Y-123572106D03*
X160861035Y-125078838D03*
G04 #@! TD*
M02*
