%TF.GenerationSoftware,KiCad,Pcbnew,8.0.6*%
%TF.CreationDate,2025-05-06T21:58:27+02:00*%
%TF.ProjectId,VCU2.0,56435532-2e30-42e6-9b69-6361645f7063,rev?*%
%TF.SameCoordinates,Original*%
%TF.FileFunction,Drillmap*%
%TF.FilePolarity,Positive*%
%FSLAX45Y45*%
G04 Gerber Fmt 4.5, Leading zero omitted, Abs format (unit mm)*
G04 Created by KiCad (PCBNEW 8.0.6) date 2025-05-06 21:58:27*
%MOMM*%
%LPD*%
G01*
G04 APERTURE LIST*
%ADD10C,0.100000*%
%ADD11C,0.200000*%
%ADD12C,0.104998*%
%ADD13C,0.110002*%
%ADD14C,0.150002*%
%ADD15C,0.320000*%
G04 APERTURE END LIST*
D10*
X16256000Y-11049000D02*
X16256000Y-16446500D01*
X2921000Y-10668000D02*
X15875000Y-10668000D01*
D11*
X16256000Y-16446500D02*
G75*
G02*
X15875000Y-16827500I-381000J0D01*
G01*
X15875000Y-10668000D02*
G75*
G02*
X16256000Y-11049000I0J-381000D01*
G01*
X2921000Y-16827500D02*
G75*
G02*
X2540000Y-16446500I0J381000D01*
G01*
X2540000Y-11049000D02*
G75*
G02*
X2921000Y-10668000I381000J0D01*
G01*
D10*
X15875000Y-16827500D02*
X2921000Y-16827500D01*
X2540000Y-16446500D02*
X2540000Y-11049000D01*
D11*
D10*
X2695100Y-12309000D02*
X2715100Y-12329000D01*
X2715100Y-12309000D02*
X2695100Y-12329000D01*
X2695100Y-12359800D02*
X2715100Y-12379800D01*
X2715100Y-12359800D02*
X2695100Y-12379800D01*
X2757508Y-13243797D02*
X2777508Y-13263797D01*
X2777508Y-13243797D02*
X2757508Y-13263797D01*
X2758600Y-12309000D02*
X2778600Y-12329000D01*
X2778600Y-12309000D02*
X2758600Y-12329000D01*
X2758600Y-12359800D02*
X2778600Y-12379800D01*
X2778600Y-12359800D02*
X2758600Y-12379800D01*
X2822100Y-12309000D02*
X2842100Y-12329000D01*
X2842100Y-12309000D02*
X2822100Y-12329000D01*
X2822100Y-12359800D02*
X2842100Y-12379800D01*
X2842100Y-12359800D02*
X2822100Y-12379800D01*
X2885600Y-12309000D02*
X2905600Y-12329000D01*
X2905600Y-12309000D02*
X2885600Y-12329000D01*
X2885600Y-12359800D02*
X2905600Y-12379800D01*
X2905600Y-12359800D02*
X2885600Y-12379800D01*
X2949100Y-12309000D02*
X2969100Y-12329000D01*
X2969100Y-12309000D02*
X2949100Y-12329000D01*
X2949100Y-12359800D02*
X2969100Y-12379800D01*
X2969100Y-12359800D02*
X2949100Y-12379800D01*
X3012600Y-12309000D02*
X3032600Y-12329000D01*
X3032600Y-12309000D02*
X3012600Y-12329000D01*
X3012600Y-12359800D02*
X3032600Y-12379800D01*
X3032600Y-12359800D02*
X3012600Y-12379800D01*
X3076100Y-12309000D02*
X3096100Y-12329000D01*
X3096100Y-12309000D02*
X3076100Y-12329000D01*
X3076100Y-12359800D02*
X3096100Y-12379800D01*
X3096100Y-12359800D02*
X3076100Y-12379800D01*
X3139600Y-12309000D02*
X3159600Y-12329000D01*
X3159600Y-12309000D02*
X3139600Y-12329000D01*
X3139600Y-12359800D02*
X3159600Y-12379800D01*
X3159600Y-12359800D02*
X3139600Y-12379800D01*
X3202008Y-14577297D02*
X3222008Y-14597297D01*
X3222008Y-14577297D02*
X3202008Y-14597297D01*
X3203100Y-12309000D02*
X3223100Y-12329000D01*
X3223100Y-12309000D02*
X3203100Y-12329000D01*
X3203100Y-12359800D02*
X3223100Y-12379800D01*
X3223100Y-12359800D02*
X3203100Y-12379800D01*
X3266600Y-12309000D02*
X3286600Y-12329000D01*
X3286600Y-12309000D02*
X3266600Y-12329000D01*
X3266600Y-12359800D02*
X3286600Y-12379800D01*
X3286600Y-12359800D02*
X3266600Y-12379800D01*
X3474079Y-12158750D02*
X3494079Y-12178750D01*
X3494079Y-12158750D02*
X3474079Y-12178750D01*
X3495200Y-11572400D02*
X3515200Y-11592400D01*
X3515200Y-11572400D02*
X3495200Y-11592400D01*
X3699793Y-11266814D02*
X3719793Y-11286814D01*
X3719793Y-11266814D02*
X3699793Y-11286814D01*
X3804914Y-11266814D02*
X3824914Y-11286814D01*
X3824914Y-11266814D02*
X3804914Y-11286814D01*
X4158299Y-12331700D02*
X4178299Y-12351700D01*
X4178299Y-12331700D02*
X4158299Y-12351700D01*
X4231800Y-12385200D02*
X4251800Y-12405200D01*
X4251800Y-12385200D02*
X4231800Y-12405200D01*
X5222400Y-11699400D02*
X5242400Y-11719400D01*
X5242400Y-11699400D02*
X5222400Y-11719400D01*
X5387500Y-13388500D02*
X5407500Y-13408500D01*
X5407500Y-13388500D02*
X5387500Y-13408500D01*
X5476400Y-11496200D02*
X5496400Y-11516200D01*
X5496400Y-11496200D02*
X5476400Y-11516200D01*
X5546026Y-12754207D02*
X5566026Y-12774207D01*
X5566026Y-12754207D02*
X5546026Y-12774207D01*
X5641500Y-11674000D02*
X5661500Y-11694000D01*
X5661500Y-11674000D02*
X5641500Y-11694000D01*
X5641500Y-11737500D02*
X5661500Y-11757500D01*
X5661500Y-11737500D02*
X5641500Y-11757500D01*
X5641500Y-11801000D02*
X5661500Y-11821000D01*
X5661500Y-11801000D02*
X5641500Y-11821000D01*
X5641500Y-11864500D02*
X5661500Y-11884500D01*
X5661500Y-11864500D02*
X5641500Y-11884500D01*
X5768500Y-14150500D02*
X5788500Y-14170500D01*
X5788500Y-14150500D02*
X5768500Y-14170500D01*
X5768500Y-14214000D02*
X5788500Y-14234000D01*
X5788500Y-14214000D02*
X5768500Y-14234000D01*
X5895500Y-12690000D02*
X5915500Y-12710000D01*
X5915500Y-12690000D02*
X5895500Y-12710000D01*
X5955301Y-12749801D02*
X5975301Y-12769801D01*
X5975301Y-12749801D02*
X5955301Y-12769801D01*
X6136800Y-14442600D02*
X6156800Y-14462600D01*
X6156800Y-14442600D02*
X6136800Y-14462600D01*
X6136800Y-14506100D02*
X6156800Y-14526100D01*
X6156800Y-14506100D02*
X6136800Y-14526100D01*
X6136800Y-14569600D02*
X6156800Y-14589600D01*
X6156800Y-14569600D02*
X6136800Y-14589600D01*
X6136800Y-14633100D02*
X6156800Y-14653100D01*
X6156800Y-14633100D02*
X6136800Y-14653100D01*
X6136800Y-14696600D02*
X6156800Y-14716600D01*
X6156800Y-14696600D02*
X6136800Y-14716600D01*
X6136800Y-14760100D02*
X6156800Y-14780100D01*
X6156800Y-14760100D02*
X6136800Y-14780100D01*
X6136800Y-14823600D02*
X6156800Y-14843600D01*
X6156800Y-14823600D02*
X6136800Y-14843600D01*
X6136800Y-14887100D02*
X6156800Y-14907100D01*
X6156800Y-14887100D02*
X6136800Y-14907100D01*
X6136800Y-14950600D02*
X6156800Y-14970600D01*
X6156800Y-14950600D02*
X6136800Y-14970600D01*
X6136800Y-15014100D02*
X6156800Y-15034100D01*
X6156800Y-15014100D02*
X6136800Y-15034100D01*
X6390800Y-14518800D02*
X6410800Y-14538800D01*
X6410800Y-14518800D02*
X6390800Y-14538800D01*
X6390800Y-14582300D02*
X6410800Y-14602300D01*
X6410800Y-14582300D02*
X6390800Y-14602300D01*
X6390800Y-14645800D02*
X6410800Y-14665800D01*
X6410800Y-14645800D02*
X6390800Y-14665800D01*
X6390800Y-14709300D02*
X6410800Y-14729300D01*
X6410800Y-14709300D02*
X6390800Y-14729300D01*
X6390800Y-14772800D02*
X6410800Y-14792800D01*
X6410800Y-14772800D02*
X6390800Y-14792800D01*
X6390800Y-14836300D02*
X6410800Y-14856300D01*
X6410800Y-14836300D02*
X6390800Y-14856300D01*
X6390800Y-14899800D02*
X6410800Y-14919800D01*
X6410800Y-14899800D02*
X6390800Y-14919800D01*
X6390800Y-14963300D02*
X6410800Y-14983300D01*
X6410800Y-14963300D02*
X6390800Y-14983300D01*
X6390800Y-15026800D02*
X6410800Y-15046800D01*
X6410800Y-15026800D02*
X6390800Y-15046800D01*
X6390800Y-15090300D02*
X6410800Y-15110300D01*
X6410800Y-15090300D02*
X6390800Y-15110300D01*
X6492400Y-15407800D02*
X6512400Y-15427800D01*
X6512400Y-15407800D02*
X6492400Y-15427800D01*
X6555900Y-15407800D02*
X6575900Y-15427800D01*
X6575900Y-15407800D02*
X6555900Y-15427800D01*
X6619400Y-15407800D02*
X6639400Y-15427800D01*
X6639400Y-15407800D02*
X6619400Y-15427800D01*
X6644800Y-14518800D02*
X6664800Y-14538800D01*
X6664800Y-14518800D02*
X6644800Y-14538800D01*
X6644800Y-14582300D02*
X6664800Y-14602300D01*
X6664800Y-14582300D02*
X6644800Y-14602300D01*
X6644800Y-14645800D02*
X6664800Y-14665800D01*
X6664800Y-14645800D02*
X6644800Y-14665800D01*
X6644800Y-14709300D02*
X6664800Y-14729300D01*
X6664800Y-14709300D02*
X6644800Y-14729300D01*
X6644800Y-14772800D02*
X6664800Y-14792800D01*
X6664800Y-14772800D02*
X6644800Y-14792800D01*
X6644800Y-14836300D02*
X6664800Y-14856300D01*
X6664800Y-14836300D02*
X6644800Y-14856300D01*
X6644800Y-14899800D02*
X6664800Y-14919800D01*
X6664800Y-14899800D02*
X6644800Y-14919800D01*
X6644800Y-14963300D02*
X6664800Y-14983300D01*
X6664800Y-14963300D02*
X6644800Y-14983300D01*
X6644800Y-15026800D02*
X6664800Y-15046800D01*
X6664800Y-15026800D02*
X6644800Y-15046800D01*
X6644800Y-15090300D02*
X6664800Y-15110300D01*
X6664800Y-15090300D02*
X6644800Y-15110300D01*
X6657227Y-12053492D02*
X6677227Y-12073492D01*
X6677227Y-12053492D02*
X6657227Y-12073492D01*
X6682900Y-15407800D02*
X6702900Y-15427800D01*
X6702900Y-15407800D02*
X6682900Y-15427800D01*
X6784500Y-11699400D02*
X6804500Y-11719400D01*
X6804500Y-11699400D02*
X6784500Y-11719400D01*
X6784500Y-11750200D02*
X6804500Y-11770200D01*
X6804500Y-11750200D02*
X6784500Y-11770200D01*
X6809900Y-15407800D02*
X6829900Y-15427800D01*
X6829900Y-15407800D02*
X6809900Y-15427800D01*
X6848000Y-11699400D02*
X6868000Y-11719400D01*
X6868000Y-11699400D02*
X6848000Y-11719400D01*
X6848000Y-11750200D02*
X6868000Y-11770200D01*
X6868000Y-11750200D02*
X6848000Y-11770200D01*
X6873400Y-15407800D02*
X6893400Y-15427800D01*
X6893400Y-15407800D02*
X6873400Y-15427800D01*
X6898800Y-14518800D02*
X6918800Y-14538800D01*
X6918800Y-14518800D02*
X6898800Y-14538800D01*
X6898800Y-14582300D02*
X6918800Y-14602300D01*
X6918800Y-14582300D02*
X6898800Y-14602300D01*
X6898800Y-14645800D02*
X6918800Y-14665800D01*
X6918800Y-14645800D02*
X6898800Y-14665800D01*
X6898800Y-14709300D02*
X6918800Y-14729300D01*
X6918800Y-14709300D02*
X6898800Y-14729300D01*
X6898800Y-14772800D02*
X6918800Y-14792800D01*
X6918800Y-14772800D02*
X6898800Y-14792800D01*
X6898800Y-14836300D02*
X6918800Y-14856300D01*
X6918800Y-14836300D02*
X6898800Y-14856300D01*
X6898800Y-14899800D02*
X6918800Y-14919800D01*
X6918800Y-14899800D02*
X6898800Y-14919800D01*
X6898800Y-14963300D02*
X6918800Y-14983300D01*
X6918800Y-14963300D02*
X6898800Y-14983300D01*
X6898800Y-15026800D02*
X6918800Y-15046800D01*
X6918800Y-15026800D02*
X6898800Y-15046800D01*
X6898800Y-15090300D02*
X6918800Y-15110300D01*
X6918800Y-15090300D02*
X6898800Y-15110300D01*
X6911500Y-11699400D02*
X6931500Y-11719400D01*
X6931500Y-11699400D02*
X6911500Y-11719400D01*
X6911500Y-11750200D02*
X6931500Y-11770200D01*
X6931500Y-11750200D02*
X6911500Y-11770200D01*
X6936900Y-15407800D02*
X6956900Y-15427800D01*
X6956900Y-15407800D02*
X6936900Y-15427800D01*
X6975000Y-11699400D02*
X6995000Y-11719400D01*
X6995000Y-11699400D02*
X6975000Y-11719400D01*
X6975000Y-11750200D02*
X6995000Y-11770200D01*
X6995000Y-11750200D02*
X6975000Y-11770200D01*
X7000400Y-15407800D02*
X7020400Y-15427800D01*
X7020400Y-15407800D02*
X7000400Y-15427800D01*
X7038500Y-11699400D02*
X7058500Y-11719400D01*
X7058500Y-11699400D02*
X7038500Y-11719400D01*
X7038500Y-11750200D02*
X7058500Y-11770200D01*
X7058500Y-11750200D02*
X7038500Y-11770200D01*
X7102000Y-11699400D02*
X7122000Y-11719400D01*
X7122000Y-11699400D02*
X7102000Y-11719400D01*
X7102000Y-11750200D02*
X7122000Y-11770200D01*
X7122000Y-11750200D02*
X7102000Y-11770200D01*
X7102000Y-13198000D02*
X7122000Y-13218000D01*
X7122000Y-13198000D02*
X7102000Y-13218000D01*
X7102000Y-13960000D02*
X7122000Y-13980000D01*
X7122000Y-13960000D02*
X7102000Y-13980000D01*
X7152800Y-14518800D02*
X7172800Y-14538800D01*
X7172800Y-14518800D02*
X7152800Y-14538800D01*
X7152800Y-14582300D02*
X7172800Y-14602300D01*
X7172800Y-14582300D02*
X7152800Y-14602300D01*
X7152800Y-14645800D02*
X7172800Y-14665800D01*
X7172800Y-14645800D02*
X7152800Y-14665800D01*
X7152800Y-14709300D02*
X7172800Y-14729300D01*
X7172800Y-14709300D02*
X7152800Y-14729300D01*
X7152800Y-14772800D02*
X7172800Y-14792800D01*
X7172800Y-14772800D02*
X7152800Y-14792800D01*
X7152800Y-14836300D02*
X7172800Y-14856300D01*
X7172800Y-14836300D02*
X7152800Y-14856300D01*
X7152800Y-14899800D02*
X7172800Y-14919800D01*
X7172800Y-14899800D02*
X7152800Y-14919800D01*
X7152800Y-14963300D02*
X7172800Y-14983300D01*
X7172800Y-14963300D02*
X7152800Y-14983300D01*
X7152800Y-15026800D02*
X7172800Y-15046800D01*
X7172800Y-15026800D02*
X7152800Y-15046800D01*
X7152800Y-15090300D02*
X7172800Y-15110300D01*
X7172800Y-15090300D02*
X7152800Y-15110300D01*
X7165500Y-11699400D02*
X7185500Y-11719400D01*
X7185500Y-11699400D02*
X7165500Y-11719400D01*
X7165500Y-11750200D02*
X7185500Y-11770200D01*
X7185500Y-11750200D02*
X7165500Y-11770200D01*
X7229000Y-11699400D02*
X7249000Y-11719400D01*
X7249000Y-11699400D02*
X7229000Y-11719400D01*
X7229000Y-11750200D02*
X7249000Y-11770200D01*
X7249000Y-11750200D02*
X7229000Y-11770200D01*
X7229000Y-13960000D02*
X7249000Y-13980000D01*
X7249000Y-13960000D02*
X7229000Y-13980000D01*
X7292500Y-11699400D02*
X7312500Y-11719400D01*
X7312500Y-11699400D02*
X7292500Y-11719400D01*
X7292500Y-11750200D02*
X7312500Y-11770200D01*
X7312500Y-11750200D02*
X7292500Y-11770200D01*
X7356000Y-11699400D02*
X7376000Y-11719400D01*
X7376000Y-11699400D02*
X7356000Y-11719400D01*
X7356000Y-11750200D02*
X7376000Y-11770200D01*
X7376000Y-11750200D02*
X7356000Y-11770200D01*
X7356000Y-13960000D02*
X7376000Y-13980000D01*
X7376000Y-13960000D02*
X7356000Y-13980000D01*
X7483000Y-13261500D02*
X7503000Y-13281500D01*
X7503000Y-13261500D02*
X7483000Y-13281500D01*
X7483000Y-13960000D02*
X7503000Y-13980000D01*
X7503000Y-13960000D02*
X7483000Y-13980000D01*
X7546500Y-14595000D02*
X7566500Y-14615000D01*
X7566500Y-14595000D02*
X7546500Y-14615000D01*
X7546500Y-14645800D02*
X7566500Y-14665800D01*
X7566500Y-14645800D02*
X7546500Y-14665800D01*
X7610000Y-13706000D02*
X7630000Y-13726000D01*
X7630000Y-13706000D02*
X7610000Y-13726000D01*
X7610000Y-14595000D02*
X7630000Y-14615000D01*
X7630000Y-14595000D02*
X7610000Y-14615000D01*
X7610000Y-14645800D02*
X7630000Y-14665800D01*
X7630000Y-14645800D02*
X7610000Y-14665800D01*
X7673500Y-13325000D02*
X7693500Y-13345000D01*
X7693500Y-13325000D02*
X7673500Y-13345000D01*
X7673500Y-14595000D02*
X7693500Y-14615000D01*
X7693500Y-14595000D02*
X7673500Y-14615000D01*
X7673500Y-14645800D02*
X7693500Y-14665800D01*
X7693500Y-14645800D02*
X7673500Y-14665800D01*
X7737000Y-14595000D02*
X7757000Y-14615000D01*
X7757000Y-14595000D02*
X7737000Y-14615000D01*
X7737000Y-14645800D02*
X7757000Y-14665800D01*
X7757000Y-14645800D02*
X7737000Y-14665800D01*
X7800500Y-14595000D02*
X7820500Y-14615000D01*
X7820500Y-14595000D02*
X7800500Y-14615000D01*
X7800500Y-14645800D02*
X7820500Y-14665800D01*
X7820500Y-14645800D02*
X7800500Y-14665800D01*
X7864000Y-14595000D02*
X7884000Y-14615000D01*
X7884000Y-14595000D02*
X7864000Y-14615000D01*
X7864000Y-14645800D02*
X7884000Y-14665800D01*
X7884000Y-14645800D02*
X7864000Y-14665800D01*
X7925652Y-13096806D02*
X7945652Y-13116806D01*
X7945652Y-13096806D02*
X7925652Y-13116806D01*
X7926715Y-11829258D02*
X7946715Y-11849258D01*
X7946715Y-11829258D02*
X7926715Y-11849258D01*
X7927500Y-14595000D02*
X7947500Y-14615000D01*
X7947500Y-14595000D02*
X7927500Y-14615000D01*
X7927500Y-14645800D02*
X7947500Y-14665800D01*
X7947500Y-14645800D02*
X7927500Y-14665800D01*
X7929855Y-11957203D02*
X7949855Y-11977203D01*
X7949855Y-11957203D02*
X7929855Y-11977203D01*
X7991000Y-14595000D02*
X8011000Y-14615000D01*
X8011000Y-14595000D02*
X7991000Y-14615000D01*
X7991000Y-14645800D02*
X8011000Y-14665800D01*
X8011000Y-14645800D02*
X7991000Y-14665800D01*
X8054500Y-14595000D02*
X8074500Y-14615000D01*
X8074500Y-14595000D02*
X8054500Y-14615000D01*
X8054500Y-14645800D02*
X8074500Y-14665800D01*
X8074500Y-14645800D02*
X8054500Y-14665800D01*
X8092600Y-12969857D02*
X8112600Y-12989857D01*
X8112600Y-12969857D02*
X8092600Y-12989857D01*
X8118000Y-14595000D02*
X8138000Y-14615000D01*
X8138000Y-14595000D02*
X8118000Y-14615000D01*
X8118000Y-14645800D02*
X8138000Y-14665800D01*
X8138000Y-14645800D02*
X8118000Y-14665800D01*
X8245000Y-13769500D02*
X8265000Y-13789500D01*
X8265000Y-13769500D02*
X8245000Y-13789500D01*
X8245000Y-13833000D02*
X8265000Y-13853000D01*
X8265000Y-13833000D02*
X8245000Y-13853000D01*
X8245000Y-13833000D02*
X8265000Y-13853000D01*
X8265000Y-13833000D02*
X8245000Y-13853000D01*
X8245000Y-13896500D02*
X8265000Y-13916500D01*
X8265000Y-13896500D02*
X8245000Y-13916500D01*
X8245000Y-13960000D02*
X8265000Y-13980000D01*
X8265000Y-13960000D02*
X8245000Y-13980000D01*
X8245000Y-14023500D02*
X8265000Y-14043500D01*
X8265000Y-14023500D02*
X8245000Y-14043500D01*
X8245000Y-14087000D02*
X8265000Y-14107000D01*
X8265000Y-14087000D02*
X8245000Y-14107000D01*
X8245000Y-14150500D02*
X8265000Y-14170500D01*
X8265000Y-14150500D02*
X8245000Y-14170500D01*
X8245000Y-14214000D02*
X8265000Y-14234000D01*
X8265000Y-14214000D02*
X8245000Y-14234000D01*
X9654700Y-12232800D02*
X9674700Y-12252800D01*
X9674700Y-12232800D02*
X9654700Y-12252800D01*
X9654700Y-12283600D02*
X9674700Y-12303600D01*
X9674700Y-12283600D02*
X9654700Y-12303600D01*
X9654700Y-12334400D02*
X9674700Y-12354400D01*
X9674700Y-12334400D02*
X9654700Y-12354400D01*
X9654700Y-12385200D02*
X9674700Y-12405200D01*
X9674700Y-12385200D02*
X9654700Y-12405200D01*
X9654700Y-12436000D02*
X9674700Y-12456000D01*
X9674700Y-12436000D02*
X9654700Y-12456000D01*
X9718200Y-12232800D02*
X9738200Y-12252800D01*
X9738200Y-12232800D02*
X9718200Y-12252800D01*
X9718200Y-12283600D02*
X9738200Y-12303600D01*
X9738200Y-12283600D02*
X9718200Y-12303600D01*
X9718200Y-12334400D02*
X9738200Y-12354400D01*
X9738200Y-12334400D02*
X9718200Y-12354400D01*
X9718200Y-12385200D02*
X9738200Y-12405200D01*
X9738200Y-12385200D02*
X9718200Y-12405200D01*
X9718200Y-12436000D02*
X9738200Y-12456000D01*
X9738200Y-12436000D02*
X9718200Y-12456000D01*
X9781700Y-12232800D02*
X9801700Y-12252800D01*
X9801700Y-12232800D02*
X9781700Y-12252800D01*
X9781700Y-12283600D02*
X9801700Y-12303600D01*
X9801700Y-12283600D02*
X9781700Y-12303600D01*
X9781700Y-12334400D02*
X9801700Y-12354400D01*
X9801700Y-12334400D02*
X9781700Y-12354400D01*
X9781700Y-12385200D02*
X9801700Y-12405200D01*
X9801700Y-12385200D02*
X9781700Y-12405200D01*
X9781700Y-12436000D02*
X9801700Y-12456000D01*
X9801700Y-12436000D02*
X9781700Y-12456000D01*
X9845200Y-12232800D02*
X9865200Y-12252800D01*
X9865200Y-12232800D02*
X9845200Y-12252800D01*
X9845200Y-12283600D02*
X9865200Y-12303600D01*
X9865200Y-12283600D02*
X9845200Y-12303600D01*
X9845200Y-12334400D02*
X9865200Y-12354400D01*
X9865200Y-12334400D02*
X9845200Y-12354400D01*
X9845200Y-12385200D02*
X9865200Y-12405200D01*
X9865200Y-12385200D02*
X9845200Y-12405200D01*
X9845200Y-12436000D02*
X9865200Y-12456000D01*
X9865200Y-12436000D02*
X9845200Y-12456000D01*
X9908700Y-12232800D02*
X9928700Y-12252800D01*
X9928700Y-12232800D02*
X9908700Y-12252800D01*
X9908700Y-12283600D02*
X9928700Y-12303600D01*
X9928700Y-12283600D02*
X9908700Y-12303600D01*
X9908700Y-12334400D02*
X9928700Y-12354400D01*
X9928700Y-12334400D02*
X9908700Y-12354400D01*
X9908700Y-12385200D02*
X9928700Y-12405200D01*
X9928700Y-12385200D02*
X9908700Y-12405200D01*
X9908700Y-12436000D02*
X9928700Y-12456000D01*
X9928700Y-12436000D02*
X9908700Y-12456000D01*
X9972200Y-12232800D02*
X9992200Y-12252800D01*
X9992200Y-12232800D02*
X9972200Y-12252800D01*
X9972200Y-12283600D02*
X9992200Y-12303600D01*
X9992200Y-12283600D02*
X9972200Y-12303600D01*
X9972200Y-12334400D02*
X9992200Y-12354400D01*
X9992200Y-12334400D02*
X9972200Y-12354400D01*
X9972200Y-12385200D02*
X9992200Y-12405200D01*
X9992200Y-12385200D02*
X9972200Y-12405200D01*
X9972200Y-12436000D02*
X9992200Y-12456000D01*
X9992200Y-12436000D02*
X9972200Y-12456000D01*
X10035700Y-12232800D02*
X10055700Y-12252800D01*
X10055700Y-12232800D02*
X10035700Y-12252800D01*
X10035700Y-12283600D02*
X10055700Y-12303600D01*
X10055700Y-12283600D02*
X10035700Y-12303600D01*
X10035700Y-12334400D02*
X10055700Y-12354400D01*
X10055700Y-12334400D02*
X10035700Y-12354400D01*
X10035700Y-12385200D02*
X10055700Y-12405200D01*
X10055700Y-12385200D02*
X10035700Y-12405200D01*
X10035700Y-12436000D02*
X10055700Y-12456000D01*
X10055700Y-12436000D02*
X10035700Y-12456000D01*
X10099200Y-12232800D02*
X10119200Y-12252800D01*
X10119200Y-12232800D02*
X10099200Y-12252800D01*
X10099200Y-12283600D02*
X10119200Y-12303600D01*
X10119200Y-12283600D02*
X10099200Y-12303600D01*
X10099200Y-12334400D02*
X10119200Y-12354400D01*
X10119200Y-12334400D02*
X10099200Y-12354400D01*
X10099200Y-12385200D02*
X10119200Y-12405200D01*
X10119200Y-12385200D02*
X10099200Y-12405200D01*
X10099200Y-12436000D02*
X10119200Y-12456000D01*
X10119200Y-12436000D02*
X10099200Y-12456000D01*
X10150000Y-14785500D02*
X10170000Y-14805500D01*
X10170000Y-14785500D02*
X10150000Y-14805500D01*
X10162700Y-12232800D02*
X10182700Y-12252800D01*
X10182700Y-12232800D02*
X10162700Y-12252800D01*
X10162700Y-12283600D02*
X10182700Y-12303600D01*
X10182700Y-12283600D02*
X10162700Y-12303600D01*
X10162700Y-12334400D02*
X10182700Y-12354400D01*
X10182700Y-12334400D02*
X10162700Y-12354400D01*
X10162700Y-12385200D02*
X10182700Y-12405200D01*
X10182700Y-12385200D02*
X10162700Y-12405200D01*
X10162700Y-12436000D02*
X10182700Y-12456000D01*
X10182700Y-12436000D02*
X10162700Y-12456000D01*
X10213500Y-14785500D02*
X10233500Y-14805500D01*
X10233500Y-14785500D02*
X10213500Y-14805500D01*
X10226200Y-12232800D02*
X10246200Y-12252800D01*
X10246200Y-12232800D02*
X10226200Y-12252800D01*
X10226200Y-12283600D02*
X10246200Y-12303600D01*
X10246200Y-12283600D02*
X10226200Y-12303600D01*
X10226200Y-12334400D02*
X10246200Y-12354400D01*
X10246200Y-12334400D02*
X10226200Y-12354400D01*
X10226200Y-12385200D02*
X10246200Y-12405200D01*
X10246200Y-12385200D02*
X10226200Y-12405200D01*
X10226200Y-12436000D02*
X10246200Y-12456000D01*
X10246200Y-12436000D02*
X10226200Y-12456000D01*
X10277000Y-14785500D02*
X10297000Y-14805500D01*
X10297000Y-14785500D02*
X10277000Y-14805500D01*
X10340500Y-14785500D02*
X10360500Y-14805500D01*
X10360500Y-14785500D02*
X10340500Y-14805500D01*
X10404000Y-14785500D02*
X10424000Y-14805500D01*
X10424000Y-14785500D02*
X10404000Y-14805500D01*
X10467500Y-14785500D02*
X10487500Y-14805500D01*
X10487500Y-14785500D02*
X10467500Y-14805500D01*
X10531000Y-14785500D02*
X10551000Y-14805500D01*
X10551000Y-14785500D02*
X10531000Y-14805500D01*
X10594500Y-14785500D02*
X10614500Y-14805500D01*
X10614500Y-14785500D02*
X10594500Y-14805500D01*
X10658000Y-14785500D02*
X10678000Y-14805500D01*
X10678000Y-14785500D02*
X10658000Y-14805500D01*
X10721500Y-14785500D02*
X10741500Y-14805500D01*
X10741500Y-14785500D02*
X10721500Y-14805500D01*
X11127900Y-14366400D02*
X11147900Y-14386400D01*
X11147900Y-14366400D02*
X11127900Y-14386400D01*
X11127900Y-14417200D02*
X11147900Y-14437200D01*
X11147900Y-14417200D02*
X11127900Y-14437200D01*
X11191400Y-14366400D02*
X11211400Y-14386400D01*
X11211400Y-14366400D02*
X11191400Y-14386400D01*
X11191400Y-14417200D02*
X11211400Y-14437200D01*
X11211400Y-14417200D02*
X11191400Y-14437200D01*
X11254900Y-14366400D02*
X11274900Y-14386400D01*
X11274900Y-14366400D02*
X11254900Y-14386400D01*
X11254900Y-14417200D02*
X11274900Y-14437200D01*
X11274900Y-14417200D02*
X11254900Y-14437200D01*
X11318400Y-14366400D02*
X11338400Y-14386400D01*
X11338400Y-14366400D02*
X11318400Y-14386400D01*
X11318400Y-14417200D02*
X11338400Y-14437200D01*
X11338400Y-14417200D02*
X11318400Y-14437200D01*
X11331100Y-16322200D02*
X11351100Y-16342200D01*
X11351100Y-16322200D02*
X11331100Y-16342200D01*
X11331100Y-16373000D02*
X11351100Y-16393000D01*
X11351100Y-16373000D02*
X11331100Y-16393000D01*
X11331100Y-16423800D02*
X11351100Y-16443800D01*
X11351100Y-16423800D02*
X11331100Y-16443800D01*
X11356500Y-13642500D02*
X11376500Y-13662500D01*
X11376500Y-13642500D02*
X11356500Y-13662500D01*
X11381900Y-14366400D02*
X11401900Y-14386400D01*
X11401900Y-14366400D02*
X11381900Y-14386400D01*
X11381900Y-14417200D02*
X11401900Y-14437200D01*
X11401900Y-14417200D02*
X11381900Y-14437200D01*
X11394600Y-16322200D02*
X11414600Y-16342200D01*
X11414600Y-16322200D02*
X11394600Y-16342200D01*
X11394600Y-16373000D02*
X11414600Y-16393000D01*
X11414600Y-16373000D02*
X11394600Y-16393000D01*
X11394600Y-16423800D02*
X11414600Y-16443800D01*
X11414600Y-16423800D02*
X11394600Y-16443800D01*
X11420000Y-13579000D02*
X11440000Y-13599000D01*
X11440000Y-13579000D02*
X11420000Y-13599000D01*
X11445400Y-14366400D02*
X11465400Y-14386400D01*
X11465400Y-14366400D02*
X11445400Y-14386400D01*
X11445400Y-14417200D02*
X11465400Y-14437200D01*
X11465400Y-14417200D02*
X11445400Y-14437200D01*
X11458100Y-16322200D02*
X11478100Y-16342200D01*
X11478100Y-16322200D02*
X11458100Y-16342200D01*
X11458100Y-16373000D02*
X11478100Y-16393000D01*
X11478100Y-16373000D02*
X11458100Y-16393000D01*
X11458100Y-16423800D02*
X11478100Y-16443800D01*
X11478100Y-16423800D02*
X11458100Y-16443800D01*
X11508900Y-14366400D02*
X11528900Y-14386400D01*
X11528900Y-14366400D02*
X11508900Y-14386400D01*
X11508900Y-14417200D02*
X11528900Y-14437200D01*
X11528900Y-14417200D02*
X11508900Y-14437200D01*
X11521600Y-16322200D02*
X11541600Y-16342200D01*
X11541600Y-16322200D02*
X11521600Y-16342200D01*
X11521600Y-16373000D02*
X11541600Y-16393000D01*
X11541600Y-16373000D02*
X11521600Y-16393000D01*
X11521600Y-16423800D02*
X11541600Y-16443800D01*
X11541600Y-16423800D02*
X11521600Y-16443800D01*
X11572400Y-14366400D02*
X11592400Y-14386400D01*
X11592400Y-14366400D02*
X11572400Y-14386400D01*
X11572400Y-14417200D02*
X11592400Y-14437200D01*
X11592400Y-14417200D02*
X11572400Y-14437200D01*
X11585100Y-16322200D02*
X11605100Y-16342200D01*
X11605100Y-16322200D02*
X11585100Y-16342200D01*
X11585100Y-16373000D02*
X11605100Y-16393000D01*
X11605100Y-16373000D02*
X11585100Y-16393000D01*
X11585100Y-16423800D02*
X11605100Y-16443800D01*
X11605100Y-16423800D02*
X11585100Y-16443800D01*
X11635900Y-14366400D02*
X11655900Y-14386400D01*
X11655900Y-14366400D02*
X11635900Y-14386400D01*
X11635900Y-14417200D02*
X11655900Y-14437200D01*
X11655900Y-14417200D02*
X11635900Y-14437200D01*
X11648600Y-16322200D02*
X11668600Y-16342200D01*
X11668600Y-16322200D02*
X11648600Y-16342200D01*
X11648600Y-16373000D02*
X11668600Y-16393000D01*
X11668600Y-16373000D02*
X11648600Y-16393000D01*
X11648600Y-16423800D02*
X11668600Y-16443800D01*
X11668600Y-16423800D02*
X11648600Y-16443800D01*
X11699400Y-14366400D02*
X11719400Y-14386400D01*
X11719400Y-14366400D02*
X11699400Y-14386400D01*
X11699400Y-14417200D02*
X11719400Y-14437200D01*
X11719400Y-14417200D02*
X11699400Y-14437200D01*
X11712100Y-16322200D02*
X11732100Y-16342200D01*
X11732100Y-16322200D02*
X11712100Y-16342200D01*
X11712100Y-16373000D02*
X11732100Y-16393000D01*
X11732100Y-16373000D02*
X11712100Y-16393000D01*
X11712100Y-16423800D02*
X11732100Y-16443800D01*
X11732100Y-16423800D02*
X11712100Y-16443800D01*
X11775600Y-16322200D02*
X11795600Y-16342200D01*
X11795600Y-16322200D02*
X11775600Y-16342200D01*
X11775600Y-16373000D02*
X11795600Y-16393000D01*
X11795600Y-16373000D02*
X11775600Y-16393000D01*
X11775600Y-16423800D02*
X11795600Y-16443800D01*
X11795600Y-16423800D02*
X11775600Y-16443800D01*
X11839100Y-16322200D02*
X11859100Y-16342200D01*
X11859100Y-16322200D02*
X11839100Y-16342200D01*
X11839100Y-16373000D02*
X11859100Y-16393000D01*
X11859100Y-16373000D02*
X11839100Y-16393000D01*
X11839100Y-16423800D02*
X11859100Y-16443800D01*
X11859100Y-16423800D02*
X11839100Y-16443800D01*
X11902600Y-16322200D02*
X11922600Y-16342200D01*
X11922600Y-16322200D02*
X11902600Y-16342200D01*
X11902600Y-16373000D02*
X11922600Y-16393000D01*
X11922600Y-16373000D02*
X11902600Y-16393000D01*
X11902600Y-16423800D02*
X11922600Y-16443800D01*
X11922600Y-16423800D02*
X11902600Y-16443800D01*
X12169300Y-14798200D02*
X12189300Y-14818200D01*
X12189300Y-14798200D02*
X12169300Y-14818200D01*
X12232800Y-14798200D02*
X12252800Y-14818200D01*
X12252800Y-14798200D02*
X12232800Y-14818200D01*
X12296300Y-14798200D02*
X12316300Y-14818200D01*
X12316300Y-14798200D02*
X12296300Y-14818200D01*
X12359800Y-14798200D02*
X12379800Y-14818200D01*
X12379800Y-14798200D02*
X12359800Y-14818200D01*
X12423300Y-14798200D02*
X12443300Y-14818200D01*
X12443300Y-14798200D02*
X12423300Y-14818200D01*
X12486800Y-14798200D02*
X12506800Y-14818200D01*
X12506800Y-14798200D02*
X12486800Y-14818200D01*
X12550300Y-14798200D02*
X12570300Y-14818200D01*
X12570300Y-14798200D02*
X12550300Y-14818200D01*
X12613800Y-14798200D02*
X12633800Y-14818200D01*
X12633800Y-14798200D02*
X12613800Y-14818200D01*
X12677300Y-14798200D02*
X12697300Y-14818200D01*
X12697300Y-14798200D02*
X12677300Y-14818200D01*
X12728100Y-13883800D02*
X12748100Y-13903800D01*
X12748100Y-13883800D02*
X12728100Y-13903800D01*
X12728100Y-13934600D02*
X12748100Y-13954600D01*
X12748100Y-13934600D02*
X12728100Y-13954600D01*
X12740800Y-14798200D02*
X12760800Y-14818200D01*
X12760800Y-14798200D02*
X12740800Y-14818200D01*
X12791600Y-13883800D02*
X12811600Y-13903800D01*
X12811600Y-13883800D02*
X12791600Y-13903800D01*
X12791600Y-13934600D02*
X12811600Y-13954600D01*
X12811600Y-13934600D02*
X12791600Y-13954600D01*
X12855100Y-13883800D02*
X12875100Y-13903800D01*
X12875100Y-13883800D02*
X12855100Y-13903800D01*
X12855100Y-13934600D02*
X12875100Y-13954600D01*
X12875100Y-13934600D02*
X12855100Y-13954600D01*
X12918600Y-13883800D02*
X12938600Y-13903800D01*
X12938600Y-13883800D02*
X12918600Y-13903800D01*
X12918600Y-13934600D02*
X12938600Y-13954600D01*
X12938600Y-13934600D02*
X12918600Y-13954600D01*
X12982100Y-13883800D02*
X13002100Y-13903800D01*
X13002100Y-13883800D02*
X12982100Y-13903800D01*
X12982100Y-13934600D02*
X13002100Y-13954600D01*
X13002100Y-13934600D02*
X12982100Y-13954600D01*
X13045600Y-13883800D02*
X13065600Y-13903800D01*
X13065600Y-13883800D02*
X13045600Y-13903800D01*
X13045600Y-13934600D02*
X13065600Y-13954600D01*
X13065600Y-13934600D02*
X13045600Y-13954600D01*
X13109100Y-13883800D02*
X13129100Y-13903800D01*
X13129100Y-13883800D02*
X13109100Y-13903800D01*
X13109100Y-13934600D02*
X13129100Y-13954600D01*
X13129100Y-13934600D02*
X13109100Y-13954600D01*
X13172600Y-13883800D02*
X13192600Y-13903800D01*
X13192600Y-13883800D02*
X13172600Y-13903800D01*
X13172600Y-13934600D02*
X13192600Y-13954600D01*
X13192600Y-13934600D02*
X13172600Y-13954600D01*
X13236100Y-13883800D02*
X13256100Y-13903800D01*
X13256100Y-13883800D02*
X13236100Y-13903800D01*
X13236100Y-13934600D02*
X13256100Y-13954600D01*
X13256100Y-13934600D02*
X13236100Y-13954600D01*
X13299600Y-13883800D02*
X13319600Y-13903800D01*
X13319600Y-13883800D02*
X13299600Y-13903800D01*
X13299600Y-13934600D02*
X13319600Y-13954600D01*
X13319600Y-13934600D02*
X13299600Y-13954600D01*
X13388500Y-12029600D02*
X13408500Y-12049600D01*
X13408500Y-12029600D02*
X13388500Y-12049600D01*
X13388500Y-12105800D02*
X13408500Y-12125800D01*
X13408500Y-12105800D02*
X13388500Y-12125800D01*
X13452000Y-12029600D02*
X13472000Y-12049600D01*
X13472000Y-12029600D02*
X13452000Y-12049600D01*
X13452000Y-12105800D02*
X13472000Y-12125800D01*
X13472000Y-12105800D02*
X13452000Y-12125800D01*
X13515500Y-12029600D02*
X13535500Y-12049600D01*
X13535500Y-12029600D02*
X13515500Y-12049600D01*
X13515500Y-12105800D02*
X13535500Y-12125800D01*
X13535500Y-12105800D02*
X13515500Y-12125800D01*
X13579000Y-12029600D02*
X13599000Y-12049600D01*
X13599000Y-12029600D02*
X13579000Y-12049600D01*
X13579000Y-12105800D02*
X13599000Y-12125800D01*
X13599000Y-12105800D02*
X13579000Y-12125800D01*
X13642500Y-12029600D02*
X13662500Y-12049600D01*
X13662500Y-12029600D02*
X13642500Y-12049600D01*
X13642500Y-12105800D02*
X13662500Y-12125800D01*
X13662500Y-12105800D02*
X13642500Y-12125800D01*
X13706000Y-12029600D02*
X13726000Y-12049600D01*
X13726000Y-12029600D02*
X13706000Y-12049600D01*
X13706000Y-12105800D02*
X13726000Y-12125800D01*
X13726000Y-12105800D02*
X13706000Y-12125800D01*
X13757663Y-13009887D02*
X13777663Y-13029887D01*
X13777663Y-13009887D02*
X13757663Y-13029887D01*
X13757663Y-13073387D02*
X13777663Y-13093387D01*
X13777663Y-13073387D02*
X13757663Y-13093387D01*
X13757663Y-13136887D02*
X13777663Y-13156887D01*
X13777663Y-13136887D02*
X13757663Y-13156887D01*
X13757663Y-13200387D02*
X13777663Y-13220387D01*
X13777663Y-13200387D02*
X13757663Y-13220387D01*
X13757663Y-13263887D02*
X13777663Y-13283887D01*
X13777663Y-13263887D02*
X13757663Y-13283887D01*
X13757663Y-13327387D02*
X13777663Y-13347387D01*
X13777663Y-13327387D02*
X13757663Y-13347387D01*
X13769500Y-12029600D02*
X13789500Y-12049600D01*
X13789500Y-12029600D02*
X13769500Y-12049600D01*
X13769500Y-12105800D02*
X13789500Y-12125800D01*
X13789500Y-12105800D02*
X13769500Y-12125800D01*
X13821163Y-13009887D02*
X13841163Y-13029887D01*
X13841163Y-13009887D02*
X13821163Y-13029887D01*
X13821163Y-13073387D02*
X13841163Y-13093387D01*
X13841163Y-13073387D02*
X13821163Y-13093387D01*
X13821163Y-13136887D02*
X13841163Y-13156887D01*
X13841163Y-13136887D02*
X13821163Y-13156887D01*
X13821163Y-13200387D02*
X13841163Y-13220387D01*
X13841163Y-13200387D02*
X13821163Y-13220387D01*
X13821163Y-13263887D02*
X13841163Y-13283887D01*
X13841163Y-13263887D02*
X13821163Y-13283887D01*
X13821163Y-13327387D02*
X13841163Y-13347387D01*
X13841163Y-13327387D02*
X13821163Y-13347387D01*
X13833000Y-12029600D02*
X13853000Y-12049600D01*
X13853000Y-12029600D02*
X13833000Y-12049600D01*
X13833000Y-12105800D02*
X13853000Y-12125800D01*
X13853000Y-12105800D02*
X13833000Y-12125800D01*
X13845700Y-13579000D02*
X13865700Y-13599000D01*
X13865700Y-13579000D02*
X13845700Y-13599000D01*
X13884663Y-13009887D02*
X13904663Y-13029887D01*
X13904663Y-13009887D02*
X13884663Y-13029887D01*
X13884663Y-13073387D02*
X13904663Y-13093387D01*
X13904663Y-13073387D02*
X13884663Y-13093387D01*
X13884663Y-13136887D02*
X13904663Y-13156887D01*
X13904663Y-13136887D02*
X13884663Y-13156887D01*
X13884663Y-13200387D02*
X13904663Y-13220387D01*
X13904663Y-13200387D02*
X13884663Y-13220387D01*
X13884663Y-13263887D02*
X13904663Y-13283887D01*
X13904663Y-13263887D02*
X13884663Y-13283887D01*
X13884663Y-13327387D02*
X13904663Y-13347387D01*
X13904663Y-13327387D02*
X13884663Y-13347387D01*
X13896500Y-12029600D02*
X13916500Y-12049600D01*
X13916500Y-12029600D02*
X13896500Y-12049600D01*
X13896500Y-12105800D02*
X13916500Y-12125800D01*
X13916500Y-12105800D02*
X13896500Y-12125800D01*
X13909200Y-13579000D02*
X13929200Y-13599000D01*
X13929200Y-13579000D02*
X13909200Y-13599000D01*
X13948163Y-13009887D02*
X13968163Y-13029887D01*
X13968163Y-13009887D02*
X13948163Y-13029887D01*
X13948163Y-13073387D02*
X13968163Y-13093387D01*
X13968163Y-13073387D02*
X13948163Y-13093387D01*
X13948163Y-13136887D02*
X13968163Y-13156887D01*
X13968163Y-13136887D02*
X13948163Y-13156887D01*
X13948163Y-13200387D02*
X13968163Y-13220387D01*
X13968163Y-13200387D02*
X13948163Y-13220387D01*
X13948163Y-13263887D02*
X13968163Y-13283887D01*
X13968163Y-13263887D02*
X13948163Y-13283887D01*
X13948163Y-13327387D02*
X13968163Y-13347387D01*
X13968163Y-13327387D02*
X13948163Y-13347387D01*
X13960000Y-12029600D02*
X13980000Y-12049600D01*
X13980000Y-12029600D02*
X13960000Y-12049600D01*
X13960000Y-12105800D02*
X13980000Y-12125800D01*
X13980000Y-12105800D02*
X13960000Y-12125800D01*
X13972700Y-13579000D02*
X13992700Y-13599000D01*
X13992700Y-13579000D02*
X13972700Y-13599000D01*
X13972700Y-14772800D02*
X13992700Y-14792800D01*
X13992700Y-14772800D02*
X13972700Y-14792800D01*
X14011663Y-13009887D02*
X14031663Y-13029887D01*
X14031663Y-13009887D02*
X14011663Y-13029887D01*
X14011663Y-13073387D02*
X14031663Y-13093387D01*
X14031663Y-13073387D02*
X14011663Y-13093387D01*
X14011663Y-13136887D02*
X14031663Y-13156887D01*
X14031663Y-13136887D02*
X14011663Y-13156887D01*
X14011663Y-13200387D02*
X14031663Y-13220387D01*
X14031663Y-13200387D02*
X14011663Y-13220387D01*
X14011663Y-13263887D02*
X14031663Y-13283887D01*
X14031663Y-13263887D02*
X14011663Y-13283887D01*
X14011663Y-13327387D02*
X14031663Y-13347387D01*
X14031663Y-13327387D02*
X14011663Y-13347387D01*
X14036200Y-13579000D02*
X14056200Y-13599000D01*
X14056200Y-13579000D02*
X14036200Y-13599000D01*
X14036200Y-14772800D02*
X14056200Y-14792800D01*
X14056200Y-14772800D02*
X14036200Y-14792800D01*
X14099700Y-13579000D02*
X14119700Y-13599000D01*
X14119700Y-13579000D02*
X14099700Y-13599000D01*
X14099700Y-14772800D02*
X14119700Y-14792800D01*
X14119700Y-14772800D02*
X14099700Y-14792800D01*
X14163200Y-13579000D02*
X14183200Y-13599000D01*
X14183200Y-13579000D02*
X14163200Y-13599000D01*
X14163200Y-14772800D02*
X14183200Y-14792800D01*
X14183200Y-14772800D02*
X14163200Y-14792800D01*
X14226700Y-13579000D02*
X14246700Y-13599000D01*
X14246700Y-13579000D02*
X14226700Y-13599000D01*
X14290200Y-13579000D02*
X14310200Y-13599000D01*
X14310200Y-13579000D02*
X14290200Y-13599000D01*
X14353700Y-13579000D02*
X14373700Y-13599000D01*
X14373700Y-13579000D02*
X14353700Y-13599000D01*
X14417200Y-13579000D02*
X14437200Y-13599000D01*
X14437200Y-13579000D02*
X14417200Y-13599000D01*
X14879917Y-14454547D02*
X14899917Y-14474547D01*
X14899917Y-14454547D02*
X14879917Y-14474547D01*
X14879917Y-14518047D02*
X14899917Y-14538047D01*
X14899917Y-14518047D02*
X14879917Y-14538047D01*
X14879917Y-14581547D02*
X14899917Y-14601547D01*
X14899917Y-14581547D02*
X14879917Y-14601547D01*
X14879917Y-14645047D02*
X14899917Y-14665047D01*
X14899917Y-14645047D02*
X14879917Y-14665047D01*
X14879917Y-14708547D02*
X14899917Y-14728547D01*
X14899917Y-14708547D02*
X14879917Y-14728547D01*
X14943417Y-14454547D02*
X14963417Y-14474547D01*
X14963417Y-14454547D02*
X14943417Y-14474547D01*
X14943417Y-14518047D02*
X14963417Y-14538047D01*
X14963417Y-14518047D02*
X14943417Y-14538047D01*
X14943417Y-14581547D02*
X14963417Y-14601547D01*
X14963417Y-14581547D02*
X14943417Y-14601547D01*
X14943417Y-14645047D02*
X14963417Y-14665047D01*
X14963417Y-14645047D02*
X14943417Y-14665047D01*
X14943417Y-14708547D02*
X14963417Y-14728547D01*
X14963417Y-14708547D02*
X14943417Y-14728547D01*
X15006917Y-14454547D02*
X15026917Y-14474547D01*
X15026917Y-14454547D02*
X15006917Y-14474547D01*
X15006917Y-14518047D02*
X15026917Y-14538047D01*
X15026917Y-14518047D02*
X15006917Y-14538047D01*
X15006917Y-14581547D02*
X15026917Y-14601547D01*
X15026917Y-14581547D02*
X15006917Y-14601547D01*
X15006917Y-14645047D02*
X15026917Y-14665047D01*
X15026917Y-14645047D02*
X15006917Y-14665047D01*
X15006917Y-14708547D02*
X15026917Y-14728547D01*
X15026917Y-14708547D02*
X15006917Y-14728547D01*
X15070417Y-14454547D02*
X15090417Y-14474547D01*
X15090417Y-14454547D02*
X15070417Y-14474547D01*
X15070417Y-14518047D02*
X15090417Y-14538047D01*
X15090417Y-14518047D02*
X15070417Y-14538047D01*
X15070417Y-14581547D02*
X15090417Y-14601547D01*
X15090417Y-14581547D02*
X15070417Y-14601547D01*
X15070417Y-14645047D02*
X15090417Y-14665047D01*
X15090417Y-14645047D02*
X15070417Y-14665047D01*
X15070417Y-14708547D02*
X15090417Y-14728547D01*
X15090417Y-14708547D02*
X15070417Y-14728547D01*
X15133917Y-14454547D02*
X15153917Y-14474547D01*
X15153917Y-14454547D02*
X15133917Y-14474547D01*
X15133917Y-14518047D02*
X15153917Y-14538047D01*
X15153917Y-14518047D02*
X15133917Y-14538047D01*
X15133917Y-14581547D02*
X15153917Y-14601547D01*
X15153917Y-14581547D02*
X15133917Y-14601547D01*
X15133917Y-14645047D02*
X15153917Y-14665047D01*
X15153917Y-14645047D02*
X15133917Y-14665047D01*
X15133917Y-14708547D02*
X15153917Y-14728547D01*
X15153917Y-14708547D02*
X15133917Y-14728547D01*
X15197417Y-14454547D02*
X15217417Y-14474547D01*
X15217417Y-14454547D02*
X15197417Y-14474547D01*
X15197417Y-14518047D02*
X15217417Y-14538047D01*
X15217417Y-14518047D02*
X15197417Y-14538047D01*
X15197417Y-14581547D02*
X15217417Y-14601547D01*
X15217417Y-14581547D02*
X15197417Y-14601547D01*
X15197417Y-14645047D02*
X15217417Y-14665047D01*
X15217417Y-14645047D02*
X15197417Y-14665047D01*
X15197417Y-14708547D02*
X15217417Y-14728547D01*
X15217417Y-14708547D02*
X15197417Y-14728547D01*
X15966600Y-14087000D02*
X15986600Y-14107000D01*
X15986600Y-14087000D02*
X15966600Y-14107000D01*
X15966600Y-14150500D02*
X15986600Y-14170500D01*
X15986600Y-14150500D02*
X15966600Y-14170500D01*
X15966600Y-14214000D02*
X15986600Y-14234000D01*
X15986600Y-14214000D02*
X15966600Y-14234000D01*
X15966600Y-14277500D02*
X15986600Y-14297500D01*
X15986600Y-14277500D02*
X15966600Y-14297500D01*
X15966600Y-14341000D02*
X15986600Y-14361000D01*
X15986600Y-14341000D02*
X15966600Y-14361000D01*
X15966600Y-14404500D02*
X15986600Y-14424500D01*
X15986600Y-14404500D02*
X15966600Y-14424500D01*
X15966600Y-14468000D02*
X15986600Y-14488000D01*
X15986600Y-14468000D02*
X15966600Y-14488000D01*
X15966600Y-14531500D02*
X15986600Y-14551500D01*
X15986600Y-14531500D02*
X15966600Y-14551500D01*
X15966600Y-14595000D02*
X15986600Y-14615000D01*
X15986600Y-14595000D02*
X15966600Y-14615000D01*
X15966600Y-14658500D02*
X15986600Y-14678500D01*
X15986600Y-14658500D02*
X15966600Y-14678500D01*
X16017400Y-14087000D02*
X16037400Y-14107000D01*
X16037400Y-14087000D02*
X16017400Y-14107000D01*
X16017400Y-14150500D02*
X16037400Y-14170500D01*
X16037400Y-14150500D02*
X16017400Y-14170500D01*
X16017400Y-14214000D02*
X16037400Y-14234000D01*
X16037400Y-14214000D02*
X16017400Y-14234000D01*
X16017400Y-14277500D02*
X16037400Y-14297500D01*
X16037400Y-14277500D02*
X16017400Y-14297500D01*
X16017400Y-14341000D02*
X16037400Y-14361000D01*
X16037400Y-14341000D02*
X16017400Y-14361000D01*
X16017400Y-14404500D02*
X16037400Y-14424500D01*
X16037400Y-14404500D02*
X16017400Y-14424500D01*
X16017400Y-14468000D02*
X16037400Y-14488000D01*
X16037400Y-14468000D02*
X16017400Y-14488000D01*
X16017400Y-14531500D02*
X16037400Y-14551500D01*
X16037400Y-14531500D02*
X16017400Y-14551500D01*
X16017400Y-14595000D02*
X16037400Y-14615000D01*
X16037400Y-14595000D02*
X16017400Y-14615000D01*
X16017400Y-14658500D02*
X16037400Y-14678500D01*
X16037400Y-14658500D02*
X16017400Y-14678500D01*
X3398200Y-13001100D02*
G75*
G02*
X3358200Y-13001100I-20000J0D01*
G01*
X3358200Y-13001100D02*
G75*
G02*
X3398200Y-13001100I20000J0D01*
G01*
X3752807Y-12934123D02*
G75*
G02*
X3712807Y-12934123I-20000J0D01*
G01*
X3712807Y-12934123D02*
G75*
G02*
X3752807Y-12934123I20000J0D01*
G01*
X3770500Y-12835700D02*
G75*
G02*
X3730500Y-12835700I-20000J0D01*
G01*
X3730500Y-12835700D02*
G75*
G02*
X3770500Y-12835700I20000J0D01*
G01*
X4109400Y-14554200D02*
G75*
G02*
X4069400Y-14554200I-20000J0D01*
G01*
X4069400Y-14554200D02*
G75*
G02*
X4109400Y-14554200I20000J0D01*
G01*
X4109865Y-14656265D02*
G75*
G02*
X4069865Y-14656265I-20000J0D01*
G01*
X4069865Y-14656265D02*
G75*
G02*
X4109865Y-14656265I20000J0D01*
G01*
X4668200Y-12115800D02*
G75*
G02*
X4628200Y-12115800I-20000J0D01*
G01*
X4628200Y-12115800D02*
G75*
G02*
X4668200Y-12115800I20000J0D01*
G01*
X4668200Y-12344400D02*
G75*
G02*
X4628200Y-12344400I-20000J0D01*
G01*
X4628200Y-12344400D02*
G75*
G02*
X4668200Y-12344400I20000J0D01*
G01*
X4871400Y-13462000D02*
G75*
G02*
X4831400Y-13462000I-20000J0D01*
G01*
X4831400Y-13462000D02*
G75*
G02*
X4871400Y-13462000I20000J0D01*
G01*
X4973000Y-13906500D02*
G75*
G02*
X4933000Y-13906500I-20000J0D01*
G01*
X4933000Y-13906500D02*
G75*
G02*
X4973000Y-13906500I20000J0D01*
G01*
X5049200Y-13284200D02*
G75*
G02*
X5009200Y-13284200I-20000J0D01*
G01*
X5009200Y-13284200D02*
G75*
G02*
X5049200Y-13284200I20000J0D01*
G01*
X5100000Y-13906500D02*
G75*
G02*
X5060000Y-13906500I-20000J0D01*
G01*
X5060000Y-13906500D02*
G75*
G02*
X5100000Y-13906500I20000J0D01*
G01*
X5481000Y-13906500D02*
G75*
G02*
X5441000Y-13906500I-20000J0D01*
G01*
X5441000Y-13906500D02*
G75*
G02*
X5481000Y-13906500I20000J0D01*
G01*
X5608000Y-13906500D02*
G75*
G02*
X5568000Y-13906500I-20000J0D01*
G01*
X5568000Y-13906500D02*
G75*
G02*
X5608000Y-13906500I20000J0D01*
G01*
X6014400Y-13284200D02*
G75*
G02*
X5974400Y-13284200I-20000J0D01*
G01*
X5974400Y-13284200D02*
G75*
G02*
X6014400Y-13284200I20000J0D01*
G01*
X6306500Y-15240000D02*
G75*
G02*
X6266500Y-15240000I-20000J0D01*
G01*
X6266500Y-15240000D02*
G75*
G02*
X6306500Y-15240000I20000J0D01*
G01*
X6560500Y-15240000D02*
G75*
G02*
X6520500Y-15240000I-20000J0D01*
G01*
X6520500Y-15240000D02*
G75*
G02*
X6560500Y-15240000I20000J0D01*
G01*
X6814500Y-15240000D02*
G75*
G02*
X6774500Y-15240000I-20000J0D01*
G01*
X6774500Y-15240000D02*
G75*
G02*
X6814500Y-15240000I20000J0D01*
G01*
X7068500Y-15240000D02*
G75*
G02*
X7028500Y-15240000I-20000J0D01*
G01*
X7028500Y-15240000D02*
G75*
G02*
X7068500Y-15240000I20000J0D01*
G01*
X7106600Y-12217400D02*
G75*
G02*
X7066600Y-12217400I-20000J0D01*
G01*
X7066600Y-12217400D02*
G75*
G02*
X7106600Y-12217400I20000J0D01*
G01*
X7360600Y-12141200D02*
G75*
G02*
X7320600Y-12141200I-20000J0D01*
G01*
X7320600Y-12141200D02*
G75*
G02*
X7360600Y-12141200I20000J0D01*
G01*
X11501663Y-12204700D02*
G75*
G02*
X11461663Y-12204700I-20000J0D01*
G01*
X11461663Y-12204700D02*
G75*
G02*
X11501663Y-12204700I20000J0D01*
G01*
X11628663Y-13347700D02*
G75*
G02*
X11588663Y-13347700I-20000J0D01*
G01*
X11588663Y-13347700D02*
G75*
G02*
X11628663Y-13347700I20000J0D01*
G01*
X11692163Y-12268200D02*
G75*
G02*
X11652163Y-12268200I-20000J0D01*
G01*
X11652163Y-12268200D02*
G75*
G02*
X11692163Y-12268200I20000J0D01*
G01*
X11692163Y-12458700D02*
G75*
G02*
X11652163Y-12458700I-20000J0D01*
G01*
X11652163Y-12458700D02*
G75*
G02*
X11692163Y-12458700I20000J0D01*
G01*
X11692163Y-12776200D02*
G75*
G02*
X11652163Y-12776200I-20000J0D01*
G01*
X11652163Y-12776200D02*
G75*
G02*
X11692163Y-12776200I20000J0D01*
G01*
X11946163Y-12395200D02*
G75*
G02*
X11906163Y-12395200I-20000J0D01*
G01*
X11906163Y-12395200D02*
G75*
G02*
X11946163Y-12395200I20000J0D01*
G01*
X11946163Y-13220700D02*
G75*
G02*
X11906163Y-13220700I-20000J0D01*
G01*
X11906163Y-13220700D02*
G75*
G02*
X11946163Y-13220700I20000J0D01*
G01*
X12390663Y-13347700D02*
G75*
G02*
X12350663Y-13347700I-20000J0D01*
G01*
X12350663Y-13347700D02*
G75*
G02*
X12390663Y-13347700I20000J0D01*
G01*
X13597163Y-12839700D02*
G75*
G02*
X13557163Y-12839700I-20000J0D01*
G01*
X13557163Y-12839700D02*
G75*
G02*
X13597163Y-12839700I20000J0D01*
G01*
X13609000Y-13580000D02*
G75*
G02*
X13569000Y-13580000I-20000J0D01*
G01*
X13569000Y-13580000D02*
G75*
G02*
X13609000Y-13580000I20000J0D01*
G01*
X14447200Y-13716000D02*
G75*
G02*
X14407200Y-13716000I-20000J0D01*
G01*
X14407200Y-13716000D02*
G75*
G02*
X14447200Y-13716000I20000J0D01*
G01*
X14898188Y-12304771D02*
G75*
G02*
X14858188Y-12304771I-20000J0D01*
G01*
X14858188Y-12304771D02*
G75*
G02*
X14898188Y-12304771I20000J0D01*
G01*
X14898188Y-13066771D02*
G75*
G02*
X14858188Y-13066771I-20000J0D01*
G01*
X14858188Y-13066771D02*
G75*
G02*
X14898188Y-13066771I20000J0D01*
G01*
X15026603Y-12623047D02*
G75*
G02*
X14986603Y-12623047I-20000J0D01*
G01*
X14986603Y-12623047D02*
G75*
G02*
X15026603Y-12623047I20000J0D01*
G01*
X15407603Y-14274047D02*
G75*
G02*
X15367603Y-14274047I-20000J0D01*
G01*
X15367603Y-14274047D02*
G75*
G02*
X15407603Y-14274047I20000J0D01*
G01*
X15471103Y-12369047D02*
G75*
G02*
X15431103Y-12369047I-20000J0D01*
G01*
X15431103Y-12369047D02*
G75*
G02*
X15471103Y-12369047I20000J0D01*
G01*
X15788603Y-12369047D02*
G75*
G02*
X15748603Y-12369047I-20000J0D01*
G01*
X15748603Y-12369047D02*
G75*
G02*
X15788603Y-12369047I20000J0D01*
G01*
X15852103Y-12623047D02*
G75*
G02*
X15812103Y-12623047I-20000J0D01*
G01*
X15812103Y-12623047D02*
G75*
G02*
X15852103Y-12623047I20000J0D01*
G01*
X15979103Y-12369047D02*
G75*
G02*
X15939103Y-12369047I-20000J0D01*
G01*
X15939103Y-12369047D02*
G75*
G02*
X15979103Y-12369047I20000J0D01*
G01*
X16042603Y-12178547D02*
G75*
G02*
X16002603Y-12178547I-20000J0D01*
G01*
X16002603Y-12178547D02*
G75*
G02*
X16042603Y-12178547I20000J0D01*
G01*
X4534789Y-10876196D02*
X4534789Y-10916196D01*
X4514789Y-10896196D02*
X4554789Y-10896196D01*
X4514789Y-10871196D02*
X4514789Y-10921196D01*
X4554789Y-10921196D02*
G75*
G02*
X4514789Y-10921196I-20000J0D01*
G01*
X4554789Y-10921196D02*
X4554789Y-10871196D01*
X4554789Y-10871196D02*
G75*
G03*
X4514789Y-10871196I-20000J0D01*
G01*
X4964811Y-10876196D02*
X4964811Y-10916196D01*
X4944811Y-10896196D02*
X4984811Y-10896196D01*
X4944811Y-10871196D02*
X4944811Y-10921196D01*
X4984811Y-10921196D02*
G75*
G02*
X4944811Y-10921196I-20000J0D01*
G01*
X4984811Y-10921196D02*
X4984811Y-10871196D01*
X4984811Y-10871196D02*
G75*
G03*
X4944811Y-10871196I-20000J0D01*
G01*
X5169789Y-10876196D02*
X5169789Y-10916196D01*
X5149789Y-10896196D02*
X5189789Y-10896196D01*
X5149789Y-10871196D02*
X5149789Y-10921196D01*
X5189789Y-10921196D02*
G75*
G02*
X5149789Y-10921196I-20000J0D01*
G01*
X5189789Y-10921196D02*
X5189789Y-10871196D01*
X5189789Y-10871196D02*
G75*
G03*
X5149789Y-10871196I-20000J0D01*
G01*
X5599811Y-10876196D02*
X5599811Y-10916196D01*
X5579811Y-10896196D02*
X5619811Y-10896196D01*
X5579811Y-10871196D02*
X5579811Y-10921196D01*
X5619811Y-10921196D02*
G75*
G02*
X5579811Y-10921196I-20000J0D01*
G01*
X5619811Y-10921196D02*
X5619811Y-10871196D01*
X5619811Y-10871196D02*
G75*
G03*
X5579811Y-10871196I-20000J0D01*
G01*
X3374013Y-10955913D02*
X3374013Y-10913487D01*
X3331587Y-10913487D01*
X3331587Y-10955913D01*
X3374013Y-10955913D01*
X3382800Y-10969700D02*
X3382800Y-10899700D01*
X3322800Y-10899700D02*
G75*
G02*
X3382800Y-10899700I30000J0D01*
G01*
X3322800Y-10899700D02*
X3322800Y-10969700D01*
X3322800Y-10969700D02*
G75*
G03*
X3382800Y-10969700I30000J0D01*
G01*
X4238011Y-10955913D02*
X4238011Y-10913487D01*
X4195585Y-10913487D01*
X4195585Y-10955913D01*
X4238011Y-10955913D01*
X4246798Y-10969700D02*
X4246798Y-10899700D01*
X4186798Y-10899700D02*
G75*
G02*
X4246798Y-10899700I30000J0D01*
G01*
X4186798Y-10899700D02*
X4186798Y-10969700D01*
X4186798Y-10969700D02*
G75*
G03*
X4246798Y-10969700I30000J0D01*
G01*
D12*
X4013200Y-13590699D02*
X4065699Y-13538199D01*
X4013200Y-13485700D01*
X3960701Y-13538199D01*
X4013200Y-13590699D01*
X4013200Y-13844699D02*
X4065699Y-13792200D01*
X4013200Y-13739701D01*
X3960701Y-13792200D01*
X4013200Y-13844699D01*
X4013200Y-14098700D02*
X4065699Y-14046200D01*
X4013200Y-13993701D01*
X3960701Y-14046200D01*
X4013200Y-14098700D01*
X4267201Y-13590699D02*
X4319700Y-13538199D01*
X4267201Y-13485700D01*
X4214701Y-13538199D01*
X4267201Y-13590699D01*
X4267201Y-13844699D02*
X4319700Y-13792200D01*
X4267201Y-13739701D01*
X4214701Y-13792200D01*
X4267201Y-13844699D01*
X4267201Y-14098700D02*
X4319700Y-14046200D01*
X4267201Y-13993701D01*
X4214701Y-14046200D01*
X4267201Y-14098700D01*
X6121399Y-13819299D02*
X6173899Y-13766800D01*
X6121399Y-13714300D01*
X6068900Y-13766800D01*
X6121399Y-13819299D01*
X6121399Y-14073300D02*
X6173899Y-14020800D01*
X6121399Y-13968301D01*
X6068900Y-14020800D01*
X6121399Y-14073300D01*
X6375400Y-13819299D02*
X6427899Y-13766800D01*
X6375400Y-13714300D01*
X6322901Y-13766800D01*
X6375400Y-13819299D01*
X6375400Y-14073300D02*
X6427899Y-14020800D01*
X6375400Y-13968301D01*
X6322901Y-14020800D01*
X6375400Y-14073300D01*
X6629400Y-13819299D02*
X6681900Y-13766800D01*
X6629400Y-13714300D01*
X6576901Y-13766800D01*
X6629400Y-13819299D01*
X6629400Y-14073300D02*
X6681900Y-14020800D01*
X6629400Y-13968301D01*
X6576901Y-14020800D01*
X6629400Y-14073300D01*
D13*
X4609505Y-15663001D02*
X4719507Y-15773003D01*
X4719507Y-15663001D02*
X4609505Y-15773003D01*
X4719507Y-15718002D02*
G75*
G02*
X4609505Y-15718002I-55001J0D01*
G01*
X4609505Y-15718002D02*
G75*
G02*
X4719507Y-15718002I55001J0D01*
G01*
X4748011Y-15946999D02*
X4858014Y-16057001D01*
X4858014Y-15946999D02*
X4748011Y-16057001D01*
X4858014Y-16002000D02*
G75*
G02*
X4748011Y-16002000I-55001J0D01*
G01*
X4748011Y-16002000D02*
G75*
G02*
X4858014Y-16002000I55001J0D01*
G01*
X4886518Y-15663001D02*
X4996520Y-15773003D01*
X4996520Y-15663001D02*
X4886518Y-15773003D01*
X4996520Y-15718002D02*
G75*
G02*
X4886518Y-15718002I-55001J0D01*
G01*
X4886518Y-15718002D02*
G75*
G02*
X4996520Y-15718002I55001J0D01*
G01*
X5024999Y-15946999D02*
X5135001Y-16057001D01*
X5135001Y-15946999D02*
X5024999Y-16057001D01*
X5135001Y-16002000D02*
G75*
G02*
X5024999Y-16002000I-55001J0D01*
G01*
X5024999Y-16002000D02*
G75*
G02*
X5135001Y-16002000I55001J0D01*
G01*
X5163505Y-15663001D02*
X5273508Y-15773003D01*
X5273508Y-15663001D02*
X5163505Y-15773003D01*
X5273508Y-15718002D02*
G75*
G02*
X5163505Y-15718002I-55001J0D01*
G01*
X5163505Y-15718002D02*
G75*
G02*
X5273508Y-15718002I55001J0D01*
G01*
X5302012Y-15946999D02*
X5412014Y-16057001D01*
X5412014Y-15946999D02*
X5302012Y-16057001D01*
X5412014Y-16002000D02*
G75*
G02*
X5302012Y-16002000I-55001J0D01*
G01*
X5302012Y-16002000D02*
G75*
G02*
X5412014Y-16002000I55001J0D01*
G01*
X5440493Y-15663001D02*
X5550495Y-15773003D01*
X5550495Y-15663001D02*
X5440493Y-15773003D01*
X5550495Y-15718002D02*
G75*
G02*
X5440493Y-15718002I-55001J0D01*
G01*
X5440493Y-15718002D02*
G75*
G02*
X5550495Y-15718002I55001J0D01*
G01*
X5578999Y-15946999D02*
X5689002Y-16057001D01*
X5689002Y-15946999D02*
X5578999Y-16057001D01*
X5689002Y-16002000D02*
G75*
G02*
X5578999Y-16002000I-55001J0D01*
G01*
X5578999Y-16002000D02*
G75*
G02*
X5689002Y-16002000I55001J0D01*
G01*
X5717506Y-15663001D02*
X5827508Y-15773003D01*
X5827508Y-15663001D02*
X5717506Y-15773003D01*
X5827508Y-15718002D02*
G75*
G02*
X5717506Y-15718002I-55001J0D01*
G01*
X5717506Y-15718002D02*
G75*
G02*
X5827508Y-15718002I55001J0D01*
G01*
X5856012Y-15946999D02*
X5966015Y-16057001D01*
X5966015Y-15946999D02*
X5856012Y-16057001D01*
X5966015Y-16002000D02*
G75*
G02*
X5856012Y-16002000I-55001J0D01*
G01*
X5856012Y-16002000D02*
G75*
G02*
X5966015Y-16002000I55001J0D01*
G01*
X5994493Y-15663001D02*
X6104496Y-15773003D01*
X6104496Y-15663001D02*
X5994493Y-15773003D01*
X6104496Y-15718002D02*
G75*
G02*
X5994493Y-15718002I-55001J0D01*
G01*
X5994493Y-15718002D02*
G75*
G02*
X6104496Y-15718002I55001J0D01*
G01*
X6133000Y-15946999D02*
X6243002Y-16057001D01*
X6243002Y-15946999D02*
X6133000Y-16057001D01*
X6243002Y-16002000D02*
G75*
G02*
X6133000Y-16002000I-55001J0D01*
G01*
X6133000Y-16002000D02*
G75*
G02*
X6243002Y-16002000I55001J0D01*
G01*
X6271506Y-15663001D02*
X6381509Y-15773003D01*
X6381509Y-15663001D02*
X6271506Y-15773003D01*
X6381509Y-15718002D02*
G75*
G02*
X6271506Y-15718002I-55001J0D01*
G01*
X6271506Y-15718002D02*
G75*
G02*
X6381509Y-15718002I55001J0D01*
G01*
X6410013Y-15946999D02*
X6520015Y-16057001D01*
X6520015Y-15946999D02*
X6410013Y-16057001D01*
X6520015Y-16002000D02*
G75*
G02*
X6410013Y-16002000I-55001J0D01*
G01*
X6410013Y-16002000D02*
G75*
G02*
X6520015Y-16002000I55001J0D01*
G01*
X6548519Y-15663001D02*
X6658522Y-15773003D01*
X6658522Y-15663001D02*
X6548519Y-15773003D01*
X6658522Y-15718002D02*
G75*
G02*
X6548519Y-15718002I-55001J0D01*
G01*
X6548519Y-15718002D02*
G75*
G02*
X6658522Y-15718002I55001J0D01*
G01*
X6687000Y-15946999D02*
X6797003Y-16057001D01*
X6797003Y-15946999D02*
X6687000Y-16057001D01*
X6797003Y-16002000D02*
G75*
G02*
X6687000Y-16002000I-55001J0D01*
G01*
X6687000Y-16002000D02*
G75*
G02*
X6797003Y-16002000I55001J0D01*
G01*
X6825507Y-15663001D02*
X6935509Y-15773003D01*
X6935509Y-15663001D02*
X6825507Y-15773003D01*
X6935509Y-15718002D02*
G75*
G02*
X6825507Y-15718002I-55001J0D01*
G01*
X6825507Y-15718002D02*
G75*
G02*
X6935509Y-15718002I55001J0D01*
G01*
X6964013Y-15946999D02*
X7074016Y-16057001D01*
X7074016Y-15946999D02*
X6964013Y-16057001D01*
X7074016Y-16002000D02*
G75*
G02*
X6964013Y-16002000I-55001J0D01*
G01*
X6964013Y-16002000D02*
G75*
G02*
X7074016Y-16002000I55001J0D01*
G01*
X7102494Y-15663001D02*
X7212497Y-15773003D01*
X7212497Y-15663001D02*
X7102494Y-15773003D01*
X7212497Y-15718002D02*
G75*
G02*
X7102494Y-15718002I-55001J0D01*
G01*
X7102494Y-15718002D02*
G75*
G02*
X7212497Y-15718002I55001J0D01*
G01*
X7241001Y-15946999D02*
X7351003Y-16057001D01*
X7351003Y-15946999D02*
X7241001Y-16057001D01*
X7351003Y-16002000D02*
G75*
G02*
X7241001Y-16002000I-55001J0D01*
G01*
X7241001Y-16002000D02*
G75*
G02*
X7351003Y-16002000I55001J0D01*
G01*
X7379507Y-15663001D02*
X7489510Y-15773003D01*
X7489510Y-15663001D02*
X7379507Y-15773003D01*
X7489510Y-15718002D02*
G75*
G02*
X7379507Y-15718002I-55001J0D01*
G01*
X7379507Y-15718002D02*
G75*
G02*
X7489510Y-15718002I55001J0D01*
G01*
X7518014Y-15946999D02*
X7628016Y-16057001D01*
X7628016Y-15946999D02*
X7518014Y-16057001D01*
X7628016Y-16002000D02*
G75*
G02*
X7518014Y-16002000I-55001J0D01*
G01*
X7518014Y-16002000D02*
G75*
G02*
X7628016Y-16002000I55001J0D01*
G01*
X7656495Y-15663001D02*
X7766497Y-15773003D01*
X7766497Y-15663001D02*
X7656495Y-15773003D01*
X7766497Y-15718002D02*
G75*
G02*
X7656495Y-15718002I-55001J0D01*
G01*
X7656495Y-15718002D02*
G75*
G02*
X7766497Y-15718002I55001J0D01*
G01*
X7795001Y-15946999D02*
X7905004Y-16057001D01*
X7905004Y-15946999D02*
X7795001Y-16057001D01*
X7905004Y-16002000D02*
G75*
G02*
X7795001Y-16002000I-55001J0D01*
G01*
X7795001Y-16002000D02*
G75*
G02*
X7905004Y-16002000I55001J0D01*
G01*
X7933508Y-15663001D02*
X8043510Y-15773003D01*
X8043510Y-15663001D02*
X7933508Y-15773003D01*
X8043510Y-15718002D02*
G75*
G02*
X7933508Y-15718002I-55001J0D01*
G01*
X7933508Y-15718002D02*
G75*
G02*
X8043510Y-15718002I55001J0D01*
G01*
X9395945Y-11714248D02*
X9505948Y-11824250D01*
X9505948Y-11714248D02*
X9395945Y-11824250D01*
X9505948Y-11769249D02*
G75*
G02*
X9395945Y-11769249I-55001J0D01*
G01*
X9395945Y-11769249D02*
G75*
G02*
X9505948Y-11769249I55001J0D01*
G01*
X9534426Y-11430250D02*
X9644429Y-11540252D01*
X9644429Y-11430250D02*
X9534426Y-11540252D01*
X9644429Y-11485251D02*
G75*
G02*
X9534426Y-11485251I-55001J0D01*
G01*
X9534426Y-11485251D02*
G75*
G02*
X9644429Y-11485251I55001J0D01*
G01*
X9672958Y-11714248D02*
X9782961Y-11824250D01*
X9782961Y-11714248D02*
X9672958Y-11824250D01*
X9782961Y-11769249D02*
G75*
G02*
X9672958Y-11769249I-55001J0D01*
G01*
X9672958Y-11769249D02*
G75*
G02*
X9782961Y-11769249I55001J0D01*
G01*
X9811439Y-11430250D02*
X9921442Y-11540252D01*
X9921442Y-11430250D02*
X9811439Y-11540252D01*
X9921442Y-11485251D02*
G75*
G02*
X9811439Y-11485251I-55001J0D01*
G01*
X9811439Y-11485251D02*
G75*
G02*
X9921442Y-11485251I55001J0D01*
G01*
X9949946Y-11714248D02*
X10059948Y-11824250D01*
X10059948Y-11714248D02*
X9949946Y-11824250D01*
X10059948Y-11769249D02*
G75*
G02*
X9949946Y-11769249I-55001J0D01*
G01*
X9949946Y-11769249D02*
G75*
G02*
X10059948Y-11769249I55001J0D01*
G01*
X10088427Y-11430250D02*
X10198429Y-11540252D01*
X10198429Y-11430250D02*
X10088427Y-11540252D01*
X10198429Y-11485251D02*
G75*
G02*
X10088427Y-11485251I-55001J0D01*
G01*
X10088427Y-11485251D02*
G75*
G02*
X10198429Y-11485251I55001J0D01*
G01*
X10226959Y-11714248D02*
X10336961Y-11824250D01*
X10336961Y-11714248D02*
X10226959Y-11824250D01*
X10336961Y-11769249D02*
G75*
G02*
X10226959Y-11769249I-55001J0D01*
G01*
X10226959Y-11769249D02*
G75*
G02*
X10336961Y-11769249I55001J0D01*
G01*
X10365440Y-11430250D02*
X10475442Y-11540252D01*
X10475442Y-11430250D02*
X10365440Y-11540252D01*
X10475442Y-11485251D02*
G75*
G02*
X10365440Y-11485251I-55001J0D01*
G01*
X10365440Y-11485251D02*
G75*
G02*
X10475442Y-11485251I55001J0D01*
G01*
X10503946Y-11714248D02*
X10613949Y-11824250D01*
X10613949Y-11714248D02*
X10503946Y-11824250D01*
X10613949Y-11769249D02*
G75*
G02*
X10503946Y-11769249I-55001J0D01*
G01*
X10503946Y-11769249D02*
G75*
G02*
X10613949Y-11769249I55001J0D01*
G01*
X12887518Y-11709797D02*
X12997520Y-11819799D01*
X12997520Y-11709797D02*
X12887518Y-11819799D01*
X12997520Y-11764798D02*
G75*
G02*
X12887518Y-11764798I-55001J0D01*
G01*
X12887518Y-11764798D02*
G75*
G02*
X12997520Y-11764798I55001J0D01*
G01*
X13025999Y-11425799D02*
X13136001Y-11535801D01*
X13136001Y-11425799D02*
X13025999Y-11535801D01*
X13136001Y-11480800D02*
G75*
G02*
X13025999Y-11480800I-55001J0D01*
G01*
X13025999Y-11480800D02*
G75*
G02*
X13136001Y-11480800I55001J0D01*
G01*
X13164531Y-11709797D02*
X13274533Y-11819799D01*
X13274533Y-11709797D02*
X13164531Y-11819799D01*
X13274533Y-11764798D02*
G75*
G02*
X13164531Y-11764798I-55001J0D01*
G01*
X13164531Y-11764798D02*
G75*
G02*
X13274533Y-11764798I55001J0D01*
G01*
X13303012Y-11425799D02*
X13413014Y-11535801D01*
X13413014Y-11425799D02*
X13303012Y-11535801D01*
X13413014Y-11480800D02*
G75*
G02*
X13303012Y-11480800I-55001J0D01*
G01*
X13303012Y-11480800D02*
G75*
G02*
X13413014Y-11480800I55001J0D01*
G01*
X13441518Y-11709797D02*
X13551521Y-11819799D01*
X13551521Y-11709797D02*
X13441518Y-11819799D01*
X13551521Y-11764798D02*
G75*
G02*
X13441518Y-11764798I-55001J0D01*
G01*
X13441518Y-11764798D02*
G75*
G02*
X13551521Y-11764798I55001J0D01*
G01*
X13579999Y-11425799D02*
X13690002Y-11535801D01*
X13690002Y-11425799D02*
X13579999Y-11535801D01*
X13690002Y-11480800D02*
G75*
G02*
X13579999Y-11480800I-55001J0D01*
G01*
X13579999Y-11480800D02*
G75*
G02*
X13690002Y-11480800I55001J0D01*
G01*
X13718531Y-11709797D02*
X13828534Y-11819799D01*
X13828534Y-11709797D02*
X13718531Y-11819799D01*
X13828534Y-11764798D02*
G75*
G02*
X13718531Y-11764798I-55001J0D01*
G01*
X13718531Y-11764798D02*
G75*
G02*
X13828534Y-11764798I55001J0D01*
G01*
X13857012Y-11425799D02*
X13967015Y-11535801D01*
X13967015Y-11425799D02*
X13857012Y-11535801D01*
X13967015Y-11480800D02*
G75*
G02*
X13857012Y-11480800I-55001J0D01*
G01*
X13857012Y-11480800D02*
G75*
G02*
X13967015Y-11480800I55001J0D01*
G01*
X13995519Y-11709797D02*
X14105521Y-11819799D01*
X14105521Y-11709797D02*
X13995519Y-11819799D01*
X14105521Y-11764798D02*
G75*
G02*
X13995519Y-11764798I-55001J0D01*
G01*
X13995519Y-11764798D02*
G75*
G02*
X14105521Y-11764798I55001J0D01*
G01*
D14*
X9576998Y-15998198D02*
X9727000Y-16148200D01*
X9727000Y-15998198D02*
X9576998Y-16148200D01*
X9651999Y-15998198D02*
X9651999Y-16148200D01*
X9576998Y-16073199D02*
X9727000Y-16073199D01*
X10084999Y-15998198D02*
X10235001Y-16148200D01*
X10235001Y-15998198D02*
X10084999Y-16148200D01*
X10160000Y-15998198D02*
X10160000Y-16148200D01*
X10084999Y-16073199D02*
X10235001Y-16073199D01*
X10593000Y-15998198D02*
X10743002Y-16148200D01*
X10743002Y-15998198D02*
X10593000Y-16148200D01*
X10668001Y-15998198D02*
X10668001Y-16148200D01*
X10593000Y-16073199D02*
X10743002Y-16073199D01*
X11100998Y-15998198D02*
X11251000Y-16148200D01*
X11251000Y-15998198D02*
X11100998Y-16148200D01*
X11175999Y-15998198D02*
X11175999Y-16148200D01*
X11100998Y-16073199D02*
X11251000Y-16073199D01*
X11608999Y-15998198D02*
X11759001Y-16148200D01*
X11759001Y-15998198D02*
X11608999Y-16148200D01*
X11684000Y-15998198D02*
X11684000Y-16148200D01*
X11608999Y-16073199D02*
X11759001Y-16073199D01*
X12117000Y-15998198D02*
X12267002Y-16148200D01*
X12267002Y-15998198D02*
X12117000Y-16148200D01*
X12192001Y-15998198D02*
X12192001Y-16148200D01*
X12117000Y-16073199D02*
X12267002Y-16073199D01*
X12624998Y-15998198D02*
X12775000Y-16148200D01*
X12775000Y-15998198D02*
X12624998Y-16148200D01*
X12699999Y-15998198D02*
X12699999Y-16148200D01*
X12624998Y-16073199D02*
X12775000Y-16073199D01*
X13132999Y-15998198D02*
X13283001Y-16148200D01*
X13283001Y-15998198D02*
X13132999Y-16148200D01*
X13208000Y-15998198D02*
X13208000Y-16148200D01*
X13132999Y-16073199D02*
X13283001Y-16073199D01*
X13641000Y-15998198D02*
X13791002Y-16148200D01*
X13791002Y-15998198D02*
X13641000Y-16148200D01*
X13716001Y-15998198D02*
X13716001Y-16148200D01*
X13641000Y-16073199D02*
X13791002Y-16073199D01*
X14148998Y-15998198D02*
X14299000Y-16148200D01*
X14299000Y-15998198D02*
X14148998Y-16148200D01*
X14223999Y-15998198D02*
X14223999Y-16148200D01*
X14148998Y-16073199D02*
X14299000Y-16073199D01*
X14656999Y-15998198D02*
X14807001Y-16148200D01*
X14807001Y-15998198D02*
X14656999Y-16148200D01*
X14732000Y-15998198D02*
X14732000Y-16148200D01*
X14656999Y-16073199D02*
X14807001Y-16073199D01*
X15165000Y-15998198D02*
X15315002Y-16148200D01*
X15315002Y-15998198D02*
X15165000Y-16148200D01*
X15240001Y-15998198D02*
X15240001Y-16148200D01*
X15165000Y-16073199D02*
X15315002Y-16073199D01*
D15*
X3814514Y-15700014D02*
X4134514Y-16020014D01*
X4134514Y-15700014D02*
X3814514Y-16020014D01*
X4087652Y-15973152D02*
X4087652Y-15746875D01*
X3861375Y-15746875D01*
X3861375Y-15973152D01*
X4087652Y-15973152D01*
X8518501Y-15700014D02*
X8838501Y-16020014D01*
X8838501Y-15700014D02*
X8518501Y-16020014D01*
X8791640Y-15973152D02*
X8791640Y-15746875D01*
X8565363Y-15746875D01*
X8565363Y-15973152D01*
X8791640Y-15973152D01*
X8594960Y-11467237D02*
X8914960Y-11787237D01*
X8914960Y-11467237D02*
X8594960Y-11787237D01*
X8868098Y-11740375D02*
X8868098Y-11514099D01*
X8641822Y-11514099D01*
X8641822Y-11740375D01*
X8868098Y-11740375D01*
X11094960Y-11467237D02*
X11414960Y-11787237D01*
X11414960Y-11467237D02*
X11094960Y-11787237D01*
X11368098Y-11740375D02*
X11368098Y-11514099D01*
X11141822Y-11514099D01*
X11141822Y-11740375D01*
X11368098Y-11740375D01*
X12086532Y-11462786D02*
X12406532Y-11782786D01*
X12406532Y-11462786D02*
X12086532Y-11782786D01*
X12359670Y-11735924D02*
X12359670Y-11509648D01*
X12133394Y-11509648D01*
X12133394Y-11735924D01*
X12359670Y-11735924D01*
X14586532Y-11462786D02*
X14906532Y-11782786D01*
X14906532Y-11462786D02*
X14586532Y-11782786D01*
X14859670Y-11735924D02*
X14859670Y-11509648D01*
X14633394Y-11509648D01*
X14633394Y-11735924D01*
X14859670Y-11735924D01*
D11*
X2790777Y-17148984D02*
X2790777Y-16948984D01*
X2790777Y-16948984D02*
X2838396Y-16948984D01*
X2838396Y-16948984D02*
X2866967Y-16958508D01*
X2866967Y-16958508D02*
X2886015Y-16977555D01*
X2886015Y-16977555D02*
X2895539Y-16996603D01*
X2895539Y-16996603D02*
X2905062Y-17034698D01*
X2905062Y-17034698D02*
X2905062Y-17063270D01*
X2905062Y-17063270D02*
X2895539Y-17101365D01*
X2895539Y-17101365D02*
X2886015Y-17120412D01*
X2886015Y-17120412D02*
X2866967Y-17139460D01*
X2866967Y-17139460D02*
X2838396Y-17148984D01*
X2838396Y-17148984D02*
X2790777Y-17148984D01*
X2990777Y-17148984D02*
X2990777Y-17015650D01*
X2990777Y-17053746D02*
X3000301Y-17034698D01*
X3000301Y-17034698D02*
X3009824Y-17025174D01*
X3009824Y-17025174D02*
X3028872Y-17015650D01*
X3028872Y-17015650D02*
X3047920Y-17015650D01*
X3114586Y-17148984D02*
X3114586Y-17015650D01*
X3114586Y-16948984D02*
X3105062Y-16958508D01*
X3105062Y-16958508D02*
X3114586Y-16968031D01*
X3114586Y-16968031D02*
X3124110Y-16958508D01*
X3124110Y-16958508D02*
X3114586Y-16948984D01*
X3114586Y-16948984D02*
X3114586Y-16968031D01*
X3238396Y-17148984D02*
X3219348Y-17139460D01*
X3219348Y-17139460D02*
X3209824Y-17120412D01*
X3209824Y-17120412D02*
X3209824Y-16948984D01*
X3343158Y-17148984D02*
X3324110Y-17139460D01*
X3324110Y-17139460D02*
X3314586Y-17120412D01*
X3314586Y-17120412D02*
X3314586Y-16948984D01*
X3571729Y-17148984D02*
X3571729Y-16948984D01*
X3571729Y-16948984D02*
X3638396Y-17091841D01*
X3638396Y-17091841D02*
X3705062Y-16948984D01*
X3705062Y-16948984D02*
X3705062Y-17148984D01*
X3886015Y-17148984D02*
X3886015Y-17044222D01*
X3886015Y-17044222D02*
X3876491Y-17025174D01*
X3876491Y-17025174D02*
X3857443Y-17015650D01*
X3857443Y-17015650D02*
X3819348Y-17015650D01*
X3819348Y-17015650D02*
X3800301Y-17025174D01*
X3886015Y-17139460D02*
X3866967Y-17148984D01*
X3866967Y-17148984D02*
X3819348Y-17148984D01*
X3819348Y-17148984D02*
X3800301Y-17139460D01*
X3800301Y-17139460D02*
X3790777Y-17120412D01*
X3790777Y-17120412D02*
X3790777Y-17101365D01*
X3790777Y-17101365D02*
X3800301Y-17082317D01*
X3800301Y-17082317D02*
X3819348Y-17072793D01*
X3819348Y-17072793D02*
X3866967Y-17072793D01*
X3866967Y-17072793D02*
X3886015Y-17063270D01*
X3981253Y-17015650D02*
X3981253Y-17215650D01*
X3981253Y-17025174D02*
X4000301Y-17015650D01*
X4000301Y-17015650D02*
X4038396Y-17015650D01*
X4038396Y-17015650D02*
X4057443Y-17025174D01*
X4057443Y-17025174D02*
X4066967Y-17034698D01*
X4066967Y-17034698D02*
X4076491Y-17053746D01*
X4076491Y-17053746D02*
X4076491Y-17110889D01*
X4076491Y-17110889D02*
X4066967Y-17129936D01*
X4066967Y-17129936D02*
X4057443Y-17139460D01*
X4057443Y-17139460D02*
X4038396Y-17148984D01*
X4038396Y-17148984D02*
X4000301Y-17148984D01*
X4000301Y-17148984D02*
X3981253Y-17139460D01*
X4162205Y-17129936D02*
X4171729Y-17139460D01*
X4171729Y-17139460D02*
X4162205Y-17148984D01*
X4162205Y-17148984D02*
X4152682Y-17139460D01*
X4152682Y-17139460D02*
X4162205Y-17129936D01*
X4162205Y-17129936D02*
X4162205Y-17148984D01*
X4162205Y-17025174D02*
X4171729Y-17034698D01*
X4171729Y-17034698D02*
X4162205Y-17044222D01*
X4162205Y-17044222D02*
X4152682Y-17034698D01*
X4152682Y-17034698D02*
X4162205Y-17025174D01*
X4162205Y-17025174D02*
X4162205Y-17044222D01*
D10*
X2510000Y-17467500D02*
X2530000Y-17487500D01*
X2530000Y-17467500D02*
X2510000Y-17487500D01*
D11*
X2828872Y-17368984D02*
X2847920Y-17368984D01*
X2847920Y-17368984D02*
X2866967Y-17378508D01*
X2866967Y-17378508D02*
X2876491Y-17388031D01*
X2876491Y-17388031D02*
X2886015Y-17407079D01*
X2886015Y-17407079D02*
X2895539Y-17445174D01*
X2895539Y-17445174D02*
X2895539Y-17492793D01*
X2895539Y-17492793D02*
X2886015Y-17530889D01*
X2886015Y-17530889D02*
X2876491Y-17549936D01*
X2876491Y-17549936D02*
X2866967Y-17559460D01*
X2866967Y-17559460D02*
X2847920Y-17568984D01*
X2847920Y-17568984D02*
X2828872Y-17568984D01*
X2828872Y-17568984D02*
X2809824Y-17559460D01*
X2809824Y-17559460D02*
X2800301Y-17549936D01*
X2800301Y-17549936D02*
X2790777Y-17530889D01*
X2790777Y-17530889D02*
X2781253Y-17492793D01*
X2781253Y-17492793D02*
X2781253Y-17445174D01*
X2781253Y-17445174D02*
X2790777Y-17407079D01*
X2790777Y-17407079D02*
X2800301Y-17388031D01*
X2800301Y-17388031D02*
X2809824Y-17378508D01*
X2809824Y-17378508D02*
X2828872Y-17368984D01*
X2981253Y-17549936D02*
X2990777Y-17559460D01*
X2990777Y-17559460D02*
X2981253Y-17568984D01*
X2981253Y-17568984D02*
X2971729Y-17559460D01*
X2971729Y-17559460D02*
X2981253Y-17549936D01*
X2981253Y-17549936D02*
X2981253Y-17568984D01*
X3066967Y-17388031D02*
X3076491Y-17378508D01*
X3076491Y-17378508D02*
X3095539Y-17368984D01*
X3095539Y-17368984D02*
X3143158Y-17368984D01*
X3143158Y-17368984D02*
X3162205Y-17378508D01*
X3162205Y-17378508D02*
X3171729Y-17388031D01*
X3171729Y-17388031D02*
X3181253Y-17407079D01*
X3181253Y-17407079D02*
X3181253Y-17426127D01*
X3181253Y-17426127D02*
X3171729Y-17454698D01*
X3171729Y-17454698D02*
X3057443Y-17568984D01*
X3057443Y-17568984D02*
X3181253Y-17568984D01*
X3305062Y-17368984D02*
X3324110Y-17368984D01*
X3324110Y-17368984D02*
X3343158Y-17378508D01*
X3343158Y-17378508D02*
X3352682Y-17388031D01*
X3352682Y-17388031D02*
X3362205Y-17407079D01*
X3362205Y-17407079D02*
X3371729Y-17445174D01*
X3371729Y-17445174D02*
X3371729Y-17492793D01*
X3371729Y-17492793D02*
X3362205Y-17530889D01*
X3362205Y-17530889D02*
X3352682Y-17549936D01*
X3352682Y-17549936D02*
X3343158Y-17559460D01*
X3343158Y-17559460D02*
X3324110Y-17568984D01*
X3324110Y-17568984D02*
X3305062Y-17568984D01*
X3305062Y-17568984D02*
X3286015Y-17559460D01*
X3286015Y-17559460D02*
X3276491Y-17549936D01*
X3276491Y-17549936D02*
X3266967Y-17530889D01*
X3266967Y-17530889D02*
X3257443Y-17492793D01*
X3257443Y-17492793D02*
X3257443Y-17445174D01*
X3257443Y-17445174D02*
X3266967Y-17407079D01*
X3266967Y-17407079D02*
X3276491Y-17388031D01*
X3276491Y-17388031D02*
X3286015Y-17378508D01*
X3286015Y-17378508D02*
X3305062Y-17368984D01*
X3495539Y-17368984D02*
X3514586Y-17368984D01*
X3514586Y-17368984D02*
X3533634Y-17378508D01*
X3533634Y-17378508D02*
X3543158Y-17388031D01*
X3543158Y-17388031D02*
X3552682Y-17407079D01*
X3552682Y-17407079D02*
X3562205Y-17445174D01*
X3562205Y-17445174D02*
X3562205Y-17492793D01*
X3562205Y-17492793D02*
X3552682Y-17530889D01*
X3552682Y-17530889D02*
X3543158Y-17549936D01*
X3543158Y-17549936D02*
X3533634Y-17559460D01*
X3533634Y-17559460D02*
X3514586Y-17568984D01*
X3514586Y-17568984D02*
X3495539Y-17568984D01*
X3495539Y-17568984D02*
X3476491Y-17559460D01*
X3476491Y-17559460D02*
X3466967Y-17549936D01*
X3466967Y-17549936D02*
X3457443Y-17530889D01*
X3457443Y-17530889D02*
X3447920Y-17492793D01*
X3447920Y-17492793D02*
X3447920Y-17445174D01*
X3447920Y-17445174D02*
X3457443Y-17407079D01*
X3457443Y-17407079D02*
X3466967Y-17388031D01*
X3466967Y-17388031D02*
X3476491Y-17378508D01*
X3476491Y-17378508D02*
X3495539Y-17368984D01*
X3647920Y-17568984D02*
X3647920Y-17435650D01*
X3647920Y-17454698D02*
X3657443Y-17445174D01*
X3657443Y-17445174D02*
X3676491Y-17435650D01*
X3676491Y-17435650D02*
X3705063Y-17435650D01*
X3705063Y-17435650D02*
X3724110Y-17445174D01*
X3724110Y-17445174D02*
X3733634Y-17464222D01*
X3733634Y-17464222D02*
X3733634Y-17568984D01*
X3733634Y-17464222D02*
X3743158Y-17445174D01*
X3743158Y-17445174D02*
X3762205Y-17435650D01*
X3762205Y-17435650D02*
X3790777Y-17435650D01*
X3790777Y-17435650D02*
X3809824Y-17445174D01*
X3809824Y-17445174D02*
X3819348Y-17464222D01*
X3819348Y-17464222D02*
X3819348Y-17568984D01*
X3914586Y-17568984D02*
X3914586Y-17435650D01*
X3914586Y-17454698D02*
X3924110Y-17445174D01*
X3924110Y-17445174D02*
X3943158Y-17435650D01*
X3943158Y-17435650D02*
X3971729Y-17435650D01*
X3971729Y-17435650D02*
X3990777Y-17445174D01*
X3990777Y-17445174D02*
X4000301Y-17464222D01*
X4000301Y-17464222D02*
X4000301Y-17568984D01*
X4000301Y-17464222D02*
X4009824Y-17445174D01*
X4009824Y-17445174D02*
X4028872Y-17435650D01*
X4028872Y-17435650D02*
X4057443Y-17435650D01*
X4057443Y-17435650D02*
X4076491Y-17445174D01*
X4076491Y-17445174D02*
X4086015Y-17464222D01*
X4086015Y-17464222D02*
X4086015Y-17568984D01*
X4476491Y-17359460D02*
X4305063Y-17616603D01*
X4733634Y-17368984D02*
X4752682Y-17368984D01*
X4752682Y-17368984D02*
X4771729Y-17378508D01*
X4771729Y-17378508D02*
X4781253Y-17388031D01*
X4781253Y-17388031D02*
X4790777Y-17407079D01*
X4790777Y-17407079D02*
X4800301Y-17445174D01*
X4800301Y-17445174D02*
X4800301Y-17492793D01*
X4800301Y-17492793D02*
X4790777Y-17530889D01*
X4790777Y-17530889D02*
X4781253Y-17549936D01*
X4781253Y-17549936D02*
X4771729Y-17559460D01*
X4771729Y-17559460D02*
X4752682Y-17568984D01*
X4752682Y-17568984D02*
X4733634Y-17568984D01*
X4733634Y-17568984D02*
X4714587Y-17559460D01*
X4714587Y-17559460D02*
X4705063Y-17549936D01*
X4705063Y-17549936D02*
X4695539Y-17530889D01*
X4695539Y-17530889D02*
X4686015Y-17492793D01*
X4686015Y-17492793D02*
X4686015Y-17445174D01*
X4686015Y-17445174D02*
X4695539Y-17407079D01*
X4695539Y-17407079D02*
X4705063Y-17388031D01*
X4705063Y-17388031D02*
X4714587Y-17378508D01*
X4714587Y-17378508D02*
X4733634Y-17368984D01*
X4886015Y-17549936D02*
X4895539Y-17559460D01*
X4895539Y-17559460D02*
X4886015Y-17568984D01*
X4886015Y-17568984D02*
X4876491Y-17559460D01*
X4876491Y-17559460D02*
X4886015Y-17549936D01*
X4886015Y-17549936D02*
X4886015Y-17568984D01*
X5019348Y-17368984D02*
X5038396Y-17368984D01*
X5038396Y-17368984D02*
X5057444Y-17378508D01*
X5057444Y-17378508D02*
X5066968Y-17388031D01*
X5066968Y-17388031D02*
X5076491Y-17407079D01*
X5076491Y-17407079D02*
X5086015Y-17445174D01*
X5086015Y-17445174D02*
X5086015Y-17492793D01*
X5086015Y-17492793D02*
X5076491Y-17530889D01*
X5076491Y-17530889D02*
X5066968Y-17549936D01*
X5066968Y-17549936D02*
X5057444Y-17559460D01*
X5057444Y-17559460D02*
X5038396Y-17568984D01*
X5038396Y-17568984D02*
X5019348Y-17568984D01*
X5019348Y-17568984D02*
X5000301Y-17559460D01*
X5000301Y-17559460D02*
X4990777Y-17549936D01*
X4990777Y-17549936D02*
X4981253Y-17530889D01*
X4981253Y-17530889D02*
X4971729Y-17492793D01*
X4971729Y-17492793D02*
X4971729Y-17445174D01*
X4971729Y-17445174D02*
X4981253Y-17407079D01*
X4981253Y-17407079D02*
X4990777Y-17388031D01*
X4990777Y-17388031D02*
X5000301Y-17378508D01*
X5000301Y-17378508D02*
X5019348Y-17368984D01*
X5209825Y-17368984D02*
X5228872Y-17368984D01*
X5228872Y-17368984D02*
X5247920Y-17378508D01*
X5247920Y-17378508D02*
X5257444Y-17388031D01*
X5257444Y-17388031D02*
X5266968Y-17407079D01*
X5266968Y-17407079D02*
X5276491Y-17445174D01*
X5276491Y-17445174D02*
X5276491Y-17492793D01*
X5276491Y-17492793D02*
X5266968Y-17530889D01*
X5266968Y-17530889D02*
X5257444Y-17549936D01*
X5257444Y-17549936D02*
X5247920Y-17559460D01*
X5247920Y-17559460D02*
X5228872Y-17568984D01*
X5228872Y-17568984D02*
X5209825Y-17568984D01*
X5209825Y-17568984D02*
X5190777Y-17559460D01*
X5190777Y-17559460D02*
X5181253Y-17549936D01*
X5181253Y-17549936D02*
X5171729Y-17530889D01*
X5171729Y-17530889D02*
X5162206Y-17492793D01*
X5162206Y-17492793D02*
X5162206Y-17445174D01*
X5162206Y-17445174D02*
X5171729Y-17407079D01*
X5171729Y-17407079D02*
X5181253Y-17388031D01*
X5181253Y-17388031D02*
X5190777Y-17378508D01*
X5190777Y-17378508D02*
X5209825Y-17368984D01*
X5343158Y-17368984D02*
X5476491Y-17368984D01*
X5476491Y-17368984D02*
X5390777Y-17568984D01*
X5562206Y-17568984D02*
X5600301Y-17568984D01*
X5600301Y-17568984D02*
X5619348Y-17559460D01*
X5619348Y-17559460D02*
X5628872Y-17549936D01*
X5628872Y-17549936D02*
X5647920Y-17521365D01*
X5647920Y-17521365D02*
X5657444Y-17483270D01*
X5657444Y-17483270D02*
X5657444Y-17407079D01*
X5657444Y-17407079D02*
X5647920Y-17388031D01*
X5647920Y-17388031D02*
X5638396Y-17378508D01*
X5638396Y-17378508D02*
X5619348Y-17368984D01*
X5619348Y-17368984D02*
X5581253Y-17368984D01*
X5581253Y-17368984D02*
X5562206Y-17378508D01*
X5562206Y-17378508D02*
X5552682Y-17388031D01*
X5552682Y-17388031D02*
X5543158Y-17407079D01*
X5543158Y-17407079D02*
X5543158Y-17454698D01*
X5543158Y-17454698D02*
X5552682Y-17473746D01*
X5552682Y-17473746D02*
X5562206Y-17483270D01*
X5562206Y-17483270D02*
X5581253Y-17492793D01*
X5581253Y-17492793D02*
X5619348Y-17492793D01*
X5619348Y-17492793D02*
X5638396Y-17483270D01*
X5638396Y-17483270D02*
X5647920Y-17473746D01*
X5647920Y-17473746D02*
X5657444Y-17454698D01*
X5733634Y-17368984D02*
X5733634Y-17407079D01*
X5809825Y-17368984D02*
X5809825Y-17407079D01*
X6105063Y-17645174D02*
X6095539Y-17635650D01*
X6095539Y-17635650D02*
X6076491Y-17607079D01*
X6076491Y-17607079D02*
X6066968Y-17588031D01*
X6066968Y-17588031D02*
X6057444Y-17559460D01*
X6057444Y-17559460D02*
X6047920Y-17511841D01*
X6047920Y-17511841D02*
X6047920Y-17473746D01*
X6047920Y-17473746D02*
X6057444Y-17426127D01*
X6057444Y-17426127D02*
X6066968Y-17397555D01*
X6066968Y-17397555D02*
X6076491Y-17378508D01*
X6076491Y-17378508D02*
X6095539Y-17349936D01*
X6095539Y-17349936D02*
X6105063Y-17340412D01*
X6266968Y-17435650D02*
X6266968Y-17568984D01*
X6219348Y-17359460D02*
X6171729Y-17502317D01*
X6171729Y-17502317D02*
X6295539Y-17502317D01*
X6476491Y-17568984D02*
X6362206Y-17568984D01*
X6419348Y-17568984D02*
X6419348Y-17368984D01*
X6419348Y-17368984D02*
X6400301Y-17397555D01*
X6400301Y-17397555D02*
X6381253Y-17416603D01*
X6381253Y-17416603D02*
X6362206Y-17426127D01*
X6647920Y-17368984D02*
X6609825Y-17368984D01*
X6609825Y-17368984D02*
X6590777Y-17378508D01*
X6590777Y-17378508D02*
X6581253Y-17388031D01*
X6581253Y-17388031D02*
X6562206Y-17416603D01*
X6562206Y-17416603D02*
X6552682Y-17454698D01*
X6552682Y-17454698D02*
X6552682Y-17530889D01*
X6552682Y-17530889D02*
X6562206Y-17549936D01*
X6562206Y-17549936D02*
X6571729Y-17559460D01*
X6571729Y-17559460D02*
X6590777Y-17568984D01*
X6590777Y-17568984D02*
X6628872Y-17568984D01*
X6628872Y-17568984D02*
X6647920Y-17559460D01*
X6647920Y-17559460D02*
X6657444Y-17549936D01*
X6657444Y-17549936D02*
X6666968Y-17530889D01*
X6666968Y-17530889D02*
X6666968Y-17483270D01*
X6666968Y-17483270D02*
X6657444Y-17464222D01*
X6657444Y-17464222D02*
X6647920Y-17454698D01*
X6647920Y-17454698D02*
X6628872Y-17445174D01*
X6628872Y-17445174D02*
X6590777Y-17445174D01*
X6590777Y-17445174D02*
X6571729Y-17454698D01*
X6571729Y-17454698D02*
X6562206Y-17464222D01*
X6562206Y-17464222D02*
X6552682Y-17483270D01*
X6905063Y-17568984D02*
X6905063Y-17368984D01*
X6990777Y-17568984D02*
X6990777Y-17464222D01*
X6990777Y-17464222D02*
X6981253Y-17445174D01*
X6981253Y-17445174D02*
X6962206Y-17435650D01*
X6962206Y-17435650D02*
X6933634Y-17435650D01*
X6933634Y-17435650D02*
X6914587Y-17445174D01*
X6914587Y-17445174D02*
X6905063Y-17454698D01*
X7114587Y-17568984D02*
X7095539Y-17559460D01*
X7095539Y-17559460D02*
X7086015Y-17549936D01*
X7086015Y-17549936D02*
X7076491Y-17530889D01*
X7076491Y-17530889D02*
X7076491Y-17473746D01*
X7076491Y-17473746D02*
X7086015Y-17454698D01*
X7086015Y-17454698D02*
X7095539Y-17445174D01*
X7095539Y-17445174D02*
X7114587Y-17435650D01*
X7114587Y-17435650D02*
X7143158Y-17435650D01*
X7143158Y-17435650D02*
X7162206Y-17445174D01*
X7162206Y-17445174D02*
X7171730Y-17454698D01*
X7171730Y-17454698D02*
X7181253Y-17473746D01*
X7181253Y-17473746D02*
X7181253Y-17530889D01*
X7181253Y-17530889D02*
X7171730Y-17549936D01*
X7171730Y-17549936D02*
X7162206Y-17559460D01*
X7162206Y-17559460D02*
X7143158Y-17568984D01*
X7143158Y-17568984D02*
X7114587Y-17568984D01*
X7295539Y-17568984D02*
X7276491Y-17559460D01*
X7276491Y-17559460D02*
X7266968Y-17540412D01*
X7266968Y-17540412D02*
X7266968Y-17368984D01*
X7447920Y-17559460D02*
X7428872Y-17568984D01*
X7428872Y-17568984D02*
X7390777Y-17568984D01*
X7390777Y-17568984D02*
X7371730Y-17559460D01*
X7371730Y-17559460D02*
X7362206Y-17540412D01*
X7362206Y-17540412D02*
X7362206Y-17464222D01*
X7362206Y-17464222D02*
X7371730Y-17445174D01*
X7371730Y-17445174D02*
X7390777Y-17435650D01*
X7390777Y-17435650D02*
X7428872Y-17435650D01*
X7428872Y-17435650D02*
X7447920Y-17445174D01*
X7447920Y-17445174D02*
X7457444Y-17464222D01*
X7457444Y-17464222D02*
X7457444Y-17483270D01*
X7457444Y-17483270D02*
X7362206Y-17502317D01*
X7533634Y-17559460D02*
X7552682Y-17568984D01*
X7552682Y-17568984D02*
X7590777Y-17568984D01*
X7590777Y-17568984D02*
X7609825Y-17559460D01*
X7609825Y-17559460D02*
X7619349Y-17540412D01*
X7619349Y-17540412D02*
X7619349Y-17530889D01*
X7619349Y-17530889D02*
X7609825Y-17511841D01*
X7609825Y-17511841D02*
X7590777Y-17502317D01*
X7590777Y-17502317D02*
X7562206Y-17502317D01*
X7562206Y-17502317D02*
X7543158Y-17492793D01*
X7543158Y-17492793D02*
X7533634Y-17473746D01*
X7533634Y-17473746D02*
X7533634Y-17464222D01*
X7533634Y-17464222D02*
X7543158Y-17445174D01*
X7543158Y-17445174D02*
X7562206Y-17435650D01*
X7562206Y-17435650D02*
X7590777Y-17435650D01*
X7590777Y-17435650D02*
X7609825Y-17445174D01*
X7686015Y-17645174D02*
X7695539Y-17635650D01*
X7695539Y-17635650D02*
X7714587Y-17607079D01*
X7714587Y-17607079D02*
X7724111Y-17588031D01*
X7724111Y-17588031D02*
X7733634Y-17559460D01*
X7733634Y-17559460D02*
X7743158Y-17511841D01*
X7743158Y-17511841D02*
X7743158Y-17473746D01*
X7743158Y-17473746D02*
X7733634Y-17426127D01*
X7733634Y-17426127D02*
X7724111Y-17397555D01*
X7724111Y-17397555D02*
X7714587Y-17378508D01*
X7714587Y-17378508D02*
X7695539Y-17349936D01*
X7695539Y-17349936D02*
X7686015Y-17340412D01*
D10*
X2530000Y-17741500D02*
G75*
G02*
X2490000Y-17741500I-20000J0D01*
G01*
X2490000Y-17741500D02*
G75*
G02*
X2530000Y-17741500I20000J0D01*
G01*
D11*
X2828872Y-17632984D02*
X2847920Y-17632984D01*
X2847920Y-17632984D02*
X2866967Y-17642508D01*
X2866967Y-17642508D02*
X2876491Y-17652031D01*
X2876491Y-17652031D02*
X2886015Y-17671079D01*
X2886015Y-17671079D02*
X2895539Y-17709174D01*
X2895539Y-17709174D02*
X2895539Y-17756793D01*
X2895539Y-17756793D02*
X2886015Y-17794889D01*
X2886015Y-17794889D02*
X2876491Y-17813936D01*
X2876491Y-17813936D02*
X2866967Y-17823460D01*
X2866967Y-17823460D02*
X2847920Y-17832984D01*
X2847920Y-17832984D02*
X2828872Y-17832984D01*
X2828872Y-17832984D02*
X2809824Y-17823460D01*
X2809824Y-17823460D02*
X2800301Y-17813936D01*
X2800301Y-17813936D02*
X2790777Y-17794889D01*
X2790777Y-17794889D02*
X2781253Y-17756793D01*
X2781253Y-17756793D02*
X2781253Y-17709174D01*
X2781253Y-17709174D02*
X2790777Y-17671079D01*
X2790777Y-17671079D02*
X2800301Y-17652031D01*
X2800301Y-17652031D02*
X2809824Y-17642508D01*
X2809824Y-17642508D02*
X2828872Y-17632984D01*
X2981253Y-17813936D02*
X2990777Y-17823460D01*
X2990777Y-17823460D02*
X2981253Y-17832984D01*
X2981253Y-17832984D02*
X2971729Y-17823460D01*
X2971729Y-17823460D02*
X2981253Y-17813936D01*
X2981253Y-17813936D02*
X2981253Y-17832984D01*
X3162205Y-17699650D02*
X3162205Y-17832984D01*
X3114586Y-17623460D02*
X3066967Y-17766317D01*
X3066967Y-17766317D02*
X3190777Y-17766317D01*
X3305062Y-17632984D02*
X3324110Y-17632984D01*
X3324110Y-17632984D02*
X3343158Y-17642508D01*
X3343158Y-17642508D02*
X3352682Y-17652031D01*
X3352682Y-17652031D02*
X3362205Y-17671079D01*
X3362205Y-17671079D02*
X3371729Y-17709174D01*
X3371729Y-17709174D02*
X3371729Y-17756793D01*
X3371729Y-17756793D02*
X3362205Y-17794889D01*
X3362205Y-17794889D02*
X3352682Y-17813936D01*
X3352682Y-17813936D02*
X3343158Y-17823460D01*
X3343158Y-17823460D02*
X3324110Y-17832984D01*
X3324110Y-17832984D02*
X3305062Y-17832984D01*
X3305062Y-17832984D02*
X3286015Y-17823460D01*
X3286015Y-17823460D02*
X3276491Y-17813936D01*
X3276491Y-17813936D02*
X3266967Y-17794889D01*
X3266967Y-17794889D02*
X3257443Y-17756793D01*
X3257443Y-17756793D02*
X3257443Y-17709174D01*
X3257443Y-17709174D02*
X3266967Y-17671079D01*
X3266967Y-17671079D02*
X3276491Y-17652031D01*
X3276491Y-17652031D02*
X3286015Y-17642508D01*
X3286015Y-17642508D02*
X3305062Y-17632984D01*
X3495539Y-17632984D02*
X3514586Y-17632984D01*
X3514586Y-17632984D02*
X3533634Y-17642508D01*
X3533634Y-17642508D02*
X3543158Y-17652031D01*
X3543158Y-17652031D02*
X3552682Y-17671079D01*
X3552682Y-17671079D02*
X3562205Y-17709174D01*
X3562205Y-17709174D02*
X3562205Y-17756793D01*
X3562205Y-17756793D02*
X3552682Y-17794889D01*
X3552682Y-17794889D02*
X3543158Y-17813936D01*
X3543158Y-17813936D02*
X3533634Y-17823460D01*
X3533634Y-17823460D02*
X3514586Y-17832984D01*
X3514586Y-17832984D02*
X3495539Y-17832984D01*
X3495539Y-17832984D02*
X3476491Y-17823460D01*
X3476491Y-17823460D02*
X3466967Y-17813936D01*
X3466967Y-17813936D02*
X3457443Y-17794889D01*
X3457443Y-17794889D02*
X3447920Y-17756793D01*
X3447920Y-17756793D02*
X3447920Y-17709174D01*
X3447920Y-17709174D02*
X3457443Y-17671079D01*
X3457443Y-17671079D02*
X3466967Y-17652031D01*
X3466967Y-17652031D02*
X3476491Y-17642508D01*
X3476491Y-17642508D02*
X3495539Y-17632984D01*
X3647920Y-17832984D02*
X3647920Y-17699650D01*
X3647920Y-17718698D02*
X3657443Y-17709174D01*
X3657443Y-17709174D02*
X3676491Y-17699650D01*
X3676491Y-17699650D02*
X3705063Y-17699650D01*
X3705063Y-17699650D02*
X3724110Y-17709174D01*
X3724110Y-17709174D02*
X3733634Y-17728222D01*
X3733634Y-17728222D02*
X3733634Y-17832984D01*
X3733634Y-17728222D02*
X3743158Y-17709174D01*
X3743158Y-17709174D02*
X3762205Y-17699650D01*
X3762205Y-17699650D02*
X3790777Y-17699650D01*
X3790777Y-17699650D02*
X3809824Y-17709174D01*
X3809824Y-17709174D02*
X3819348Y-17728222D01*
X3819348Y-17728222D02*
X3819348Y-17832984D01*
X3914586Y-17832984D02*
X3914586Y-17699650D01*
X3914586Y-17718698D02*
X3924110Y-17709174D01*
X3924110Y-17709174D02*
X3943158Y-17699650D01*
X3943158Y-17699650D02*
X3971729Y-17699650D01*
X3971729Y-17699650D02*
X3990777Y-17709174D01*
X3990777Y-17709174D02*
X4000301Y-17728222D01*
X4000301Y-17728222D02*
X4000301Y-17832984D01*
X4000301Y-17728222D02*
X4009824Y-17709174D01*
X4009824Y-17709174D02*
X4028872Y-17699650D01*
X4028872Y-17699650D02*
X4057443Y-17699650D01*
X4057443Y-17699650D02*
X4076491Y-17709174D01*
X4076491Y-17709174D02*
X4086015Y-17728222D01*
X4086015Y-17728222D02*
X4086015Y-17832984D01*
X4476491Y-17623460D02*
X4305063Y-17880603D01*
X4733634Y-17632984D02*
X4752682Y-17632984D01*
X4752682Y-17632984D02*
X4771729Y-17642508D01*
X4771729Y-17642508D02*
X4781253Y-17652031D01*
X4781253Y-17652031D02*
X4790777Y-17671079D01*
X4790777Y-17671079D02*
X4800301Y-17709174D01*
X4800301Y-17709174D02*
X4800301Y-17756793D01*
X4800301Y-17756793D02*
X4790777Y-17794889D01*
X4790777Y-17794889D02*
X4781253Y-17813936D01*
X4781253Y-17813936D02*
X4771729Y-17823460D01*
X4771729Y-17823460D02*
X4752682Y-17832984D01*
X4752682Y-17832984D02*
X4733634Y-17832984D01*
X4733634Y-17832984D02*
X4714587Y-17823460D01*
X4714587Y-17823460D02*
X4705063Y-17813936D01*
X4705063Y-17813936D02*
X4695539Y-17794889D01*
X4695539Y-17794889D02*
X4686015Y-17756793D01*
X4686015Y-17756793D02*
X4686015Y-17709174D01*
X4686015Y-17709174D02*
X4695539Y-17671079D01*
X4695539Y-17671079D02*
X4705063Y-17652031D01*
X4705063Y-17652031D02*
X4714587Y-17642508D01*
X4714587Y-17642508D02*
X4733634Y-17632984D01*
X4886015Y-17813936D02*
X4895539Y-17823460D01*
X4895539Y-17823460D02*
X4886015Y-17832984D01*
X4886015Y-17832984D02*
X4876491Y-17823460D01*
X4876491Y-17823460D02*
X4886015Y-17813936D01*
X4886015Y-17813936D02*
X4886015Y-17832984D01*
X5019348Y-17632984D02*
X5038396Y-17632984D01*
X5038396Y-17632984D02*
X5057444Y-17642508D01*
X5057444Y-17642508D02*
X5066968Y-17652031D01*
X5066968Y-17652031D02*
X5076491Y-17671079D01*
X5076491Y-17671079D02*
X5086015Y-17709174D01*
X5086015Y-17709174D02*
X5086015Y-17756793D01*
X5086015Y-17756793D02*
X5076491Y-17794889D01*
X5076491Y-17794889D02*
X5066968Y-17813936D01*
X5066968Y-17813936D02*
X5057444Y-17823460D01*
X5057444Y-17823460D02*
X5038396Y-17832984D01*
X5038396Y-17832984D02*
X5019348Y-17832984D01*
X5019348Y-17832984D02*
X5000301Y-17823460D01*
X5000301Y-17823460D02*
X4990777Y-17813936D01*
X4990777Y-17813936D02*
X4981253Y-17794889D01*
X4981253Y-17794889D02*
X4971729Y-17756793D01*
X4971729Y-17756793D02*
X4971729Y-17709174D01*
X4971729Y-17709174D02*
X4981253Y-17671079D01*
X4981253Y-17671079D02*
X4990777Y-17652031D01*
X4990777Y-17652031D02*
X5000301Y-17642508D01*
X5000301Y-17642508D02*
X5019348Y-17632984D01*
X5276491Y-17832984D02*
X5162206Y-17832984D01*
X5219348Y-17832984D02*
X5219348Y-17632984D01*
X5219348Y-17632984D02*
X5200301Y-17661555D01*
X5200301Y-17661555D02*
X5181253Y-17680603D01*
X5181253Y-17680603D02*
X5162206Y-17690127D01*
X5457444Y-17632984D02*
X5362206Y-17632984D01*
X5362206Y-17632984D02*
X5352682Y-17728222D01*
X5352682Y-17728222D02*
X5362206Y-17718698D01*
X5362206Y-17718698D02*
X5381253Y-17709174D01*
X5381253Y-17709174D02*
X5428872Y-17709174D01*
X5428872Y-17709174D02*
X5447920Y-17718698D01*
X5447920Y-17718698D02*
X5457444Y-17728222D01*
X5457444Y-17728222D02*
X5466968Y-17747270D01*
X5466968Y-17747270D02*
X5466968Y-17794889D01*
X5466968Y-17794889D02*
X5457444Y-17813936D01*
X5457444Y-17813936D02*
X5447920Y-17823460D01*
X5447920Y-17823460D02*
X5428872Y-17832984D01*
X5428872Y-17832984D02*
X5381253Y-17832984D01*
X5381253Y-17832984D02*
X5362206Y-17823460D01*
X5362206Y-17823460D02*
X5352682Y-17813936D01*
X5533634Y-17632984D02*
X5666967Y-17632984D01*
X5666967Y-17632984D02*
X5581253Y-17832984D01*
X5733634Y-17632984D02*
X5733634Y-17671079D01*
X5809825Y-17632984D02*
X5809825Y-17671079D01*
X6105063Y-17909174D02*
X6095539Y-17899650D01*
X6095539Y-17899650D02*
X6076491Y-17871079D01*
X6076491Y-17871079D02*
X6066968Y-17852031D01*
X6066968Y-17852031D02*
X6057444Y-17823460D01*
X6057444Y-17823460D02*
X6047920Y-17775841D01*
X6047920Y-17775841D02*
X6047920Y-17737746D01*
X6047920Y-17737746D02*
X6057444Y-17690127D01*
X6057444Y-17690127D02*
X6066968Y-17661555D01*
X6066968Y-17661555D02*
X6076491Y-17642508D01*
X6076491Y-17642508D02*
X6095539Y-17613936D01*
X6095539Y-17613936D02*
X6105063Y-17604412D01*
X6266968Y-17699650D02*
X6266968Y-17832984D01*
X6219348Y-17623460D02*
X6171729Y-17766317D01*
X6171729Y-17766317D02*
X6295539Y-17766317D01*
X6409825Y-17632984D02*
X6428872Y-17632984D01*
X6428872Y-17632984D02*
X6447920Y-17642508D01*
X6447920Y-17642508D02*
X6457444Y-17652031D01*
X6457444Y-17652031D02*
X6466968Y-17671079D01*
X6466968Y-17671079D02*
X6476491Y-17709174D01*
X6476491Y-17709174D02*
X6476491Y-17756793D01*
X6476491Y-17756793D02*
X6466968Y-17794889D01*
X6466968Y-17794889D02*
X6457444Y-17813936D01*
X6457444Y-17813936D02*
X6447920Y-17823460D01*
X6447920Y-17823460D02*
X6428872Y-17832984D01*
X6428872Y-17832984D02*
X6409825Y-17832984D01*
X6409825Y-17832984D02*
X6390777Y-17823460D01*
X6390777Y-17823460D02*
X6381253Y-17813936D01*
X6381253Y-17813936D02*
X6371729Y-17794889D01*
X6371729Y-17794889D02*
X6362206Y-17756793D01*
X6362206Y-17756793D02*
X6362206Y-17709174D01*
X6362206Y-17709174D02*
X6371729Y-17671079D01*
X6371729Y-17671079D02*
X6381253Y-17652031D01*
X6381253Y-17652031D02*
X6390777Y-17642508D01*
X6390777Y-17642508D02*
X6409825Y-17632984D01*
X6714587Y-17832984D02*
X6714587Y-17632984D01*
X6800301Y-17832984D02*
X6800301Y-17728222D01*
X6800301Y-17728222D02*
X6790777Y-17709174D01*
X6790777Y-17709174D02*
X6771730Y-17699650D01*
X6771730Y-17699650D02*
X6743158Y-17699650D01*
X6743158Y-17699650D02*
X6724110Y-17709174D01*
X6724110Y-17709174D02*
X6714587Y-17718698D01*
X6924110Y-17832984D02*
X6905063Y-17823460D01*
X6905063Y-17823460D02*
X6895539Y-17813936D01*
X6895539Y-17813936D02*
X6886015Y-17794889D01*
X6886015Y-17794889D02*
X6886015Y-17737746D01*
X6886015Y-17737746D02*
X6895539Y-17718698D01*
X6895539Y-17718698D02*
X6905063Y-17709174D01*
X6905063Y-17709174D02*
X6924110Y-17699650D01*
X6924110Y-17699650D02*
X6952682Y-17699650D01*
X6952682Y-17699650D02*
X6971730Y-17709174D01*
X6971730Y-17709174D02*
X6981253Y-17718698D01*
X6981253Y-17718698D02*
X6990777Y-17737746D01*
X6990777Y-17737746D02*
X6990777Y-17794889D01*
X6990777Y-17794889D02*
X6981253Y-17813936D01*
X6981253Y-17813936D02*
X6971730Y-17823460D01*
X6971730Y-17823460D02*
X6952682Y-17832984D01*
X6952682Y-17832984D02*
X6924110Y-17832984D01*
X7105063Y-17832984D02*
X7086015Y-17823460D01*
X7086015Y-17823460D02*
X7076491Y-17804412D01*
X7076491Y-17804412D02*
X7076491Y-17632984D01*
X7257444Y-17823460D02*
X7238396Y-17832984D01*
X7238396Y-17832984D02*
X7200301Y-17832984D01*
X7200301Y-17832984D02*
X7181253Y-17823460D01*
X7181253Y-17823460D02*
X7171730Y-17804412D01*
X7171730Y-17804412D02*
X7171730Y-17728222D01*
X7171730Y-17728222D02*
X7181253Y-17709174D01*
X7181253Y-17709174D02*
X7200301Y-17699650D01*
X7200301Y-17699650D02*
X7238396Y-17699650D01*
X7238396Y-17699650D02*
X7257444Y-17709174D01*
X7257444Y-17709174D02*
X7266968Y-17728222D01*
X7266968Y-17728222D02*
X7266968Y-17747270D01*
X7266968Y-17747270D02*
X7171730Y-17766317D01*
X7343158Y-17823460D02*
X7362206Y-17832984D01*
X7362206Y-17832984D02*
X7400301Y-17832984D01*
X7400301Y-17832984D02*
X7419349Y-17823460D01*
X7419349Y-17823460D02*
X7428872Y-17804412D01*
X7428872Y-17804412D02*
X7428872Y-17794889D01*
X7428872Y-17794889D02*
X7419349Y-17775841D01*
X7419349Y-17775841D02*
X7400301Y-17766317D01*
X7400301Y-17766317D02*
X7371730Y-17766317D01*
X7371730Y-17766317D02*
X7352682Y-17756793D01*
X7352682Y-17756793D02*
X7343158Y-17737746D01*
X7343158Y-17737746D02*
X7343158Y-17728222D01*
X7343158Y-17728222D02*
X7352682Y-17709174D01*
X7352682Y-17709174D02*
X7371730Y-17699650D01*
X7371730Y-17699650D02*
X7400301Y-17699650D01*
X7400301Y-17699650D02*
X7419349Y-17709174D01*
X7495539Y-17909174D02*
X7505063Y-17899650D01*
X7505063Y-17899650D02*
X7524111Y-17871079D01*
X7524111Y-17871079D02*
X7533634Y-17852031D01*
X7533634Y-17852031D02*
X7543158Y-17823460D01*
X7543158Y-17823460D02*
X7552682Y-17775841D01*
X7552682Y-17775841D02*
X7552682Y-17737746D01*
X7552682Y-17737746D02*
X7543158Y-17690127D01*
X7543158Y-17690127D02*
X7533634Y-17661555D01*
X7533634Y-17661555D02*
X7524111Y-17642508D01*
X7524111Y-17642508D02*
X7505063Y-17613936D01*
X7505063Y-17613936D02*
X7495539Y-17604412D01*
D10*
X2510000Y-17985500D02*
X2510000Y-18025500D01*
X2490000Y-18005500D02*
X2530000Y-18005500D01*
D11*
X2828872Y-17896984D02*
X2847920Y-17896984D01*
X2847920Y-17896984D02*
X2866967Y-17906508D01*
X2866967Y-17906508D02*
X2876491Y-17916031D01*
X2876491Y-17916031D02*
X2886015Y-17935079D01*
X2886015Y-17935079D02*
X2895539Y-17973174D01*
X2895539Y-17973174D02*
X2895539Y-18020793D01*
X2895539Y-18020793D02*
X2886015Y-18058889D01*
X2886015Y-18058889D02*
X2876491Y-18077936D01*
X2876491Y-18077936D02*
X2866967Y-18087460D01*
X2866967Y-18087460D02*
X2847920Y-18096984D01*
X2847920Y-18096984D02*
X2828872Y-18096984D01*
X2828872Y-18096984D02*
X2809824Y-18087460D01*
X2809824Y-18087460D02*
X2800301Y-18077936D01*
X2800301Y-18077936D02*
X2790777Y-18058889D01*
X2790777Y-18058889D02*
X2781253Y-18020793D01*
X2781253Y-18020793D02*
X2781253Y-17973174D01*
X2781253Y-17973174D02*
X2790777Y-17935079D01*
X2790777Y-17935079D02*
X2800301Y-17916031D01*
X2800301Y-17916031D02*
X2809824Y-17906508D01*
X2809824Y-17906508D02*
X2828872Y-17896984D01*
X2981253Y-18077936D02*
X2990777Y-18087460D01*
X2990777Y-18087460D02*
X2981253Y-18096984D01*
X2981253Y-18096984D02*
X2971729Y-18087460D01*
X2971729Y-18087460D02*
X2981253Y-18077936D01*
X2981253Y-18077936D02*
X2981253Y-18096984D01*
X3162205Y-17963650D02*
X3162205Y-18096984D01*
X3114586Y-17887460D02*
X3066967Y-18030317D01*
X3066967Y-18030317D02*
X3190777Y-18030317D01*
X3305062Y-17896984D02*
X3324110Y-17896984D01*
X3324110Y-17896984D02*
X3343158Y-17906508D01*
X3343158Y-17906508D02*
X3352682Y-17916031D01*
X3352682Y-17916031D02*
X3362205Y-17935079D01*
X3362205Y-17935079D02*
X3371729Y-17973174D01*
X3371729Y-17973174D02*
X3371729Y-18020793D01*
X3371729Y-18020793D02*
X3362205Y-18058889D01*
X3362205Y-18058889D02*
X3352682Y-18077936D01*
X3352682Y-18077936D02*
X3343158Y-18087460D01*
X3343158Y-18087460D02*
X3324110Y-18096984D01*
X3324110Y-18096984D02*
X3305062Y-18096984D01*
X3305062Y-18096984D02*
X3286015Y-18087460D01*
X3286015Y-18087460D02*
X3276491Y-18077936D01*
X3276491Y-18077936D02*
X3266967Y-18058889D01*
X3266967Y-18058889D02*
X3257443Y-18020793D01*
X3257443Y-18020793D02*
X3257443Y-17973174D01*
X3257443Y-17973174D02*
X3266967Y-17935079D01*
X3266967Y-17935079D02*
X3276491Y-17916031D01*
X3276491Y-17916031D02*
X3286015Y-17906508D01*
X3286015Y-17906508D02*
X3305062Y-17896984D01*
X3495539Y-17896984D02*
X3514586Y-17896984D01*
X3514586Y-17896984D02*
X3533634Y-17906508D01*
X3533634Y-17906508D02*
X3543158Y-17916031D01*
X3543158Y-17916031D02*
X3552682Y-17935079D01*
X3552682Y-17935079D02*
X3562205Y-17973174D01*
X3562205Y-17973174D02*
X3562205Y-18020793D01*
X3562205Y-18020793D02*
X3552682Y-18058889D01*
X3552682Y-18058889D02*
X3543158Y-18077936D01*
X3543158Y-18077936D02*
X3533634Y-18087460D01*
X3533634Y-18087460D02*
X3514586Y-18096984D01*
X3514586Y-18096984D02*
X3495539Y-18096984D01*
X3495539Y-18096984D02*
X3476491Y-18087460D01*
X3476491Y-18087460D02*
X3466967Y-18077936D01*
X3466967Y-18077936D02*
X3457443Y-18058889D01*
X3457443Y-18058889D02*
X3447920Y-18020793D01*
X3447920Y-18020793D02*
X3447920Y-17973174D01*
X3447920Y-17973174D02*
X3457443Y-17935079D01*
X3457443Y-17935079D02*
X3466967Y-17916031D01*
X3466967Y-17916031D02*
X3476491Y-17906508D01*
X3476491Y-17906508D02*
X3495539Y-17896984D01*
X3647920Y-18096984D02*
X3647920Y-17963650D01*
X3647920Y-17982698D02*
X3657443Y-17973174D01*
X3657443Y-17973174D02*
X3676491Y-17963650D01*
X3676491Y-17963650D02*
X3705063Y-17963650D01*
X3705063Y-17963650D02*
X3724110Y-17973174D01*
X3724110Y-17973174D02*
X3733634Y-17992222D01*
X3733634Y-17992222D02*
X3733634Y-18096984D01*
X3733634Y-17992222D02*
X3743158Y-17973174D01*
X3743158Y-17973174D02*
X3762205Y-17963650D01*
X3762205Y-17963650D02*
X3790777Y-17963650D01*
X3790777Y-17963650D02*
X3809824Y-17973174D01*
X3809824Y-17973174D02*
X3819348Y-17992222D01*
X3819348Y-17992222D02*
X3819348Y-18096984D01*
X3914586Y-18096984D02*
X3914586Y-17963650D01*
X3914586Y-17982698D02*
X3924110Y-17973174D01*
X3924110Y-17973174D02*
X3943158Y-17963650D01*
X3943158Y-17963650D02*
X3971729Y-17963650D01*
X3971729Y-17963650D02*
X3990777Y-17973174D01*
X3990777Y-17973174D02*
X4000301Y-17992222D01*
X4000301Y-17992222D02*
X4000301Y-18096984D01*
X4000301Y-17992222D02*
X4009824Y-17973174D01*
X4009824Y-17973174D02*
X4028872Y-17963650D01*
X4028872Y-17963650D02*
X4057443Y-17963650D01*
X4057443Y-17963650D02*
X4076491Y-17973174D01*
X4076491Y-17973174D02*
X4086015Y-17992222D01*
X4086015Y-17992222D02*
X4086015Y-18096984D01*
X4476491Y-17887460D02*
X4305063Y-18144603D01*
X4733634Y-17896984D02*
X4752682Y-17896984D01*
X4752682Y-17896984D02*
X4771729Y-17906508D01*
X4771729Y-17906508D02*
X4781253Y-17916031D01*
X4781253Y-17916031D02*
X4790777Y-17935079D01*
X4790777Y-17935079D02*
X4800301Y-17973174D01*
X4800301Y-17973174D02*
X4800301Y-18020793D01*
X4800301Y-18020793D02*
X4790777Y-18058889D01*
X4790777Y-18058889D02*
X4781253Y-18077936D01*
X4781253Y-18077936D02*
X4771729Y-18087460D01*
X4771729Y-18087460D02*
X4752682Y-18096984D01*
X4752682Y-18096984D02*
X4733634Y-18096984D01*
X4733634Y-18096984D02*
X4714587Y-18087460D01*
X4714587Y-18087460D02*
X4705063Y-18077936D01*
X4705063Y-18077936D02*
X4695539Y-18058889D01*
X4695539Y-18058889D02*
X4686015Y-18020793D01*
X4686015Y-18020793D02*
X4686015Y-17973174D01*
X4686015Y-17973174D02*
X4695539Y-17935079D01*
X4695539Y-17935079D02*
X4705063Y-17916031D01*
X4705063Y-17916031D02*
X4714587Y-17906508D01*
X4714587Y-17906508D02*
X4733634Y-17896984D01*
X4886015Y-18077936D02*
X4895539Y-18087460D01*
X4895539Y-18087460D02*
X4886015Y-18096984D01*
X4886015Y-18096984D02*
X4876491Y-18087460D01*
X4876491Y-18087460D02*
X4886015Y-18077936D01*
X4886015Y-18077936D02*
X4886015Y-18096984D01*
X5019348Y-17896984D02*
X5038396Y-17896984D01*
X5038396Y-17896984D02*
X5057444Y-17906508D01*
X5057444Y-17906508D02*
X5066968Y-17916031D01*
X5066968Y-17916031D02*
X5076491Y-17935079D01*
X5076491Y-17935079D02*
X5086015Y-17973174D01*
X5086015Y-17973174D02*
X5086015Y-18020793D01*
X5086015Y-18020793D02*
X5076491Y-18058889D01*
X5076491Y-18058889D02*
X5066968Y-18077936D01*
X5066968Y-18077936D02*
X5057444Y-18087460D01*
X5057444Y-18087460D02*
X5038396Y-18096984D01*
X5038396Y-18096984D02*
X5019348Y-18096984D01*
X5019348Y-18096984D02*
X5000301Y-18087460D01*
X5000301Y-18087460D02*
X4990777Y-18077936D01*
X4990777Y-18077936D02*
X4981253Y-18058889D01*
X4981253Y-18058889D02*
X4971729Y-18020793D01*
X4971729Y-18020793D02*
X4971729Y-17973174D01*
X4971729Y-17973174D02*
X4981253Y-17935079D01*
X4981253Y-17935079D02*
X4990777Y-17916031D01*
X4990777Y-17916031D02*
X5000301Y-17906508D01*
X5000301Y-17906508D02*
X5019348Y-17896984D01*
X5276491Y-18096984D02*
X5162206Y-18096984D01*
X5219348Y-18096984D02*
X5219348Y-17896984D01*
X5219348Y-17896984D02*
X5200301Y-17925555D01*
X5200301Y-17925555D02*
X5181253Y-17944603D01*
X5181253Y-17944603D02*
X5162206Y-17954127D01*
X5457444Y-17896984D02*
X5362206Y-17896984D01*
X5362206Y-17896984D02*
X5352682Y-17992222D01*
X5352682Y-17992222D02*
X5362206Y-17982698D01*
X5362206Y-17982698D02*
X5381253Y-17973174D01*
X5381253Y-17973174D02*
X5428872Y-17973174D01*
X5428872Y-17973174D02*
X5447920Y-17982698D01*
X5447920Y-17982698D02*
X5457444Y-17992222D01*
X5457444Y-17992222D02*
X5466968Y-18011270D01*
X5466968Y-18011270D02*
X5466968Y-18058889D01*
X5466968Y-18058889D02*
X5457444Y-18077936D01*
X5457444Y-18077936D02*
X5447920Y-18087460D01*
X5447920Y-18087460D02*
X5428872Y-18096984D01*
X5428872Y-18096984D02*
X5381253Y-18096984D01*
X5381253Y-18096984D02*
X5362206Y-18087460D01*
X5362206Y-18087460D02*
X5352682Y-18077936D01*
X5533634Y-17896984D02*
X5666967Y-17896984D01*
X5666967Y-17896984D02*
X5581253Y-18096984D01*
X5733634Y-17896984D02*
X5733634Y-17935079D01*
X5809825Y-17896984D02*
X5809825Y-17935079D01*
X6105063Y-18173174D02*
X6095539Y-18163650D01*
X6095539Y-18163650D02*
X6076491Y-18135079D01*
X6076491Y-18135079D02*
X6066968Y-18116031D01*
X6066968Y-18116031D02*
X6057444Y-18087460D01*
X6057444Y-18087460D02*
X6047920Y-18039841D01*
X6047920Y-18039841D02*
X6047920Y-18001746D01*
X6047920Y-18001746D02*
X6057444Y-17954127D01*
X6057444Y-17954127D02*
X6066968Y-17925555D01*
X6066968Y-17925555D02*
X6076491Y-17906508D01*
X6076491Y-17906508D02*
X6095539Y-17877936D01*
X6095539Y-17877936D02*
X6105063Y-17868412D01*
X6219348Y-17896984D02*
X6238396Y-17896984D01*
X6238396Y-17896984D02*
X6257444Y-17906508D01*
X6257444Y-17906508D02*
X6266968Y-17916031D01*
X6266968Y-17916031D02*
X6276491Y-17935079D01*
X6276491Y-17935079D02*
X6286015Y-17973174D01*
X6286015Y-17973174D02*
X6286015Y-18020793D01*
X6286015Y-18020793D02*
X6276491Y-18058889D01*
X6276491Y-18058889D02*
X6266968Y-18077936D01*
X6266968Y-18077936D02*
X6257444Y-18087460D01*
X6257444Y-18087460D02*
X6238396Y-18096984D01*
X6238396Y-18096984D02*
X6219348Y-18096984D01*
X6219348Y-18096984D02*
X6200301Y-18087460D01*
X6200301Y-18087460D02*
X6190777Y-18077936D01*
X6190777Y-18077936D02*
X6181253Y-18058889D01*
X6181253Y-18058889D02*
X6171729Y-18020793D01*
X6171729Y-18020793D02*
X6171729Y-17973174D01*
X6171729Y-17973174D02*
X6181253Y-17935079D01*
X6181253Y-17935079D02*
X6190777Y-17916031D01*
X6190777Y-17916031D02*
X6200301Y-17906508D01*
X6200301Y-17906508D02*
X6219348Y-17896984D01*
X6524110Y-18096984D02*
X6524110Y-17896984D01*
X6609825Y-18096984D02*
X6609825Y-17992222D01*
X6609825Y-17992222D02*
X6600301Y-17973174D01*
X6600301Y-17973174D02*
X6581253Y-17963650D01*
X6581253Y-17963650D02*
X6552682Y-17963650D01*
X6552682Y-17963650D02*
X6533634Y-17973174D01*
X6533634Y-17973174D02*
X6524110Y-17982698D01*
X6733634Y-18096984D02*
X6714587Y-18087460D01*
X6714587Y-18087460D02*
X6705063Y-18077936D01*
X6705063Y-18077936D02*
X6695539Y-18058889D01*
X6695539Y-18058889D02*
X6695539Y-18001746D01*
X6695539Y-18001746D02*
X6705063Y-17982698D01*
X6705063Y-17982698D02*
X6714587Y-17973174D01*
X6714587Y-17973174D02*
X6733634Y-17963650D01*
X6733634Y-17963650D02*
X6762206Y-17963650D01*
X6762206Y-17963650D02*
X6781253Y-17973174D01*
X6781253Y-17973174D02*
X6790777Y-17982698D01*
X6790777Y-17982698D02*
X6800301Y-18001746D01*
X6800301Y-18001746D02*
X6800301Y-18058889D01*
X6800301Y-18058889D02*
X6790777Y-18077936D01*
X6790777Y-18077936D02*
X6781253Y-18087460D01*
X6781253Y-18087460D02*
X6762206Y-18096984D01*
X6762206Y-18096984D02*
X6733634Y-18096984D01*
X6914587Y-18096984D02*
X6895539Y-18087460D01*
X6895539Y-18087460D02*
X6886015Y-18068412D01*
X6886015Y-18068412D02*
X6886015Y-17896984D01*
X7066968Y-18087460D02*
X7047920Y-18096984D01*
X7047920Y-18096984D02*
X7009825Y-18096984D01*
X7009825Y-18096984D02*
X6990777Y-18087460D01*
X6990777Y-18087460D02*
X6981253Y-18068412D01*
X6981253Y-18068412D02*
X6981253Y-17992222D01*
X6981253Y-17992222D02*
X6990777Y-17973174D01*
X6990777Y-17973174D02*
X7009825Y-17963650D01*
X7009825Y-17963650D02*
X7047920Y-17963650D01*
X7047920Y-17963650D02*
X7066968Y-17973174D01*
X7066968Y-17973174D02*
X7076491Y-17992222D01*
X7076491Y-17992222D02*
X7076491Y-18011270D01*
X7076491Y-18011270D02*
X6981253Y-18030317D01*
X7152682Y-18087460D02*
X7171730Y-18096984D01*
X7171730Y-18096984D02*
X7209825Y-18096984D01*
X7209825Y-18096984D02*
X7228872Y-18087460D01*
X7228872Y-18087460D02*
X7238396Y-18068412D01*
X7238396Y-18068412D02*
X7238396Y-18058889D01*
X7238396Y-18058889D02*
X7228872Y-18039841D01*
X7228872Y-18039841D02*
X7209825Y-18030317D01*
X7209825Y-18030317D02*
X7181253Y-18030317D01*
X7181253Y-18030317D02*
X7162206Y-18020793D01*
X7162206Y-18020793D02*
X7152682Y-18001746D01*
X7152682Y-18001746D02*
X7152682Y-17992222D01*
X7152682Y-17992222D02*
X7162206Y-17973174D01*
X7162206Y-17973174D02*
X7181253Y-17963650D01*
X7181253Y-17963650D02*
X7209825Y-17963650D01*
X7209825Y-17963650D02*
X7228872Y-17973174D01*
X7476492Y-18020793D02*
X7628873Y-18020793D01*
X7552682Y-18096984D02*
X7552682Y-17944603D01*
X7962206Y-17963650D02*
X7962206Y-18096984D01*
X7914587Y-17887460D02*
X7866968Y-18030317D01*
X7866968Y-18030317D02*
X7990777Y-18030317D01*
X8209825Y-18087460D02*
X8228873Y-18096984D01*
X8228873Y-18096984D02*
X8266968Y-18096984D01*
X8266968Y-18096984D02*
X8286015Y-18087460D01*
X8286015Y-18087460D02*
X8295539Y-18068412D01*
X8295539Y-18068412D02*
X8295539Y-18058889D01*
X8295539Y-18058889D02*
X8286015Y-18039841D01*
X8286015Y-18039841D02*
X8266968Y-18030317D01*
X8266968Y-18030317D02*
X8238396Y-18030317D01*
X8238396Y-18030317D02*
X8219349Y-18020793D01*
X8219349Y-18020793D02*
X8209825Y-18001746D01*
X8209825Y-18001746D02*
X8209825Y-17992222D01*
X8209825Y-17992222D02*
X8219349Y-17973174D01*
X8219349Y-17973174D02*
X8238396Y-17963650D01*
X8238396Y-17963650D02*
X8266968Y-17963650D01*
X8266968Y-17963650D02*
X8286015Y-17973174D01*
X8409825Y-18096984D02*
X8390777Y-18087460D01*
X8390777Y-18087460D02*
X8381254Y-18068412D01*
X8381254Y-18068412D02*
X8381254Y-17896984D01*
X8514587Y-18096984D02*
X8495539Y-18087460D01*
X8495539Y-18087460D02*
X8486016Y-18077936D01*
X8486016Y-18077936D02*
X8476492Y-18058889D01*
X8476492Y-18058889D02*
X8476492Y-18001746D01*
X8476492Y-18001746D02*
X8486016Y-17982698D01*
X8486016Y-17982698D02*
X8495539Y-17973174D01*
X8495539Y-17973174D02*
X8514587Y-17963650D01*
X8514587Y-17963650D02*
X8543158Y-17963650D01*
X8543158Y-17963650D02*
X8562206Y-17973174D01*
X8562206Y-17973174D02*
X8571730Y-17982698D01*
X8571730Y-17982698D02*
X8581254Y-18001746D01*
X8581254Y-18001746D02*
X8581254Y-18058889D01*
X8581254Y-18058889D02*
X8571730Y-18077936D01*
X8571730Y-18077936D02*
X8562206Y-18087460D01*
X8562206Y-18087460D02*
X8543158Y-18096984D01*
X8543158Y-18096984D02*
X8514587Y-18096984D01*
X8638397Y-17963650D02*
X8714587Y-17963650D01*
X8666968Y-17896984D02*
X8666968Y-18068412D01*
X8666968Y-18068412D02*
X8676492Y-18087460D01*
X8676492Y-18087460D02*
X8695539Y-18096984D01*
X8695539Y-18096984D02*
X8714587Y-18096984D01*
X8771730Y-18087460D02*
X8790777Y-18096984D01*
X8790777Y-18096984D02*
X8828873Y-18096984D01*
X8828873Y-18096984D02*
X8847920Y-18087460D01*
X8847920Y-18087460D02*
X8857444Y-18068412D01*
X8857444Y-18068412D02*
X8857444Y-18058889D01*
X8857444Y-18058889D02*
X8847920Y-18039841D01*
X8847920Y-18039841D02*
X8828873Y-18030317D01*
X8828873Y-18030317D02*
X8800301Y-18030317D01*
X8800301Y-18030317D02*
X8781254Y-18020793D01*
X8781254Y-18020793D02*
X8771730Y-18001746D01*
X8771730Y-18001746D02*
X8771730Y-17992222D01*
X8771730Y-17992222D02*
X8781254Y-17973174D01*
X8781254Y-17973174D02*
X8800301Y-17963650D01*
X8800301Y-17963650D02*
X8828873Y-17963650D01*
X8828873Y-17963650D02*
X8847920Y-17973174D01*
X8924111Y-18173174D02*
X8933635Y-18163650D01*
X8933635Y-18163650D02*
X8952682Y-18135079D01*
X8952682Y-18135079D02*
X8962206Y-18116031D01*
X8962206Y-18116031D02*
X8971730Y-18087460D01*
X8971730Y-18087460D02*
X8981254Y-18039841D01*
X8981254Y-18039841D02*
X8981254Y-18001746D01*
X8981254Y-18001746D02*
X8971730Y-17954127D01*
X8971730Y-17954127D02*
X8962206Y-17925555D01*
X8962206Y-17925555D02*
X8952682Y-17906508D01*
X8952682Y-17906508D02*
X8933635Y-17877936D01*
X8933635Y-17877936D02*
X8924111Y-17868412D01*
D10*
X2521213Y-18290713D02*
X2521213Y-18248287D01*
X2478787Y-18248287D01*
X2478787Y-18290713D01*
X2521213Y-18290713D01*
D11*
X2828872Y-18160984D02*
X2847920Y-18160984D01*
X2847920Y-18160984D02*
X2866967Y-18170508D01*
X2866967Y-18170508D02*
X2876491Y-18180031D01*
X2876491Y-18180031D02*
X2886015Y-18199079D01*
X2886015Y-18199079D02*
X2895539Y-18237174D01*
X2895539Y-18237174D02*
X2895539Y-18284793D01*
X2895539Y-18284793D02*
X2886015Y-18322889D01*
X2886015Y-18322889D02*
X2876491Y-18341936D01*
X2876491Y-18341936D02*
X2866967Y-18351460D01*
X2866967Y-18351460D02*
X2847920Y-18360984D01*
X2847920Y-18360984D02*
X2828872Y-18360984D01*
X2828872Y-18360984D02*
X2809824Y-18351460D01*
X2809824Y-18351460D02*
X2800301Y-18341936D01*
X2800301Y-18341936D02*
X2790777Y-18322889D01*
X2790777Y-18322889D02*
X2781253Y-18284793D01*
X2781253Y-18284793D02*
X2781253Y-18237174D01*
X2781253Y-18237174D02*
X2790777Y-18199079D01*
X2790777Y-18199079D02*
X2800301Y-18180031D01*
X2800301Y-18180031D02*
X2809824Y-18170508D01*
X2809824Y-18170508D02*
X2828872Y-18160984D01*
X2981253Y-18341936D02*
X2990777Y-18351460D01*
X2990777Y-18351460D02*
X2981253Y-18360984D01*
X2981253Y-18360984D02*
X2971729Y-18351460D01*
X2971729Y-18351460D02*
X2981253Y-18341936D01*
X2981253Y-18341936D02*
X2981253Y-18360984D01*
X3162205Y-18160984D02*
X3124110Y-18160984D01*
X3124110Y-18160984D02*
X3105062Y-18170508D01*
X3105062Y-18170508D02*
X3095539Y-18180031D01*
X3095539Y-18180031D02*
X3076491Y-18208603D01*
X3076491Y-18208603D02*
X3066967Y-18246698D01*
X3066967Y-18246698D02*
X3066967Y-18322889D01*
X3066967Y-18322889D02*
X3076491Y-18341936D01*
X3076491Y-18341936D02*
X3086015Y-18351460D01*
X3086015Y-18351460D02*
X3105062Y-18360984D01*
X3105062Y-18360984D02*
X3143158Y-18360984D01*
X3143158Y-18360984D02*
X3162205Y-18351460D01*
X3162205Y-18351460D02*
X3171729Y-18341936D01*
X3171729Y-18341936D02*
X3181253Y-18322889D01*
X3181253Y-18322889D02*
X3181253Y-18275270D01*
X3181253Y-18275270D02*
X3171729Y-18256222D01*
X3171729Y-18256222D02*
X3162205Y-18246698D01*
X3162205Y-18246698D02*
X3143158Y-18237174D01*
X3143158Y-18237174D02*
X3105062Y-18237174D01*
X3105062Y-18237174D02*
X3086015Y-18246698D01*
X3086015Y-18246698D02*
X3076491Y-18256222D01*
X3076491Y-18256222D02*
X3066967Y-18275270D01*
X3305062Y-18160984D02*
X3324110Y-18160984D01*
X3324110Y-18160984D02*
X3343158Y-18170508D01*
X3343158Y-18170508D02*
X3352682Y-18180031D01*
X3352682Y-18180031D02*
X3362205Y-18199079D01*
X3362205Y-18199079D02*
X3371729Y-18237174D01*
X3371729Y-18237174D02*
X3371729Y-18284793D01*
X3371729Y-18284793D02*
X3362205Y-18322889D01*
X3362205Y-18322889D02*
X3352682Y-18341936D01*
X3352682Y-18341936D02*
X3343158Y-18351460D01*
X3343158Y-18351460D02*
X3324110Y-18360984D01*
X3324110Y-18360984D02*
X3305062Y-18360984D01*
X3305062Y-18360984D02*
X3286015Y-18351460D01*
X3286015Y-18351460D02*
X3276491Y-18341936D01*
X3276491Y-18341936D02*
X3266967Y-18322889D01*
X3266967Y-18322889D02*
X3257443Y-18284793D01*
X3257443Y-18284793D02*
X3257443Y-18237174D01*
X3257443Y-18237174D02*
X3266967Y-18199079D01*
X3266967Y-18199079D02*
X3276491Y-18180031D01*
X3276491Y-18180031D02*
X3286015Y-18170508D01*
X3286015Y-18170508D02*
X3305062Y-18160984D01*
X3495539Y-18160984D02*
X3514586Y-18160984D01*
X3514586Y-18160984D02*
X3533634Y-18170508D01*
X3533634Y-18170508D02*
X3543158Y-18180031D01*
X3543158Y-18180031D02*
X3552682Y-18199079D01*
X3552682Y-18199079D02*
X3562205Y-18237174D01*
X3562205Y-18237174D02*
X3562205Y-18284793D01*
X3562205Y-18284793D02*
X3552682Y-18322889D01*
X3552682Y-18322889D02*
X3543158Y-18341936D01*
X3543158Y-18341936D02*
X3533634Y-18351460D01*
X3533634Y-18351460D02*
X3514586Y-18360984D01*
X3514586Y-18360984D02*
X3495539Y-18360984D01*
X3495539Y-18360984D02*
X3476491Y-18351460D01*
X3476491Y-18351460D02*
X3466967Y-18341936D01*
X3466967Y-18341936D02*
X3457443Y-18322889D01*
X3457443Y-18322889D02*
X3447920Y-18284793D01*
X3447920Y-18284793D02*
X3447920Y-18237174D01*
X3447920Y-18237174D02*
X3457443Y-18199079D01*
X3457443Y-18199079D02*
X3466967Y-18180031D01*
X3466967Y-18180031D02*
X3476491Y-18170508D01*
X3476491Y-18170508D02*
X3495539Y-18160984D01*
X3647920Y-18360984D02*
X3647920Y-18227650D01*
X3647920Y-18246698D02*
X3657443Y-18237174D01*
X3657443Y-18237174D02*
X3676491Y-18227650D01*
X3676491Y-18227650D02*
X3705063Y-18227650D01*
X3705063Y-18227650D02*
X3724110Y-18237174D01*
X3724110Y-18237174D02*
X3733634Y-18256222D01*
X3733634Y-18256222D02*
X3733634Y-18360984D01*
X3733634Y-18256222D02*
X3743158Y-18237174D01*
X3743158Y-18237174D02*
X3762205Y-18227650D01*
X3762205Y-18227650D02*
X3790777Y-18227650D01*
X3790777Y-18227650D02*
X3809824Y-18237174D01*
X3809824Y-18237174D02*
X3819348Y-18256222D01*
X3819348Y-18256222D02*
X3819348Y-18360984D01*
X3914586Y-18360984D02*
X3914586Y-18227650D01*
X3914586Y-18246698D02*
X3924110Y-18237174D01*
X3924110Y-18237174D02*
X3943158Y-18227650D01*
X3943158Y-18227650D02*
X3971729Y-18227650D01*
X3971729Y-18227650D02*
X3990777Y-18237174D01*
X3990777Y-18237174D02*
X4000301Y-18256222D01*
X4000301Y-18256222D02*
X4000301Y-18360984D01*
X4000301Y-18256222D02*
X4009824Y-18237174D01*
X4009824Y-18237174D02*
X4028872Y-18227650D01*
X4028872Y-18227650D02*
X4057443Y-18227650D01*
X4057443Y-18227650D02*
X4076491Y-18237174D01*
X4076491Y-18237174D02*
X4086015Y-18256222D01*
X4086015Y-18256222D02*
X4086015Y-18360984D01*
X4476491Y-18151460D02*
X4305063Y-18408603D01*
X4733634Y-18160984D02*
X4752682Y-18160984D01*
X4752682Y-18160984D02*
X4771729Y-18170508D01*
X4771729Y-18170508D02*
X4781253Y-18180031D01*
X4781253Y-18180031D02*
X4790777Y-18199079D01*
X4790777Y-18199079D02*
X4800301Y-18237174D01*
X4800301Y-18237174D02*
X4800301Y-18284793D01*
X4800301Y-18284793D02*
X4790777Y-18322889D01*
X4790777Y-18322889D02*
X4781253Y-18341936D01*
X4781253Y-18341936D02*
X4771729Y-18351460D01*
X4771729Y-18351460D02*
X4752682Y-18360984D01*
X4752682Y-18360984D02*
X4733634Y-18360984D01*
X4733634Y-18360984D02*
X4714587Y-18351460D01*
X4714587Y-18351460D02*
X4705063Y-18341936D01*
X4705063Y-18341936D02*
X4695539Y-18322889D01*
X4695539Y-18322889D02*
X4686015Y-18284793D01*
X4686015Y-18284793D02*
X4686015Y-18237174D01*
X4686015Y-18237174D02*
X4695539Y-18199079D01*
X4695539Y-18199079D02*
X4705063Y-18180031D01*
X4705063Y-18180031D02*
X4714587Y-18170508D01*
X4714587Y-18170508D02*
X4733634Y-18160984D01*
X4886015Y-18341936D02*
X4895539Y-18351460D01*
X4895539Y-18351460D02*
X4886015Y-18360984D01*
X4886015Y-18360984D02*
X4876491Y-18351460D01*
X4876491Y-18351460D02*
X4886015Y-18341936D01*
X4886015Y-18341936D02*
X4886015Y-18360984D01*
X5019348Y-18160984D02*
X5038396Y-18160984D01*
X5038396Y-18160984D02*
X5057444Y-18170508D01*
X5057444Y-18170508D02*
X5066968Y-18180031D01*
X5066968Y-18180031D02*
X5076491Y-18199079D01*
X5076491Y-18199079D02*
X5086015Y-18237174D01*
X5086015Y-18237174D02*
X5086015Y-18284793D01*
X5086015Y-18284793D02*
X5076491Y-18322889D01*
X5076491Y-18322889D02*
X5066968Y-18341936D01*
X5066968Y-18341936D02*
X5057444Y-18351460D01*
X5057444Y-18351460D02*
X5038396Y-18360984D01*
X5038396Y-18360984D02*
X5019348Y-18360984D01*
X5019348Y-18360984D02*
X5000301Y-18351460D01*
X5000301Y-18351460D02*
X4990777Y-18341936D01*
X4990777Y-18341936D02*
X4981253Y-18322889D01*
X4981253Y-18322889D02*
X4971729Y-18284793D01*
X4971729Y-18284793D02*
X4971729Y-18237174D01*
X4971729Y-18237174D02*
X4981253Y-18199079D01*
X4981253Y-18199079D02*
X4990777Y-18180031D01*
X4990777Y-18180031D02*
X5000301Y-18170508D01*
X5000301Y-18170508D02*
X5019348Y-18160984D01*
X5162206Y-18180031D02*
X5171729Y-18170508D01*
X5171729Y-18170508D02*
X5190777Y-18160984D01*
X5190777Y-18160984D02*
X5238396Y-18160984D01*
X5238396Y-18160984D02*
X5257444Y-18170508D01*
X5257444Y-18170508D02*
X5266968Y-18180031D01*
X5266968Y-18180031D02*
X5276491Y-18199079D01*
X5276491Y-18199079D02*
X5276491Y-18218127D01*
X5276491Y-18218127D02*
X5266968Y-18246698D01*
X5266968Y-18246698D02*
X5152682Y-18360984D01*
X5152682Y-18360984D02*
X5276491Y-18360984D01*
X5343158Y-18160984D02*
X5466968Y-18160984D01*
X5466968Y-18160984D02*
X5400301Y-18237174D01*
X5400301Y-18237174D02*
X5428872Y-18237174D01*
X5428872Y-18237174D02*
X5447920Y-18246698D01*
X5447920Y-18246698D02*
X5457444Y-18256222D01*
X5457444Y-18256222D02*
X5466968Y-18275270D01*
X5466968Y-18275270D02*
X5466968Y-18322889D01*
X5466968Y-18322889D02*
X5457444Y-18341936D01*
X5457444Y-18341936D02*
X5447920Y-18351460D01*
X5447920Y-18351460D02*
X5428872Y-18360984D01*
X5428872Y-18360984D02*
X5371729Y-18360984D01*
X5371729Y-18360984D02*
X5352682Y-18351460D01*
X5352682Y-18351460D02*
X5343158Y-18341936D01*
X5638396Y-18160984D02*
X5600301Y-18160984D01*
X5600301Y-18160984D02*
X5581253Y-18170508D01*
X5581253Y-18170508D02*
X5571729Y-18180031D01*
X5571729Y-18180031D02*
X5552682Y-18208603D01*
X5552682Y-18208603D02*
X5543158Y-18246698D01*
X5543158Y-18246698D02*
X5543158Y-18322889D01*
X5543158Y-18322889D02*
X5552682Y-18341936D01*
X5552682Y-18341936D02*
X5562206Y-18351460D01*
X5562206Y-18351460D02*
X5581253Y-18360984D01*
X5581253Y-18360984D02*
X5619348Y-18360984D01*
X5619348Y-18360984D02*
X5638396Y-18351460D01*
X5638396Y-18351460D02*
X5647920Y-18341936D01*
X5647920Y-18341936D02*
X5657444Y-18322889D01*
X5657444Y-18322889D02*
X5657444Y-18275270D01*
X5657444Y-18275270D02*
X5647920Y-18256222D01*
X5647920Y-18256222D02*
X5638396Y-18246698D01*
X5638396Y-18246698D02*
X5619348Y-18237174D01*
X5619348Y-18237174D02*
X5581253Y-18237174D01*
X5581253Y-18237174D02*
X5562206Y-18246698D01*
X5562206Y-18246698D02*
X5552682Y-18256222D01*
X5552682Y-18256222D02*
X5543158Y-18275270D01*
X5733634Y-18160984D02*
X5733634Y-18199079D01*
X5809825Y-18160984D02*
X5809825Y-18199079D01*
X6105063Y-18437174D02*
X6095539Y-18427650D01*
X6095539Y-18427650D02*
X6076491Y-18399079D01*
X6076491Y-18399079D02*
X6066968Y-18380031D01*
X6066968Y-18380031D02*
X6057444Y-18351460D01*
X6057444Y-18351460D02*
X6047920Y-18303841D01*
X6047920Y-18303841D02*
X6047920Y-18265746D01*
X6047920Y-18265746D02*
X6057444Y-18218127D01*
X6057444Y-18218127D02*
X6066968Y-18189555D01*
X6066968Y-18189555D02*
X6076491Y-18170508D01*
X6076491Y-18170508D02*
X6095539Y-18141936D01*
X6095539Y-18141936D02*
X6105063Y-18132412D01*
X6219348Y-18160984D02*
X6238396Y-18160984D01*
X6238396Y-18160984D02*
X6257444Y-18170508D01*
X6257444Y-18170508D02*
X6266968Y-18180031D01*
X6266968Y-18180031D02*
X6276491Y-18199079D01*
X6276491Y-18199079D02*
X6286015Y-18237174D01*
X6286015Y-18237174D02*
X6286015Y-18284793D01*
X6286015Y-18284793D02*
X6276491Y-18322889D01*
X6276491Y-18322889D02*
X6266968Y-18341936D01*
X6266968Y-18341936D02*
X6257444Y-18351460D01*
X6257444Y-18351460D02*
X6238396Y-18360984D01*
X6238396Y-18360984D02*
X6219348Y-18360984D01*
X6219348Y-18360984D02*
X6200301Y-18351460D01*
X6200301Y-18351460D02*
X6190777Y-18341936D01*
X6190777Y-18341936D02*
X6181253Y-18322889D01*
X6181253Y-18322889D02*
X6171729Y-18284793D01*
X6171729Y-18284793D02*
X6171729Y-18237174D01*
X6171729Y-18237174D02*
X6181253Y-18199079D01*
X6181253Y-18199079D02*
X6190777Y-18180031D01*
X6190777Y-18180031D02*
X6200301Y-18170508D01*
X6200301Y-18170508D02*
X6219348Y-18160984D01*
X6524110Y-18360984D02*
X6524110Y-18160984D01*
X6609825Y-18360984D02*
X6609825Y-18256222D01*
X6609825Y-18256222D02*
X6600301Y-18237174D01*
X6600301Y-18237174D02*
X6581253Y-18227650D01*
X6581253Y-18227650D02*
X6552682Y-18227650D01*
X6552682Y-18227650D02*
X6533634Y-18237174D01*
X6533634Y-18237174D02*
X6524110Y-18246698D01*
X6733634Y-18360984D02*
X6714587Y-18351460D01*
X6714587Y-18351460D02*
X6705063Y-18341936D01*
X6705063Y-18341936D02*
X6695539Y-18322889D01*
X6695539Y-18322889D02*
X6695539Y-18265746D01*
X6695539Y-18265746D02*
X6705063Y-18246698D01*
X6705063Y-18246698D02*
X6714587Y-18237174D01*
X6714587Y-18237174D02*
X6733634Y-18227650D01*
X6733634Y-18227650D02*
X6762206Y-18227650D01*
X6762206Y-18227650D02*
X6781253Y-18237174D01*
X6781253Y-18237174D02*
X6790777Y-18246698D01*
X6790777Y-18246698D02*
X6800301Y-18265746D01*
X6800301Y-18265746D02*
X6800301Y-18322889D01*
X6800301Y-18322889D02*
X6790777Y-18341936D01*
X6790777Y-18341936D02*
X6781253Y-18351460D01*
X6781253Y-18351460D02*
X6762206Y-18360984D01*
X6762206Y-18360984D02*
X6733634Y-18360984D01*
X6914587Y-18360984D02*
X6895539Y-18351460D01*
X6895539Y-18351460D02*
X6886015Y-18332412D01*
X6886015Y-18332412D02*
X6886015Y-18160984D01*
X7066968Y-18351460D02*
X7047920Y-18360984D01*
X7047920Y-18360984D02*
X7009825Y-18360984D01*
X7009825Y-18360984D02*
X6990777Y-18351460D01*
X6990777Y-18351460D02*
X6981253Y-18332412D01*
X6981253Y-18332412D02*
X6981253Y-18256222D01*
X6981253Y-18256222D02*
X6990777Y-18237174D01*
X6990777Y-18237174D02*
X7009825Y-18227650D01*
X7009825Y-18227650D02*
X7047920Y-18227650D01*
X7047920Y-18227650D02*
X7066968Y-18237174D01*
X7066968Y-18237174D02*
X7076491Y-18256222D01*
X7076491Y-18256222D02*
X7076491Y-18275270D01*
X7076491Y-18275270D02*
X6981253Y-18294317D01*
X7152682Y-18351460D02*
X7171730Y-18360984D01*
X7171730Y-18360984D02*
X7209825Y-18360984D01*
X7209825Y-18360984D02*
X7228872Y-18351460D01*
X7228872Y-18351460D02*
X7238396Y-18332412D01*
X7238396Y-18332412D02*
X7238396Y-18322889D01*
X7238396Y-18322889D02*
X7228872Y-18303841D01*
X7228872Y-18303841D02*
X7209825Y-18294317D01*
X7209825Y-18294317D02*
X7181253Y-18294317D01*
X7181253Y-18294317D02*
X7162206Y-18284793D01*
X7162206Y-18284793D02*
X7152682Y-18265746D01*
X7152682Y-18265746D02*
X7152682Y-18256222D01*
X7152682Y-18256222D02*
X7162206Y-18237174D01*
X7162206Y-18237174D02*
X7181253Y-18227650D01*
X7181253Y-18227650D02*
X7209825Y-18227650D01*
X7209825Y-18227650D02*
X7228872Y-18237174D01*
X7476492Y-18284793D02*
X7628873Y-18284793D01*
X7552682Y-18360984D02*
X7552682Y-18208603D01*
X7866968Y-18180031D02*
X7876492Y-18170508D01*
X7876492Y-18170508D02*
X7895539Y-18160984D01*
X7895539Y-18160984D02*
X7943158Y-18160984D01*
X7943158Y-18160984D02*
X7962206Y-18170508D01*
X7962206Y-18170508D02*
X7971730Y-18180031D01*
X7971730Y-18180031D02*
X7981253Y-18199079D01*
X7981253Y-18199079D02*
X7981253Y-18218127D01*
X7981253Y-18218127D02*
X7971730Y-18246698D01*
X7971730Y-18246698D02*
X7857444Y-18360984D01*
X7857444Y-18360984D02*
X7981253Y-18360984D01*
X8209825Y-18351460D02*
X8228873Y-18360984D01*
X8228873Y-18360984D02*
X8266968Y-18360984D01*
X8266968Y-18360984D02*
X8286015Y-18351460D01*
X8286015Y-18351460D02*
X8295539Y-18332412D01*
X8295539Y-18332412D02*
X8295539Y-18322889D01*
X8295539Y-18322889D02*
X8286015Y-18303841D01*
X8286015Y-18303841D02*
X8266968Y-18294317D01*
X8266968Y-18294317D02*
X8238396Y-18294317D01*
X8238396Y-18294317D02*
X8219349Y-18284793D01*
X8219349Y-18284793D02*
X8209825Y-18265746D01*
X8209825Y-18265746D02*
X8209825Y-18256222D01*
X8209825Y-18256222D02*
X8219349Y-18237174D01*
X8219349Y-18237174D02*
X8238396Y-18227650D01*
X8238396Y-18227650D02*
X8266968Y-18227650D01*
X8266968Y-18227650D02*
X8286015Y-18237174D01*
X8409825Y-18360984D02*
X8390777Y-18351460D01*
X8390777Y-18351460D02*
X8381254Y-18332412D01*
X8381254Y-18332412D02*
X8381254Y-18160984D01*
X8514587Y-18360984D02*
X8495539Y-18351460D01*
X8495539Y-18351460D02*
X8486016Y-18341936D01*
X8486016Y-18341936D02*
X8476492Y-18322889D01*
X8476492Y-18322889D02*
X8476492Y-18265746D01*
X8476492Y-18265746D02*
X8486016Y-18246698D01*
X8486016Y-18246698D02*
X8495539Y-18237174D01*
X8495539Y-18237174D02*
X8514587Y-18227650D01*
X8514587Y-18227650D02*
X8543158Y-18227650D01*
X8543158Y-18227650D02*
X8562206Y-18237174D01*
X8562206Y-18237174D02*
X8571730Y-18246698D01*
X8571730Y-18246698D02*
X8581254Y-18265746D01*
X8581254Y-18265746D02*
X8581254Y-18322889D01*
X8581254Y-18322889D02*
X8571730Y-18341936D01*
X8571730Y-18341936D02*
X8562206Y-18351460D01*
X8562206Y-18351460D02*
X8543158Y-18360984D01*
X8543158Y-18360984D02*
X8514587Y-18360984D01*
X8638397Y-18227650D02*
X8714587Y-18227650D01*
X8666968Y-18160984D02*
X8666968Y-18332412D01*
X8666968Y-18332412D02*
X8676492Y-18351460D01*
X8676492Y-18351460D02*
X8695539Y-18360984D01*
X8695539Y-18360984D02*
X8714587Y-18360984D01*
X8771730Y-18351460D02*
X8790777Y-18360984D01*
X8790777Y-18360984D02*
X8828873Y-18360984D01*
X8828873Y-18360984D02*
X8847920Y-18351460D01*
X8847920Y-18351460D02*
X8857444Y-18332412D01*
X8857444Y-18332412D02*
X8857444Y-18322889D01*
X8857444Y-18322889D02*
X8847920Y-18303841D01*
X8847920Y-18303841D02*
X8828873Y-18294317D01*
X8828873Y-18294317D02*
X8800301Y-18294317D01*
X8800301Y-18294317D02*
X8781254Y-18284793D01*
X8781254Y-18284793D02*
X8771730Y-18265746D01*
X8771730Y-18265746D02*
X8771730Y-18256222D01*
X8771730Y-18256222D02*
X8781254Y-18237174D01*
X8781254Y-18237174D02*
X8800301Y-18227650D01*
X8800301Y-18227650D02*
X8828873Y-18227650D01*
X8828873Y-18227650D02*
X8847920Y-18237174D01*
X8924111Y-18437174D02*
X8933635Y-18427650D01*
X8933635Y-18427650D02*
X8952682Y-18399079D01*
X8952682Y-18399079D02*
X8962206Y-18380031D01*
X8962206Y-18380031D02*
X8971730Y-18351460D01*
X8971730Y-18351460D02*
X8981254Y-18303841D01*
X8981254Y-18303841D02*
X8981254Y-18265746D01*
X8981254Y-18265746D02*
X8971730Y-18218127D01*
X8971730Y-18218127D02*
X8962206Y-18189555D01*
X8962206Y-18189555D02*
X8952682Y-18170508D01*
X8952682Y-18170508D02*
X8933635Y-18141936D01*
X8933635Y-18141936D02*
X8924111Y-18132412D01*
D12*
X2477501Y-18585999D02*
X2530000Y-18533500D01*
X2477501Y-18481001D01*
X2425001Y-18533500D01*
X2477501Y-18585999D01*
D11*
X2895539Y-18624984D02*
X2781253Y-18624984D01*
X2838396Y-18624984D02*
X2838396Y-18424984D01*
X2838396Y-18424984D02*
X2819348Y-18453555D01*
X2819348Y-18453555D02*
X2800301Y-18472603D01*
X2800301Y-18472603D02*
X2781253Y-18482127D01*
X2981253Y-18605936D02*
X2990777Y-18615460D01*
X2990777Y-18615460D02*
X2981253Y-18624984D01*
X2981253Y-18624984D02*
X2971729Y-18615460D01*
X2971729Y-18615460D02*
X2981253Y-18605936D01*
X2981253Y-18605936D02*
X2981253Y-18624984D01*
X3114586Y-18424984D02*
X3133634Y-18424984D01*
X3133634Y-18424984D02*
X3152682Y-18434508D01*
X3152682Y-18434508D02*
X3162205Y-18444031D01*
X3162205Y-18444031D02*
X3171729Y-18463079D01*
X3171729Y-18463079D02*
X3181253Y-18501174D01*
X3181253Y-18501174D02*
X3181253Y-18548793D01*
X3181253Y-18548793D02*
X3171729Y-18586889D01*
X3171729Y-18586889D02*
X3162205Y-18605936D01*
X3162205Y-18605936D02*
X3152682Y-18615460D01*
X3152682Y-18615460D02*
X3133634Y-18624984D01*
X3133634Y-18624984D02*
X3114586Y-18624984D01*
X3114586Y-18624984D02*
X3095539Y-18615460D01*
X3095539Y-18615460D02*
X3086015Y-18605936D01*
X3086015Y-18605936D02*
X3076491Y-18586889D01*
X3076491Y-18586889D02*
X3066967Y-18548793D01*
X3066967Y-18548793D02*
X3066967Y-18501174D01*
X3066967Y-18501174D02*
X3076491Y-18463079D01*
X3076491Y-18463079D02*
X3086015Y-18444031D01*
X3086015Y-18444031D02*
X3095539Y-18434508D01*
X3095539Y-18434508D02*
X3114586Y-18424984D01*
X3362205Y-18424984D02*
X3266967Y-18424984D01*
X3266967Y-18424984D02*
X3257443Y-18520222D01*
X3257443Y-18520222D02*
X3266967Y-18510698D01*
X3266967Y-18510698D02*
X3286015Y-18501174D01*
X3286015Y-18501174D02*
X3333634Y-18501174D01*
X3333634Y-18501174D02*
X3352682Y-18510698D01*
X3352682Y-18510698D02*
X3362205Y-18520222D01*
X3362205Y-18520222D02*
X3371729Y-18539270D01*
X3371729Y-18539270D02*
X3371729Y-18586889D01*
X3371729Y-18586889D02*
X3362205Y-18605936D01*
X3362205Y-18605936D02*
X3352682Y-18615460D01*
X3352682Y-18615460D02*
X3333634Y-18624984D01*
X3333634Y-18624984D02*
X3286015Y-18624984D01*
X3286015Y-18624984D02*
X3266967Y-18615460D01*
X3266967Y-18615460D02*
X3257443Y-18605936D01*
X3495539Y-18424984D02*
X3514586Y-18424984D01*
X3514586Y-18424984D02*
X3533634Y-18434508D01*
X3533634Y-18434508D02*
X3543158Y-18444031D01*
X3543158Y-18444031D02*
X3552682Y-18463079D01*
X3552682Y-18463079D02*
X3562205Y-18501174D01*
X3562205Y-18501174D02*
X3562205Y-18548793D01*
X3562205Y-18548793D02*
X3552682Y-18586889D01*
X3552682Y-18586889D02*
X3543158Y-18605936D01*
X3543158Y-18605936D02*
X3533634Y-18615460D01*
X3533634Y-18615460D02*
X3514586Y-18624984D01*
X3514586Y-18624984D02*
X3495539Y-18624984D01*
X3495539Y-18624984D02*
X3476491Y-18615460D01*
X3476491Y-18615460D02*
X3466967Y-18605936D01*
X3466967Y-18605936D02*
X3457443Y-18586889D01*
X3457443Y-18586889D02*
X3447920Y-18548793D01*
X3447920Y-18548793D02*
X3447920Y-18501174D01*
X3447920Y-18501174D02*
X3457443Y-18463079D01*
X3457443Y-18463079D02*
X3466967Y-18444031D01*
X3466967Y-18444031D02*
X3476491Y-18434508D01*
X3476491Y-18434508D02*
X3495539Y-18424984D01*
X3647920Y-18624984D02*
X3647920Y-18491650D01*
X3647920Y-18510698D02*
X3657443Y-18501174D01*
X3657443Y-18501174D02*
X3676491Y-18491650D01*
X3676491Y-18491650D02*
X3705063Y-18491650D01*
X3705063Y-18491650D02*
X3724110Y-18501174D01*
X3724110Y-18501174D02*
X3733634Y-18520222D01*
X3733634Y-18520222D02*
X3733634Y-18624984D01*
X3733634Y-18520222D02*
X3743158Y-18501174D01*
X3743158Y-18501174D02*
X3762205Y-18491650D01*
X3762205Y-18491650D02*
X3790777Y-18491650D01*
X3790777Y-18491650D02*
X3809824Y-18501174D01*
X3809824Y-18501174D02*
X3819348Y-18520222D01*
X3819348Y-18520222D02*
X3819348Y-18624984D01*
X3914586Y-18624984D02*
X3914586Y-18491650D01*
X3914586Y-18510698D02*
X3924110Y-18501174D01*
X3924110Y-18501174D02*
X3943158Y-18491650D01*
X3943158Y-18491650D02*
X3971729Y-18491650D01*
X3971729Y-18491650D02*
X3990777Y-18501174D01*
X3990777Y-18501174D02*
X4000301Y-18520222D01*
X4000301Y-18520222D02*
X4000301Y-18624984D01*
X4000301Y-18520222D02*
X4009824Y-18501174D01*
X4009824Y-18501174D02*
X4028872Y-18491650D01*
X4028872Y-18491650D02*
X4057443Y-18491650D01*
X4057443Y-18491650D02*
X4076491Y-18501174D01*
X4076491Y-18501174D02*
X4086015Y-18520222D01*
X4086015Y-18520222D02*
X4086015Y-18624984D01*
X4476491Y-18415460D02*
X4305063Y-18672603D01*
X4733634Y-18424984D02*
X4752682Y-18424984D01*
X4752682Y-18424984D02*
X4771729Y-18434508D01*
X4771729Y-18434508D02*
X4781253Y-18444031D01*
X4781253Y-18444031D02*
X4790777Y-18463079D01*
X4790777Y-18463079D02*
X4800301Y-18501174D01*
X4800301Y-18501174D02*
X4800301Y-18548793D01*
X4800301Y-18548793D02*
X4790777Y-18586889D01*
X4790777Y-18586889D02*
X4781253Y-18605936D01*
X4781253Y-18605936D02*
X4771729Y-18615460D01*
X4771729Y-18615460D02*
X4752682Y-18624984D01*
X4752682Y-18624984D02*
X4733634Y-18624984D01*
X4733634Y-18624984D02*
X4714587Y-18615460D01*
X4714587Y-18615460D02*
X4705063Y-18605936D01*
X4705063Y-18605936D02*
X4695539Y-18586889D01*
X4695539Y-18586889D02*
X4686015Y-18548793D01*
X4686015Y-18548793D02*
X4686015Y-18501174D01*
X4686015Y-18501174D02*
X4695539Y-18463079D01*
X4695539Y-18463079D02*
X4705063Y-18444031D01*
X4705063Y-18444031D02*
X4714587Y-18434508D01*
X4714587Y-18434508D02*
X4733634Y-18424984D01*
X4886015Y-18605936D02*
X4895539Y-18615460D01*
X4895539Y-18615460D02*
X4886015Y-18624984D01*
X4886015Y-18624984D02*
X4876491Y-18615460D01*
X4876491Y-18615460D02*
X4886015Y-18605936D01*
X4886015Y-18605936D02*
X4886015Y-18624984D01*
X5019348Y-18424984D02*
X5038396Y-18424984D01*
X5038396Y-18424984D02*
X5057444Y-18434508D01*
X5057444Y-18434508D02*
X5066968Y-18444031D01*
X5066968Y-18444031D02*
X5076491Y-18463079D01*
X5076491Y-18463079D02*
X5086015Y-18501174D01*
X5086015Y-18501174D02*
X5086015Y-18548793D01*
X5086015Y-18548793D02*
X5076491Y-18586889D01*
X5076491Y-18586889D02*
X5066968Y-18605936D01*
X5066968Y-18605936D02*
X5057444Y-18615460D01*
X5057444Y-18615460D02*
X5038396Y-18624984D01*
X5038396Y-18624984D02*
X5019348Y-18624984D01*
X5019348Y-18624984D02*
X5000301Y-18615460D01*
X5000301Y-18615460D02*
X4990777Y-18605936D01*
X4990777Y-18605936D02*
X4981253Y-18586889D01*
X4981253Y-18586889D02*
X4971729Y-18548793D01*
X4971729Y-18548793D02*
X4971729Y-18501174D01*
X4971729Y-18501174D02*
X4981253Y-18463079D01*
X4981253Y-18463079D02*
X4990777Y-18444031D01*
X4990777Y-18444031D02*
X5000301Y-18434508D01*
X5000301Y-18434508D02*
X5019348Y-18424984D01*
X5257444Y-18491650D02*
X5257444Y-18624984D01*
X5209825Y-18415460D02*
X5162206Y-18558317D01*
X5162206Y-18558317D02*
X5286015Y-18558317D01*
X5466968Y-18624984D02*
X5352682Y-18624984D01*
X5409825Y-18624984D02*
X5409825Y-18424984D01*
X5409825Y-18424984D02*
X5390777Y-18453555D01*
X5390777Y-18453555D02*
X5371729Y-18472603D01*
X5371729Y-18472603D02*
X5352682Y-18482127D01*
X5533634Y-18424984D02*
X5657444Y-18424984D01*
X5657444Y-18424984D02*
X5590777Y-18501174D01*
X5590777Y-18501174D02*
X5619348Y-18501174D01*
X5619348Y-18501174D02*
X5638396Y-18510698D01*
X5638396Y-18510698D02*
X5647920Y-18520222D01*
X5647920Y-18520222D02*
X5657444Y-18539270D01*
X5657444Y-18539270D02*
X5657444Y-18586889D01*
X5657444Y-18586889D02*
X5647920Y-18605936D01*
X5647920Y-18605936D02*
X5638396Y-18615460D01*
X5638396Y-18615460D02*
X5619348Y-18624984D01*
X5619348Y-18624984D02*
X5562206Y-18624984D01*
X5562206Y-18624984D02*
X5543158Y-18615460D01*
X5543158Y-18615460D02*
X5533634Y-18605936D01*
X5733634Y-18424984D02*
X5733634Y-18463079D01*
X5809825Y-18424984D02*
X5809825Y-18463079D01*
X6105063Y-18701174D02*
X6095539Y-18691650D01*
X6095539Y-18691650D02*
X6076491Y-18663079D01*
X6076491Y-18663079D02*
X6066968Y-18644031D01*
X6066968Y-18644031D02*
X6057444Y-18615460D01*
X6057444Y-18615460D02*
X6047920Y-18567841D01*
X6047920Y-18567841D02*
X6047920Y-18529746D01*
X6047920Y-18529746D02*
X6057444Y-18482127D01*
X6057444Y-18482127D02*
X6066968Y-18453555D01*
X6066968Y-18453555D02*
X6076491Y-18434508D01*
X6076491Y-18434508D02*
X6095539Y-18405936D01*
X6095539Y-18405936D02*
X6105063Y-18396412D01*
X6286015Y-18624984D02*
X6171729Y-18624984D01*
X6228872Y-18624984D02*
X6228872Y-18424984D01*
X6228872Y-18424984D02*
X6209825Y-18453555D01*
X6209825Y-18453555D02*
X6190777Y-18472603D01*
X6190777Y-18472603D02*
X6171729Y-18482127D01*
X6362206Y-18444031D02*
X6371729Y-18434508D01*
X6371729Y-18434508D02*
X6390777Y-18424984D01*
X6390777Y-18424984D02*
X6438396Y-18424984D01*
X6438396Y-18424984D02*
X6457444Y-18434508D01*
X6457444Y-18434508D02*
X6466968Y-18444031D01*
X6466968Y-18444031D02*
X6476491Y-18463079D01*
X6476491Y-18463079D02*
X6476491Y-18482127D01*
X6476491Y-18482127D02*
X6466968Y-18510698D01*
X6466968Y-18510698D02*
X6352682Y-18624984D01*
X6352682Y-18624984D02*
X6476491Y-18624984D01*
X6714587Y-18624984D02*
X6714587Y-18424984D01*
X6800301Y-18624984D02*
X6800301Y-18520222D01*
X6800301Y-18520222D02*
X6790777Y-18501174D01*
X6790777Y-18501174D02*
X6771730Y-18491650D01*
X6771730Y-18491650D02*
X6743158Y-18491650D01*
X6743158Y-18491650D02*
X6724110Y-18501174D01*
X6724110Y-18501174D02*
X6714587Y-18510698D01*
X6924110Y-18624984D02*
X6905063Y-18615460D01*
X6905063Y-18615460D02*
X6895539Y-18605936D01*
X6895539Y-18605936D02*
X6886015Y-18586889D01*
X6886015Y-18586889D02*
X6886015Y-18529746D01*
X6886015Y-18529746D02*
X6895539Y-18510698D01*
X6895539Y-18510698D02*
X6905063Y-18501174D01*
X6905063Y-18501174D02*
X6924110Y-18491650D01*
X6924110Y-18491650D02*
X6952682Y-18491650D01*
X6952682Y-18491650D02*
X6971730Y-18501174D01*
X6971730Y-18501174D02*
X6981253Y-18510698D01*
X6981253Y-18510698D02*
X6990777Y-18529746D01*
X6990777Y-18529746D02*
X6990777Y-18586889D01*
X6990777Y-18586889D02*
X6981253Y-18605936D01*
X6981253Y-18605936D02*
X6971730Y-18615460D01*
X6971730Y-18615460D02*
X6952682Y-18624984D01*
X6952682Y-18624984D02*
X6924110Y-18624984D01*
X7105063Y-18624984D02*
X7086015Y-18615460D01*
X7086015Y-18615460D02*
X7076491Y-18596412D01*
X7076491Y-18596412D02*
X7076491Y-18424984D01*
X7257444Y-18615460D02*
X7238396Y-18624984D01*
X7238396Y-18624984D02*
X7200301Y-18624984D01*
X7200301Y-18624984D02*
X7181253Y-18615460D01*
X7181253Y-18615460D02*
X7171730Y-18596412D01*
X7171730Y-18596412D02*
X7171730Y-18520222D01*
X7171730Y-18520222D02*
X7181253Y-18501174D01*
X7181253Y-18501174D02*
X7200301Y-18491650D01*
X7200301Y-18491650D02*
X7238396Y-18491650D01*
X7238396Y-18491650D02*
X7257444Y-18501174D01*
X7257444Y-18501174D02*
X7266968Y-18520222D01*
X7266968Y-18520222D02*
X7266968Y-18539270D01*
X7266968Y-18539270D02*
X7171730Y-18558317D01*
X7343158Y-18615460D02*
X7362206Y-18624984D01*
X7362206Y-18624984D02*
X7400301Y-18624984D01*
X7400301Y-18624984D02*
X7419349Y-18615460D01*
X7419349Y-18615460D02*
X7428872Y-18596412D01*
X7428872Y-18596412D02*
X7428872Y-18586889D01*
X7428872Y-18586889D02*
X7419349Y-18567841D01*
X7419349Y-18567841D02*
X7400301Y-18558317D01*
X7400301Y-18558317D02*
X7371730Y-18558317D01*
X7371730Y-18558317D02*
X7352682Y-18548793D01*
X7352682Y-18548793D02*
X7343158Y-18529746D01*
X7343158Y-18529746D02*
X7343158Y-18520222D01*
X7343158Y-18520222D02*
X7352682Y-18501174D01*
X7352682Y-18501174D02*
X7371730Y-18491650D01*
X7371730Y-18491650D02*
X7400301Y-18491650D01*
X7400301Y-18491650D02*
X7419349Y-18501174D01*
X7495539Y-18701174D02*
X7505063Y-18691650D01*
X7505063Y-18691650D02*
X7524111Y-18663079D01*
X7524111Y-18663079D02*
X7533634Y-18644031D01*
X7533634Y-18644031D02*
X7543158Y-18615460D01*
X7543158Y-18615460D02*
X7552682Y-18567841D01*
X7552682Y-18567841D02*
X7552682Y-18529746D01*
X7552682Y-18529746D02*
X7543158Y-18482127D01*
X7543158Y-18482127D02*
X7533634Y-18453555D01*
X7533634Y-18453555D02*
X7524111Y-18434508D01*
X7524111Y-18434508D02*
X7505063Y-18405936D01*
X7505063Y-18405936D02*
X7495539Y-18396412D01*
D13*
X2419998Y-18742499D02*
X2530000Y-18852501D01*
X2530000Y-18742499D02*
X2419998Y-18852501D01*
X2530000Y-18797500D02*
G75*
G02*
X2419998Y-18797500I-55001J0D01*
G01*
X2419998Y-18797500D02*
G75*
G02*
X2530000Y-18797500I55001J0D01*
G01*
D11*
X2895539Y-18888984D02*
X2781253Y-18888984D01*
X2838396Y-18888984D02*
X2838396Y-18688984D01*
X2838396Y-18688984D02*
X2819348Y-18717555D01*
X2819348Y-18717555D02*
X2800301Y-18736603D01*
X2800301Y-18736603D02*
X2781253Y-18746127D01*
X2981253Y-18869936D02*
X2990777Y-18879460D01*
X2990777Y-18879460D02*
X2981253Y-18888984D01*
X2981253Y-18888984D02*
X2971729Y-18879460D01*
X2971729Y-18879460D02*
X2981253Y-18869936D01*
X2981253Y-18869936D02*
X2981253Y-18888984D01*
X3181253Y-18888984D02*
X3066967Y-18888984D01*
X3124110Y-18888984D02*
X3124110Y-18688984D01*
X3124110Y-18688984D02*
X3105062Y-18717555D01*
X3105062Y-18717555D02*
X3086015Y-18736603D01*
X3086015Y-18736603D02*
X3066967Y-18746127D01*
X3305062Y-18688984D02*
X3324110Y-18688984D01*
X3324110Y-18688984D02*
X3343158Y-18698508D01*
X3343158Y-18698508D02*
X3352682Y-18708031D01*
X3352682Y-18708031D02*
X3362205Y-18727079D01*
X3362205Y-18727079D02*
X3371729Y-18765174D01*
X3371729Y-18765174D02*
X3371729Y-18812793D01*
X3371729Y-18812793D02*
X3362205Y-18850889D01*
X3362205Y-18850889D02*
X3352682Y-18869936D01*
X3352682Y-18869936D02*
X3343158Y-18879460D01*
X3343158Y-18879460D02*
X3324110Y-18888984D01*
X3324110Y-18888984D02*
X3305062Y-18888984D01*
X3305062Y-18888984D02*
X3286015Y-18879460D01*
X3286015Y-18879460D02*
X3276491Y-18869936D01*
X3276491Y-18869936D02*
X3266967Y-18850889D01*
X3266967Y-18850889D02*
X3257443Y-18812793D01*
X3257443Y-18812793D02*
X3257443Y-18765174D01*
X3257443Y-18765174D02*
X3266967Y-18727079D01*
X3266967Y-18727079D02*
X3276491Y-18708031D01*
X3276491Y-18708031D02*
X3286015Y-18698508D01*
X3286015Y-18698508D02*
X3305062Y-18688984D01*
X3495539Y-18688984D02*
X3514586Y-18688984D01*
X3514586Y-18688984D02*
X3533634Y-18698508D01*
X3533634Y-18698508D02*
X3543158Y-18708031D01*
X3543158Y-18708031D02*
X3552682Y-18727079D01*
X3552682Y-18727079D02*
X3562205Y-18765174D01*
X3562205Y-18765174D02*
X3562205Y-18812793D01*
X3562205Y-18812793D02*
X3552682Y-18850889D01*
X3552682Y-18850889D02*
X3543158Y-18869936D01*
X3543158Y-18869936D02*
X3533634Y-18879460D01*
X3533634Y-18879460D02*
X3514586Y-18888984D01*
X3514586Y-18888984D02*
X3495539Y-18888984D01*
X3495539Y-18888984D02*
X3476491Y-18879460D01*
X3476491Y-18879460D02*
X3466967Y-18869936D01*
X3466967Y-18869936D02*
X3457443Y-18850889D01*
X3457443Y-18850889D02*
X3447920Y-18812793D01*
X3447920Y-18812793D02*
X3447920Y-18765174D01*
X3447920Y-18765174D02*
X3457443Y-18727079D01*
X3457443Y-18727079D02*
X3466967Y-18708031D01*
X3466967Y-18708031D02*
X3476491Y-18698508D01*
X3476491Y-18698508D02*
X3495539Y-18688984D01*
X3647920Y-18888984D02*
X3647920Y-18755650D01*
X3647920Y-18774698D02*
X3657443Y-18765174D01*
X3657443Y-18765174D02*
X3676491Y-18755650D01*
X3676491Y-18755650D02*
X3705063Y-18755650D01*
X3705063Y-18755650D02*
X3724110Y-18765174D01*
X3724110Y-18765174D02*
X3733634Y-18784222D01*
X3733634Y-18784222D02*
X3733634Y-18888984D01*
X3733634Y-18784222D02*
X3743158Y-18765174D01*
X3743158Y-18765174D02*
X3762205Y-18755650D01*
X3762205Y-18755650D02*
X3790777Y-18755650D01*
X3790777Y-18755650D02*
X3809824Y-18765174D01*
X3809824Y-18765174D02*
X3819348Y-18784222D01*
X3819348Y-18784222D02*
X3819348Y-18888984D01*
X3914586Y-18888984D02*
X3914586Y-18755650D01*
X3914586Y-18774698D02*
X3924110Y-18765174D01*
X3924110Y-18765174D02*
X3943158Y-18755650D01*
X3943158Y-18755650D02*
X3971729Y-18755650D01*
X3971729Y-18755650D02*
X3990777Y-18765174D01*
X3990777Y-18765174D02*
X4000301Y-18784222D01*
X4000301Y-18784222D02*
X4000301Y-18888984D01*
X4000301Y-18784222D02*
X4009824Y-18765174D01*
X4009824Y-18765174D02*
X4028872Y-18755650D01*
X4028872Y-18755650D02*
X4057443Y-18755650D01*
X4057443Y-18755650D02*
X4076491Y-18765174D01*
X4076491Y-18765174D02*
X4086015Y-18784222D01*
X4086015Y-18784222D02*
X4086015Y-18888984D01*
X4476491Y-18679460D02*
X4305063Y-18936603D01*
X4733634Y-18688984D02*
X4752682Y-18688984D01*
X4752682Y-18688984D02*
X4771729Y-18698508D01*
X4771729Y-18698508D02*
X4781253Y-18708031D01*
X4781253Y-18708031D02*
X4790777Y-18727079D01*
X4790777Y-18727079D02*
X4800301Y-18765174D01*
X4800301Y-18765174D02*
X4800301Y-18812793D01*
X4800301Y-18812793D02*
X4790777Y-18850889D01*
X4790777Y-18850889D02*
X4781253Y-18869936D01*
X4781253Y-18869936D02*
X4771729Y-18879460D01*
X4771729Y-18879460D02*
X4752682Y-18888984D01*
X4752682Y-18888984D02*
X4733634Y-18888984D01*
X4733634Y-18888984D02*
X4714587Y-18879460D01*
X4714587Y-18879460D02*
X4705063Y-18869936D01*
X4705063Y-18869936D02*
X4695539Y-18850889D01*
X4695539Y-18850889D02*
X4686015Y-18812793D01*
X4686015Y-18812793D02*
X4686015Y-18765174D01*
X4686015Y-18765174D02*
X4695539Y-18727079D01*
X4695539Y-18727079D02*
X4705063Y-18708031D01*
X4705063Y-18708031D02*
X4714587Y-18698508D01*
X4714587Y-18698508D02*
X4733634Y-18688984D01*
X4886015Y-18869936D02*
X4895539Y-18879460D01*
X4895539Y-18879460D02*
X4886015Y-18888984D01*
X4886015Y-18888984D02*
X4876491Y-18879460D01*
X4876491Y-18879460D02*
X4886015Y-18869936D01*
X4886015Y-18869936D02*
X4886015Y-18888984D01*
X5019348Y-18688984D02*
X5038396Y-18688984D01*
X5038396Y-18688984D02*
X5057444Y-18698508D01*
X5057444Y-18698508D02*
X5066968Y-18708031D01*
X5066968Y-18708031D02*
X5076491Y-18727079D01*
X5076491Y-18727079D02*
X5086015Y-18765174D01*
X5086015Y-18765174D02*
X5086015Y-18812793D01*
X5086015Y-18812793D02*
X5076491Y-18850889D01*
X5076491Y-18850889D02*
X5066968Y-18869936D01*
X5066968Y-18869936D02*
X5057444Y-18879460D01*
X5057444Y-18879460D02*
X5038396Y-18888984D01*
X5038396Y-18888984D02*
X5019348Y-18888984D01*
X5019348Y-18888984D02*
X5000301Y-18879460D01*
X5000301Y-18879460D02*
X4990777Y-18869936D01*
X4990777Y-18869936D02*
X4981253Y-18850889D01*
X4981253Y-18850889D02*
X4971729Y-18812793D01*
X4971729Y-18812793D02*
X4971729Y-18765174D01*
X4971729Y-18765174D02*
X4981253Y-18727079D01*
X4981253Y-18727079D02*
X4990777Y-18708031D01*
X4990777Y-18708031D02*
X5000301Y-18698508D01*
X5000301Y-18698508D02*
X5019348Y-18688984D01*
X5257444Y-18755650D02*
X5257444Y-18888984D01*
X5209825Y-18679460D02*
X5162206Y-18822317D01*
X5162206Y-18822317D02*
X5286015Y-18822317D01*
X5343158Y-18688984D02*
X5466968Y-18688984D01*
X5466968Y-18688984D02*
X5400301Y-18765174D01*
X5400301Y-18765174D02*
X5428872Y-18765174D01*
X5428872Y-18765174D02*
X5447920Y-18774698D01*
X5447920Y-18774698D02*
X5457444Y-18784222D01*
X5457444Y-18784222D02*
X5466968Y-18803270D01*
X5466968Y-18803270D02*
X5466968Y-18850889D01*
X5466968Y-18850889D02*
X5457444Y-18869936D01*
X5457444Y-18869936D02*
X5447920Y-18879460D01*
X5447920Y-18879460D02*
X5428872Y-18888984D01*
X5428872Y-18888984D02*
X5371729Y-18888984D01*
X5371729Y-18888984D02*
X5352682Y-18879460D01*
X5352682Y-18879460D02*
X5343158Y-18869936D01*
X5533634Y-18688984D02*
X5657444Y-18688984D01*
X5657444Y-18688984D02*
X5590777Y-18765174D01*
X5590777Y-18765174D02*
X5619348Y-18765174D01*
X5619348Y-18765174D02*
X5638396Y-18774698D01*
X5638396Y-18774698D02*
X5647920Y-18784222D01*
X5647920Y-18784222D02*
X5657444Y-18803270D01*
X5657444Y-18803270D02*
X5657444Y-18850889D01*
X5657444Y-18850889D02*
X5647920Y-18869936D01*
X5647920Y-18869936D02*
X5638396Y-18879460D01*
X5638396Y-18879460D02*
X5619348Y-18888984D01*
X5619348Y-18888984D02*
X5562206Y-18888984D01*
X5562206Y-18888984D02*
X5543158Y-18879460D01*
X5543158Y-18879460D02*
X5533634Y-18869936D01*
X5733634Y-18688984D02*
X5733634Y-18727079D01*
X5809825Y-18688984D02*
X5809825Y-18727079D01*
X6105063Y-18965174D02*
X6095539Y-18955650D01*
X6095539Y-18955650D02*
X6076491Y-18927079D01*
X6076491Y-18927079D02*
X6066968Y-18908031D01*
X6066968Y-18908031D02*
X6057444Y-18879460D01*
X6057444Y-18879460D02*
X6047920Y-18831841D01*
X6047920Y-18831841D02*
X6047920Y-18793746D01*
X6047920Y-18793746D02*
X6057444Y-18746127D01*
X6057444Y-18746127D02*
X6066968Y-18717555D01*
X6066968Y-18717555D02*
X6076491Y-18698508D01*
X6076491Y-18698508D02*
X6095539Y-18669936D01*
X6095539Y-18669936D02*
X6105063Y-18660412D01*
X6266968Y-18755650D02*
X6266968Y-18888984D01*
X6219348Y-18679460D02*
X6171729Y-18822317D01*
X6171729Y-18822317D02*
X6295539Y-18822317D01*
X6352682Y-18688984D02*
X6476491Y-18688984D01*
X6476491Y-18688984D02*
X6409825Y-18765174D01*
X6409825Y-18765174D02*
X6438396Y-18765174D01*
X6438396Y-18765174D02*
X6457444Y-18774698D01*
X6457444Y-18774698D02*
X6466968Y-18784222D01*
X6466968Y-18784222D02*
X6476491Y-18803270D01*
X6476491Y-18803270D02*
X6476491Y-18850889D01*
X6476491Y-18850889D02*
X6466968Y-18869936D01*
X6466968Y-18869936D02*
X6457444Y-18879460D01*
X6457444Y-18879460D02*
X6438396Y-18888984D01*
X6438396Y-18888984D02*
X6381253Y-18888984D01*
X6381253Y-18888984D02*
X6362206Y-18879460D01*
X6362206Y-18879460D02*
X6352682Y-18869936D01*
X6714587Y-18888984D02*
X6714587Y-18688984D01*
X6800301Y-18888984D02*
X6800301Y-18784222D01*
X6800301Y-18784222D02*
X6790777Y-18765174D01*
X6790777Y-18765174D02*
X6771730Y-18755650D01*
X6771730Y-18755650D02*
X6743158Y-18755650D01*
X6743158Y-18755650D02*
X6724110Y-18765174D01*
X6724110Y-18765174D02*
X6714587Y-18774698D01*
X6924110Y-18888984D02*
X6905063Y-18879460D01*
X6905063Y-18879460D02*
X6895539Y-18869936D01*
X6895539Y-18869936D02*
X6886015Y-18850889D01*
X6886015Y-18850889D02*
X6886015Y-18793746D01*
X6886015Y-18793746D02*
X6895539Y-18774698D01*
X6895539Y-18774698D02*
X6905063Y-18765174D01*
X6905063Y-18765174D02*
X6924110Y-18755650D01*
X6924110Y-18755650D02*
X6952682Y-18755650D01*
X6952682Y-18755650D02*
X6971730Y-18765174D01*
X6971730Y-18765174D02*
X6981253Y-18774698D01*
X6981253Y-18774698D02*
X6990777Y-18793746D01*
X6990777Y-18793746D02*
X6990777Y-18850889D01*
X6990777Y-18850889D02*
X6981253Y-18869936D01*
X6981253Y-18869936D02*
X6971730Y-18879460D01*
X6971730Y-18879460D02*
X6952682Y-18888984D01*
X6952682Y-18888984D02*
X6924110Y-18888984D01*
X7105063Y-18888984D02*
X7086015Y-18879460D01*
X7086015Y-18879460D02*
X7076491Y-18860412D01*
X7076491Y-18860412D02*
X7076491Y-18688984D01*
X7257444Y-18879460D02*
X7238396Y-18888984D01*
X7238396Y-18888984D02*
X7200301Y-18888984D01*
X7200301Y-18888984D02*
X7181253Y-18879460D01*
X7181253Y-18879460D02*
X7171730Y-18860412D01*
X7171730Y-18860412D02*
X7171730Y-18784222D01*
X7171730Y-18784222D02*
X7181253Y-18765174D01*
X7181253Y-18765174D02*
X7200301Y-18755650D01*
X7200301Y-18755650D02*
X7238396Y-18755650D01*
X7238396Y-18755650D02*
X7257444Y-18765174D01*
X7257444Y-18765174D02*
X7266968Y-18784222D01*
X7266968Y-18784222D02*
X7266968Y-18803270D01*
X7266968Y-18803270D02*
X7171730Y-18822317D01*
X7343158Y-18879460D02*
X7362206Y-18888984D01*
X7362206Y-18888984D02*
X7400301Y-18888984D01*
X7400301Y-18888984D02*
X7419349Y-18879460D01*
X7419349Y-18879460D02*
X7428872Y-18860412D01*
X7428872Y-18860412D02*
X7428872Y-18850889D01*
X7428872Y-18850889D02*
X7419349Y-18831841D01*
X7419349Y-18831841D02*
X7400301Y-18822317D01*
X7400301Y-18822317D02*
X7371730Y-18822317D01*
X7371730Y-18822317D02*
X7352682Y-18812793D01*
X7352682Y-18812793D02*
X7343158Y-18793746D01*
X7343158Y-18793746D02*
X7343158Y-18784222D01*
X7343158Y-18784222D02*
X7352682Y-18765174D01*
X7352682Y-18765174D02*
X7371730Y-18755650D01*
X7371730Y-18755650D02*
X7400301Y-18755650D01*
X7400301Y-18755650D02*
X7419349Y-18765174D01*
X7495539Y-18965174D02*
X7505063Y-18955650D01*
X7505063Y-18955650D02*
X7524111Y-18927079D01*
X7524111Y-18927079D02*
X7533634Y-18908031D01*
X7533634Y-18908031D02*
X7543158Y-18879460D01*
X7543158Y-18879460D02*
X7552682Y-18831841D01*
X7552682Y-18831841D02*
X7552682Y-18793746D01*
X7552682Y-18793746D02*
X7543158Y-18746127D01*
X7543158Y-18746127D02*
X7533634Y-18717555D01*
X7533634Y-18717555D02*
X7524111Y-18698508D01*
X7524111Y-18698508D02*
X7505063Y-18669936D01*
X7505063Y-18669936D02*
X7495539Y-18660412D01*
D14*
X2379998Y-18986499D02*
X2530000Y-19136501D01*
X2530000Y-18986499D02*
X2379998Y-19136501D01*
X2454999Y-18986499D02*
X2454999Y-19136501D01*
X2379998Y-19061500D02*
X2530000Y-19061500D01*
D11*
X2895539Y-19152984D02*
X2781253Y-19152984D01*
X2838396Y-19152984D02*
X2838396Y-18952984D01*
X2838396Y-18952984D02*
X2819348Y-18981555D01*
X2819348Y-18981555D02*
X2800301Y-19000603D01*
X2800301Y-19000603D02*
X2781253Y-19010127D01*
X2981253Y-19133936D02*
X2990777Y-19143460D01*
X2990777Y-19143460D02*
X2981253Y-19152984D01*
X2981253Y-19152984D02*
X2971729Y-19143460D01*
X2971729Y-19143460D02*
X2981253Y-19133936D01*
X2981253Y-19133936D02*
X2981253Y-19152984D01*
X3171729Y-18952984D02*
X3076491Y-18952984D01*
X3076491Y-18952984D02*
X3066967Y-19048222D01*
X3066967Y-19048222D02*
X3076491Y-19038698D01*
X3076491Y-19038698D02*
X3095539Y-19029174D01*
X3095539Y-19029174D02*
X3143158Y-19029174D01*
X3143158Y-19029174D02*
X3162205Y-19038698D01*
X3162205Y-19038698D02*
X3171729Y-19048222D01*
X3171729Y-19048222D02*
X3181253Y-19067270D01*
X3181253Y-19067270D02*
X3181253Y-19114889D01*
X3181253Y-19114889D02*
X3171729Y-19133936D01*
X3171729Y-19133936D02*
X3162205Y-19143460D01*
X3162205Y-19143460D02*
X3143158Y-19152984D01*
X3143158Y-19152984D02*
X3095539Y-19152984D01*
X3095539Y-19152984D02*
X3076491Y-19143460D01*
X3076491Y-19143460D02*
X3066967Y-19133936D01*
X3305062Y-18952984D02*
X3324110Y-18952984D01*
X3324110Y-18952984D02*
X3343158Y-18962508D01*
X3343158Y-18962508D02*
X3352682Y-18972031D01*
X3352682Y-18972031D02*
X3362205Y-18991079D01*
X3362205Y-18991079D02*
X3371729Y-19029174D01*
X3371729Y-19029174D02*
X3371729Y-19076793D01*
X3371729Y-19076793D02*
X3362205Y-19114889D01*
X3362205Y-19114889D02*
X3352682Y-19133936D01*
X3352682Y-19133936D02*
X3343158Y-19143460D01*
X3343158Y-19143460D02*
X3324110Y-19152984D01*
X3324110Y-19152984D02*
X3305062Y-19152984D01*
X3305062Y-19152984D02*
X3286015Y-19143460D01*
X3286015Y-19143460D02*
X3276491Y-19133936D01*
X3276491Y-19133936D02*
X3266967Y-19114889D01*
X3266967Y-19114889D02*
X3257443Y-19076793D01*
X3257443Y-19076793D02*
X3257443Y-19029174D01*
X3257443Y-19029174D02*
X3266967Y-18991079D01*
X3266967Y-18991079D02*
X3276491Y-18972031D01*
X3276491Y-18972031D02*
X3286015Y-18962508D01*
X3286015Y-18962508D02*
X3305062Y-18952984D01*
X3495539Y-18952984D02*
X3514586Y-18952984D01*
X3514586Y-18952984D02*
X3533634Y-18962508D01*
X3533634Y-18962508D02*
X3543158Y-18972031D01*
X3543158Y-18972031D02*
X3552682Y-18991079D01*
X3552682Y-18991079D02*
X3562205Y-19029174D01*
X3562205Y-19029174D02*
X3562205Y-19076793D01*
X3562205Y-19076793D02*
X3552682Y-19114889D01*
X3552682Y-19114889D02*
X3543158Y-19133936D01*
X3543158Y-19133936D02*
X3533634Y-19143460D01*
X3533634Y-19143460D02*
X3514586Y-19152984D01*
X3514586Y-19152984D02*
X3495539Y-19152984D01*
X3495539Y-19152984D02*
X3476491Y-19143460D01*
X3476491Y-19143460D02*
X3466967Y-19133936D01*
X3466967Y-19133936D02*
X3457443Y-19114889D01*
X3457443Y-19114889D02*
X3447920Y-19076793D01*
X3447920Y-19076793D02*
X3447920Y-19029174D01*
X3447920Y-19029174D02*
X3457443Y-18991079D01*
X3457443Y-18991079D02*
X3466967Y-18972031D01*
X3466967Y-18972031D02*
X3476491Y-18962508D01*
X3476491Y-18962508D02*
X3495539Y-18952984D01*
X3647920Y-19152984D02*
X3647920Y-19019650D01*
X3647920Y-19038698D02*
X3657443Y-19029174D01*
X3657443Y-19029174D02*
X3676491Y-19019650D01*
X3676491Y-19019650D02*
X3705063Y-19019650D01*
X3705063Y-19019650D02*
X3724110Y-19029174D01*
X3724110Y-19029174D02*
X3733634Y-19048222D01*
X3733634Y-19048222D02*
X3733634Y-19152984D01*
X3733634Y-19048222D02*
X3743158Y-19029174D01*
X3743158Y-19029174D02*
X3762205Y-19019650D01*
X3762205Y-19019650D02*
X3790777Y-19019650D01*
X3790777Y-19019650D02*
X3809824Y-19029174D01*
X3809824Y-19029174D02*
X3819348Y-19048222D01*
X3819348Y-19048222D02*
X3819348Y-19152984D01*
X3914586Y-19152984D02*
X3914586Y-19019650D01*
X3914586Y-19038698D02*
X3924110Y-19029174D01*
X3924110Y-19029174D02*
X3943158Y-19019650D01*
X3943158Y-19019650D02*
X3971729Y-19019650D01*
X3971729Y-19019650D02*
X3990777Y-19029174D01*
X3990777Y-19029174D02*
X4000301Y-19048222D01*
X4000301Y-19048222D02*
X4000301Y-19152984D01*
X4000301Y-19048222D02*
X4009824Y-19029174D01*
X4009824Y-19029174D02*
X4028872Y-19019650D01*
X4028872Y-19019650D02*
X4057443Y-19019650D01*
X4057443Y-19019650D02*
X4076491Y-19029174D01*
X4076491Y-19029174D02*
X4086015Y-19048222D01*
X4086015Y-19048222D02*
X4086015Y-19152984D01*
X4476491Y-18943460D02*
X4305063Y-19200603D01*
X4733634Y-18952984D02*
X4752682Y-18952984D01*
X4752682Y-18952984D02*
X4771729Y-18962508D01*
X4771729Y-18962508D02*
X4781253Y-18972031D01*
X4781253Y-18972031D02*
X4790777Y-18991079D01*
X4790777Y-18991079D02*
X4800301Y-19029174D01*
X4800301Y-19029174D02*
X4800301Y-19076793D01*
X4800301Y-19076793D02*
X4790777Y-19114889D01*
X4790777Y-19114889D02*
X4781253Y-19133936D01*
X4781253Y-19133936D02*
X4771729Y-19143460D01*
X4771729Y-19143460D02*
X4752682Y-19152984D01*
X4752682Y-19152984D02*
X4733634Y-19152984D01*
X4733634Y-19152984D02*
X4714587Y-19143460D01*
X4714587Y-19143460D02*
X4705063Y-19133936D01*
X4705063Y-19133936D02*
X4695539Y-19114889D01*
X4695539Y-19114889D02*
X4686015Y-19076793D01*
X4686015Y-19076793D02*
X4686015Y-19029174D01*
X4686015Y-19029174D02*
X4695539Y-18991079D01*
X4695539Y-18991079D02*
X4705063Y-18972031D01*
X4705063Y-18972031D02*
X4714587Y-18962508D01*
X4714587Y-18962508D02*
X4733634Y-18952984D01*
X4886015Y-19133936D02*
X4895539Y-19143460D01*
X4895539Y-19143460D02*
X4886015Y-19152984D01*
X4886015Y-19152984D02*
X4876491Y-19143460D01*
X4876491Y-19143460D02*
X4886015Y-19133936D01*
X4886015Y-19133936D02*
X4886015Y-19152984D01*
X5019348Y-18952984D02*
X5038396Y-18952984D01*
X5038396Y-18952984D02*
X5057444Y-18962508D01*
X5057444Y-18962508D02*
X5066968Y-18972031D01*
X5066968Y-18972031D02*
X5076491Y-18991079D01*
X5076491Y-18991079D02*
X5086015Y-19029174D01*
X5086015Y-19029174D02*
X5086015Y-19076793D01*
X5086015Y-19076793D02*
X5076491Y-19114889D01*
X5076491Y-19114889D02*
X5066968Y-19133936D01*
X5066968Y-19133936D02*
X5057444Y-19143460D01*
X5057444Y-19143460D02*
X5038396Y-19152984D01*
X5038396Y-19152984D02*
X5019348Y-19152984D01*
X5019348Y-19152984D02*
X5000301Y-19143460D01*
X5000301Y-19143460D02*
X4990777Y-19133936D01*
X4990777Y-19133936D02*
X4981253Y-19114889D01*
X4981253Y-19114889D02*
X4971729Y-19076793D01*
X4971729Y-19076793D02*
X4971729Y-19029174D01*
X4971729Y-19029174D02*
X4981253Y-18991079D01*
X4981253Y-18991079D02*
X4990777Y-18972031D01*
X4990777Y-18972031D02*
X5000301Y-18962508D01*
X5000301Y-18962508D02*
X5019348Y-18952984D01*
X5266968Y-18952984D02*
X5171729Y-18952984D01*
X5171729Y-18952984D02*
X5162206Y-19048222D01*
X5162206Y-19048222D02*
X5171729Y-19038698D01*
X5171729Y-19038698D02*
X5190777Y-19029174D01*
X5190777Y-19029174D02*
X5238396Y-19029174D01*
X5238396Y-19029174D02*
X5257444Y-19038698D01*
X5257444Y-19038698D02*
X5266968Y-19048222D01*
X5266968Y-19048222D02*
X5276491Y-19067270D01*
X5276491Y-19067270D02*
X5276491Y-19114889D01*
X5276491Y-19114889D02*
X5266968Y-19133936D01*
X5266968Y-19133936D02*
X5257444Y-19143460D01*
X5257444Y-19143460D02*
X5238396Y-19152984D01*
X5238396Y-19152984D02*
X5190777Y-19152984D01*
X5190777Y-19152984D02*
X5171729Y-19143460D01*
X5171729Y-19143460D02*
X5162206Y-19133936D01*
X5371729Y-19152984D02*
X5409825Y-19152984D01*
X5409825Y-19152984D02*
X5428872Y-19143460D01*
X5428872Y-19143460D02*
X5438396Y-19133936D01*
X5438396Y-19133936D02*
X5457444Y-19105365D01*
X5457444Y-19105365D02*
X5466968Y-19067270D01*
X5466968Y-19067270D02*
X5466968Y-18991079D01*
X5466968Y-18991079D02*
X5457444Y-18972031D01*
X5457444Y-18972031D02*
X5447920Y-18962508D01*
X5447920Y-18962508D02*
X5428872Y-18952984D01*
X5428872Y-18952984D02*
X5390777Y-18952984D01*
X5390777Y-18952984D02*
X5371729Y-18962508D01*
X5371729Y-18962508D02*
X5362206Y-18972031D01*
X5362206Y-18972031D02*
X5352682Y-18991079D01*
X5352682Y-18991079D02*
X5352682Y-19038698D01*
X5352682Y-19038698D02*
X5362206Y-19057746D01*
X5362206Y-19057746D02*
X5371729Y-19067270D01*
X5371729Y-19067270D02*
X5390777Y-19076793D01*
X5390777Y-19076793D02*
X5428872Y-19076793D01*
X5428872Y-19076793D02*
X5447920Y-19067270D01*
X5447920Y-19067270D02*
X5457444Y-19057746D01*
X5457444Y-19057746D02*
X5466968Y-19038698D01*
X5657444Y-19152984D02*
X5543158Y-19152984D01*
X5600301Y-19152984D02*
X5600301Y-18952984D01*
X5600301Y-18952984D02*
X5581253Y-18981555D01*
X5581253Y-18981555D02*
X5562206Y-19000603D01*
X5562206Y-19000603D02*
X5543158Y-19010127D01*
X5733634Y-18952984D02*
X5733634Y-18991079D01*
X5809825Y-18952984D02*
X5809825Y-18991079D01*
X6105063Y-19229174D02*
X6095539Y-19219650D01*
X6095539Y-19219650D02*
X6076491Y-19191079D01*
X6076491Y-19191079D02*
X6066968Y-19172031D01*
X6066968Y-19172031D02*
X6057444Y-19143460D01*
X6057444Y-19143460D02*
X6047920Y-19095841D01*
X6047920Y-19095841D02*
X6047920Y-19057746D01*
X6047920Y-19057746D02*
X6057444Y-19010127D01*
X6057444Y-19010127D02*
X6066968Y-18981555D01*
X6066968Y-18981555D02*
X6076491Y-18962508D01*
X6076491Y-18962508D02*
X6095539Y-18933936D01*
X6095539Y-18933936D02*
X6105063Y-18924412D01*
X6286015Y-19152984D02*
X6171729Y-19152984D01*
X6228872Y-19152984D02*
X6228872Y-18952984D01*
X6228872Y-18952984D02*
X6209825Y-18981555D01*
X6209825Y-18981555D02*
X6190777Y-19000603D01*
X6190777Y-19000603D02*
X6171729Y-19010127D01*
X6362206Y-18972031D02*
X6371729Y-18962508D01*
X6371729Y-18962508D02*
X6390777Y-18952984D01*
X6390777Y-18952984D02*
X6438396Y-18952984D01*
X6438396Y-18952984D02*
X6457444Y-18962508D01*
X6457444Y-18962508D02*
X6466968Y-18972031D01*
X6466968Y-18972031D02*
X6476491Y-18991079D01*
X6476491Y-18991079D02*
X6476491Y-19010127D01*
X6476491Y-19010127D02*
X6466968Y-19038698D01*
X6466968Y-19038698D02*
X6352682Y-19152984D01*
X6352682Y-19152984D02*
X6476491Y-19152984D01*
X6714587Y-19152984D02*
X6714587Y-18952984D01*
X6800301Y-19152984D02*
X6800301Y-19048222D01*
X6800301Y-19048222D02*
X6790777Y-19029174D01*
X6790777Y-19029174D02*
X6771730Y-19019650D01*
X6771730Y-19019650D02*
X6743158Y-19019650D01*
X6743158Y-19019650D02*
X6724110Y-19029174D01*
X6724110Y-19029174D02*
X6714587Y-19038698D01*
X6924110Y-19152984D02*
X6905063Y-19143460D01*
X6905063Y-19143460D02*
X6895539Y-19133936D01*
X6895539Y-19133936D02*
X6886015Y-19114889D01*
X6886015Y-19114889D02*
X6886015Y-19057746D01*
X6886015Y-19057746D02*
X6895539Y-19038698D01*
X6895539Y-19038698D02*
X6905063Y-19029174D01*
X6905063Y-19029174D02*
X6924110Y-19019650D01*
X6924110Y-19019650D02*
X6952682Y-19019650D01*
X6952682Y-19019650D02*
X6971730Y-19029174D01*
X6971730Y-19029174D02*
X6981253Y-19038698D01*
X6981253Y-19038698D02*
X6990777Y-19057746D01*
X6990777Y-19057746D02*
X6990777Y-19114889D01*
X6990777Y-19114889D02*
X6981253Y-19133936D01*
X6981253Y-19133936D02*
X6971730Y-19143460D01*
X6971730Y-19143460D02*
X6952682Y-19152984D01*
X6952682Y-19152984D02*
X6924110Y-19152984D01*
X7105063Y-19152984D02*
X7086015Y-19143460D01*
X7086015Y-19143460D02*
X7076491Y-19124412D01*
X7076491Y-19124412D02*
X7076491Y-18952984D01*
X7257444Y-19143460D02*
X7238396Y-19152984D01*
X7238396Y-19152984D02*
X7200301Y-19152984D01*
X7200301Y-19152984D02*
X7181253Y-19143460D01*
X7181253Y-19143460D02*
X7171730Y-19124412D01*
X7171730Y-19124412D02*
X7171730Y-19048222D01*
X7171730Y-19048222D02*
X7181253Y-19029174D01*
X7181253Y-19029174D02*
X7200301Y-19019650D01*
X7200301Y-19019650D02*
X7238396Y-19019650D01*
X7238396Y-19019650D02*
X7257444Y-19029174D01*
X7257444Y-19029174D02*
X7266968Y-19048222D01*
X7266968Y-19048222D02*
X7266968Y-19067270D01*
X7266968Y-19067270D02*
X7171730Y-19086317D01*
X7343158Y-19143460D02*
X7362206Y-19152984D01*
X7362206Y-19152984D02*
X7400301Y-19152984D01*
X7400301Y-19152984D02*
X7419349Y-19143460D01*
X7419349Y-19143460D02*
X7428872Y-19124412D01*
X7428872Y-19124412D02*
X7428872Y-19114889D01*
X7428872Y-19114889D02*
X7419349Y-19095841D01*
X7419349Y-19095841D02*
X7400301Y-19086317D01*
X7400301Y-19086317D02*
X7371730Y-19086317D01*
X7371730Y-19086317D02*
X7352682Y-19076793D01*
X7352682Y-19076793D02*
X7343158Y-19057746D01*
X7343158Y-19057746D02*
X7343158Y-19048222D01*
X7343158Y-19048222D02*
X7352682Y-19029174D01*
X7352682Y-19029174D02*
X7371730Y-19019650D01*
X7371730Y-19019650D02*
X7400301Y-19019650D01*
X7400301Y-19019650D02*
X7419349Y-19029174D01*
X7495539Y-19229174D02*
X7505063Y-19219650D01*
X7505063Y-19219650D02*
X7524111Y-19191079D01*
X7524111Y-19191079D02*
X7533634Y-19172031D01*
X7533634Y-19172031D02*
X7543158Y-19143460D01*
X7543158Y-19143460D02*
X7552682Y-19095841D01*
X7552682Y-19095841D02*
X7552682Y-19057746D01*
X7552682Y-19057746D02*
X7543158Y-19010127D01*
X7543158Y-19010127D02*
X7533634Y-18981555D01*
X7533634Y-18981555D02*
X7524111Y-18962508D01*
X7524111Y-18962508D02*
X7505063Y-18933936D01*
X7505063Y-18933936D02*
X7495539Y-18924412D01*
X2330000Y-19231503D02*
X2530000Y-19431503D01*
X2530000Y-19231503D02*
X2330000Y-19431503D01*
X2500711Y-19402214D02*
X2500711Y-19260791D01*
X2359289Y-19260791D01*
X2359289Y-19402214D01*
X2500711Y-19402214D01*
X2771729Y-19222986D02*
X2895539Y-19222986D01*
X2895539Y-19222986D02*
X2828872Y-19299177D01*
X2828872Y-19299177D02*
X2857443Y-19299177D01*
X2857443Y-19299177D02*
X2876491Y-19308701D01*
X2876491Y-19308701D02*
X2886015Y-19318224D01*
X2886015Y-19318224D02*
X2895539Y-19337272D01*
X2895539Y-19337272D02*
X2895539Y-19384891D01*
X2895539Y-19384891D02*
X2886015Y-19403939D01*
X2886015Y-19403939D02*
X2876491Y-19413463D01*
X2876491Y-19413463D02*
X2857443Y-19422986D01*
X2857443Y-19422986D02*
X2800301Y-19422986D01*
X2800301Y-19422986D02*
X2781253Y-19413463D01*
X2781253Y-19413463D02*
X2771729Y-19403939D01*
X2981253Y-19403939D02*
X2990777Y-19413463D01*
X2990777Y-19413463D02*
X2981253Y-19422986D01*
X2981253Y-19422986D02*
X2971729Y-19413463D01*
X2971729Y-19413463D02*
X2981253Y-19403939D01*
X2981253Y-19403939D02*
X2981253Y-19422986D01*
X3066967Y-19242034D02*
X3076491Y-19232510D01*
X3076491Y-19232510D02*
X3095539Y-19222986D01*
X3095539Y-19222986D02*
X3143158Y-19222986D01*
X3143158Y-19222986D02*
X3162205Y-19232510D01*
X3162205Y-19232510D02*
X3171729Y-19242034D01*
X3171729Y-19242034D02*
X3181253Y-19261082D01*
X3181253Y-19261082D02*
X3181253Y-19280129D01*
X3181253Y-19280129D02*
X3171729Y-19308701D01*
X3171729Y-19308701D02*
X3057443Y-19422986D01*
X3057443Y-19422986D02*
X3181253Y-19422986D01*
X3305062Y-19222986D02*
X3324110Y-19222986D01*
X3324110Y-19222986D02*
X3343158Y-19232510D01*
X3343158Y-19232510D02*
X3352682Y-19242034D01*
X3352682Y-19242034D02*
X3362205Y-19261082D01*
X3362205Y-19261082D02*
X3371729Y-19299177D01*
X3371729Y-19299177D02*
X3371729Y-19346796D01*
X3371729Y-19346796D02*
X3362205Y-19384891D01*
X3362205Y-19384891D02*
X3352682Y-19403939D01*
X3352682Y-19403939D02*
X3343158Y-19413463D01*
X3343158Y-19413463D02*
X3324110Y-19422986D01*
X3324110Y-19422986D02*
X3305062Y-19422986D01*
X3305062Y-19422986D02*
X3286015Y-19413463D01*
X3286015Y-19413463D02*
X3276491Y-19403939D01*
X3276491Y-19403939D02*
X3266967Y-19384891D01*
X3266967Y-19384891D02*
X3257443Y-19346796D01*
X3257443Y-19346796D02*
X3257443Y-19299177D01*
X3257443Y-19299177D02*
X3266967Y-19261082D01*
X3266967Y-19261082D02*
X3276491Y-19242034D01*
X3276491Y-19242034D02*
X3286015Y-19232510D01*
X3286015Y-19232510D02*
X3305062Y-19222986D01*
X3495539Y-19222986D02*
X3514586Y-19222986D01*
X3514586Y-19222986D02*
X3533634Y-19232510D01*
X3533634Y-19232510D02*
X3543158Y-19242034D01*
X3543158Y-19242034D02*
X3552682Y-19261082D01*
X3552682Y-19261082D02*
X3562205Y-19299177D01*
X3562205Y-19299177D02*
X3562205Y-19346796D01*
X3562205Y-19346796D02*
X3552682Y-19384891D01*
X3552682Y-19384891D02*
X3543158Y-19403939D01*
X3543158Y-19403939D02*
X3533634Y-19413463D01*
X3533634Y-19413463D02*
X3514586Y-19422986D01*
X3514586Y-19422986D02*
X3495539Y-19422986D01*
X3495539Y-19422986D02*
X3476491Y-19413463D01*
X3476491Y-19413463D02*
X3466967Y-19403939D01*
X3466967Y-19403939D02*
X3457443Y-19384891D01*
X3457443Y-19384891D02*
X3447920Y-19346796D01*
X3447920Y-19346796D02*
X3447920Y-19299177D01*
X3447920Y-19299177D02*
X3457443Y-19261082D01*
X3457443Y-19261082D02*
X3466967Y-19242034D01*
X3466967Y-19242034D02*
X3476491Y-19232510D01*
X3476491Y-19232510D02*
X3495539Y-19222986D01*
X3647920Y-19422986D02*
X3647920Y-19289653D01*
X3647920Y-19308701D02*
X3657443Y-19299177D01*
X3657443Y-19299177D02*
X3676491Y-19289653D01*
X3676491Y-19289653D02*
X3705063Y-19289653D01*
X3705063Y-19289653D02*
X3724110Y-19299177D01*
X3724110Y-19299177D02*
X3733634Y-19318224D01*
X3733634Y-19318224D02*
X3733634Y-19422986D01*
X3733634Y-19318224D02*
X3743158Y-19299177D01*
X3743158Y-19299177D02*
X3762205Y-19289653D01*
X3762205Y-19289653D02*
X3790777Y-19289653D01*
X3790777Y-19289653D02*
X3809824Y-19299177D01*
X3809824Y-19299177D02*
X3819348Y-19318224D01*
X3819348Y-19318224D02*
X3819348Y-19422986D01*
X3914586Y-19422986D02*
X3914586Y-19289653D01*
X3914586Y-19308701D02*
X3924110Y-19299177D01*
X3924110Y-19299177D02*
X3943158Y-19289653D01*
X3943158Y-19289653D02*
X3971729Y-19289653D01*
X3971729Y-19289653D02*
X3990777Y-19299177D01*
X3990777Y-19299177D02*
X4000301Y-19318224D01*
X4000301Y-19318224D02*
X4000301Y-19422986D01*
X4000301Y-19318224D02*
X4009824Y-19299177D01*
X4009824Y-19299177D02*
X4028872Y-19289653D01*
X4028872Y-19289653D02*
X4057443Y-19289653D01*
X4057443Y-19289653D02*
X4076491Y-19299177D01*
X4076491Y-19299177D02*
X4086015Y-19318224D01*
X4086015Y-19318224D02*
X4086015Y-19422986D01*
X4476491Y-19213463D02*
X4305063Y-19470605D01*
X4733634Y-19222986D02*
X4752682Y-19222986D01*
X4752682Y-19222986D02*
X4771729Y-19232510D01*
X4771729Y-19232510D02*
X4781253Y-19242034D01*
X4781253Y-19242034D02*
X4790777Y-19261082D01*
X4790777Y-19261082D02*
X4800301Y-19299177D01*
X4800301Y-19299177D02*
X4800301Y-19346796D01*
X4800301Y-19346796D02*
X4790777Y-19384891D01*
X4790777Y-19384891D02*
X4781253Y-19403939D01*
X4781253Y-19403939D02*
X4771729Y-19413463D01*
X4771729Y-19413463D02*
X4752682Y-19422986D01*
X4752682Y-19422986D02*
X4733634Y-19422986D01*
X4733634Y-19422986D02*
X4714587Y-19413463D01*
X4714587Y-19413463D02*
X4705063Y-19403939D01*
X4705063Y-19403939D02*
X4695539Y-19384891D01*
X4695539Y-19384891D02*
X4686015Y-19346796D01*
X4686015Y-19346796D02*
X4686015Y-19299177D01*
X4686015Y-19299177D02*
X4695539Y-19261082D01*
X4695539Y-19261082D02*
X4705063Y-19242034D01*
X4705063Y-19242034D02*
X4714587Y-19232510D01*
X4714587Y-19232510D02*
X4733634Y-19222986D01*
X4886015Y-19403939D02*
X4895539Y-19413463D01*
X4895539Y-19413463D02*
X4886015Y-19422986D01*
X4886015Y-19422986D02*
X4876491Y-19413463D01*
X4876491Y-19413463D02*
X4886015Y-19403939D01*
X4886015Y-19403939D02*
X4886015Y-19422986D01*
X5086015Y-19422986D02*
X4971729Y-19422986D01*
X5028872Y-19422986D02*
X5028872Y-19222986D01*
X5028872Y-19222986D02*
X5009825Y-19251558D01*
X5009825Y-19251558D02*
X4990777Y-19270605D01*
X4990777Y-19270605D02*
X4971729Y-19280129D01*
X5162206Y-19242034D02*
X5171729Y-19232510D01*
X5171729Y-19232510D02*
X5190777Y-19222986D01*
X5190777Y-19222986D02*
X5238396Y-19222986D01*
X5238396Y-19222986D02*
X5257444Y-19232510D01*
X5257444Y-19232510D02*
X5266968Y-19242034D01*
X5266968Y-19242034D02*
X5276491Y-19261082D01*
X5276491Y-19261082D02*
X5276491Y-19280129D01*
X5276491Y-19280129D02*
X5266968Y-19308701D01*
X5266968Y-19308701D02*
X5152682Y-19422986D01*
X5152682Y-19422986D02*
X5276491Y-19422986D01*
X5447920Y-19222986D02*
X5409825Y-19222986D01*
X5409825Y-19222986D02*
X5390777Y-19232510D01*
X5390777Y-19232510D02*
X5381253Y-19242034D01*
X5381253Y-19242034D02*
X5362206Y-19270605D01*
X5362206Y-19270605D02*
X5352682Y-19308701D01*
X5352682Y-19308701D02*
X5352682Y-19384891D01*
X5352682Y-19384891D02*
X5362206Y-19403939D01*
X5362206Y-19403939D02*
X5371729Y-19413463D01*
X5371729Y-19413463D02*
X5390777Y-19422986D01*
X5390777Y-19422986D02*
X5428872Y-19422986D01*
X5428872Y-19422986D02*
X5447920Y-19413463D01*
X5447920Y-19413463D02*
X5457444Y-19403939D01*
X5457444Y-19403939D02*
X5466968Y-19384891D01*
X5466968Y-19384891D02*
X5466968Y-19337272D01*
X5466968Y-19337272D02*
X5457444Y-19318224D01*
X5457444Y-19318224D02*
X5447920Y-19308701D01*
X5447920Y-19308701D02*
X5428872Y-19299177D01*
X5428872Y-19299177D02*
X5390777Y-19299177D01*
X5390777Y-19299177D02*
X5371729Y-19308701D01*
X5371729Y-19308701D02*
X5362206Y-19318224D01*
X5362206Y-19318224D02*
X5352682Y-19337272D01*
X5590777Y-19222986D02*
X5609825Y-19222986D01*
X5609825Y-19222986D02*
X5628872Y-19232510D01*
X5628872Y-19232510D02*
X5638396Y-19242034D01*
X5638396Y-19242034D02*
X5647920Y-19261082D01*
X5647920Y-19261082D02*
X5657444Y-19299177D01*
X5657444Y-19299177D02*
X5657444Y-19346796D01*
X5657444Y-19346796D02*
X5647920Y-19384891D01*
X5647920Y-19384891D02*
X5638396Y-19403939D01*
X5638396Y-19403939D02*
X5628872Y-19413463D01*
X5628872Y-19413463D02*
X5609825Y-19422986D01*
X5609825Y-19422986D02*
X5590777Y-19422986D01*
X5590777Y-19422986D02*
X5571729Y-19413463D01*
X5571729Y-19413463D02*
X5562206Y-19403939D01*
X5562206Y-19403939D02*
X5552682Y-19384891D01*
X5552682Y-19384891D02*
X5543158Y-19346796D01*
X5543158Y-19346796D02*
X5543158Y-19299177D01*
X5543158Y-19299177D02*
X5552682Y-19261082D01*
X5552682Y-19261082D02*
X5562206Y-19242034D01*
X5562206Y-19242034D02*
X5571729Y-19232510D01*
X5571729Y-19232510D02*
X5590777Y-19222986D01*
X5733634Y-19222986D02*
X5733634Y-19261082D01*
X5809825Y-19222986D02*
X5809825Y-19261082D01*
X6105063Y-19499177D02*
X6095539Y-19489653D01*
X6095539Y-19489653D02*
X6076491Y-19461082D01*
X6076491Y-19461082D02*
X6066968Y-19442034D01*
X6066968Y-19442034D02*
X6057444Y-19413463D01*
X6057444Y-19413463D02*
X6047920Y-19365843D01*
X6047920Y-19365843D02*
X6047920Y-19327748D01*
X6047920Y-19327748D02*
X6057444Y-19280129D01*
X6057444Y-19280129D02*
X6066968Y-19251558D01*
X6066968Y-19251558D02*
X6076491Y-19232510D01*
X6076491Y-19232510D02*
X6095539Y-19203939D01*
X6095539Y-19203939D02*
X6105063Y-19194415D01*
X6266968Y-19222986D02*
X6228872Y-19222986D01*
X6228872Y-19222986D02*
X6209825Y-19232510D01*
X6209825Y-19232510D02*
X6200301Y-19242034D01*
X6200301Y-19242034D02*
X6181253Y-19270605D01*
X6181253Y-19270605D02*
X6171729Y-19308701D01*
X6171729Y-19308701D02*
X6171729Y-19384891D01*
X6171729Y-19384891D02*
X6181253Y-19403939D01*
X6181253Y-19403939D02*
X6190777Y-19413463D01*
X6190777Y-19413463D02*
X6209825Y-19422986D01*
X6209825Y-19422986D02*
X6247920Y-19422986D01*
X6247920Y-19422986D02*
X6266968Y-19413463D01*
X6266968Y-19413463D02*
X6276491Y-19403939D01*
X6276491Y-19403939D02*
X6286015Y-19384891D01*
X6286015Y-19384891D02*
X6286015Y-19337272D01*
X6286015Y-19337272D02*
X6276491Y-19318224D01*
X6276491Y-19318224D02*
X6266968Y-19308701D01*
X6266968Y-19308701D02*
X6247920Y-19299177D01*
X6247920Y-19299177D02*
X6209825Y-19299177D01*
X6209825Y-19299177D02*
X6190777Y-19308701D01*
X6190777Y-19308701D02*
X6181253Y-19318224D01*
X6181253Y-19318224D02*
X6171729Y-19337272D01*
X6524110Y-19422986D02*
X6524110Y-19222986D01*
X6609825Y-19422986D02*
X6609825Y-19318224D01*
X6609825Y-19318224D02*
X6600301Y-19299177D01*
X6600301Y-19299177D02*
X6581253Y-19289653D01*
X6581253Y-19289653D02*
X6552682Y-19289653D01*
X6552682Y-19289653D02*
X6533634Y-19299177D01*
X6533634Y-19299177D02*
X6524110Y-19308701D01*
X6733634Y-19422986D02*
X6714587Y-19413463D01*
X6714587Y-19413463D02*
X6705063Y-19403939D01*
X6705063Y-19403939D02*
X6695539Y-19384891D01*
X6695539Y-19384891D02*
X6695539Y-19327748D01*
X6695539Y-19327748D02*
X6705063Y-19308701D01*
X6705063Y-19308701D02*
X6714587Y-19299177D01*
X6714587Y-19299177D02*
X6733634Y-19289653D01*
X6733634Y-19289653D02*
X6762206Y-19289653D01*
X6762206Y-19289653D02*
X6781253Y-19299177D01*
X6781253Y-19299177D02*
X6790777Y-19308701D01*
X6790777Y-19308701D02*
X6800301Y-19327748D01*
X6800301Y-19327748D02*
X6800301Y-19384891D01*
X6800301Y-19384891D02*
X6790777Y-19403939D01*
X6790777Y-19403939D02*
X6781253Y-19413463D01*
X6781253Y-19413463D02*
X6762206Y-19422986D01*
X6762206Y-19422986D02*
X6733634Y-19422986D01*
X6914587Y-19422986D02*
X6895539Y-19413463D01*
X6895539Y-19413463D02*
X6886015Y-19394415D01*
X6886015Y-19394415D02*
X6886015Y-19222986D01*
X7066968Y-19413463D02*
X7047920Y-19422986D01*
X7047920Y-19422986D02*
X7009825Y-19422986D01*
X7009825Y-19422986D02*
X6990777Y-19413463D01*
X6990777Y-19413463D02*
X6981253Y-19394415D01*
X6981253Y-19394415D02*
X6981253Y-19318224D01*
X6981253Y-19318224D02*
X6990777Y-19299177D01*
X6990777Y-19299177D02*
X7009825Y-19289653D01*
X7009825Y-19289653D02*
X7047920Y-19289653D01*
X7047920Y-19289653D02*
X7066968Y-19299177D01*
X7066968Y-19299177D02*
X7076491Y-19318224D01*
X7076491Y-19318224D02*
X7076491Y-19337272D01*
X7076491Y-19337272D02*
X6981253Y-19356320D01*
X7152682Y-19413463D02*
X7171730Y-19422986D01*
X7171730Y-19422986D02*
X7209825Y-19422986D01*
X7209825Y-19422986D02*
X7228872Y-19413463D01*
X7228872Y-19413463D02*
X7238396Y-19394415D01*
X7238396Y-19394415D02*
X7238396Y-19384891D01*
X7238396Y-19384891D02*
X7228872Y-19365843D01*
X7228872Y-19365843D02*
X7209825Y-19356320D01*
X7209825Y-19356320D02*
X7181253Y-19356320D01*
X7181253Y-19356320D02*
X7162206Y-19346796D01*
X7162206Y-19346796D02*
X7152682Y-19327748D01*
X7152682Y-19327748D02*
X7152682Y-19318224D01*
X7152682Y-19318224D02*
X7162206Y-19299177D01*
X7162206Y-19299177D02*
X7181253Y-19289653D01*
X7181253Y-19289653D02*
X7209825Y-19289653D01*
X7209825Y-19289653D02*
X7228872Y-19299177D01*
X7305063Y-19499177D02*
X7314587Y-19489653D01*
X7314587Y-19489653D02*
X7333634Y-19461082D01*
X7333634Y-19461082D02*
X7343158Y-19442034D01*
X7343158Y-19442034D02*
X7352682Y-19413463D01*
X7352682Y-19413463D02*
X7362206Y-19365843D01*
X7362206Y-19365843D02*
X7362206Y-19327748D01*
X7362206Y-19327748D02*
X7352682Y-19280129D01*
X7352682Y-19280129D02*
X7343158Y-19251558D01*
X7343158Y-19251558D02*
X7333634Y-19232510D01*
X7333634Y-19232510D02*
X7314587Y-19203939D01*
X7314587Y-19203939D02*
X7305063Y-19194415D01*
M02*
