G04 #@! TF.GenerationSoftware,KiCad,Pcbnew,8.0.6*
G04 #@! TF.CreationDate,2025-05-06T21:58:27+02:00*
G04 #@! TF.ProjectId,VCU2.0,56435532-2e30-42e6-9b69-6361645f7063,rev?*
G04 #@! TF.SameCoordinates,Original*
G04 #@! TF.FileFunction,Legend,Top*
G04 #@! TF.FilePolarity,Positive*
%FSLAX46Y46*%
G04 Gerber Fmt 4.6, Leading zero omitted, Abs format (unit mm)*
G04 Created by KiCad (PCBNEW 8.0.6) date 2025-05-06 21:58:27*
%MOMM*%
%LPD*%
G01*
G04 APERTURE LIST*
%ADD10C,0.150000*%
%ADD11C,0.400000*%
%ADD12C,0.254000*%
%ADD13C,0.200000*%
%ADD14C,0.059995*%
%ADD15C,0.254001*%
%ADD16C,0.300000*%
%ADD17C,0.152400*%
%ADD18C,0.203200*%
%ADD19C,0.150013*%
%ADD20C,0.151994*%
%ADD21R,0.700000X1.925000*%
%ADD22R,0.600000X1.700000*%
%ADD23R,1.524003X0.600000*%
%ADD24O,0.700000X1.200000*%
%ADD25R,1.000000X0.600000*%
%ADD26R,3.900000X2.100000*%
%ADD27O,0.588011X2.045009*%
%ADD28C,1.800000*%
%ADD29R,1.800000X1.800000*%
%ADD30C,4.500000*%
%ADD31R,0.806477X0.864008*%
%ADD32R,0.864008X0.806477*%
%ADD33R,0.900000X0.800000*%
%ADD34R,0.800000X0.900000*%
%ADD35C,3.200000*%
%ADD36R,1.750013X3.500000*%
%ADD37R,1.410008X1.350013*%
%ADD38C,2.300000*%
%ADD39C,5.000000*%
%ADD40R,1.400000X1.200000*%
%ADD41R,0.680010X0.280010*%
%ADD42R,3.000000X2.300000*%
%ADD43R,2.300000X3.000000*%
%ADD44R,3.350013X3.350013*%
%ADD45R,0.905004X0.280010*%
%ADD46R,0.280010X0.905004*%
%ADD47O,0.364008X1.742012*%
%ADD48R,3.420015X2.424003*%
%ADD49R,0.300000X1.450013*%
%ADD50R,0.600000X1.450013*%
%ADD51O,1.000000X1.700000*%
%ADD52R,1.800000X1.450013*%
%ADD53C,0.649987*%
%ADD54R,0.700000X1.250013*%
%ADD55R,1.500000X0.900000*%
%ADD56R,0.900000X1.500000*%
%ADD57R,0.900000X0.900000*%
%ADD58R,0.280010X0.680010*%
%ADD59R,1.100000X2.600000*%
%ADD60R,1.300000X0.300000*%
%ADD61R,1.350013X1.410008*%
G04 APERTURE END LIST*
D10*
X124285809Y-120850819D02*
X124285809Y-119850819D01*
X124285809Y-119850819D02*
X124666761Y-119850819D01*
X124666761Y-119850819D02*
X124761999Y-119898438D01*
X124761999Y-119898438D02*
X124809618Y-119946057D01*
X124809618Y-119946057D02*
X124857237Y-120041295D01*
X124857237Y-120041295D02*
X124857237Y-120184152D01*
X124857237Y-120184152D02*
X124809618Y-120279390D01*
X124809618Y-120279390D02*
X124761999Y-120327009D01*
X124761999Y-120327009D02*
X124666761Y-120374628D01*
X124666761Y-120374628D02*
X124285809Y-120374628D01*
X125285809Y-120327009D02*
X125619142Y-120327009D01*
X125761999Y-120850819D02*
X125285809Y-120850819D01*
X125285809Y-120850819D02*
X125285809Y-119850819D01*
X125285809Y-119850819D02*
X125761999Y-119850819D01*
X126142952Y-120565104D02*
X126619142Y-120565104D01*
X126047714Y-120850819D02*
X126381047Y-119850819D01*
X126381047Y-119850819D02*
X126714380Y-120850819D01*
X127047714Y-120850819D02*
X127047714Y-119850819D01*
X127619142Y-120850819D02*
X127190571Y-120279390D01*
X127619142Y-119850819D02*
X127047714Y-120422247D01*
X129381047Y-120755580D02*
X129333428Y-120803200D01*
X129333428Y-120803200D02*
X129190571Y-120850819D01*
X129190571Y-120850819D02*
X129095333Y-120850819D01*
X129095333Y-120850819D02*
X128952476Y-120803200D01*
X128952476Y-120803200D02*
X128857238Y-120707961D01*
X128857238Y-120707961D02*
X128809619Y-120612723D01*
X128809619Y-120612723D02*
X128762000Y-120422247D01*
X128762000Y-120422247D02*
X128762000Y-120279390D01*
X128762000Y-120279390D02*
X128809619Y-120088914D01*
X128809619Y-120088914D02*
X128857238Y-119993676D01*
X128857238Y-119993676D02*
X128952476Y-119898438D01*
X128952476Y-119898438D02*
X129095333Y-119850819D01*
X129095333Y-119850819D02*
X129190571Y-119850819D01*
X129190571Y-119850819D02*
X129333428Y-119898438D01*
X129333428Y-119898438D02*
X129381047Y-119946057D01*
X129762000Y-120565104D02*
X130238190Y-120565104D01*
X129666762Y-120850819D02*
X130000095Y-119850819D01*
X130000095Y-119850819D02*
X130333428Y-120850819D01*
X130666762Y-120850819D02*
X130666762Y-119850819D01*
X130666762Y-119850819D02*
X131238190Y-120850819D01*
X131238190Y-120850819D02*
X131238190Y-119850819D01*
X97520476Y-120073009D02*
X97663333Y-120120628D01*
X97663333Y-120120628D02*
X97710952Y-120168247D01*
X97710952Y-120168247D02*
X97758571Y-120263485D01*
X97758571Y-120263485D02*
X97758571Y-120406342D01*
X97758571Y-120406342D02*
X97710952Y-120501580D01*
X97710952Y-120501580D02*
X97663333Y-120549200D01*
X97663333Y-120549200D02*
X97568095Y-120596819D01*
X97568095Y-120596819D02*
X97187143Y-120596819D01*
X97187143Y-120596819D02*
X97187143Y-119596819D01*
X97187143Y-119596819D02*
X97520476Y-119596819D01*
X97520476Y-119596819D02*
X97615714Y-119644438D01*
X97615714Y-119644438D02*
X97663333Y-119692057D01*
X97663333Y-119692057D02*
X97710952Y-119787295D01*
X97710952Y-119787295D02*
X97710952Y-119882533D01*
X97710952Y-119882533D02*
X97663333Y-119977771D01*
X97663333Y-119977771D02*
X97615714Y-120025390D01*
X97615714Y-120025390D02*
X97520476Y-120073009D01*
X97520476Y-120073009D02*
X97187143Y-120073009D01*
X98187143Y-120596819D02*
X98187143Y-119596819D01*
X98187143Y-119596819D02*
X98520476Y-120311104D01*
X98520476Y-120311104D02*
X98853809Y-119596819D01*
X98853809Y-119596819D02*
X98853809Y-120596819D01*
X99282381Y-120549200D02*
X99425238Y-120596819D01*
X99425238Y-120596819D02*
X99663333Y-120596819D01*
X99663333Y-120596819D02*
X99758571Y-120549200D01*
X99758571Y-120549200D02*
X99806190Y-120501580D01*
X99806190Y-120501580D02*
X99853809Y-120406342D01*
X99853809Y-120406342D02*
X99853809Y-120311104D01*
X99853809Y-120311104D02*
X99806190Y-120215866D01*
X99806190Y-120215866D02*
X99758571Y-120168247D01*
X99758571Y-120168247D02*
X99663333Y-120120628D01*
X99663333Y-120120628D02*
X99472857Y-120073009D01*
X99472857Y-120073009D02*
X99377619Y-120025390D01*
X99377619Y-120025390D02*
X99330000Y-119977771D01*
X99330000Y-119977771D02*
X99282381Y-119882533D01*
X99282381Y-119882533D02*
X99282381Y-119787295D01*
X99282381Y-119787295D02*
X99330000Y-119692057D01*
X99330000Y-119692057D02*
X99377619Y-119644438D01*
X99377619Y-119644438D02*
X99472857Y-119596819D01*
X99472857Y-119596819D02*
X99710952Y-119596819D01*
X99710952Y-119596819D02*
X99853809Y-119644438D01*
X101615714Y-120501580D02*
X101568095Y-120549200D01*
X101568095Y-120549200D02*
X101425238Y-120596819D01*
X101425238Y-120596819D02*
X101330000Y-120596819D01*
X101330000Y-120596819D02*
X101187143Y-120549200D01*
X101187143Y-120549200D02*
X101091905Y-120453961D01*
X101091905Y-120453961D02*
X101044286Y-120358723D01*
X101044286Y-120358723D02*
X100996667Y-120168247D01*
X100996667Y-120168247D02*
X100996667Y-120025390D01*
X100996667Y-120025390D02*
X101044286Y-119834914D01*
X101044286Y-119834914D02*
X101091905Y-119739676D01*
X101091905Y-119739676D02*
X101187143Y-119644438D01*
X101187143Y-119644438D02*
X101330000Y-119596819D01*
X101330000Y-119596819D02*
X101425238Y-119596819D01*
X101425238Y-119596819D02*
X101568095Y-119644438D01*
X101568095Y-119644438D02*
X101615714Y-119692057D01*
X101996667Y-120311104D02*
X102472857Y-120311104D01*
X101901429Y-120596819D02*
X102234762Y-119596819D01*
X102234762Y-119596819D02*
X102568095Y-120596819D01*
X102901429Y-120596819D02*
X102901429Y-119596819D01*
X102901429Y-119596819D02*
X103472857Y-120596819D01*
X103472857Y-120596819D02*
X103472857Y-119596819D01*
D11*
X88655061Y-132359662D02*
X88464585Y-132264424D01*
X88464585Y-132264424D02*
X88369347Y-132073947D01*
X88369347Y-132073947D02*
X88369347Y-130359662D01*
X89321728Y-131788233D02*
X90274109Y-131788233D01*
X89131252Y-132359662D02*
X89797918Y-130359662D01*
X89797918Y-130359662D02*
X90464585Y-132359662D01*
X91131252Y-132359662D02*
X91131252Y-130359662D01*
X91131252Y-130359662D02*
X91607442Y-130359662D01*
X91607442Y-130359662D02*
X91893157Y-130454900D01*
X91893157Y-130454900D02*
X92083633Y-130645376D01*
X92083633Y-130645376D02*
X92178871Y-130835852D01*
X92178871Y-130835852D02*
X92274109Y-131216804D01*
X92274109Y-131216804D02*
X92274109Y-131502519D01*
X92274109Y-131502519D02*
X92178871Y-131883471D01*
X92178871Y-131883471D02*
X92083633Y-132073947D01*
X92083633Y-132073947D02*
X91893157Y-132264424D01*
X91893157Y-132264424D02*
X91607442Y-132359662D01*
X91607442Y-132359662D02*
X91131252Y-132359662D01*
X93036014Y-131788233D02*
X93988395Y-131788233D01*
X92845538Y-132359662D02*
X93512204Y-130359662D01*
X93512204Y-130359662D02*
X94178871Y-132359662D01*
X96083634Y-130359662D02*
X96750300Y-132359662D01*
X96750300Y-132359662D02*
X97416967Y-130359662D01*
X99226491Y-132169185D02*
X99131253Y-132264424D01*
X99131253Y-132264424D02*
X98845539Y-132359662D01*
X98845539Y-132359662D02*
X98655063Y-132359662D01*
X98655063Y-132359662D02*
X98369348Y-132264424D01*
X98369348Y-132264424D02*
X98178872Y-132073947D01*
X98178872Y-132073947D02*
X98083634Y-131883471D01*
X98083634Y-131883471D02*
X97988396Y-131502519D01*
X97988396Y-131502519D02*
X97988396Y-131216804D01*
X97988396Y-131216804D02*
X98083634Y-130835852D01*
X98083634Y-130835852D02*
X98178872Y-130645376D01*
X98178872Y-130645376D02*
X98369348Y-130454900D01*
X98369348Y-130454900D02*
X98655063Y-130359662D01*
X98655063Y-130359662D02*
X98845539Y-130359662D01*
X98845539Y-130359662D02*
X99131253Y-130454900D01*
X99131253Y-130454900D02*
X99226491Y-130550138D01*
X100083634Y-130359662D02*
X100083634Y-131978709D01*
X100083634Y-131978709D02*
X100178872Y-132169185D01*
X100178872Y-132169185D02*
X100274110Y-132264424D01*
X100274110Y-132264424D02*
X100464586Y-132359662D01*
X100464586Y-132359662D02*
X100845539Y-132359662D01*
X100845539Y-132359662D02*
X101036015Y-132264424D01*
X101036015Y-132264424D02*
X101131253Y-132169185D01*
X101131253Y-132169185D02*
X101226491Y-131978709D01*
X101226491Y-131978709D02*
X101226491Y-130359662D01*
X102083634Y-130550138D02*
X102178872Y-130454900D01*
X102178872Y-130454900D02*
X102369348Y-130359662D01*
X102369348Y-130359662D02*
X102845539Y-130359662D01*
X102845539Y-130359662D02*
X103036015Y-130454900D01*
X103036015Y-130454900D02*
X103131253Y-130550138D01*
X103131253Y-130550138D02*
X103226491Y-130740614D01*
X103226491Y-130740614D02*
X103226491Y-130931090D01*
X103226491Y-130931090D02*
X103131253Y-131216804D01*
X103131253Y-131216804D02*
X101988396Y-132359662D01*
X101988396Y-132359662D02*
X103226491Y-132359662D01*
X104083634Y-132169185D02*
X104178872Y-132264424D01*
X104178872Y-132264424D02*
X104083634Y-132359662D01*
X104083634Y-132359662D02*
X103988396Y-132264424D01*
X103988396Y-132264424D02*
X104083634Y-132169185D01*
X104083634Y-132169185D02*
X104083634Y-132359662D01*
X105416967Y-130359662D02*
X105607444Y-130359662D01*
X105607444Y-130359662D02*
X105797920Y-130454900D01*
X105797920Y-130454900D02*
X105893158Y-130550138D01*
X105893158Y-130550138D02*
X105988396Y-130740614D01*
X105988396Y-130740614D02*
X106083634Y-131121566D01*
X106083634Y-131121566D02*
X106083634Y-131597757D01*
X106083634Y-131597757D02*
X105988396Y-131978709D01*
X105988396Y-131978709D02*
X105893158Y-132169185D01*
X105893158Y-132169185D02*
X105797920Y-132264424D01*
X105797920Y-132264424D02*
X105607444Y-132359662D01*
X105607444Y-132359662D02*
X105416967Y-132359662D01*
X105416967Y-132359662D02*
X105226491Y-132264424D01*
X105226491Y-132264424D02*
X105131253Y-132169185D01*
X105131253Y-132169185D02*
X105036015Y-131978709D01*
X105036015Y-131978709D02*
X104940777Y-131597757D01*
X104940777Y-131597757D02*
X104940777Y-131121566D01*
X104940777Y-131121566D02*
X105036015Y-130740614D01*
X105036015Y-130740614D02*
X105131253Y-130550138D01*
X105131253Y-130550138D02*
X105226491Y-130454900D01*
X105226491Y-130454900D02*
X105416967Y-130359662D01*
X89512204Y-135389073D02*
X89416966Y-135484312D01*
X89416966Y-135484312D02*
X89131252Y-135579550D01*
X89131252Y-135579550D02*
X88940776Y-135579550D01*
X88940776Y-135579550D02*
X88655061Y-135484312D01*
X88655061Y-135484312D02*
X88464585Y-135293835D01*
X88464585Y-135293835D02*
X88369347Y-135103359D01*
X88369347Y-135103359D02*
X88274109Y-134722407D01*
X88274109Y-134722407D02*
X88274109Y-134436692D01*
X88274109Y-134436692D02*
X88369347Y-134055740D01*
X88369347Y-134055740D02*
X88464585Y-133865264D01*
X88464585Y-133865264D02*
X88655061Y-133674788D01*
X88655061Y-133674788D02*
X88940776Y-133579550D01*
X88940776Y-133579550D02*
X89131252Y-133579550D01*
X89131252Y-133579550D02*
X89416966Y-133674788D01*
X89416966Y-133674788D02*
X89512204Y-133770026D01*
X90369347Y-135579550D02*
X90369347Y-133579550D01*
X91226490Y-135579550D02*
X91226490Y-134531931D01*
X91226490Y-134531931D02*
X91131252Y-134341454D01*
X91131252Y-134341454D02*
X90940776Y-134246216D01*
X90940776Y-134246216D02*
X90655061Y-134246216D01*
X90655061Y-134246216D02*
X90464585Y-134341454D01*
X90464585Y-134341454D02*
X90369347Y-134436692D01*
X92178871Y-135579550D02*
X92178871Y-134246216D01*
X92178871Y-134627169D02*
X92274109Y-134436692D01*
X92274109Y-134436692D02*
X92369347Y-134341454D01*
X92369347Y-134341454D02*
X92559823Y-134246216D01*
X92559823Y-134246216D02*
X92750300Y-134246216D01*
X93416966Y-135579550D02*
X93416966Y-134246216D01*
X93416966Y-133579550D02*
X93321728Y-133674788D01*
X93321728Y-133674788D02*
X93416966Y-133770026D01*
X93416966Y-133770026D02*
X93512204Y-133674788D01*
X93512204Y-133674788D02*
X93416966Y-133579550D01*
X93416966Y-133579550D02*
X93416966Y-133770026D01*
X94274109Y-135484312D02*
X94464585Y-135579550D01*
X94464585Y-135579550D02*
X94845537Y-135579550D01*
X94845537Y-135579550D02*
X95036014Y-135484312D01*
X95036014Y-135484312D02*
X95131252Y-135293835D01*
X95131252Y-135293835D02*
X95131252Y-135198597D01*
X95131252Y-135198597D02*
X95036014Y-135008121D01*
X95036014Y-135008121D02*
X94845537Y-134912883D01*
X94845537Y-134912883D02*
X94559823Y-134912883D01*
X94559823Y-134912883D02*
X94369347Y-134817645D01*
X94369347Y-134817645D02*
X94274109Y-134627169D01*
X94274109Y-134627169D02*
X94274109Y-134531931D01*
X94274109Y-134531931D02*
X94369347Y-134341454D01*
X94369347Y-134341454D02*
X94559823Y-134246216D01*
X94559823Y-134246216D02*
X94845537Y-134246216D01*
X94845537Y-134246216D02*
X95036014Y-134341454D01*
X95702681Y-134246216D02*
X96464585Y-134246216D01*
X95988395Y-133579550D02*
X95988395Y-135293835D01*
X95988395Y-135293835D02*
X96083633Y-135484312D01*
X96083633Y-135484312D02*
X96274109Y-135579550D01*
X96274109Y-135579550D02*
X96464585Y-135579550D01*
X97131252Y-135579550D02*
X97131252Y-134246216D01*
X97131252Y-133579550D02*
X97036014Y-133674788D01*
X97036014Y-133674788D02*
X97131252Y-133770026D01*
X97131252Y-133770026D02*
X97226490Y-133674788D01*
X97226490Y-133674788D02*
X97131252Y-133579550D01*
X97131252Y-133579550D02*
X97131252Y-133770026D01*
X98940776Y-135579550D02*
X98940776Y-134531931D01*
X98940776Y-134531931D02*
X98845538Y-134341454D01*
X98845538Y-134341454D02*
X98655062Y-134246216D01*
X98655062Y-134246216D02*
X98274109Y-134246216D01*
X98274109Y-134246216D02*
X98083633Y-134341454D01*
X98940776Y-135484312D02*
X98750300Y-135579550D01*
X98750300Y-135579550D02*
X98274109Y-135579550D01*
X98274109Y-135579550D02*
X98083633Y-135484312D01*
X98083633Y-135484312D02*
X97988395Y-135293835D01*
X97988395Y-135293835D02*
X97988395Y-135103359D01*
X97988395Y-135103359D02*
X98083633Y-134912883D01*
X98083633Y-134912883D02*
X98274109Y-134817645D01*
X98274109Y-134817645D02*
X98750300Y-134817645D01*
X98750300Y-134817645D02*
X98940776Y-134722407D01*
X99893157Y-134246216D02*
X99893157Y-135579550D01*
X99893157Y-134436692D02*
X99988395Y-134341454D01*
X99988395Y-134341454D02*
X100178871Y-134246216D01*
X100178871Y-134246216D02*
X100464586Y-134246216D01*
X100464586Y-134246216D02*
X100655062Y-134341454D01*
X100655062Y-134341454D02*
X100750300Y-134531931D01*
X100750300Y-134531931D02*
X100750300Y-135579550D01*
X103226491Y-135579550D02*
X103226491Y-133579550D01*
X103226491Y-133579550D02*
X103893158Y-135008121D01*
X103893158Y-135008121D02*
X104559824Y-133579550D01*
X104559824Y-133579550D02*
X104559824Y-135579550D01*
X105512205Y-135389073D02*
X105607443Y-135484312D01*
X105607443Y-135484312D02*
X105512205Y-135579550D01*
X105512205Y-135579550D02*
X105416967Y-135484312D01*
X105416967Y-135484312D02*
X105512205Y-135389073D01*
X105512205Y-135389073D02*
X105512205Y-135579550D01*
X108369348Y-133579550D02*
X108750301Y-133579550D01*
X108750301Y-133579550D02*
X108940777Y-133674788D01*
X108940777Y-133674788D02*
X109131253Y-133865264D01*
X109131253Y-133865264D02*
X109226491Y-134246216D01*
X109226491Y-134246216D02*
X109226491Y-134912883D01*
X109226491Y-134912883D02*
X109131253Y-135293835D01*
X109131253Y-135293835D02*
X108940777Y-135484312D01*
X108940777Y-135484312D02*
X108750301Y-135579550D01*
X108750301Y-135579550D02*
X108369348Y-135579550D01*
X108369348Y-135579550D02*
X108178872Y-135484312D01*
X108178872Y-135484312D02*
X107988396Y-135293835D01*
X107988396Y-135293835D02*
X107893158Y-134912883D01*
X107893158Y-134912883D02*
X107893158Y-134246216D01*
X107893158Y-134246216D02*
X107988396Y-133865264D01*
X107988396Y-133865264D02*
X108178872Y-133674788D01*
X108178872Y-133674788D02*
X108369348Y-133579550D01*
X110083634Y-135389073D02*
X110178872Y-135484312D01*
X110178872Y-135484312D02*
X110083634Y-135579550D01*
X110083634Y-135579550D02*
X109988396Y-135484312D01*
X109988396Y-135484312D02*
X110083634Y-135389073D01*
X110083634Y-135389073D02*
X110083634Y-135579550D01*
X89416966Y-138799438D02*
X88274109Y-138799438D01*
X88845537Y-138799438D02*
X88845537Y-136799438D01*
X88845537Y-136799438D02*
X88655061Y-137085152D01*
X88655061Y-137085152D02*
X88464585Y-137275628D01*
X88464585Y-137275628D02*
X88274109Y-137370866D01*
X91131252Y-137466104D02*
X91131252Y-138799438D01*
X90655061Y-136704200D02*
X90178871Y-138132771D01*
X90178871Y-138132771D02*
X91416966Y-138132771D01*
X92178871Y-138608961D02*
X92274109Y-138704200D01*
X92274109Y-138704200D02*
X92178871Y-138799438D01*
X92178871Y-138799438D02*
X92083633Y-138704200D01*
X92083633Y-138704200D02*
X92178871Y-138608961D01*
X92178871Y-138608961D02*
X92178871Y-138799438D01*
X94178871Y-138799438D02*
X93036014Y-138799438D01*
X93607442Y-138799438D02*
X93607442Y-136799438D01*
X93607442Y-136799438D02*
X93416966Y-137085152D01*
X93416966Y-137085152D02*
X93226490Y-137275628D01*
X93226490Y-137275628D02*
X93036014Y-137370866D01*
X96083633Y-138799438D02*
X94940776Y-138799438D01*
X95512204Y-138799438D02*
X95512204Y-136799438D01*
X95512204Y-136799438D02*
X95321728Y-137085152D01*
X95321728Y-137085152D02*
X95131252Y-137275628D01*
X95131252Y-137275628D02*
X94940776Y-137370866D01*
X96940776Y-138608961D02*
X97036014Y-138704200D01*
X97036014Y-138704200D02*
X96940776Y-138799438D01*
X96940776Y-138799438D02*
X96845538Y-138704200D01*
X96845538Y-138704200D02*
X96940776Y-138608961D01*
X96940776Y-138608961D02*
X96940776Y-138799438D01*
X97797919Y-136989914D02*
X97893157Y-136894676D01*
X97893157Y-136894676D02*
X98083633Y-136799438D01*
X98083633Y-136799438D02*
X98559824Y-136799438D01*
X98559824Y-136799438D02*
X98750300Y-136894676D01*
X98750300Y-136894676D02*
X98845538Y-136989914D01*
X98845538Y-136989914D02*
X98940776Y-137180390D01*
X98940776Y-137180390D02*
X98940776Y-137370866D01*
X98940776Y-137370866D02*
X98845538Y-137656580D01*
X98845538Y-137656580D02*
X97702681Y-138799438D01*
X97702681Y-138799438D02*
X98940776Y-138799438D01*
X100178871Y-136799438D02*
X100369348Y-136799438D01*
X100369348Y-136799438D02*
X100559824Y-136894676D01*
X100559824Y-136894676D02*
X100655062Y-136989914D01*
X100655062Y-136989914D02*
X100750300Y-137180390D01*
X100750300Y-137180390D02*
X100845538Y-137561342D01*
X100845538Y-137561342D02*
X100845538Y-138037533D01*
X100845538Y-138037533D02*
X100750300Y-138418485D01*
X100750300Y-138418485D02*
X100655062Y-138608961D01*
X100655062Y-138608961D02*
X100559824Y-138704200D01*
X100559824Y-138704200D02*
X100369348Y-138799438D01*
X100369348Y-138799438D02*
X100178871Y-138799438D01*
X100178871Y-138799438D02*
X99988395Y-138704200D01*
X99988395Y-138704200D02*
X99893157Y-138608961D01*
X99893157Y-138608961D02*
X99797919Y-138418485D01*
X99797919Y-138418485D02*
X99702681Y-138037533D01*
X99702681Y-138037533D02*
X99702681Y-137561342D01*
X99702681Y-137561342D02*
X99797919Y-137180390D01*
X99797919Y-137180390D02*
X99893157Y-136989914D01*
X99893157Y-136989914D02*
X99988395Y-136894676D01*
X99988395Y-136894676D02*
X100178871Y-136799438D01*
X101607443Y-136989914D02*
X101702681Y-136894676D01*
X101702681Y-136894676D02*
X101893157Y-136799438D01*
X101893157Y-136799438D02*
X102369348Y-136799438D01*
X102369348Y-136799438D02*
X102559824Y-136894676D01*
X102559824Y-136894676D02*
X102655062Y-136989914D01*
X102655062Y-136989914D02*
X102750300Y-137180390D01*
X102750300Y-137180390D02*
X102750300Y-137370866D01*
X102750300Y-137370866D02*
X102655062Y-137656580D01*
X102655062Y-137656580D02*
X101512205Y-138799438D01*
X101512205Y-138799438D02*
X102750300Y-138799438D01*
X104464586Y-137466104D02*
X104464586Y-138799438D01*
X103988395Y-136704200D02*
X103512205Y-138132771D01*
X103512205Y-138132771D02*
X104750300Y-138132771D01*
D12*
X125034318Y-150671286D02*
X123764318Y-150671286D01*
X124913365Y-149340809D02*
X124973842Y-149401285D01*
X124973842Y-149401285D02*
X125034318Y-149582714D01*
X125034318Y-149582714D02*
X125034318Y-149703666D01*
X125034318Y-149703666D02*
X124973842Y-149885095D01*
X124973842Y-149885095D02*
X124852889Y-150006047D01*
X124852889Y-150006047D02*
X124731937Y-150066524D01*
X124731937Y-150066524D02*
X124490032Y-150127000D01*
X124490032Y-150127000D02*
X124308603Y-150127000D01*
X124308603Y-150127000D02*
X124066699Y-150066524D01*
X124066699Y-150066524D02*
X123945746Y-150006047D01*
X123945746Y-150006047D02*
X123824794Y-149885095D01*
X123824794Y-149885095D02*
X123764318Y-149703666D01*
X123764318Y-149703666D02*
X123764318Y-149582714D01*
X123764318Y-149582714D02*
X123824794Y-149401285D01*
X123824794Y-149401285D02*
X123885270Y-149340809D01*
X123764318Y-148252238D02*
X123764318Y-148494143D01*
X123764318Y-148494143D02*
X123824794Y-148615095D01*
X123824794Y-148615095D02*
X123885270Y-148675571D01*
X123885270Y-148675571D02*
X124066699Y-148796524D01*
X124066699Y-148796524D02*
X124308603Y-148857000D01*
X124308603Y-148857000D02*
X124792413Y-148857000D01*
X124792413Y-148857000D02*
X124913365Y-148796524D01*
X124913365Y-148796524D02*
X124973842Y-148736047D01*
X124973842Y-148736047D02*
X125034318Y-148615095D01*
X125034318Y-148615095D02*
X125034318Y-148373190D01*
X125034318Y-148373190D02*
X124973842Y-148252238D01*
X124973842Y-148252238D02*
X124913365Y-148191762D01*
X124913365Y-148191762D02*
X124792413Y-148131285D01*
X124792413Y-148131285D02*
X124490032Y-148131285D01*
X124490032Y-148131285D02*
X124369080Y-148191762D01*
X124369080Y-148191762D02*
X124308603Y-148252238D01*
X124308603Y-148252238D02*
X124248127Y-148373190D01*
X124248127Y-148373190D02*
X124248127Y-148615095D01*
X124248127Y-148615095D02*
X124308603Y-148736047D01*
X124308603Y-148736047D02*
X124369080Y-148796524D01*
X124369080Y-148796524D02*
X124490032Y-148857000D01*
X123764318Y-147345095D02*
X123764318Y-147224142D01*
X123764318Y-147224142D02*
X123824794Y-147103190D01*
X123824794Y-147103190D02*
X123885270Y-147042714D01*
X123885270Y-147042714D02*
X124006222Y-146982238D01*
X124006222Y-146982238D02*
X124248127Y-146921761D01*
X124248127Y-146921761D02*
X124550508Y-146921761D01*
X124550508Y-146921761D02*
X124792413Y-146982238D01*
X124792413Y-146982238D02*
X124913365Y-147042714D01*
X124913365Y-147042714D02*
X124973842Y-147103190D01*
X124973842Y-147103190D02*
X125034318Y-147224142D01*
X125034318Y-147224142D02*
X125034318Y-147345095D01*
X125034318Y-147345095D02*
X124973842Y-147466047D01*
X124973842Y-147466047D02*
X124913365Y-147526523D01*
X124913365Y-147526523D02*
X124792413Y-147587000D01*
X124792413Y-147587000D02*
X124550508Y-147647476D01*
X124550508Y-147647476D02*
X124248127Y-147647476D01*
X124248127Y-147647476D02*
X124006222Y-147587000D01*
X124006222Y-147587000D02*
X123885270Y-147526523D01*
X123885270Y-147526523D02*
X123824794Y-147466047D01*
X123824794Y-147466047D02*
X123764318Y-147345095D01*
X123764318Y-146498428D02*
X123764318Y-145712237D01*
X123764318Y-145712237D02*
X124248127Y-146135571D01*
X124248127Y-146135571D02*
X124248127Y-145954142D01*
X124248127Y-145954142D02*
X124308603Y-145833190D01*
X124308603Y-145833190D02*
X124369080Y-145772714D01*
X124369080Y-145772714D02*
X124490032Y-145712237D01*
X124490032Y-145712237D02*
X124792413Y-145712237D01*
X124792413Y-145712237D02*
X124913365Y-145772714D01*
X124913365Y-145772714D02*
X124973842Y-145833190D01*
X124973842Y-145833190D02*
X125034318Y-145954142D01*
X125034318Y-145954142D02*
X125034318Y-146316999D01*
X125034318Y-146316999D02*
X124973842Y-146437952D01*
X124973842Y-146437952D02*
X124913365Y-146498428D01*
X104714318Y-150671286D02*
X103444318Y-150671286D01*
X104593365Y-149340809D02*
X104653842Y-149401285D01*
X104653842Y-149401285D02*
X104714318Y-149582714D01*
X104714318Y-149582714D02*
X104714318Y-149703666D01*
X104714318Y-149703666D02*
X104653842Y-149885095D01*
X104653842Y-149885095D02*
X104532889Y-150006047D01*
X104532889Y-150006047D02*
X104411937Y-150066524D01*
X104411937Y-150066524D02*
X104170032Y-150127000D01*
X104170032Y-150127000D02*
X103988603Y-150127000D01*
X103988603Y-150127000D02*
X103746699Y-150066524D01*
X103746699Y-150066524D02*
X103625746Y-150006047D01*
X103625746Y-150006047D02*
X103504794Y-149885095D01*
X103504794Y-149885095D02*
X103444318Y-149703666D01*
X103444318Y-149703666D02*
X103444318Y-149582714D01*
X103444318Y-149582714D02*
X103504794Y-149401285D01*
X103504794Y-149401285D02*
X103565270Y-149340809D01*
X103444318Y-148252238D02*
X103444318Y-148494143D01*
X103444318Y-148494143D02*
X103504794Y-148615095D01*
X103504794Y-148615095D02*
X103565270Y-148675571D01*
X103565270Y-148675571D02*
X103746699Y-148796524D01*
X103746699Y-148796524D02*
X103988603Y-148857000D01*
X103988603Y-148857000D02*
X104472413Y-148857000D01*
X104472413Y-148857000D02*
X104593365Y-148796524D01*
X104593365Y-148796524D02*
X104653842Y-148736047D01*
X104653842Y-148736047D02*
X104714318Y-148615095D01*
X104714318Y-148615095D02*
X104714318Y-148373190D01*
X104714318Y-148373190D02*
X104653842Y-148252238D01*
X104653842Y-148252238D02*
X104593365Y-148191762D01*
X104593365Y-148191762D02*
X104472413Y-148131285D01*
X104472413Y-148131285D02*
X104170032Y-148131285D01*
X104170032Y-148131285D02*
X104049080Y-148191762D01*
X104049080Y-148191762D02*
X103988603Y-148252238D01*
X103988603Y-148252238D02*
X103928127Y-148373190D01*
X103928127Y-148373190D02*
X103928127Y-148615095D01*
X103928127Y-148615095D02*
X103988603Y-148736047D01*
X103988603Y-148736047D02*
X104049080Y-148796524D01*
X104049080Y-148796524D02*
X104170032Y-148857000D01*
X103444318Y-147345095D02*
X103444318Y-147224142D01*
X103444318Y-147224142D02*
X103504794Y-147103190D01*
X103504794Y-147103190D02*
X103565270Y-147042714D01*
X103565270Y-147042714D02*
X103686222Y-146982238D01*
X103686222Y-146982238D02*
X103928127Y-146921761D01*
X103928127Y-146921761D02*
X104230508Y-146921761D01*
X104230508Y-146921761D02*
X104472413Y-146982238D01*
X104472413Y-146982238D02*
X104593365Y-147042714D01*
X104593365Y-147042714D02*
X104653842Y-147103190D01*
X104653842Y-147103190D02*
X104714318Y-147224142D01*
X104714318Y-147224142D02*
X104714318Y-147345095D01*
X104714318Y-147345095D02*
X104653842Y-147466047D01*
X104653842Y-147466047D02*
X104593365Y-147526523D01*
X104593365Y-147526523D02*
X104472413Y-147587000D01*
X104472413Y-147587000D02*
X104230508Y-147647476D01*
X104230508Y-147647476D02*
X103928127Y-147647476D01*
X103928127Y-147647476D02*
X103686222Y-147587000D01*
X103686222Y-147587000D02*
X103565270Y-147526523D01*
X103565270Y-147526523D02*
X103504794Y-147466047D01*
X103504794Y-147466047D02*
X103444318Y-147345095D01*
X103565270Y-146437952D02*
X103504794Y-146377476D01*
X103504794Y-146377476D02*
X103444318Y-146256523D01*
X103444318Y-146256523D02*
X103444318Y-145954142D01*
X103444318Y-145954142D02*
X103504794Y-145833190D01*
X103504794Y-145833190D02*
X103565270Y-145772714D01*
X103565270Y-145772714D02*
X103686222Y-145712237D01*
X103686222Y-145712237D02*
X103807175Y-145712237D01*
X103807175Y-145712237D02*
X103988603Y-145772714D01*
X103988603Y-145772714D02*
X104714318Y-146498428D01*
X104714318Y-146498428D02*
X104714318Y-145712237D01*
D10*
X152523963Y-138230265D02*
X152523963Y-139039788D01*
X152523963Y-139039788D02*
X152571582Y-139135026D01*
X152571582Y-139135026D02*
X152619201Y-139182646D01*
X152619201Y-139182646D02*
X152714439Y-139230265D01*
X152714439Y-139230265D02*
X152904915Y-139230265D01*
X152904915Y-139230265D02*
X153000153Y-139182646D01*
X153000153Y-139182646D02*
X153047772Y-139135026D01*
X153047772Y-139135026D02*
X153095391Y-139039788D01*
X153095391Y-139039788D02*
X153095391Y-138230265D01*
X153476344Y-138230265D02*
X154095391Y-138230265D01*
X154095391Y-138230265D02*
X153762058Y-138611217D01*
X153762058Y-138611217D02*
X153904915Y-138611217D01*
X153904915Y-138611217D02*
X154000153Y-138658836D01*
X154000153Y-138658836D02*
X154047772Y-138706455D01*
X154047772Y-138706455D02*
X154095391Y-138801693D01*
X154095391Y-138801693D02*
X154095391Y-139039788D01*
X154095391Y-139039788D02*
X154047772Y-139135026D01*
X154047772Y-139135026D02*
X154000153Y-139182646D01*
X154000153Y-139182646D02*
X153904915Y-139230265D01*
X153904915Y-139230265D02*
X153619201Y-139230265D01*
X153619201Y-139230265D02*
X153523963Y-139182646D01*
X153523963Y-139182646D02*
X153476344Y-139135026D01*
X154714439Y-138230265D02*
X154809677Y-138230265D01*
X154809677Y-138230265D02*
X154904915Y-138277884D01*
X154904915Y-138277884D02*
X154952534Y-138325503D01*
X154952534Y-138325503D02*
X155000153Y-138420741D01*
X155000153Y-138420741D02*
X155047772Y-138611217D01*
X155047772Y-138611217D02*
X155047772Y-138849312D01*
X155047772Y-138849312D02*
X155000153Y-139039788D01*
X155000153Y-139039788D02*
X154952534Y-139135026D01*
X154952534Y-139135026D02*
X154904915Y-139182646D01*
X154904915Y-139182646D02*
X154809677Y-139230265D01*
X154809677Y-139230265D02*
X154714439Y-139230265D01*
X154714439Y-139230265D02*
X154619201Y-139182646D01*
X154619201Y-139182646D02*
X154571582Y-139135026D01*
X154571582Y-139135026D02*
X154523963Y-139039788D01*
X154523963Y-139039788D02*
X154476344Y-138849312D01*
X154476344Y-138849312D02*
X154476344Y-138611217D01*
X154476344Y-138611217D02*
X154523963Y-138420741D01*
X154523963Y-138420741D02*
X154571582Y-138325503D01*
X154571582Y-138325503D02*
X154619201Y-138277884D01*
X154619201Y-138277884D02*
X154714439Y-138230265D01*
X155381106Y-138230265D02*
X156047772Y-138230265D01*
X156047772Y-138230265D02*
X155619201Y-139230265D01*
X45783714Y-104261815D02*
X45783714Y-105071338D01*
X45783714Y-105071338D02*
X45831333Y-105166576D01*
X45831333Y-105166576D02*
X45878952Y-105214196D01*
X45878952Y-105214196D02*
X45974190Y-105261815D01*
X45974190Y-105261815D02*
X46164666Y-105261815D01*
X46164666Y-105261815D02*
X46259904Y-105214196D01*
X46259904Y-105214196D02*
X46307523Y-105166576D01*
X46307523Y-105166576D02*
X46355142Y-105071338D01*
X46355142Y-105071338D02*
X46355142Y-104261815D01*
X46736095Y-104261815D02*
X47355142Y-104261815D01*
X47355142Y-104261815D02*
X47021809Y-104642767D01*
X47021809Y-104642767D02*
X47164666Y-104642767D01*
X47164666Y-104642767D02*
X47259904Y-104690386D01*
X47259904Y-104690386D02*
X47307523Y-104738005D01*
X47307523Y-104738005D02*
X47355142Y-104833243D01*
X47355142Y-104833243D02*
X47355142Y-105071338D01*
X47355142Y-105071338D02*
X47307523Y-105166576D01*
X47307523Y-105166576D02*
X47259904Y-105214196D01*
X47259904Y-105214196D02*
X47164666Y-105261815D01*
X47164666Y-105261815D02*
X46878952Y-105261815D01*
X46878952Y-105261815D02*
X46783714Y-105214196D01*
X46783714Y-105214196D02*
X46736095Y-105166576D01*
X47974190Y-104261815D02*
X48069428Y-104261815D01*
X48069428Y-104261815D02*
X48164666Y-104309434D01*
X48164666Y-104309434D02*
X48212285Y-104357053D01*
X48212285Y-104357053D02*
X48259904Y-104452291D01*
X48259904Y-104452291D02*
X48307523Y-104642767D01*
X48307523Y-104642767D02*
X48307523Y-104880862D01*
X48307523Y-104880862D02*
X48259904Y-105071338D01*
X48259904Y-105071338D02*
X48212285Y-105166576D01*
X48212285Y-105166576D02*
X48164666Y-105214196D01*
X48164666Y-105214196D02*
X48069428Y-105261815D01*
X48069428Y-105261815D02*
X47974190Y-105261815D01*
X47974190Y-105261815D02*
X47878952Y-105214196D01*
X47878952Y-105214196D02*
X47831333Y-105166576D01*
X47831333Y-105166576D02*
X47783714Y-105071338D01*
X47783714Y-105071338D02*
X47736095Y-104880862D01*
X47736095Y-104880862D02*
X47736095Y-104642767D01*
X47736095Y-104642767D02*
X47783714Y-104452291D01*
X47783714Y-104452291D02*
X47831333Y-104357053D01*
X47831333Y-104357053D02*
X47878952Y-104309434D01*
X47878952Y-104309434D02*
X47974190Y-104261815D01*
X49164666Y-104261815D02*
X48974190Y-104261815D01*
X48974190Y-104261815D02*
X48878952Y-104309434D01*
X48878952Y-104309434D02*
X48831333Y-104357053D01*
X48831333Y-104357053D02*
X48736095Y-104499910D01*
X48736095Y-104499910D02*
X48688476Y-104690386D01*
X48688476Y-104690386D02*
X48688476Y-105071338D01*
X48688476Y-105071338D02*
X48736095Y-105166576D01*
X48736095Y-105166576D02*
X48783714Y-105214196D01*
X48783714Y-105214196D02*
X48878952Y-105261815D01*
X48878952Y-105261815D02*
X49069428Y-105261815D01*
X49069428Y-105261815D02*
X49164666Y-105214196D01*
X49164666Y-105214196D02*
X49212285Y-105166576D01*
X49212285Y-105166576D02*
X49259904Y-105071338D01*
X49259904Y-105071338D02*
X49259904Y-104833243D01*
X49259904Y-104833243D02*
X49212285Y-104738005D01*
X49212285Y-104738005D02*
X49164666Y-104690386D01*
X49164666Y-104690386D02*
X49069428Y-104642767D01*
X49069428Y-104642767D02*
X48878952Y-104642767D01*
X48878952Y-104642767D02*
X48783714Y-104690386D01*
X48783714Y-104690386D02*
X48736095Y-104738005D01*
X48736095Y-104738005D02*
X48688476Y-104833243D01*
X141520768Y-156146285D02*
X142330291Y-156146285D01*
X142330291Y-156146285D02*
X142425529Y-156098666D01*
X142425529Y-156098666D02*
X142473149Y-156051047D01*
X142473149Y-156051047D02*
X142520768Y-155955809D01*
X142520768Y-155955809D02*
X142520768Y-155765333D01*
X142520768Y-155765333D02*
X142473149Y-155670095D01*
X142473149Y-155670095D02*
X142425529Y-155622476D01*
X142425529Y-155622476D02*
X142330291Y-155574857D01*
X142330291Y-155574857D02*
X141520768Y-155574857D01*
X141520768Y-154670095D02*
X141520768Y-154860571D01*
X141520768Y-154860571D02*
X141568387Y-154955809D01*
X141568387Y-154955809D02*
X141616006Y-155003428D01*
X141616006Y-155003428D02*
X141758863Y-155098666D01*
X141758863Y-155098666D02*
X141949339Y-155146285D01*
X141949339Y-155146285D02*
X142330291Y-155146285D01*
X142330291Y-155146285D02*
X142425529Y-155098666D01*
X142425529Y-155098666D02*
X142473149Y-155051047D01*
X142473149Y-155051047D02*
X142520768Y-154955809D01*
X142520768Y-154955809D02*
X142520768Y-154765333D01*
X142520768Y-154765333D02*
X142473149Y-154670095D01*
X142473149Y-154670095D02*
X142425529Y-154622476D01*
X142425529Y-154622476D02*
X142330291Y-154574857D01*
X142330291Y-154574857D02*
X142092196Y-154574857D01*
X142092196Y-154574857D02*
X141996958Y-154622476D01*
X141996958Y-154622476D02*
X141949339Y-154670095D01*
X141949339Y-154670095D02*
X141901720Y-154765333D01*
X141901720Y-154765333D02*
X141901720Y-154955809D01*
X141901720Y-154955809D02*
X141949339Y-155051047D01*
X141949339Y-155051047D02*
X141996958Y-155098666D01*
X141996958Y-155098666D02*
X142092196Y-155146285D01*
X141520768Y-153955809D02*
X141520768Y-153860571D01*
X141520768Y-153860571D02*
X141568387Y-153765333D01*
X141568387Y-153765333D02*
X141616006Y-153717714D01*
X141616006Y-153717714D02*
X141711244Y-153670095D01*
X141711244Y-153670095D02*
X141901720Y-153622476D01*
X141901720Y-153622476D02*
X142139815Y-153622476D01*
X142139815Y-153622476D02*
X142330291Y-153670095D01*
X142330291Y-153670095D02*
X142425529Y-153717714D01*
X142425529Y-153717714D02*
X142473149Y-153765333D01*
X142473149Y-153765333D02*
X142520768Y-153860571D01*
X142520768Y-153860571D02*
X142520768Y-153955809D01*
X142520768Y-153955809D02*
X142473149Y-154051047D01*
X142473149Y-154051047D02*
X142425529Y-154098666D01*
X142425529Y-154098666D02*
X142330291Y-154146285D01*
X142330291Y-154146285D02*
X142139815Y-154193904D01*
X142139815Y-154193904D02*
X141901720Y-154193904D01*
X141901720Y-154193904D02*
X141711244Y-154146285D01*
X141711244Y-154146285D02*
X141616006Y-154098666D01*
X141616006Y-154098666D02*
X141568387Y-154051047D01*
X141568387Y-154051047D02*
X141520768Y-153955809D01*
X141520768Y-153289142D02*
X141520768Y-152670095D01*
X141520768Y-152670095D02*
X141901720Y-153003428D01*
X141901720Y-153003428D02*
X141901720Y-152860571D01*
X141901720Y-152860571D02*
X141949339Y-152765333D01*
X141949339Y-152765333D02*
X141996958Y-152717714D01*
X141996958Y-152717714D02*
X142092196Y-152670095D01*
X142092196Y-152670095D02*
X142330291Y-152670095D01*
X142330291Y-152670095D02*
X142425529Y-152717714D01*
X142425529Y-152717714D02*
X142473149Y-152765333D01*
X142473149Y-152765333D02*
X142520768Y-152860571D01*
X142520768Y-152860571D02*
X142520768Y-153146285D01*
X142520768Y-153146285D02*
X142473149Y-153241523D01*
X142473149Y-153241523D02*
X142425529Y-153289142D01*
X135495676Y-146975235D02*
X135495676Y-147784758D01*
X135495676Y-147784758D02*
X135543295Y-147879996D01*
X135543295Y-147879996D02*
X135590914Y-147927616D01*
X135590914Y-147927616D02*
X135686152Y-147975235D01*
X135686152Y-147975235D02*
X135876628Y-147975235D01*
X135876628Y-147975235D02*
X135971866Y-147927616D01*
X135971866Y-147927616D02*
X136019485Y-147879996D01*
X136019485Y-147879996D02*
X136067104Y-147784758D01*
X136067104Y-147784758D02*
X136067104Y-146975235D01*
X136971866Y-146975235D02*
X136781390Y-146975235D01*
X136781390Y-146975235D02*
X136686152Y-147022854D01*
X136686152Y-147022854D02*
X136638533Y-147070473D01*
X136638533Y-147070473D02*
X136543295Y-147213330D01*
X136543295Y-147213330D02*
X136495676Y-147403806D01*
X136495676Y-147403806D02*
X136495676Y-147784758D01*
X136495676Y-147784758D02*
X136543295Y-147879996D01*
X136543295Y-147879996D02*
X136590914Y-147927616D01*
X136590914Y-147927616D02*
X136686152Y-147975235D01*
X136686152Y-147975235D02*
X136876628Y-147975235D01*
X136876628Y-147975235D02*
X136971866Y-147927616D01*
X136971866Y-147927616D02*
X137019485Y-147879996D01*
X137019485Y-147879996D02*
X137067104Y-147784758D01*
X137067104Y-147784758D02*
X137067104Y-147546663D01*
X137067104Y-147546663D02*
X137019485Y-147451425D01*
X137019485Y-147451425D02*
X136971866Y-147403806D01*
X136971866Y-147403806D02*
X136876628Y-147356187D01*
X136876628Y-147356187D02*
X136686152Y-147356187D01*
X136686152Y-147356187D02*
X136590914Y-147403806D01*
X136590914Y-147403806D02*
X136543295Y-147451425D01*
X136543295Y-147451425D02*
X136495676Y-147546663D01*
X137686152Y-146975235D02*
X137781390Y-146975235D01*
X137781390Y-146975235D02*
X137876628Y-147022854D01*
X137876628Y-147022854D02*
X137924247Y-147070473D01*
X137924247Y-147070473D02*
X137971866Y-147165711D01*
X137971866Y-147165711D02*
X138019485Y-147356187D01*
X138019485Y-147356187D02*
X138019485Y-147594282D01*
X138019485Y-147594282D02*
X137971866Y-147784758D01*
X137971866Y-147784758D02*
X137924247Y-147879996D01*
X137924247Y-147879996D02*
X137876628Y-147927616D01*
X137876628Y-147927616D02*
X137781390Y-147975235D01*
X137781390Y-147975235D02*
X137686152Y-147975235D01*
X137686152Y-147975235D02*
X137590914Y-147927616D01*
X137590914Y-147927616D02*
X137543295Y-147879996D01*
X137543295Y-147879996D02*
X137495676Y-147784758D01*
X137495676Y-147784758D02*
X137448057Y-147594282D01*
X137448057Y-147594282D02*
X137448057Y-147356187D01*
X137448057Y-147356187D02*
X137495676Y-147165711D01*
X137495676Y-147165711D02*
X137543295Y-147070473D01*
X137543295Y-147070473D02*
X137590914Y-147022854D01*
X137590914Y-147022854D02*
X137686152Y-146975235D01*
X138400438Y-147070473D02*
X138448057Y-147022854D01*
X138448057Y-147022854D02*
X138543295Y-146975235D01*
X138543295Y-146975235D02*
X138781390Y-146975235D01*
X138781390Y-146975235D02*
X138876628Y-147022854D01*
X138876628Y-147022854D02*
X138924247Y-147070473D01*
X138924247Y-147070473D02*
X138971866Y-147165711D01*
X138971866Y-147165711D02*
X138971866Y-147260949D01*
X138971866Y-147260949D02*
X138924247Y-147403806D01*
X138924247Y-147403806D02*
X138352819Y-147975235D01*
X138352819Y-147975235D02*
X138971866Y-147975235D01*
X142049714Y-146975235D02*
X142049714Y-147784758D01*
X142049714Y-147784758D02*
X142097333Y-147879996D01*
X142097333Y-147879996D02*
X142144952Y-147927616D01*
X142144952Y-147927616D02*
X142240190Y-147975235D01*
X142240190Y-147975235D02*
X142430666Y-147975235D01*
X142430666Y-147975235D02*
X142525904Y-147927616D01*
X142525904Y-147927616D02*
X142573523Y-147879996D01*
X142573523Y-147879996D02*
X142621142Y-147784758D01*
X142621142Y-147784758D02*
X142621142Y-146975235D01*
X143525904Y-146975235D02*
X143335428Y-146975235D01*
X143335428Y-146975235D02*
X143240190Y-147022854D01*
X143240190Y-147022854D02*
X143192571Y-147070473D01*
X143192571Y-147070473D02*
X143097333Y-147213330D01*
X143097333Y-147213330D02*
X143049714Y-147403806D01*
X143049714Y-147403806D02*
X143049714Y-147784758D01*
X143049714Y-147784758D02*
X143097333Y-147879996D01*
X143097333Y-147879996D02*
X143144952Y-147927616D01*
X143144952Y-147927616D02*
X143240190Y-147975235D01*
X143240190Y-147975235D02*
X143430666Y-147975235D01*
X143430666Y-147975235D02*
X143525904Y-147927616D01*
X143525904Y-147927616D02*
X143573523Y-147879996D01*
X143573523Y-147879996D02*
X143621142Y-147784758D01*
X143621142Y-147784758D02*
X143621142Y-147546663D01*
X143621142Y-147546663D02*
X143573523Y-147451425D01*
X143573523Y-147451425D02*
X143525904Y-147403806D01*
X143525904Y-147403806D02*
X143430666Y-147356187D01*
X143430666Y-147356187D02*
X143240190Y-147356187D01*
X143240190Y-147356187D02*
X143144952Y-147403806D01*
X143144952Y-147403806D02*
X143097333Y-147451425D01*
X143097333Y-147451425D02*
X143049714Y-147546663D01*
X144240190Y-146975235D02*
X144335428Y-146975235D01*
X144335428Y-146975235D02*
X144430666Y-147022854D01*
X144430666Y-147022854D02*
X144478285Y-147070473D01*
X144478285Y-147070473D02*
X144525904Y-147165711D01*
X144525904Y-147165711D02*
X144573523Y-147356187D01*
X144573523Y-147356187D02*
X144573523Y-147594282D01*
X144573523Y-147594282D02*
X144525904Y-147784758D01*
X144525904Y-147784758D02*
X144478285Y-147879996D01*
X144478285Y-147879996D02*
X144430666Y-147927616D01*
X144430666Y-147927616D02*
X144335428Y-147975235D01*
X144335428Y-147975235D02*
X144240190Y-147975235D01*
X144240190Y-147975235D02*
X144144952Y-147927616D01*
X144144952Y-147927616D02*
X144097333Y-147879996D01*
X144097333Y-147879996D02*
X144049714Y-147784758D01*
X144049714Y-147784758D02*
X144002095Y-147594282D01*
X144002095Y-147594282D02*
X144002095Y-147356187D01*
X144002095Y-147356187D02*
X144049714Y-147165711D01*
X144049714Y-147165711D02*
X144097333Y-147070473D01*
X144097333Y-147070473D02*
X144144952Y-147022854D01*
X144144952Y-147022854D02*
X144240190Y-146975235D01*
X145525904Y-147975235D02*
X144954476Y-147975235D01*
X145240190Y-147975235D02*
X145240190Y-146975235D01*
X145240190Y-146975235D02*
X145144952Y-147118092D01*
X145144952Y-147118092D02*
X145049714Y-147213330D01*
X145049714Y-147213330D02*
X144954476Y-147260949D01*
X112509468Y-132914561D02*
X113318991Y-132914561D01*
X113318991Y-132914561D02*
X113414229Y-132866942D01*
X113414229Y-132866942D02*
X113461849Y-132819323D01*
X113461849Y-132819323D02*
X113509468Y-132724085D01*
X113509468Y-132724085D02*
X113509468Y-132533609D01*
X113509468Y-132533609D02*
X113461849Y-132438371D01*
X113461849Y-132438371D02*
X113414229Y-132390752D01*
X113414229Y-132390752D02*
X113318991Y-132343133D01*
X113318991Y-132343133D02*
X112509468Y-132343133D01*
X112509468Y-131390752D02*
X112509468Y-131866942D01*
X112509468Y-131866942D02*
X112985658Y-131914561D01*
X112985658Y-131914561D02*
X112938039Y-131866942D01*
X112938039Y-131866942D02*
X112890420Y-131771704D01*
X112890420Y-131771704D02*
X112890420Y-131533609D01*
X112890420Y-131533609D02*
X112938039Y-131438371D01*
X112938039Y-131438371D02*
X112985658Y-131390752D01*
X112985658Y-131390752D02*
X113080896Y-131343133D01*
X113080896Y-131343133D02*
X113318991Y-131343133D01*
X113318991Y-131343133D02*
X113414229Y-131390752D01*
X113414229Y-131390752D02*
X113461849Y-131438371D01*
X113461849Y-131438371D02*
X113509468Y-131533609D01*
X113509468Y-131533609D02*
X113509468Y-131771704D01*
X113509468Y-131771704D02*
X113461849Y-131866942D01*
X113461849Y-131866942D02*
X113414229Y-131914561D01*
X112509468Y-130724085D02*
X112509468Y-130628847D01*
X112509468Y-130628847D02*
X112557087Y-130533609D01*
X112557087Y-130533609D02*
X112604706Y-130485990D01*
X112604706Y-130485990D02*
X112699944Y-130438371D01*
X112699944Y-130438371D02*
X112890420Y-130390752D01*
X112890420Y-130390752D02*
X113128515Y-130390752D01*
X113128515Y-130390752D02*
X113318991Y-130438371D01*
X113318991Y-130438371D02*
X113414229Y-130485990D01*
X113414229Y-130485990D02*
X113461849Y-130533609D01*
X113461849Y-130533609D02*
X113509468Y-130628847D01*
X113509468Y-130628847D02*
X113509468Y-130724085D01*
X113509468Y-130724085D02*
X113461849Y-130819323D01*
X113461849Y-130819323D02*
X113414229Y-130866942D01*
X113414229Y-130866942D02*
X113318991Y-130914561D01*
X113318991Y-130914561D02*
X113128515Y-130962180D01*
X113128515Y-130962180D02*
X112890420Y-130962180D01*
X112890420Y-130962180D02*
X112699944Y-130914561D01*
X112699944Y-130914561D02*
X112604706Y-130866942D01*
X112604706Y-130866942D02*
X112557087Y-130819323D01*
X112557087Y-130819323D02*
X112509468Y-130724085D01*
X112509468Y-130057418D02*
X112509468Y-129390752D01*
X112509468Y-129390752D02*
X113509468Y-129819323D01*
X63563714Y-142694819D02*
X63563714Y-141694819D01*
X63563714Y-142171009D02*
X64135142Y-142171009D01*
X64135142Y-142694819D02*
X64135142Y-141694819D01*
X65087523Y-141694819D02*
X64611333Y-141694819D01*
X64611333Y-141694819D02*
X64563714Y-142171009D01*
X64563714Y-142171009D02*
X64611333Y-142123390D01*
X64611333Y-142123390D02*
X64706571Y-142075771D01*
X64706571Y-142075771D02*
X64944666Y-142075771D01*
X64944666Y-142075771D02*
X65039904Y-142123390D01*
X65039904Y-142123390D02*
X65087523Y-142171009D01*
X65087523Y-142171009D02*
X65135142Y-142266247D01*
X65135142Y-142266247D02*
X65135142Y-142504342D01*
X65135142Y-142504342D02*
X65087523Y-142599580D01*
X65087523Y-142599580D02*
X65039904Y-142647200D01*
X65039904Y-142647200D02*
X64944666Y-142694819D01*
X64944666Y-142694819D02*
X64706571Y-142694819D01*
X64706571Y-142694819D02*
X64611333Y-142647200D01*
X64611333Y-142647200D02*
X64563714Y-142599580D01*
X65754190Y-141694819D02*
X65849428Y-141694819D01*
X65849428Y-141694819D02*
X65944666Y-141742438D01*
X65944666Y-141742438D02*
X65992285Y-141790057D01*
X65992285Y-141790057D02*
X66039904Y-141885295D01*
X66039904Y-141885295D02*
X66087523Y-142075771D01*
X66087523Y-142075771D02*
X66087523Y-142313866D01*
X66087523Y-142313866D02*
X66039904Y-142504342D01*
X66039904Y-142504342D02*
X65992285Y-142599580D01*
X65992285Y-142599580D02*
X65944666Y-142647200D01*
X65944666Y-142647200D02*
X65849428Y-142694819D01*
X65849428Y-142694819D02*
X65754190Y-142694819D01*
X65754190Y-142694819D02*
X65658952Y-142647200D01*
X65658952Y-142647200D02*
X65611333Y-142599580D01*
X65611333Y-142599580D02*
X65563714Y-142504342D01*
X65563714Y-142504342D02*
X65516095Y-142313866D01*
X65516095Y-142313866D02*
X65516095Y-142075771D01*
X65516095Y-142075771D02*
X65563714Y-141885295D01*
X65563714Y-141885295D02*
X65611333Y-141790057D01*
X65611333Y-141790057D02*
X65658952Y-141742438D01*
X65658952Y-141742438D02*
X65754190Y-141694819D01*
X67039904Y-142694819D02*
X66468476Y-142694819D01*
X66754190Y-142694819D02*
X66754190Y-141694819D01*
X66754190Y-141694819D02*
X66658952Y-141837676D01*
X66658952Y-141837676D02*
X66563714Y-141932914D01*
X66563714Y-141932914D02*
X66468476Y-141980533D01*
X46396827Y-139636285D02*
X45396827Y-139636285D01*
X45873017Y-139636285D02*
X45873017Y-139064857D01*
X46396827Y-139064857D02*
X45396827Y-139064857D01*
X45396827Y-138683904D02*
X45396827Y-138064857D01*
X45396827Y-138064857D02*
X45777779Y-138398190D01*
X45777779Y-138398190D02*
X45777779Y-138255333D01*
X45777779Y-138255333D02*
X45825398Y-138160095D01*
X45825398Y-138160095D02*
X45873017Y-138112476D01*
X45873017Y-138112476D02*
X45968255Y-138064857D01*
X45968255Y-138064857D02*
X46206350Y-138064857D01*
X46206350Y-138064857D02*
X46301588Y-138112476D01*
X46301588Y-138112476D02*
X46349208Y-138160095D01*
X46349208Y-138160095D02*
X46396827Y-138255333D01*
X46396827Y-138255333D02*
X46396827Y-138541047D01*
X46396827Y-138541047D02*
X46349208Y-138636285D01*
X46349208Y-138636285D02*
X46301588Y-138683904D01*
X45396827Y-137445809D02*
X45396827Y-137350571D01*
X45396827Y-137350571D02*
X45444446Y-137255333D01*
X45444446Y-137255333D02*
X45492065Y-137207714D01*
X45492065Y-137207714D02*
X45587303Y-137160095D01*
X45587303Y-137160095D02*
X45777779Y-137112476D01*
X45777779Y-137112476D02*
X46015874Y-137112476D01*
X46015874Y-137112476D02*
X46206350Y-137160095D01*
X46206350Y-137160095D02*
X46301588Y-137207714D01*
X46301588Y-137207714D02*
X46349208Y-137255333D01*
X46349208Y-137255333D02*
X46396827Y-137350571D01*
X46396827Y-137350571D02*
X46396827Y-137445809D01*
X46396827Y-137445809D02*
X46349208Y-137541047D01*
X46349208Y-137541047D02*
X46301588Y-137588666D01*
X46301588Y-137588666D02*
X46206350Y-137636285D01*
X46206350Y-137636285D02*
X46015874Y-137683904D01*
X46015874Y-137683904D02*
X45777779Y-137683904D01*
X45777779Y-137683904D02*
X45587303Y-137636285D01*
X45587303Y-137636285D02*
X45492065Y-137588666D01*
X45492065Y-137588666D02*
X45444446Y-137541047D01*
X45444446Y-137541047D02*
X45396827Y-137445809D01*
X45492065Y-136731523D02*
X45444446Y-136683904D01*
X45444446Y-136683904D02*
X45396827Y-136588666D01*
X45396827Y-136588666D02*
X45396827Y-136350571D01*
X45396827Y-136350571D02*
X45444446Y-136255333D01*
X45444446Y-136255333D02*
X45492065Y-136207714D01*
X45492065Y-136207714D02*
X45587303Y-136160095D01*
X45587303Y-136160095D02*
X45682541Y-136160095D01*
X45682541Y-136160095D02*
X45825398Y-136207714D01*
X45825398Y-136207714D02*
X46396827Y-136779142D01*
X46396827Y-136779142D02*
X46396827Y-136160095D01*
X157035714Y-161119819D02*
X157035714Y-160119819D01*
X157035714Y-160596009D02*
X157607142Y-160596009D01*
X157607142Y-161119819D02*
X157607142Y-160119819D01*
X158511904Y-160119819D02*
X158321428Y-160119819D01*
X158321428Y-160119819D02*
X158226190Y-160167438D01*
X158226190Y-160167438D02*
X158178571Y-160215057D01*
X158178571Y-160215057D02*
X158083333Y-160357914D01*
X158083333Y-160357914D02*
X158035714Y-160548390D01*
X158035714Y-160548390D02*
X158035714Y-160929342D01*
X158035714Y-160929342D02*
X158083333Y-161024580D01*
X158083333Y-161024580D02*
X158130952Y-161072200D01*
X158130952Y-161072200D02*
X158226190Y-161119819D01*
X158226190Y-161119819D02*
X158416666Y-161119819D01*
X158416666Y-161119819D02*
X158511904Y-161072200D01*
X158511904Y-161072200D02*
X158559523Y-161024580D01*
X158559523Y-161024580D02*
X158607142Y-160929342D01*
X158607142Y-160929342D02*
X158607142Y-160691247D01*
X158607142Y-160691247D02*
X158559523Y-160596009D01*
X158559523Y-160596009D02*
X158511904Y-160548390D01*
X158511904Y-160548390D02*
X158416666Y-160500771D01*
X158416666Y-160500771D02*
X158226190Y-160500771D01*
X158226190Y-160500771D02*
X158130952Y-160548390D01*
X158130952Y-160548390D02*
X158083333Y-160596009D01*
X158083333Y-160596009D02*
X158035714Y-160691247D01*
X159226190Y-160119819D02*
X159321428Y-160119819D01*
X159321428Y-160119819D02*
X159416666Y-160167438D01*
X159416666Y-160167438D02*
X159464285Y-160215057D01*
X159464285Y-160215057D02*
X159511904Y-160310295D01*
X159511904Y-160310295D02*
X159559523Y-160500771D01*
X159559523Y-160500771D02*
X159559523Y-160738866D01*
X159559523Y-160738866D02*
X159511904Y-160929342D01*
X159511904Y-160929342D02*
X159464285Y-161024580D01*
X159464285Y-161024580D02*
X159416666Y-161072200D01*
X159416666Y-161072200D02*
X159321428Y-161119819D01*
X159321428Y-161119819D02*
X159226190Y-161119819D01*
X159226190Y-161119819D02*
X159130952Y-161072200D01*
X159130952Y-161072200D02*
X159083333Y-161024580D01*
X159083333Y-161024580D02*
X159035714Y-160929342D01*
X159035714Y-160929342D02*
X158988095Y-160738866D01*
X158988095Y-160738866D02*
X158988095Y-160500771D01*
X158988095Y-160500771D02*
X159035714Y-160310295D01*
X159035714Y-160310295D02*
X159083333Y-160215057D01*
X159083333Y-160215057D02*
X159130952Y-160167438D01*
X159130952Y-160167438D02*
X159226190Y-160119819D01*
X159940476Y-160215057D02*
X159988095Y-160167438D01*
X159988095Y-160167438D02*
X160083333Y-160119819D01*
X160083333Y-160119819D02*
X160321428Y-160119819D01*
X160321428Y-160119819D02*
X160416666Y-160167438D01*
X160416666Y-160167438D02*
X160464285Y-160215057D01*
X160464285Y-160215057D02*
X160511904Y-160310295D01*
X160511904Y-160310295D02*
X160511904Y-160405533D01*
X160511904Y-160405533D02*
X160464285Y-160548390D01*
X160464285Y-160548390D02*
X159892857Y-161119819D01*
X159892857Y-161119819D02*
X160511904Y-161119819D01*
X27495714Y-116024819D02*
X27495714Y-115024819D01*
X27495714Y-115501009D02*
X28067142Y-115501009D01*
X28067142Y-116024819D02*
X28067142Y-115024819D01*
X28971904Y-115024819D02*
X28781428Y-115024819D01*
X28781428Y-115024819D02*
X28686190Y-115072438D01*
X28686190Y-115072438D02*
X28638571Y-115120057D01*
X28638571Y-115120057D02*
X28543333Y-115262914D01*
X28543333Y-115262914D02*
X28495714Y-115453390D01*
X28495714Y-115453390D02*
X28495714Y-115834342D01*
X28495714Y-115834342D02*
X28543333Y-115929580D01*
X28543333Y-115929580D02*
X28590952Y-115977200D01*
X28590952Y-115977200D02*
X28686190Y-116024819D01*
X28686190Y-116024819D02*
X28876666Y-116024819D01*
X28876666Y-116024819D02*
X28971904Y-115977200D01*
X28971904Y-115977200D02*
X29019523Y-115929580D01*
X29019523Y-115929580D02*
X29067142Y-115834342D01*
X29067142Y-115834342D02*
X29067142Y-115596247D01*
X29067142Y-115596247D02*
X29019523Y-115501009D01*
X29019523Y-115501009D02*
X28971904Y-115453390D01*
X28971904Y-115453390D02*
X28876666Y-115405771D01*
X28876666Y-115405771D02*
X28686190Y-115405771D01*
X28686190Y-115405771D02*
X28590952Y-115453390D01*
X28590952Y-115453390D02*
X28543333Y-115501009D01*
X28543333Y-115501009D02*
X28495714Y-115596247D01*
X29686190Y-115024819D02*
X29781428Y-115024819D01*
X29781428Y-115024819D02*
X29876666Y-115072438D01*
X29876666Y-115072438D02*
X29924285Y-115120057D01*
X29924285Y-115120057D02*
X29971904Y-115215295D01*
X29971904Y-115215295D02*
X30019523Y-115405771D01*
X30019523Y-115405771D02*
X30019523Y-115643866D01*
X30019523Y-115643866D02*
X29971904Y-115834342D01*
X29971904Y-115834342D02*
X29924285Y-115929580D01*
X29924285Y-115929580D02*
X29876666Y-115977200D01*
X29876666Y-115977200D02*
X29781428Y-116024819D01*
X29781428Y-116024819D02*
X29686190Y-116024819D01*
X29686190Y-116024819D02*
X29590952Y-115977200D01*
X29590952Y-115977200D02*
X29543333Y-115929580D01*
X29543333Y-115929580D02*
X29495714Y-115834342D01*
X29495714Y-115834342D02*
X29448095Y-115643866D01*
X29448095Y-115643866D02*
X29448095Y-115405771D01*
X29448095Y-115405771D02*
X29495714Y-115215295D01*
X29495714Y-115215295D02*
X29543333Y-115120057D01*
X29543333Y-115120057D02*
X29590952Y-115072438D01*
X29590952Y-115072438D02*
X29686190Y-115024819D01*
X30352857Y-115024819D02*
X30971904Y-115024819D01*
X30971904Y-115024819D02*
X30638571Y-115405771D01*
X30638571Y-115405771D02*
X30781428Y-115405771D01*
X30781428Y-115405771D02*
X30876666Y-115453390D01*
X30876666Y-115453390D02*
X30924285Y-115501009D01*
X30924285Y-115501009D02*
X30971904Y-115596247D01*
X30971904Y-115596247D02*
X30971904Y-115834342D01*
X30971904Y-115834342D02*
X30924285Y-115929580D01*
X30924285Y-115929580D02*
X30876666Y-115977200D01*
X30876666Y-115977200D02*
X30781428Y-116024819D01*
X30781428Y-116024819D02*
X30495714Y-116024819D01*
X30495714Y-116024819D02*
X30400476Y-115977200D01*
X30400476Y-115977200D02*
X30352857Y-115929580D01*
X156400714Y-115389819D02*
X156400714Y-114389819D01*
X156400714Y-114866009D02*
X156972142Y-114866009D01*
X156972142Y-115389819D02*
X156972142Y-114389819D01*
X157876904Y-114389819D02*
X157686428Y-114389819D01*
X157686428Y-114389819D02*
X157591190Y-114437438D01*
X157591190Y-114437438D02*
X157543571Y-114485057D01*
X157543571Y-114485057D02*
X157448333Y-114627914D01*
X157448333Y-114627914D02*
X157400714Y-114818390D01*
X157400714Y-114818390D02*
X157400714Y-115199342D01*
X157400714Y-115199342D02*
X157448333Y-115294580D01*
X157448333Y-115294580D02*
X157495952Y-115342200D01*
X157495952Y-115342200D02*
X157591190Y-115389819D01*
X157591190Y-115389819D02*
X157781666Y-115389819D01*
X157781666Y-115389819D02*
X157876904Y-115342200D01*
X157876904Y-115342200D02*
X157924523Y-115294580D01*
X157924523Y-115294580D02*
X157972142Y-115199342D01*
X157972142Y-115199342D02*
X157972142Y-114961247D01*
X157972142Y-114961247D02*
X157924523Y-114866009D01*
X157924523Y-114866009D02*
X157876904Y-114818390D01*
X157876904Y-114818390D02*
X157781666Y-114770771D01*
X157781666Y-114770771D02*
X157591190Y-114770771D01*
X157591190Y-114770771D02*
X157495952Y-114818390D01*
X157495952Y-114818390D02*
X157448333Y-114866009D01*
X157448333Y-114866009D02*
X157400714Y-114961247D01*
X158591190Y-114389819D02*
X158686428Y-114389819D01*
X158686428Y-114389819D02*
X158781666Y-114437438D01*
X158781666Y-114437438D02*
X158829285Y-114485057D01*
X158829285Y-114485057D02*
X158876904Y-114580295D01*
X158876904Y-114580295D02*
X158924523Y-114770771D01*
X158924523Y-114770771D02*
X158924523Y-115008866D01*
X158924523Y-115008866D02*
X158876904Y-115199342D01*
X158876904Y-115199342D02*
X158829285Y-115294580D01*
X158829285Y-115294580D02*
X158781666Y-115342200D01*
X158781666Y-115342200D02*
X158686428Y-115389819D01*
X158686428Y-115389819D02*
X158591190Y-115389819D01*
X158591190Y-115389819D02*
X158495952Y-115342200D01*
X158495952Y-115342200D02*
X158448333Y-115294580D01*
X158448333Y-115294580D02*
X158400714Y-115199342D01*
X158400714Y-115199342D02*
X158353095Y-115008866D01*
X158353095Y-115008866D02*
X158353095Y-114770771D01*
X158353095Y-114770771D02*
X158400714Y-114580295D01*
X158400714Y-114580295D02*
X158448333Y-114485057D01*
X158448333Y-114485057D02*
X158495952Y-114437438D01*
X158495952Y-114437438D02*
X158591190Y-114389819D01*
X159876904Y-115389819D02*
X159305476Y-115389819D01*
X159591190Y-115389819D02*
X159591190Y-114389819D01*
X159591190Y-114389819D02*
X159495952Y-114532676D01*
X159495952Y-114532676D02*
X159400714Y-114627914D01*
X159400714Y-114627914D02*
X159305476Y-114675533D01*
X27495714Y-161119819D02*
X27495714Y-160119819D01*
X27495714Y-160596009D02*
X28067142Y-160596009D01*
X28067142Y-161119819D02*
X28067142Y-160119819D01*
X28971904Y-160119819D02*
X28781428Y-160119819D01*
X28781428Y-160119819D02*
X28686190Y-160167438D01*
X28686190Y-160167438D02*
X28638571Y-160215057D01*
X28638571Y-160215057D02*
X28543333Y-160357914D01*
X28543333Y-160357914D02*
X28495714Y-160548390D01*
X28495714Y-160548390D02*
X28495714Y-160929342D01*
X28495714Y-160929342D02*
X28543333Y-161024580D01*
X28543333Y-161024580D02*
X28590952Y-161072200D01*
X28590952Y-161072200D02*
X28686190Y-161119819D01*
X28686190Y-161119819D02*
X28876666Y-161119819D01*
X28876666Y-161119819D02*
X28971904Y-161072200D01*
X28971904Y-161072200D02*
X29019523Y-161024580D01*
X29019523Y-161024580D02*
X29067142Y-160929342D01*
X29067142Y-160929342D02*
X29067142Y-160691247D01*
X29067142Y-160691247D02*
X29019523Y-160596009D01*
X29019523Y-160596009D02*
X28971904Y-160548390D01*
X28971904Y-160548390D02*
X28876666Y-160500771D01*
X28876666Y-160500771D02*
X28686190Y-160500771D01*
X28686190Y-160500771D02*
X28590952Y-160548390D01*
X28590952Y-160548390D02*
X28543333Y-160596009D01*
X28543333Y-160596009D02*
X28495714Y-160691247D01*
X29686190Y-160119819D02*
X29781428Y-160119819D01*
X29781428Y-160119819D02*
X29876666Y-160167438D01*
X29876666Y-160167438D02*
X29924285Y-160215057D01*
X29924285Y-160215057D02*
X29971904Y-160310295D01*
X29971904Y-160310295D02*
X30019523Y-160500771D01*
X30019523Y-160500771D02*
X30019523Y-160738866D01*
X30019523Y-160738866D02*
X29971904Y-160929342D01*
X29971904Y-160929342D02*
X29924285Y-161024580D01*
X29924285Y-161024580D02*
X29876666Y-161072200D01*
X29876666Y-161072200D02*
X29781428Y-161119819D01*
X29781428Y-161119819D02*
X29686190Y-161119819D01*
X29686190Y-161119819D02*
X29590952Y-161072200D01*
X29590952Y-161072200D02*
X29543333Y-161024580D01*
X29543333Y-161024580D02*
X29495714Y-160929342D01*
X29495714Y-160929342D02*
X29448095Y-160738866D01*
X29448095Y-160738866D02*
X29448095Y-160500771D01*
X29448095Y-160500771D02*
X29495714Y-160310295D01*
X29495714Y-160310295D02*
X29543333Y-160215057D01*
X29543333Y-160215057D02*
X29590952Y-160167438D01*
X29590952Y-160167438D02*
X29686190Y-160119819D01*
X30876666Y-160453152D02*
X30876666Y-161119819D01*
X30638571Y-160072200D02*
X30400476Y-160786485D01*
X30400476Y-160786485D02*
X31019523Y-160786485D01*
D13*
G04 #@! TO.C,IC603*
X130810000Y-144822000D02*
X130810000Y-151622000D01*
X130810000Y-151622000D02*
X118110000Y-151622000D01*
X118110000Y-151622000D02*
X118110000Y-144822000D01*
X118110000Y-144822000D02*
X130810000Y-144822000D01*
X130875000Y-142547000D02*
X130875000Y-144472000D01*
G04 #@! TO.C,IC602*
X110490000Y-144822000D02*
X110490000Y-151622000D01*
X110490000Y-151622000D02*
X97790000Y-151622000D01*
X97790000Y-151622000D02*
X97790000Y-144822000D01*
X97790000Y-144822000D02*
X110490000Y-144822000D01*
X110555000Y-142547000D02*
X110555000Y-144472000D01*
D14*
G04 #@! TO.C,U307*
X51652928Y-110311975D02*
G75*
G02*
X51592984Y-110311975I-29972J0D01*
G01*
X51592984Y-110311975D02*
G75*
G02*
X51652928Y-110311975I29972J0D01*
G01*
D15*
X54991002Y-107695998D02*
X52704998Y-107695998D01*
X54848000Y-106806996D02*
X54848000Y-107695998D01*
X52848000Y-106806996D02*
X52848000Y-107695998D01*
X54848000Y-106806996D02*
X52848000Y-106806996D01*
X56007004Y-110363003D02*
X56007004Y-109793077D01*
X51866847Y-110363003D02*
X51688996Y-110363003D01*
X51688996Y-110363003D02*
X51688996Y-109793077D01*
X56007004Y-110363003D02*
X55829153Y-110363003D01*
D14*
G04 #@! TO.C,U306*
X45302928Y-110311975D02*
G75*
G02*
X45242984Y-110311975I-29972J0D01*
G01*
X45242984Y-110311975D02*
G75*
G02*
X45302928Y-110311975I29972J0D01*
G01*
D15*
X48641002Y-107695998D02*
X46354998Y-107695998D01*
X48498000Y-106806996D02*
X48498000Y-107695998D01*
X46498000Y-106806996D02*
X46498000Y-107695998D01*
X48498000Y-106806996D02*
X46498000Y-106806996D01*
X49657004Y-110363003D02*
X49657004Y-109793077D01*
X45516847Y-110363003D02*
X45338996Y-110363003D01*
X45338996Y-110363003D02*
X45338996Y-109793077D01*
X49657004Y-110363003D02*
X49479153Y-110363003D01*
D14*
G04 #@! TO.C,U603*
X150170928Y-157032025D02*
G75*
G02*
X150110984Y-157032025I-29972J0D01*
G01*
X150110984Y-157032025D02*
G75*
G02*
X150170928Y-157032025I29972J0D01*
G01*
D16*
X150716012Y-157432076D02*
G75*
G02*
X150415784Y-157432076I-150114J0D01*
G01*
X150415784Y-157432076D02*
G75*
G02*
X150716012Y-157432076I150114J0D01*
G01*
D15*
X150065975Y-156868144D02*
X150065975Y-156932000D01*
X150065975Y-155598142D02*
X150065975Y-155805863D01*
X150065975Y-154328139D02*
X150065975Y-154535861D01*
X150065975Y-153058137D02*
X150065975Y-153265858D01*
X144065949Y-151995856D02*
X144065949Y-151932000D01*
X144065949Y-151932000D02*
X150065975Y-151932000D01*
X150065975Y-151932000D02*
X150065975Y-151995856D01*
X144065949Y-153265858D02*
X144065949Y-153058137D01*
X144065949Y-154535861D02*
X144065949Y-154328139D01*
X144065949Y-155805863D02*
X144065949Y-155598142D01*
X150065975Y-156868144D02*
X150065975Y-156932000D01*
X150065975Y-156932000D02*
X144065949Y-156932000D01*
X144065949Y-156932000D02*
X144065949Y-156868144D01*
X150065975Y-155598142D02*
X150065975Y-155805863D01*
D17*
G04 #@! TO.C,U602*
X134683749Y-141226588D02*
X139736175Y-141226588D01*
X134683749Y-144269412D02*
X134683749Y-141226588D01*
X139736175Y-144269412D02*
X134683749Y-144269412D01*
X139736175Y-141226588D02*
X139736175Y-144269412D01*
D14*
X139690023Y-139748000D02*
G75*
G02*
X139630079Y-139748000I-29972J0D01*
G01*
X139630079Y-139748000D02*
G75*
G02*
X139690023Y-139748000I29972J0D01*
G01*
D16*
X140011587Y-139975584D02*
G75*
G02*
X139711359Y-139975584I-150114J0D01*
G01*
X139711359Y-139975584D02*
G75*
G02*
X140011587Y-139975584I150114J0D01*
G01*
X139265080Y-141978886D02*
G75*
G02*
X138964852Y-141978886I-150114J0D01*
G01*
X138964852Y-141978886D02*
G75*
G02*
X139265080Y-141978886I150114J0D01*
G01*
D17*
G04 #@! TO.C,U601*
X141237787Y-141226588D02*
X146290213Y-141226588D01*
X141237787Y-144269412D02*
X141237787Y-141226588D01*
X146290213Y-144269412D02*
X141237787Y-144269412D01*
X146290213Y-141226588D02*
X146290213Y-144269412D01*
D14*
X146244061Y-139748000D02*
G75*
G02*
X146184117Y-139748000I-29972J0D01*
G01*
X146184117Y-139748000D02*
G75*
G02*
X146244061Y-139748000I29972J0D01*
G01*
D16*
X146565625Y-139975584D02*
G75*
G02*
X146265397Y-139975584I-150114J0D01*
G01*
X146265397Y-139975584D02*
G75*
G02*
X146565625Y-139975584I150114J0D01*
G01*
X145819118Y-141978886D02*
G75*
G02*
X145518890Y-141978886I-150114J0D01*
G01*
X145518890Y-141978886D02*
G75*
G02*
X145819118Y-141978886I150114J0D01*
G01*
D14*
G04 #@! TO.C,U507*
X119590289Y-119078003D02*
G75*
G02*
X119530345Y-119078003I-29972J0D01*
G01*
X119530345Y-119078003D02*
G75*
G02*
X119590289Y-119078003I29972J0D01*
G01*
D15*
X145465321Y-101927990D02*
X145465321Y-106727965D01*
X149465321Y-101927990D02*
X149465321Y-106727965D01*
X149465321Y-101927990D02*
X145465321Y-101927990D01*
X147448125Y-106727965D02*
X147448125Y-101927990D01*
X120465296Y-101927990D02*
X120465296Y-106727965D01*
X124465296Y-101927990D02*
X124465296Y-106727965D01*
X124465296Y-101927990D02*
X120465296Y-101927990D01*
X126800297Y-101927939D02*
X126800297Y-100827965D01*
X143130320Y-101927939D02*
X143130320Y-100827965D01*
X143130320Y-100827965D02*
X126800297Y-100827965D01*
X126800297Y-101927939D02*
X126800297Y-106727965D01*
X122448125Y-106727965D02*
X122448125Y-101927990D01*
X147458565Y-106727965D02*
X147458565Y-101927990D01*
X147439769Y-106727965D02*
X147458565Y-106727965D01*
X143130320Y-101927939D02*
X143130320Y-106727965D01*
X119560292Y-106727965D02*
X150370325Y-106727965D01*
X150423157Y-106727990D02*
X150423157Y-119047015D01*
X150423157Y-119047015D02*
X119562095Y-119047015D01*
X119562095Y-119047015D02*
X119562095Y-106727990D01*
D14*
G04 #@! TO.C,U506*
X84674565Y-119122513D02*
G75*
G02*
X84614621Y-119122513I-29972J0D01*
G01*
X84614621Y-119122513D02*
G75*
G02*
X84674565Y-119122513I29972J0D01*
G01*
D15*
X110549597Y-101972500D02*
X110549597Y-106772475D01*
X114549597Y-101972500D02*
X114549597Y-106772475D01*
X114549597Y-101972500D02*
X110549597Y-101972500D01*
X112532401Y-106772475D02*
X112532401Y-101972500D01*
X85549572Y-101972500D02*
X85549572Y-106772475D01*
X89549572Y-101972500D02*
X89549572Y-106772475D01*
X89549572Y-101972500D02*
X85549572Y-101972500D01*
X91884573Y-101972449D02*
X91884573Y-100872475D01*
X108214596Y-101972449D02*
X108214596Y-100872475D01*
X108214596Y-100872475D02*
X91884573Y-100872475D01*
X91884573Y-101972449D02*
X91884573Y-106772475D01*
X87532401Y-106772475D02*
X87532401Y-101972500D01*
X112542841Y-106772475D02*
X112542841Y-101972500D01*
X112524045Y-106772475D02*
X112542841Y-106772475D01*
X108214596Y-101972449D02*
X108214596Y-106772475D01*
X84644568Y-106772475D02*
X115454601Y-106772475D01*
X115507433Y-106772500D02*
X115507433Y-119091525D01*
X115507433Y-119091525D02*
X84646371Y-119091525D01*
X84646371Y-119091525D02*
X84646371Y-106772500D01*
D14*
G04 #@! TO.C,H501*
X59973990Y-141438000D02*
G75*
G02*
X59913994Y-141438000I-29998J0D01*
G01*
X59913994Y-141438000D02*
G75*
G02*
X59973990Y-141438000I29998J0D01*
G01*
D18*
X67564008Y-141478005D02*
X67564008Y-136397995D01*
X67564008Y-136397995D02*
X59943992Y-136397995D01*
X59943992Y-136397995D02*
X59943992Y-141478005D01*
X59943992Y-141478005D02*
X67564008Y-141478005D01*
X67564008Y-141478005D02*
X62695580Y-141478005D01*
X59943992Y-138935587D02*
X62483997Y-138935587D01*
X62483997Y-138935587D02*
X62483997Y-141478005D01*
D14*
G04 #@! TO.C,H302*
X38932001Y-134111992D02*
G75*
G02*
X38872005Y-134111992I-29998J0D01*
G01*
X38872005Y-134111992D02*
G75*
G02*
X38932001Y-134111992I29998J0D01*
G01*
D18*
X38861998Y-141732008D02*
X43942008Y-141732008D01*
X43942008Y-141732008D02*
X43942008Y-134111992D01*
X43942008Y-134111992D02*
X38861998Y-134111992D01*
X38861998Y-134111992D02*
X38861998Y-141732008D01*
X38861998Y-141732008D02*
X38861998Y-136863580D01*
X41404416Y-134111992D02*
X41404416Y-136651997D01*
X41404416Y-136651997D02*
X38861998Y-136651997D01*
D14*
G04 #@! TO.C,R212*
X154375905Y-122820523D02*
G75*
G02*
X154315961Y-122820523I-29972J0D01*
G01*
X154315961Y-122820523D02*
G75*
G02*
X154375905Y-122820523I29972J0D01*
G01*
D17*
X156531125Y-123081077D02*
X156531125Y-121759867D01*
X156531125Y-121759867D02*
X155572248Y-121759867D01*
X155572248Y-123081077D02*
X156531125Y-123081077D01*
X154719822Y-123081077D02*
X153760945Y-123081077D01*
X153760945Y-123081077D02*
X153760945Y-121759867D01*
X153760945Y-121759867D02*
X154719822Y-121759867D01*
G04 #@! TO.C,R407*
X64744395Y-146688276D02*
X66065605Y-146688276D01*
X64744395Y-147647153D02*
X64744395Y-146688276D01*
X64744395Y-148499579D02*
X64744395Y-149458456D01*
X64744395Y-149458456D02*
X66065605Y-149458456D01*
X66065605Y-146688276D02*
X66065605Y-147647153D01*
X66065605Y-149458456D02*
X66065605Y-148499579D01*
D14*
X65034921Y-147273264D02*
G75*
G02*
X64974977Y-147273264I-29972J0D01*
G01*
X64974977Y-147273264D02*
G75*
G02*
X65034921Y-147273264I29972J0D01*
G01*
G04 #@! TO.C,R210*
X159151109Y-122020421D02*
G75*
G02*
X159091165Y-122020421I-29972J0D01*
G01*
X159091165Y-122020421D02*
G75*
G02*
X159151109Y-122020421I29972J0D01*
G01*
D17*
X159706125Y-123081077D02*
X158747248Y-123081077D01*
X159706125Y-121759867D02*
X159706125Y-123081077D01*
X158747248Y-121759867D02*
X159706125Y-121759867D01*
X157894822Y-121759867D02*
X156935945Y-121759867D01*
X156935945Y-123081077D02*
X157894822Y-123081077D01*
X156935945Y-121759867D02*
X156935945Y-123081077D01*
D14*
G04 #@! TO.C,R206*
X115881657Y-127927102D02*
G75*
G02*
X115821713Y-127927102I-29972J0D01*
G01*
X115821713Y-127927102D02*
G75*
G02*
X115881657Y-127927102I29972J0D01*
G01*
D17*
X116112239Y-125741910D02*
X114791029Y-125741910D01*
X114791029Y-125741910D02*
X114791029Y-126700787D01*
X116112239Y-126700787D02*
X116112239Y-125741910D01*
X116112239Y-127553213D02*
X116112239Y-128512090D01*
X116112239Y-128512090D02*
X114791029Y-128512090D01*
X114791029Y-128512090D02*
X114791029Y-127553213D01*
D12*
G04 #@! TO.C,C303*
X60244557Y-117770631D02*
X60244557Y-118570631D01*
X60250373Y-117194736D02*
X60250373Y-116394761D01*
X60554387Y-118880461D02*
X61354361Y-118880461D01*
X60560229Y-116084982D02*
X61360254Y-116084982D01*
X61664166Y-117770631D02*
X61664166Y-118570631D01*
X61670033Y-117194736D02*
X61670033Y-116394761D01*
X60250373Y-116394812D02*
G75*
G02*
X60560228Y-116084973I309827J12D01*
G01*
X60554387Y-118880512D02*
G75*
G02*
X60244557Y-118570682I0J309830D01*
G01*
X61360203Y-116084982D02*
G75*
G02*
X61670028Y-116394812I-13J-309838D01*
G01*
X61664216Y-118570682D02*
G75*
G02*
X61354362Y-118880511I-309830J1D01*
G01*
D14*
X61390023Y-118275102D02*
G75*
G02*
X61330079Y-118275102I-29972J0D01*
G01*
X61330079Y-118275102D02*
G75*
G02*
X61390023Y-118275102I29972J0D01*
G01*
G04 #@! TO.C,C202*
X119456708Y-127996949D02*
G75*
G02*
X119396764Y-127996949I-29972J0D01*
G01*
X119396764Y-127996949D02*
G75*
G02*
X119456708Y-127996949I29972J0D01*
G01*
D12*
X119722316Y-127692784D02*
G75*
G02*
X120032145Y-128002638I-1J-309830D01*
G01*
X117236616Y-127996797D02*
G75*
G02*
X117546446Y-127686972I309838J-13D01*
G01*
X120032146Y-128802613D02*
G75*
G02*
X119722316Y-129112443I-309830J0D01*
G01*
X117546446Y-129106627D02*
G75*
G02*
X117236607Y-128796772I-12J309827D01*
G01*
X118346370Y-127686967D02*
X117546395Y-127686967D01*
X118922265Y-127692834D02*
X119722265Y-127692834D01*
X117236616Y-128796771D02*
X117236616Y-127996746D01*
X120032095Y-128802613D02*
X120032095Y-128002639D01*
X118346370Y-129106627D02*
X117546395Y-129106627D01*
X118922265Y-129112443D02*
X119722265Y-129112443D01*
G04 #@! TO.C,C305*
X32072957Y-121176771D02*
X32072957Y-120376746D01*
X33182711Y-120066967D02*
X32382736Y-120066967D01*
X33182711Y-121486627D02*
X32382736Y-121486627D01*
X33758606Y-120072834D02*
X34558606Y-120072834D01*
X33758606Y-121492443D02*
X34558606Y-121492443D01*
X34868436Y-121182613D02*
X34868436Y-120382639D01*
X32072957Y-120376797D02*
G75*
G02*
X32382787Y-120066972I309838J-13D01*
G01*
X32382787Y-121486627D02*
G75*
G02*
X32072948Y-121176772I-12J309827D01*
G01*
X34558657Y-120072784D02*
G75*
G02*
X34868486Y-120382638I-1J-309830D01*
G01*
X34868487Y-121182613D02*
G75*
G02*
X34558657Y-121492443I-309830J0D01*
G01*
D14*
X34293049Y-120376949D02*
G75*
G02*
X34233105Y-120376949I-29972J0D01*
G01*
X34233105Y-120376949D02*
G75*
G02*
X34293049Y-120376949I29972J0D01*
G01*
G04 #@! TO.C,L202*
X156826046Y-129810472D02*
G75*
G02*
X156766050Y-129810472I-29998J0D01*
G01*
X156766050Y-129810472D02*
G75*
G02*
X156826046Y-129810472I29998J0D01*
G01*
D12*
X156796048Y-133342476D02*
X153496022Y-133342476D01*
X156796048Y-129278468D02*
X153496022Y-129278468D01*
D14*
G04 #@! TO.C,C201*
X119656606Y-129676905D02*
G75*
G02*
X119596662Y-129676905I-29972J0D01*
G01*
X119596662Y-129676905D02*
G75*
G02*
X119656606Y-129676905I29972J0D01*
G01*
D17*
X120437835Y-129398393D02*
G75*
G02*
X120590235Y-129550793I0J-152400D01*
G01*
X116663032Y-129550793D02*
G75*
G02*
X116815433Y-129398398I152402J-7D01*
G01*
X120590236Y-131053207D02*
G75*
G02*
X120437835Y-131205608I-152400J-1D01*
G01*
X116815433Y-131205607D02*
G75*
G02*
X116663027Y-131053207I1J152407D01*
G01*
X119027828Y-129398393D02*
X120437835Y-129398393D01*
X118225440Y-129398393D02*
X116815433Y-129398393D01*
X120590236Y-129550793D02*
X120590236Y-131053207D01*
X116663032Y-129550793D02*
X116663032Y-131053207D01*
X120437835Y-131205607D02*
X119027828Y-131205607D01*
X116815433Y-131205607D02*
X118225440Y-131205607D01*
G04 #@! TO.C,R409*
X69824395Y-146688276D02*
X71145605Y-146688276D01*
X69824395Y-147647153D02*
X69824395Y-146688276D01*
X69824395Y-148499579D02*
X69824395Y-149458456D01*
X69824395Y-149458456D02*
X71145605Y-149458456D01*
X71145605Y-146688276D02*
X71145605Y-147647153D01*
X71145605Y-149458456D02*
X71145605Y-148499579D01*
D14*
X70114921Y-147273264D02*
G75*
G02*
X70054977Y-147273264I-29972J0D01*
G01*
X70054977Y-147273264D02*
G75*
G02*
X70114921Y-147273264I29972J0D01*
G01*
G04 #@! TO.C,R204*
X115081555Y-123151898D02*
G75*
G02*
X115021611Y-123151898I-29972J0D01*
G01*
X115021611Y-123151898D02*
G75*
G02*
X115081555Y-123151898I29972J0D01*
G01*
D17*
X116112239Y-122566910D02*
X116112239Y-123525787D01*
X114791029Y-122566910D02*
X116112239Y-122566910D01*
X114791029Y-123525787D02*
X114791029Y-122566910D01*
X114791029Y-124378213D02*
X114791029Y-125337090D01*
X116112239Y-125337090D02*
X116112239Y-124378213D01*
X114791029Y-125337090D02*
X116112239Y-125337090D01*
D14*
G04 #@! TO.C,R307*
X41343074Y-117201949D02*
G75*
G02*
X41283130Y-117201949I-29972J0D01*
G01*
X41283130Y-117201949D02*
G75*
G02*
X41343074Y-117201949I29972J0D01*
G01*
D17*
X41898090Y-118262605D02*
X40939213Y-118262605D01*
X41898090Y-116941395D02*
X41898090Y-118262605D01*
X40939213Y-116941395D02*
X41898090Y-116941395D01*
X40086787Y-116941395D02*
X39127910Y-116941395D01*
X39127910Y-118262605D02*
X40086787Y-118262605D01*
X39127910Y-116941395D02*
X39127910Y-118262605D01*
D12*
G04 #@! TO.C,U504*
X139699985Y-158731988D02*
X154940015Y-158731988D01*
X139699985Y-168429550D02*
X154940015Y-168429550D01*
X139699985Y-169902753D02*
X154940015Y-169902753D01*
X139699985Y-170732013D02*
X139699985Y-158731988D01*
X139699985Y-170732013D02*
X154940015Y-170732013D01*
X141368920Y-169902753D02*
X140810119Y-170732013D01*
X143248524Y-169902753D02*
X143731125Y-170732013D01*
X146423531Y-169902727D02*
X145864729Y-170732013D01*
X148303160Y-169902727D02*
X148785735Y-170732013D01*
X151528941Y-169902727D02*
X150970140Y-170732013D01*
X153408570Y-169902727D02*
X153891146Y-170732013D01*
X154940015Y-170732013D02*
X154940015Y-158731988D01*
D14*
G04 #@! TO.C,U505*
X89795174Y-155479995D02*
G75*
G02*
X89735230Y-155479995I-29972J0D01*
G01*
X89735230Y-155479995D02*
G75*
G02*
X89795174Y-155479995I29972J0D01*
G01*
D12*
X89808154Y-168125029D02*
X36722048Y-168125029D01*
X89805055Y-155550023D02*
X89808154Y-168125029D01*
X88411151Y-173840040D02*
X84982144Y-173840040D01*
X88411151Y-168125029D02*
X88411151Y-173840040D01*
X84982144Y-173840040D02*
X84982144Y-168125029D01*
X82696140Y-174094041D02*
X82696140Y-168252029D01*
X43706985Y-174094041D02*
X82696140Y-174094041D01*
X43706985Y-168125029D02*
X43706985Y-174094041D01*
X41421057Y-173840040D02*
X41421057Y-168125029D01*
X37992050Y-173840040D02*
X41421057Y-173840040D01*
X37992050Y-168125029D02*
X37992050Y-173840040D01*
X36722048Y-168125029D02*
X36722048Y-155679004D01*
X36722048Y-158600010D02*
X36715088Y-155550023D01*
X36715088Y-155550023D02*
X89801194Y-155550023D01*
D17*
G04 #@! TO.C,X401*
X32631483Y-141019482D02*
X36688683Y-141019482D01*
X32631483Y-144376708D02*
X32631483Y-141019482D01*
X36688683Y-141019482D02*
X36688683Y-144376708D01*
X36688683Y-144376708D02*
X32631483Y-144376708D01*
X36917284Y-140790881D02*
X35060083Y-140790881D01*
X36917284Y-142448082D02*
X36917284Y-140790881D01*
D14*
X36290080Y-141448082D02*
G75*
G02*
X36230086Y-141448082I-29997J0D01*
G01*
X36230086Y-141448082D02*
G75*
G02*
X36290080Y-141448082I29997J0D01*
G01*
D17*
G04 #@! TO.C,R403*
X36539478Y-151354512D02*
X36539478Y-152313389D01*
X36539478Y-154124692D02*
X36539478Y-153165815D01*
X37860688Y-151354512D02*
X36539478Y-151354512D01*
X37860688Y-152313389D02*
X37860688Y-151354512D01*
X37860688Y-153165815D02*
X37860688Y-154124692D01*
X37860688Y-154124692D02*
X36539478Y-154124692D01*
D14*
X37630106Y-153539704D02*
G75*
G02*
X37570162Y-153539704I-29972J0D01*
G01*
X37570162Y-153539704D02*
G75*
G02*
X37630106Y-153539704I29972J0D01*
G01*
D17*
G04 #@! TO.C,C301*
X53052799Y-112917607D02*
X54462806Y-112917607D01*
X56675201Y-112917607D02*
X55265194Y-112917607D01*
X52900398Y-111262793D02*
X52900398Y-112765207D01*
X56827602Y-111262793D02*
X56827602Y-112765207D01*
X54462806Y-111110393D02*
X53052799Y-111110393D01*
X55265194Y-111110393D02*
X56675201Y-111110393D01*
X53052799Y-112917607D02*
G75*
G02*
X52900393Y-112765207I1J152407D01*
G01*
X56827602Y-112765207D02*
G75*
G02*
X56675201Y-112917608I-152400J-1D01*
G01*
X52900398Y-111262793D02*
G75*
G02*
X53052799Y-111110398I152402J-7D01*
G01*
X56675201Y-111110393D02*
G75*
G02*
X56827601Y-111262793I0J-152400D01*
G01*
D14*
X55893972Y-111388905D02*
G75*
G02*
X55834028Y-111388905I-29972J0D01*
G01*
X55834028Y-111388905D02*
G75*
G02*
X55893972Y-111388905I29972J0D01*
G01*
G04 #@! TO.C,U201*
X119456530Y-126657203D02*
G75*
G02*
X119396586Y-126657203I-29972J0D01*
G01*
X119396586Y-126657203D02*
G75*
G02*
X119456530Y-126657203I29972J0D01*
G01*
D19*
X119651602Y-126806809D02*
G75*
G02*
X119501742Y-126806809I-74930J0D01*
G01*
X119501742Y-126806809D02*
G75*
G02*
X119651602Y-126806809I74930J0D01*
G01*
D17*
X119302834Y-124980876D02*
X117950434Y-124980876D01*
X119302834Y-126733276D02*
X117950434Y-126733276D01*
D12*
G04 #@! TO.C,U501*
X93979985Y-158731988D02*
X109220015Y-158731988D01*
X93979985Y-168429550D02*
X109220015Y-168429550D01*
X93979985Y-169902753D02*
X109220015Y-169902753D01*
X93979985Y-170732013D02*
X93979985Y-158731988D01*
X93979985Y-170732013D02*
X109220015Y-170732013D01*
X95648920Y-169902753D02*
X95090119Y-170732013D01*
X97528524Y-169902753D02*
X98011125Y-170732013D01*
X100703531Y-169902727D02*
X100144729Y-170732013D01*
X102583160Y-169902727D02*
X103065735Y-170732013D01*
X105808941Y-169902727D02*
X105250140Y-170732013D01*
X107688570Y-169902727D02*
X108171146Y-170732013D01*
X109220015Y-170732013D02*
X109220015Y-158731988D01*
D14*
G04 #@! TO.C,C204*
X132871618Y-131259612D02*
G75*
G02*
X132811624Y-131259612I-29997J0D01*
G01*
X132811624Y-131259612D02*
G75*
G02*
X132871618Y-131259612I29997J0D01*
G01*
D12*
X132891634Y-124009701D02*
X132469638Y-124009701D01*
X128491634Y-124009701D02*
X129040631Y-124009701D01*
X128532630Y-129159003D02*
X128532630Y-129176427D01*
X128532630Y-129176427D02*
X132891634Y-129176427D01*
X128491634Y-129393826D02*
X132891634Y-129393826D01*
X128491634Y-130664438D02*
X128491634Y-130679450D01*
X132422774Y-130679450D02*
X132891634Y-130679450D01*
X132422774Y-130679450D02*
X132422774Y-130886841D01*
X128960494Y-130679450D02*
X128960494Y-131209676D01*
X128491634Y-130679450D02*
X128960494Y-130679450D01*
X132422774Y-130885444D02*
X132422774Y-130885444D01*
X128960494Y-130885444D02*
X128491634Y-130885444D01*
X128960494Y-130885444D02*
X128960494Y-130886841D01*
X128960494Y-130885444D02*
X128960494Y-131209676D01*
X132422774Y-130886841D02*
X132891634Y-130886841D01*
X128960494Y-130886841D02*
X128960494Y-130886841D01*
X128491634Y-131010743D02*
X128491634Y-131074243D01*
X132422774Y-131039242D02*
X132422774Y-131053745D01*
X132891278Y-131053745D02*
X132891634Y-131053745D01*
X132422774Y-131053745D02*
X132891634Y-131053745D01*
X128491634Y-131074243D02*
X128960494Y-131074243D01*
X132891634Y-131209676D02*
X132891634Y-124009701D01*
X132891634Y-131209676D02*
X132469638Y-131209676D01*
X132469638Y-131209676D02*
X132422774Y-131209676D01*
X132422774Y-131209676D02*
X132422774Y-130885444D01*
X132422774Y-131209676D02*
X132469638Y-131209676D01*
X128960494Y-131209676D02*
X128491634Y-131209676D01*
X128491634Y-131209676D02*
X128491634Y-124009701D01*
X132891278Y-131367182D02*
X132891278Y-131053745D01*
X132891278Y-131367182D02*
X132891278Y-131405231D01*
X132891278Y-131405231D02*
X132422774Y-131405231D01*
X132422774Y-131405231D02*
X132422774Y-131209676D01*
X128960494Y-131405231D02*
X128960494Y-131209676D01*
X128960494Y-131405231D02*
X128491634Y-131405231D01*
X128491634Y-131405231D02*
X128491634Y-131209676D01*
D14*
G04 #@! TO.C,C205*
X137951618Y-131259612D02*
G75*
G02*
X137891624Y-131259612I-29997J0D01*
G01*
X137891624Y-131259612D02*
G75*
G02*
X137951618Y-131259612I29997J0D01*
G01*
D12*
X137971634Y-124009701D02*
X137549638Y-124009701D01*
X133571634Y-124009701D02*
X134120631Y-124009701D01*
X133612630Y-129159003D02*
X133612630Y-129176427D01*
X133612630Y-129176427D02*
X137971634Y-129176427D01*
X133571634Y-129393826D02*
X137971634Y-129393826D01*
X133571634Y-130664438D02*
X133571634Y-130679450D01*
X137502774Y-130679450D02*
X137971634Y-130679450D01*
X137502774Y-130679450D02*
X137502774Y-130886841D01*
X134040494Y-130679450D02*
X134040494Y-131209676D01*
X133571634Y-130679450D02*
X134040494Y-130679450D01*
X137502774Y-130885444D02*
X137502774Y-130885444D01*
X134040494Y-130885444D02*
X133571634Y-130885444D01*
X134040494Y-130885444D02*
X134040494Y-130886841D01*
X134040494Y-130885444D02*
X134040494Y-131209676D01*
X137502774Y-130886841D02*
X137971634Y-130886841D01*
X134040494Y-130886841D02*
X134040494Y-130886841D01*
X133571634Y-131010743D02*
X133571634Y-131074243D01*
X137502774Y-131039242D02*
X137502774Y-131053745D01*
X137971278Y-131053745D02*
X137971634Y-131053745D01*
X137502774Y-131053745D02*
X137971634Y-131053745D01*
X133571634Y-131074243D02*
X134040494Y-131074243D01*
X137971634Y-131209676D02*
X137971634Y-124009701D01*
X137971634Y-131209676D02*
X137549638Y-131209676D01*
X137549638Y-131209676D02*
X137502774Y-131209676D01*
X137502774Y-131209676D02*
X137502774Y-130885444D01*
X137502774Y-131209676D02*
X137549638Y-131209676D01*
X134040494Y-131209676D02*
X133571634Y-131209676D01*
X133571634Y-131209676D02*
X133571634Y-124009701D01*
X137971278Y-131367182D02*
X137971278Y-131053745D01*
X137971278Y-131367182D02*
X137971278Y-131405231D01*
X137971278Y-131405231D02*
X137502774Y-131405231D01*
X137502774Y-131405231D02*
X137502774Y-131209676D01*
X134040494Y-131405231D02*
X134040494Y-131209676D01*
X134040494Y-131405231D02*
X133571634Y-131405231D01*
X133571634Y-131405231D02*
X133571634Y-131209676D01*
D14*
G04 #@! TO.C,R202*
X113976657Y-124752102D02*
G75*
G02*
X113916713Y-124752102I-29972J0D01*
G01*
X113916713Y-124752102D02*
G75*
G02*
X113976657Y-124752102I29972J0D01*
G01*
D17*
X114207239Y-122566910D02*
X112886029Y-122566910D01*
X112886029Y-122566910D02*
X112886029Y-123525787D01*
X114207239Y-123525787D02*
X114207239Y-122566910D01*
X114207239Y-124378213D02*
X114207239Y-125337090D01*
X114207239Y-125337090D02*
X112886029Y-125337090D01*
X112886029Y-125337090D02*
X112886029Y-124378213D01*
D14*
G04 #@! TO.C,R203*
X114046504Y-131972051D02*
G75*
G02*
X113986560Y-131972051I-29972J0D01*
G01*
X113986560Y-131972051D02*
G75*
G02*
X114046504Y-131972051I29972J0D01*
G01*
D17*
X116201724Y-130911395D02*
X115242847Y-130911395D01*
X113431544Y-130911395D02*
X114390421Y-130911395D01*
X116201724Y-132232605D02*
X116201724Y-130911395D01*
X115242847Y-132232605D02*
X116201724Y-132232605D01*
X114390421Y-132232605D02*
X113431544Y-132232605D01*
X113431544Y-132232605D02*
X113431544Y-130911395D01*
D14*
G04 #@! TO.C,C211*
X151043420Y-144890459D02*
G75*
G02*
X150983426Y-144890459I-29997J0D01*
G01*
X150983426Y-144890459D02*
G75*
G02*
X151043420Y-144890459I29997J0D01*
G01*
D12*
X158263334Y-144940472D02*
X158263334Y-144518476D01*
X158263334Y-140540472D02*
X158263334Y-141089469D01*
X153114032Y-140581468D02*
X153096608Y-140581468D01*
X153096608Y-140581468D02*
X153096608Y-144940472D01*
X152879209Y-140540472D02*
X152879209Y-144940472D01*
X151608597Y-140540472D02*
X151593585Y-140540472D01*
X151593585Y-144471612D02*
X151593585Y-144940472D01*
X151593585Y-144471612D02*
X151386194Y-144471612D01*
X151593585Y-141009332D02*
X151063359Y-141009332D01*
X151593585Y-140540472D02*
X151593585Y-141009332D01*
X151387591Y-144471612D02*
X151387591Y-144471612D01*
X151387591Y-141009332D02*
X151387591Y-140540472D01*
X151387591Y-141009332D02*
X151386194Y-141009332D01*
X151387591Y-141009332D02*
X151063359Y-141009332D01*
X151386194Y-144471612D02*
X151386194Y-144940472D01*
X151386194Y-141009332D02*
X151386194Y-141009332D01*
X151262292Y-140540472D02*
X151198792Y-140540472D01*
X151233793Y-144471612D02*
X151219290Y-144471612D01*
X151219290Y-144940116D02*
X151219290Y-144940472D01*
X151219290Y-144471612D02*
X151219290Y-144940472D01*
X151198792Y-140540472D02*
X151198792Y-141009332D01*
X151063359Y-144940472D02*
X158263334Y-144940472D01*
X151063359Y-144940472D02*
X151063359Y-144518476D01*
X151063359Y-144518476D02*
X151063359Y-144471612D01*
X151063359Y-144471612D02*
X151387591Y-144471612D01*
X151063359Y-144471612D02*
X151063359Y-144518476D01*
X151063359Y-141009332D02*
X151063359Y-140540472D01*
X151063359Y-140540472D02*
X158263334Y-140540472D01*
X150905853Y-144940116D02*
X151219290Y-144940116D01*
X150905853Y-144940116D02*
X150867804Y-144940116D01*
X150867804Y-144940116D02*
X150867804Y-144471612D01*
X150867804Y-144471612D02*
X151063359Y-144471612D01*
X150867804Y-141009332D02*
X151063359Y-141009332D01*
X150867804Y-141009332D02*
X150867804Y-140540472D01*
X150867804Y-140540472D02*
X151063359Y-140540472D01*
D17*
G04 #@! TO.C,R405*
X59664395Y-146688276D02*
X60985605Y-146688276D01*
X59664395Y-147647153D02*
X59664395Y-146688276D01*
X59664395Y-148499579D02*
X59664395Y-149458456D01*
X59664395Y-149458456D02*
X60985605Y-149458456D01*
X60985605Y-146688276D02*
X60985605Y-147647153D01*
X60985605Y-149458456D02*
X60985605Y-148499579D01*
D14*
X59954921Y-147273264D02*
G75*
G02*
X59894977Y-147273264I-29972J0D01*
G01*
X59894977Y-147273264D02*
G75*
G02*
X59954921Y-147273264I29972J0D01*
G01*
G04 #@! TO.C,R209*
X150330956Y-120985370D02*
G75*
G02*
X150271012Y-120985370I-29972J0D01*
G01*
X150271012Y-120985370D02*
G75*
G02*
X150330956Y-120985370I29972J0D01*
G01*
D17*
X151361640Y-123170562D02*
X151361640Y-122211685D01*
X151361640Y-120400382D02*
X151361640Y-121359259D01*
X150040430Y-123170562D02*
X151361640Y-123170562D01*
X150040430Y-122211685D02*
X150040430Y-123170562D01*
X150040430Y-121359259D02*
X150040430Y-120400382D01*
X150040430Y-120400382D02*
X151361640Y-120400382D01*
G04 #@! TO.C,R415*
X67284395Y-142878276D02*
X68605605Y-142878276D01*
X67284395Y-143837153D02*
X67284395Y-142878276D01*
X67284395Y-144689579D02*
X67284395Y-145648456D01*
X67284395Y-145648456D02*
X68605605Y-145648456D01*
X68605605Y-142878276D02*
X68605605Y-143837153D01*
X68605605Y-145648456D02*
X68605605Y-144689579D01*
D14*
X67574921Y-143463264D02*
G75*
G02*
X67514977Y-143463264I-29972J0D01*
G01*
X67514977Y-143463264D02*
G75*
G02*
X67574921Y-143463264I29972J0D01*
G01*
G04 #@! TO.C,U303*
X40502997Y-121452000D02*
G75*
G02*
X40443003Y-121452000I-29997J0D01*
G01*
X40443003Y-121452000D02*
G75*
G02*
X40502997Y-121452000I29997J0D01*
G01*
D19*
X39547803Y-120821952D02*
G75*
G02*
X39397943Y-120821952I-74930J0D01*
G01*
X39397943Y-120821952D02*
G75*
G02*
X39547803Y-120821952I74930J0D01*
G01*
D17*
X40549200Y-126528200D02*
X39803505Y-126528200D01*
X40549200Y-125782505D02*
X40549200Y-126528200D01*
X40549200Y-122121495D02*
X40549200Y-121375800D01*
X40549200Y-121375800D02*
X39803505Y-121375800D01*
X35396800Y-126528200D02*
X36142495Y-126528200D01*
X35396800Y-125782505D02*
X35396800Y-126528200D01*
X35396800Y-122121495D02*
X35396800Y-121375800D01*
X35396800Y-121375800D02*
X36142495Y-121375800D01*
D14*
G04 #@! TO.C,C212*
X153740905Y-146904753D02*
G75*
G02*
X153680961Y-146904753I-29972J0D01*
G01*
X153680961Y-146904753D02*
G75*
G02*
X153740905Y-146904753I29972J0D01*
G01*
D12*
X155901053Y-146904905D02*
G75*
G02*
X155591223Y-147214730I-309838J13D01*
G01*
X155591223Y-145795075D02*
G75*
G02*
X155901062Y-146104930I12J-309827D01*
G01*
X153415353Y-147208918D02*
G75*
G02*
X153105524Y-146899064I1J309830D01*
G01*
X153105523Y-146099089D02*
G75*
G02*
X153415353Y-145789259I309830J0D01*
G01*
X155901053Y-146104931D02*
X155901053Y-146904956D01*
X154791299Y-147214735D02*
X155591274Y-147214735D01*
X154791299Y-145795075D02*
X155591274Y-145795075D01*
X154215404Y-147208868D02*
X153415404Y-147208868D01*
X154215404Y-145789259D02*
X153415404Y-145789259D01*
X153105574Y-146099089D02*
X153105574Y-146899063D01*
D14*
G04 #@! TO.C,R205*
X115646708Y-129266949D02*
G75*
G02*
X115586764Y-129266949I-29972J0D01*
G01*
X115586764Y-129266949D02*
G75*
G02*
X115646708Y-129266949I29972J0D01*
G01*
D17*
X116201724Y-129006395D02*
X116201724Y-130327605D01*
X115242847Y-129006395D02*
X116201724Y-129006395D01*
X114390421Y-129006395D02*
X113431544Y-129006395D01*
X113431544Y-129006395D02*
X113431544Y-130327605D01*
X116201724Y-130327605D02*
X115242847Y-130327605D01*
X113431544Y-130327605D02*
X114390421Y-130327605D01*
G04 #@! TO.C,R301*
X52589910Y-116179395D02*
X52589910Y-117500605D01*
X52589910Y-117500605D02*
X53548787Y-117500605D01*
X53548787Y-116179395D02*
X52589910Y-116179395D01*
X54401213Y-116179395D02*
X55360090Y-116179395D01*
X55360090Y-116179395D02*
X55360090Y-117500605D01*
X55360090Y-117500605D02*
X54401213Y-117500605D01*
D14*
X54805074Y-116439949D02*
G75*
G02*
X54745130Y-116439949I-29972J0D01*
G01*
X54745130Y-116439949D02*
G75*
G02*
X54805074Y-116439949I29972J0D01*
G01*
G04 #@! TO.C,R201*
X118186708Y-121011949D02*
G75*
G02*
X118126764Y-121011949I-29972J0D01*
G01*
X118126764Y-121011949D02*
G75*
G02*
X118186708Y-121011949I29972J0D01*
G01*
D17*
X118741724Y-120751395D02*
X118741724Y-122072605D01*
X117782847Y-120751395D02*
X118741724Y-120751395D01*
X116930421Y-120751395D02*
X115971544Y-120751395D01*
X115971544Y-120751395D02*
X115971544Y-122072605D01*
X118741724Y-122072605D02*
X117782847Y-122072605D01*
X115971544Y-122072605D02*
X116930421Y-122072605D01*
D14*
G04 #@! TO.C,R211*
X152235956Y-120985370D02*
G75*
G02*
X152176012Y-120985370I-29972J0D01*
G01*
X152176012Y-120985370D02*
G75*
G02*
X152235956Y-120985370I29972J0D01*
G01*
D17*
X153266640Y-123170562D02*
X153266640Y-122211685D01*
X153266640Y-120400382D02*
X153266640Y-121359259D01*
X151945430Y-123170562D02*
X153266640Y-123170562D01*
X151945430Y-122211685D02*
X151945430Y-123170562D01*
X151945430Y-121359259D02*
X151945430Y-120400382D01*
X151945430Y-120400382D02*
X153266640Y-120400382D01*
G04 #@! TO.C,U402*
X29428870Y-132671568D02*
X36081296Y-132671568D01*
X29428870Y-136214368D02*
X29428870Y-132671568D01*
X36081296Y-132671568D02*
X36081296Y-136214368D01*
X36081296Y-136214368D02*
X29428870Y-136214368D01*
D16*
X29345888Y-137313936D02*
G75*
G02*
X29045660Y-137313936I-150114J0D01*
G01*
X29045660Y-137313936D02*
G75*
G02*
X29345888Y-137313936I150114J0D01*
G01*
D14*
X29535119Y-137642866D02*
G75*
G02*
X29475175Y-137642866I-29972J0D01*
G01*
X29475175Y-137642866D02*
G75*
G02*
X29535119Y-137642866I29972J0D01*
G01*
D16*
X29980127Y-135462018D02*
G75*
G02*
X29679899Y-135462018I-150114J0D01*
G01*
X29679899Y-135462018D02*
G75*
G02*
X29980127Y-135462018I150114J0D01*
G01*
D17*
G04 #@! TO.C,R406*
X62204395Y-146688276D02*
X63525605Y-146688276D01*
X62204395Y-147647153D02*
X62204395Y-146688276D01*
X62204395Y-148499579D02*
X62204395Y-149458456D01*
X62204395Y-149458456D02*
X63525605Y-149458456D01*
X63525605Y-146688276D02*
X63525605Y-147647153D01*
X63525605Y-149458456D02*
X63525605Y-148499579D01*
D14*
X62494921Y-147273264D02*
G75*
G02*
X62434977Y-147273264I-29972J0D01*
G01*
X62434977Y-147273264D02*
G75*
G02*
X62494921Y-147273264I29972J0D01*
G01*
D12*
G04 #@! TO.C,U503*
X124459985Y-158731988D02*
X139700015Y-158731988D01*
X124459985Y-168429550D02*
X139700015Y-168429550D01*
X124459985Y-169902753D02*
X139700015Y-169902753D01*
X124459985Y-170732013D02*
X124459985Y-158731988D01*
X124459985Y-170732013D02*
X139700015Y-170732013D01*
X126128920Y-169902753D02*
X125570119Y-170732013D01*
X128008524Y-169902753D02*
X128491125Y-170732013D01*
X131183531Y-169902727D02*
X130624729Y-170732013D01*
X133063160Y-169902727D02*
X133545735Y-170732013D01*
X136288941Y-169902727D02*
X135730140Y-170732013D01*
X138168570Y-169902727D02*
X138651146Y-170732013D01*
X139700015Y-170732013D02*
X139700015Y-158731988D01*
D17*
G04 #@! TO.C,R303*
X53949395Y-127003276D02*
X53949395Y-127962153D01*
X53949395Y-129773456D02*
X53949395Y-128814579D01*
X55270605Y-127003276D02*
X53949395Y-127003276D01*
X55270605Y-127962153D02*
X55270605Y-127003276D01*
X55270605Y-128814579D02*
X55270605Y-129773456D01*
X55270605Y-129773456D02*
X53949395Y-129773456D01*
D14*
X55040023Y-129188468D02*
G75*
G02*
X54980079Y-129188468I-29972J0D01*
G01*
X54980079Y-129188468D02*
G75*
G02*
X55040023Y-129188468I29972J0D01*
G01*
D17*
G04 #@! TO.C,R417*
X72364395Y-142878276D02*
X73685605Y-142878276D01*
X72364395Y-143837153D02*
X72364395Y-142878276D01*
X72364395Y-144689579D02*
X72364395Y-145648456D01*
X72364395Y-145648456D02*
X73685605Y-145648456D01*
X73685605Y-142878276D02*
X73685605Y-143837153D01*
X73685605Y-145648456D02*
X73685605Y-144689579D01*
D14*
X72654921Y-143463264D02*
G75*
G02*
X72594977Y-143463264I-29972J0D01*
G01*
X72594977Y-143463264D02*
G75*
G02*
X72654921Y-143463264I29972J0D01*
G01*
G04 #@! TO.C,L201*
X127641634Y-131382091D02*
G75*
G02*
X127581690Y-131382091I-29972J0D01*
G01*
X127581690Y-131382091D02*
G75*
G02*
X127641634Y-131382091I29972J0D01*
G01*
D17*
X127717834Y-124035787D02*
X126204042Y-124035787D01*
X120965434Y-124035787D02*
X122479226Y-124035787D01*
X127717834Y-131488213D02*
X127717834Y-124035787D01*
X126204042Y-131488213D02*
X127717834Y-131488213D01*
X122479226Y-131488213D02*
X120965434Y-131488213D01*
X120965434Y-131488213D02*
X120965434Y-124035787D01*
G04 #@! TO.C,R412*
X59664395Y-142878276D02*
X60985605Y-142878276D01*
X59664395Y-143837153D02*
X59664395Y-142878276D01*
X59664395Y-144689579D02*
X59664395Y-145648456D01*
X59664395Y-145648456D02*
X60985605Y-145648456D01*
X60985605Y-142878276D02*
X60985605Y-143837153D01*
X60985605Y-145648456D02*
X60985605Y-144689579D01*
D14*
X59954921Y-143463264D02*
G75*
G02*
X59894977Y-143463264I-29972J0D01*
G01*
X59894977Y-143463264D02*
G75*
G02*
X59954921Y-143463264I29972J0D01*
G01*
G04 #@! TO.C,U305*
X43697951Y-114647432D02*
G75*
G02*
X43637957Y-114647432I-29997J0D01*
G01*
X43637957Y-114647432D02*
G75*
G02*
X43697951Y-114647432I29997J0D01*
G01*
D12*
X42419999Y-112570876D02*
X42419999Y-110383169D01*
X42419999Y-108310805D02*
X42419999Y-106687437D01*
X42419999Y-106687437D02*
X33275981Y-106687437D01*
X33275981Y-110383144D02*
X33275981Y-112570876D01*
X33275981Y-106687437D02*
X33275981Y-108310830D01*
G04 #@! TO.C,C402*
X35810065Y-139922739D02*
X35810065Y-139122714D01*
X36919819Y-138812935D02*
X36119844Y-138812935D01*
X36919819Y-140232595D02*
X36119844Y-140232595D01*
X37495714Y-138818802D02*
X38295714Y-138818802D01*
X37495714Y-140238411D02*
X38295714Y-140238411D01*
X38605544Y-139928581D02*
X38605544Y-139128607D01*
X35810065Y-139122765D02*
G75*
G02*
X36119895Y-138812940I309838J-13D01*
G01*
X36119895Y-140232595D02*
G75*
G02*
X35810056Y-139922740I-12J309827D01*
G01*
X38295765Y-138818752D02*
G75*
G02*
X38605594Y-139128606I-1J-309830D01*
G01*
X38605595Y-139928581D02*
G75*
G02*
X38295765Y-140238411I-309830J0D01*
G01*
D14*
X38030157Y-139122917D02*
G75*
G02*
X37970213Y-139122917I-29972J0D01*
G01*
X37970213Y-139122917D02*
G75*
G02*
X38030157Y-139122917I29972J0D01*
G01*
D17*
G04 #@! TO.C,R414*
X64744395Y-142878276D02*
X66065605Y-142878276D01*
X64744395Y-143837153D02*
X64744395Y-142878276D01*
X64744395Y-144689579D02*
X64744395Y-145648456D01*
X64744395Y-145648456D02*
X66065605Y-145648456D01*
X66065605Y-142878276D02*
X66065605Y-143837153D01*
X66065605Y-145648456D02*
X66065605Y-144689579D01*
D14*
X65034921Y-143463264D02*
G75*
G02*
X64974977Y-143463264I-29972J0D01*
G01*
X64974977Y-143463264D02*
G75*
G02*
X65034921Y-143463264I29972J0D01*
G01*
G04 #@! TO.C,C209*
X155976109Y-120115421D02*
G75*
G02*
X155916165Y-120115421I-29972J0D01*
G01*
X155916165Y-120115421D02*
G75*
G02*
X155976109Y-120115421I29972J0D01*
G01*
D12*
X156551547Y-120921085D02*
G75*
G02*
X156241717Y-121230915I-309830J0D01*
G01*
X156241717Y-119811256D02*
G75*
G02*
X156551546Y-120121110I-1J-309830D01*
G01*
X154065847Y-121225099D02*
G75*
G02*
X153756008Y-120915244I-12J309827D01*
G01*
X153756017Y-120115269D02*
G75*
G02*
X154065847Y-119805444I309838J-13D01*
G01*
X156551496Y-120921085D02*
X156551496Y-120121111D01*
X155441666Y-121230915D02*
X156241666Y-121230915D01*
X155441666Y-119811306D02*
X156241666Y-119811306D01*
X154865771Y-121225099D02*
X154065796Y-121225099D01*
X154865771Y-119805439D02*
X154065796Y-119805439D01*
X153756017Y-120915243D02*
X153756017Y-120115218D01*
D14*
G04 #@! TO.C,C206*
X140011657Y-128562102D02*
G75*
G02*
X139951713Y-128562102I-29972J0D01*
G01*
X139951713Y-128562102D02*
G75*
G02*
X140011657Y-128562102I29972J0D01*
G01*
D12*
X139981837Y-126371982D02*
G75*
G02*
X140291662Y-126681812I-13J-309838D01*
G01*
X138872007Y-126681812D02*
G75*
G02*
X139181862Y-126371973I309827J12D01*
G01*
X140285850Y-128857682D02*
G75*
G02*
X139975996Y-129167511I-309830J1D01*
G01*
X139176021Y-129167512D02*
G75*
G02*
X138866191Y-128857682I0J309830D01*
G01*
X139181863Y-126371982D02*
X139981888Y-126371982D01*
X140291667Y-127481736D02*
X140291667Y-126681761D01*
X138872007Y-127481736D02*
X138872007Y-126681761D01*
X140285800Y-128057631D02*
X140285800Y-128857631D01*
X138866191Y-128057631D02*
X138866191Y-128857631D01*
X139176021Y-129167461D02*
X139975995Y-129167461D01*
D17*
G04 #@! TO.C,U302*
X46225787Y-119415787D02*
X46225787Y-120868213D01*
X46225787Y-120868213D02*
X47257410Y-120868213D01*
X47296602Y-119415787D02*
X48207398Y-119415787D01*
X49278213Y-119415787D02*
X49278213Y-120868213D01*
X49278213Y-120868213D02*
X48246590Y-120868213D01*
D14*
X49232010Y-118942000D02*
G75*
G02*
X49172016Y-118942000I-29997J0D01*
G01*
X49172016Y-118942000D02*
G75*
G02*
X49232010Y-118942000I29997J0D01*
G01*
D17*
G04 #@! TO.C,R304*
X51692276Y-115722605D02*
X51692276Y-114401395D01*
X52651153Y-115722605D02*
X51692276Y-115722605D01*
X53503579Y-115722605D02*
X54462456Y-115722605D01*
X54462456Y-115722605D02*
X54462456Y-114401395D01*
X51692276Y-114401395D02*
X52651153Y-114401395D01*
X54462456Y-114401395D02*
X53503579Y-114401395D01*
D14*
X52307236Y-115462051D02*
G75*
G02*
X52247292Y-115462051I-29972J0D01*
G01*
X52247292Y-115462051D02*
G75*
G02*
X52307236Y-115462051I29972J0D01*
G01*
D17*
G04 #@! TO.C,R408*
X67284395Y-146688276D02*
X68605605Y-146688276D01*
X67284395Y-147647153D02*
X67284395Y-146688276D01*
X67284395Y-148499579D02*
X67284395Y-149458456D01*
X67284395Y-149458456D02*
X68605605Y-149458456D01*
X68605605Y-146688276D02*
X68605605Y-147647153D01*
X68605605Y-149458456D02*
X68605605Y-148499579D01*
D14*
X67574921Y-147273264D02*
G75*
G02*
X67514977Y-147273264I-29972J0D01*
G01*
X67514977Y-147273264D02*
G75*
G02*
X67574921Y-147273264I29972J0D01*
G01*
D17*
G04 #@! TO.C,R305*
X43064910Y-121767395D02*
X43064910Y-123088605D01*
X43064910Y-123088605D02*
X44023787Y-123088605D01*
X44023787Y-121767395D02*
X43064910Y-121767395D01*
X44876213Y-121767395D02*
X45835090Y-121767395D01*
X45835090Y-121767395D02*
X45835090Y-123088605D01*
X45835090Y-123088605D02*
X44876213Y-123088605D01*
D14*
X45280074Y-122027949D02*
G75*
G02*
X45220130Y-122027949I-29972J0D01*
G01*
X45220130Y-122027949D02*
G75*
G02*
X45280074Y-122027949I29972J0D01*
G01*
G04 #@! TO.C,C208*
X154306058Y-126395574D02*
G75*
G02*
X154246114Y-126395574I-29972J0D01*
G01*
X154246114Y-126395574D02*
G75*
G02*
X154306058Y-126395574I29972J0D01*
G01*
D12*
X154580251Y-126691154D02*
G75*
G02*
X154270397Y-127000983I-309830J1D01*
G01*
X154276238Y-124205454D02*
G75*
G02*
X154586063Y-124515284I-13J-309838D01*
G01*
X153470422Y-127000984D02*
G75*
G02*
X153160592Y-126691154I0J309830D01*
G01*
X153166408Y-124515284D02*
G75*
G02*
X153476263Y-124205445I309827J12D01*
G01*
X154586068Y-125315208D02*
X154586068Y-124515233D01*
X154580201Y-125891103D02*
X154580201Y-126691103D01*
X153476264Y-124205454D02*
X154276289Y-124205454D01*
X153470422Y-127000933D02*
X154270396Y-127000933D01*
X153166408Y-125315208D02*
X153166408Y-124515233D01*
X153160592Y-125891103D02*
X153160592Y-126691103D01*
G04 #@! TO.C,C404*
X51884957Y-133114771D02*
X51884957Y-132314746D01*
X52994711Y-132004967D02*
X52194736Y-132004967D01*
X52994711Y-133424627D02*
X52194736Y-133424627D01*
X53570606Y-132010834D02*
X54370606Y-132010834D01*
X53570606Y-133430443D02*
X54370606Y-133430443D01*
X54680436Y-133120613D02*
X54680436Y-132320639D01*
X51884957Y-132314797D02*
G75*
G02*
X52194787Y-132004972I309838J-13D01*
G01*
X52194787Y-133424627D02*
G75*
G02*
X51884948Y-133114772I-12J309827D01*
G01*
X54370657Y-132010784D02*
G75*
G02*
X54680486Y-132320638I-1J-309830D01*
G01*
X54680487Y-133120613D02*
G75*
G02*
X54370657Y-133430443I-309830J0D01*
G01*
D14*
X54105049Y-132314949D02*
G75*
G02*
X54045105Y-132314949I-29972J0D01*
G01*
X54045105Y-132314949D02*
G75*
G02*
X54105049Y-132314949I29972J0D01*
G01*
D17*
G04 #@! TO.C,R401*
X29314173Y-132182573D02*
X29314173Y-130861363D01*
X29314173Y-130861363D02*
X28355296Y-130861363D01*
X28355296Y-132182573D02*
X29314173Y-132182573D01*
X27502870Y-132182573D02*
X26543993Y-132182573D01*
X26543993Y-132182573D02*
X26543993Y-130861363D01*
X26543993Y-130861363D02*
X27502870Y-130861363D01*
D14*
X27158953Y-131922019D02*
G75*
G02*
X27099009Y-131922019I-29972J0D01*
G01*
X27099009Y-131922019D02*
G75*
G02*
X27158953Y-131922019I29972J0D01*
G01*
D17*
G04 #@! TO.C,R410*
X72364395Y-146688276D02*
X73685605Y-146688276D01*
X72364395Y-147647153D02*
X72364395Y-146688276D01*
X72364395Y-148499579D02*
X72364395Y-149458456D01*
X72364395Y-149458456D02*
X73685605Y-149458456D01*
X73685605Y-146688276D02*
X73685605Y-147647153D01*
X73685605Y-149458456D02*
X73685605Y-148499579D01*
D14*
X72654921Y-147273264D02*
G75*
G02*
X72594977Y-147273264I-29972J0D01*
G01*
X72594977Y-147273264D02*
G75*
G02*
X72654921Y-147273264I29972J0D01*
G01*
G04 #@! TO.C,R208*
X157550905Y-120915523D02*
G75*
G02*
X157490961Y-120915523I-29972J0D01*
G01*
X157490961Y-120915523D02*
G75*
G02*
X157550905Y-120915523I29972J0D01*
G01*
D17*
X159706125Y-121176077D02*
X159706125Y-119854867D01*
X159706125Y-119854867D02*
X158747248Y-119854867D01*
X158747248Y-121176077D02*
X159706125Y-121176077D01*
X157894822Y-121176077D02*
X156935945Y-121176077D01*
X156935945Y-121176077D02*
X156935945Y-119854867D01*
X156935945Y-119854867D02*
X157894822Y-119854867D01*
G04 #@! TO.C,R404*
X57124395Y-146688276D02*
X58445605Y-146688276D01*
X57124395Y-147647153D02*
X57124395Y-146688276D01*
X57124395Y-148499579D02*
X57124395Y-149458456D01*
X57124395Y-149458456D02*
X58445605Y-149458456D01*
X58445605Y-146688276D02*
X58445605Y-147647153D01*
X58445605Y-149458456D02*
X58445605Y-148499579D01*
D14*
X57414921Y-147273264D02*
G75*
G02*
X57354977Y-147273264I-29972J0D01*
G01*
X57354977Y-147273264D02*
G75*
G02*
X57414921Y-147273264I29972J0D01*
G01*
D17*
G04 #@! TO.C,U401*
X30863870Y-150701556D02*
X35916296Y-150701556D01*
X30863870Y-153744380D02*
X30863870Y-150701556D01*
X35916296Y-150701556D02*
X35916296Y-153744380D01*
X35916296Y-153744380D02*
X30863870Y-153744380D01*
D16*
X35445201Y-151453854D02*
G75*
G02*
X35144973Y-151453854I-150114J0D01*
G01*
X35144973Y-151453854D02*
G75*
G02*
X35445201Y-151453854I150114J0D01*
G01*
D14*
X35870144Y-149222968D02*
G75*
G02*
X35810200Y-149222968I-29972J0D01*
G01*
X35810200Y-149222968D02*
G75*
G02*
X35870144Y-149222968I29972J0D01*
G01*
D16*
X36191708Y-149450552D02*
G75*
G02*
X35891480Y-149450552I-150114J0D01*
G01*
X35891480Y-149450552D02*
G75*
G02*
X36191708Y-149450552I150114J0D01*
G01*
D14*
G04 #@! TO.C,C203*
X113176555Y-126326898D02*
G75*
G02*
X113116611Y-126326898I-29972J0D01*
G01*
X113116611Y-126326898D02*
G75*
G02*
X113176555Y-126326898I29972J0D01*
G01*
D12*
X113952247Y-125721488D02*
G75*
G02*
X114262077Y-126031318I0J-309830D01*
G01*
X112842418Y-126031318D02*
G75*
G02*
X113152272Y-125721489I309830J-1D01*
G01*
X114256261Y-128207188D02*
G75*
G02*
X113946406Y-128517027I-309827J-12D01*
G01*
X113146431Y-128517018D02*
G75*
G02*
X112836606Y-128207188I13J309838D01*
G01*
X113952247Y-125721539D02*
X113152273Y-125721539D01*
X114262077Y-126831369D02*
X114262077Y-126031369D01*
X112842468Y-126831369D02*
X112842468Y-126031369D01*
X114256261Y-127407264D02*
X114256261Y-128207239D01*
X112836601Y-127407264D02*
X112836601Y-128207239D01*
X113946405Y-128517018D02*
X113146380Y-128517018D01*
D14*
G04 #@! TO.C,C210*
X151043420Y-139810459D02*
G75*
G02*
X150983426Y-139810459I-29997J0D01*
G01*
X150983426Y-139810459D02*
G75*
G02*
X151043420Y-139810459I29997J0D01*
G01*
D12*
X158263334Y-139860472D02*
X158263334Y-139438476D01*
X158263334Y-135460472D02*
X158263334Y-136009469D01*
X153114032Y-135501468D02*
X153096608Y-135501468D01*
X153096608Y-135501468D02*
X153096608Y-139860472D01*
X152879209Y-135460472D02*
X152879209Y-139860472D01*
X151608597Y-135460472D02*
X151593585Y-135460472D01*
X151593585Y-139391612D02*
X151593585Y-139860472D01*
X151593585Y-139391612D02*
X151386194Y-139391612D01*
X151593585Y-135929332D02*
X151063359Y-135929332D01*
X151593585Y-135460472D02*
X151593585Y-135929332D01*
X151387591Y-139391612D02*
X151387591Y-139391612D01*
X151387591Y-135929332D02*
X151387591Y-135460472D01*
X151387591Y-135929332D02*
X151386194Y-135929332D01*
X151387591Y-135929332D02*
X151063359Y-135929332D01*
X151386194Y-139391612D02*
X151386194Y-139860472D01*
X151386194Y-135929332D02*
X151386194Y-135929332D01*
X151262292Y-135460472D02*
X151198792Y-135460472D01*
X151233793Y-139391612D02*
X151219290Y-139391612D01*
X151219290Y-139860116D02*
X151219290Y-139860472D01*
X151219290Y-139391612D02*
X151219290Y-139860472D01*
X151198792Y-135460472D02*
X151198792Y-135929332D01*
X151063359Y-139860472D02*
X158263334Y-139860472D01*
X151063359Y-139860472D02*
X151063359Y-139438476D01*
X151063359Y-139438476D02*
X151063359Y-139391612D01*
X151063359Y-139391612D02*
X151387591Y-139391612D01*
X151063359Y-139391612D02*
X151063359Y-139438476D01*
X151063359Y-135929332D02*
X151063359Y-135460472D01*
X151063359Y-135460472D02*
X158263334Y-135460472D01*
X150905853Y-139860116D02*
X151219290Y-139860116D01*
X150905853Y-139860116D02*
X150867804Y-139860116D01*
X150867804Y-139860116D02*
X150867804Y-139391612D01*
X150867804Y-139391612D02*
X151063359Y-139391612D01*
X150867804Y-135929332D02*
X151063359Y-135929332D01*
X150867804Y-135929332D02*
X150867804Y-135460472D01*
X150867804Y-135460472D02*
X151063359Y-135460472D01*
D17*
G04 #@! TO.C,R302*
X55854395Y-127003276D02*
X55854395Y-127962153D01*
X55854395Y-129773456D02*
X55854395Y-128814579D01*
X57175605Y-127003276D02*
X55854395Y-127003276D01*
X57175605Y-127962153D02*
X57175605Y-127003276D01*
X57175605Y-128814579D02*
X57175605Y-129773456D01*
X57175605Y-129773456D02*
X55854395Y-129773456D01*
D14*
X56945023Y-129188468D02*
G75*
G02*
X56885079Y-129188468I-29972J0D01*
G01*
X56885079Y-129188468D02*
G75*
G02*
X56945023Y-129188468I29972J0D01*
G01*
D12*
G04 #@! TO.C,U301*
X64024975Y-109598517D02*
X64024975Y-116417389D01*
X64024975Y-115638141D02*
X82042018Y-115638141D01*
X64024975Y-134289728D02*
X64024975Y-135137582D01*
X64024975Y-135137582D02*
X65358833Y-135137582D01*
X65785986Y-110753533D02*
X65785986Y-114436541D01*
X68071990Y-110753533D02*
X65785986Y-110753533D01*
X68071990Y-112912538D02*
X68071990Y-110753533D01*
X70357995Y-110753533D02*
X70357995Y-112912538D01*
X70357995Y-112912538D02*
X68071990Y-112912538D01*
X72898000Y-110753533D02*
X70357995Y-110753533D01*
X72898000Y-112912538D02*
X72898000Y-110753533D01*
X75438005Y-110753533D02*
X75438005Y-112912538D01*
X75438005Y-112912538D02*
X72898000Y-112912538D01*
X78290177Y-110753533D02*
X75438005Y-110753533D01*
X78290177Y-115638141D02*
X78290177Y-110753533D01*
X80322181Y-110753533D02*
X78086976Y-110753533D01*
X80322181Y-115638141D02*
X80322181Y-110753533D01*
X80691167Y-135137582D02*
X82042018Y-135137582D01*
X82025025Y-109598517D02*
X64024975Y-109598517D01*
X82042018Y-116417389D02*
X82042018Y-109610531D01*
X82042018Y-135137582D02*
X82042018Y-134289728D01*
D14*
X64054972Y-109598669D02*
G75*
G02*
X63995028Y-109598669I-29972J0D01*
G01*
X63995028Y-109598669D02*
G75*
G02*
X64054972Y-109598669I29972J0D01*
G01*
G04 #@! TO.C,U202*
X155645804Y-126395396D02*
G75*
G02*
X155585860Y-126395396I-29972J0D01*
G01*
X155585860Y-126395396D02*
G75*
G02*
X155645804Y-126395396I29972J0D01*
G01*
D19*
X155541156Y-126545510D02*
G75*
G02*
X155391296Y-126545510I-74930J0D01*
G01*
X155391296Y-126545510D02*
G75*
G02*
X155541156Y-126545510I74930J0D01*
G01*
D17*
X157292159Y-126271672D02*
X157292159Y-124919272D01*
X155539759Y-126271672D02*
X155539759Y-124919272D01*
D12*
G04 #@! TO.C,C401*
X31919597Y-146737355D02*
X31919597Y-147537329D01*
X33029427Y-146427525D02*
X32229427Y-146427525D01*
X33029427Y-147847134D02*
X32229427Y-147847134D01*
X33605322Y-146433341D02*
X34405297Y-146433341D01*
X33605322Y-147853001D02*
X34405297Y-147853001D01*
X34715076Y-146743197D02*
X34715076Y-147543222D01*
X31919546Y-146737355D02*
G75*
G02*
X32229376Y-146427525I309830J0D01*
G01*
X32229376Y-147847184D02*
G75*
G02*
X31919547Y-147537330I1J309830D01*
G01*
X34405246Y-146433341D02*
G75*
G02*
X34715085Y-146743196I12J-309827D01*
G01*
X34715076Y-147543171D02*
G75*
G02*
X34405246Y-147852996I-309838J13D01*
G01*
D14*
X32554928Y-147543019D02*
G75*
G02*
X32494984Y-147543019I-29972J0D01*
G01*
X32494984Y-147543019D02*
G75*
G02*
X32554928Y-147543019I29972J0D01*
G01*
D12*
G04 #@! TO.C,C403*
X29379597Y-141022355D02*
X29379597Y-141822329D01*
X30489427Y-140712525D02*
X29689427Y-140712525D01*
X30489427Y-142132134D02*
X29689427Y-142132134D01*
X31065322Y-140718341D02*
X31865297Y-140718341D01*
X31065322Y-142138001D02*
X31865297Y-142138001D01*
X32175076Y-141028197D02*
X32175076Y-141828222D01*
X29379546Y-141022355D02*
G75*
G02*
X29689376Y-140712525I309830J0D01*
G01*
X29689376Y-142132184D02*
G75*
G02*
X29379547Y-141822330I1J309830D01*
G01*
X31865246Y-140718341D02*
G75*
G02*
X32175085Y-141028196I12J-309827D01*
G01*
X32175076Y-141828171D02*
G75*
G02*
X31865246Y-142137996I-309838J13D01*
G01*
D14*
X30014928Y-141828019D02*
G75*
G02*
X29954984Y-141828019I-29972J0D01*
G01*
X29954984Y-141828019D02*
G75*
G02*
X30014928Y-141828019I29972J0D01*
G01*
D17*
G04 #@! TO.C,R416*
X69824395Y-142878276D02*
X71145605Y-142878276D01*
X69824395Y-143837153D02*
X69824395Y-142878276D01*
X69824395Y-144689579D02*
X69824395Y-145648456D01*
X69824395Y-145648456D02*
X71145605Y-145648456D01*
X71145605Y-142878276D02*
X71145605Y-143837153D01*
X71145605Y-145648456D02*
X71145605Y-144689579D01*
D14*
X70114921Y-143463264D02*
G75*
G02*
X70054977Y-143463264I-29972J0D01*
G01*
X70054977Y-143463264D02*
G75*
G02*
X70114921Y-143463264I29972J0D01*
G01*
D17*
G04 #@! TO.C,R413*
X62204395Y-142878276D02*
X63525605Y-142878276D01*
X62204395Y-143837153D02*
X62204395Y-142878276D01*
X62204395Y-144689579D02*
X62204395Y-145648456D01*
X62204395Y-145648456D02*
X63525605Y-145648456D01*
X63525605Y-142878276D02*
X63525605Y-143837153D01*
X63525605Y-145648456D02*
X63525605Y-144689579D01*
D14*
X62494921Y-143463264D02*
G75*
G02*
X62434977Y-143463264I-29972J0D01*
G01*
X62434977Y-143463264D02*
G75*
G02*
X62494921Y-143463264I29972J0D01*
G01*
D12*
G04 #@! TO.C,U502*
X109219985Y-158731988D02*
X124460015Y-158731988D01*
X109219985Y-168429550D02*
X124460015Y-168429550D01*
X109219985Y-169902753D02*
X124460015Y-169902753D01*
X109219985Y-170732013D02*
X109219985Y-158731988D01*
X109219985Y-170732013D02*
X124460015Y-170732013D01*
X110888920Y-169902753D02*
X110330119Y-170732013D01*
X112768524Y-169902753D02*
X113251125Y-170732013D01*
X115943531Y-169902727D02*
X115384729Y-170732013D01*
X117823160Y-169902727D02*
X118305735Y-170732013D01*
X121048941Y-169902727D02*
X120490140Y-170732013D01*
X122928570Y-169902727D02*
X123411146Y-170732013D01*
X124460015Y-170732013D02*
X124460015Y-158731988D01*
D17*
G04 #@! TO.C,R411*
X57124395Y-142878276D02*
X58445605Y-142878276D01*
X57124395Y-143837153D02*
X57124395Y-142878276D01*
X57124395Y-144689579D02*
X57124395Y-145648456D01*
X57124395Y-145648456D02*
X58445605Y-145648456D01*
X58445605Y-142878276D02*
X58445605Y-143837153D01*
X58445605Y-145648456D02*
X58445605Y-144689579D01*
D14*
X57414921Y-143463264D02*
G75*
G02*
X57354977Y-143463264I-29972J0D01*
G01*
X57354977Y-143463264D02*
G75*
G02*
X57414921Y-143463264I29972J0D01*
G01*
G04 #@! TO.C,C304*
X35730293Y-118375252D02*
G75*
G02*
X35670349Y-118375252I-29972J0D01*
G01*
X35670349Y-118375252D02*
G75*
G02*
X35730293Y-118375252I29972J0D01*
G01*
D12*
X36305731Y-119180916D02*
G75*
G02*
X35995901Y-119490746I-309830J0D01*
G01*
X35995901Y-118071087D02*
G75*
G02*
X36305730Y-118380941I-1J-309830D01*
G01*
X33820031Y-119484930D02*
G75*
G02*
X33510192Y-119175075I-12J309827D01*
G01*
X33510201Y-118375100D02*
G75*
G02*
X33820031Y-118065275I309838J-13D01*
G01*
X36305680Y-119180916D02*
X36305680Y-118380942D01*
X35195850Y-119490746D02*
X35995850Y-119490746D01*
X35195850Y-118071137D02*
X35995850Y-118071137D01*
X34619955Y-119484930D02*
X33819980Y-119484930D01*
X34619955Y-118065270D02*
X33819980Y-118065270D01*
X33510201Y-119175074D02*
X33510201Y-118375049D01*
D17*
G04 #@! TO.C,R308*
X33531276Y-116306395D02*
X34490153Y-116306395D01*
X33531276Y-117627605D02*
X33531276Y-116306395D01*
X34490153Y-117627605D02*
X33531276Y-117627605D01*
X35342579Y-117627605D02*
X36301456Y-117627605D01*
X36301456Y-116306395D02*
X35342579Y-116306395D01*
X36301456Y-117627605D02*
X36301456Y-116306395D01*
D14*
X34146236Y-117367051D02*
G75*
G02*
X34086292Y-117367051I-29972J0D01*
G01*
X34086292Y-117367051D02*
G75*
G02*
X34146236Y-117367051I29972J0D01*
G01*
D17*
G04 #@! TO.C,U304*
X42923787Y-118653787D02*
X42923787Y-120106213D01*
X42923787Y-120106213D02*
X43955410Y-120106213D01*
X43994602Y-118653787D02*
X44905398Y-118653787D01*
X45976213Y-118653787D02*
X45976213Y-120106213D01*
X45976213Y-120106213D02*
X44944590Y-120106213D01*
D14*
X45930010Y-118180000D02*
G75*
G02*
X45870016Y-118180000I-29997J0D01*
G01*
X45870016Y-118180000D02*
G75*
G02*
X45930010Y-118180000I29997J0D01*
G01*
D17*
G04 #@! TO.C,C302*
X55558838Y-113969262D02*
X55558838Y-117485467D01*
X55558838Y-117485467D02*
X56495084Y-118421662D01*
D20*
X56495084Y-118421662D02*
X57054850Y-118421662D01*
X57054850Y-113969161D02*
X55558838Y-113969161D01*
X58515124Y-118421662D02*
X59075196Y-118421662D01*
X59075196Y-118421662D02*
X59075323Y-118421789D01*
X60010044Y-113969161D02*
X58515124Y-113969161D01*
D17*
X60010044Y-113969161D02*
X60010044Y-117484528D01*
X60010044Y-117484528D02*
X59075323Y-118421789D01*
D14*
X59956019Y-118745996D02*
G75*
G02*
X59896023Y-118745996I-29998J0D01*
G01*
X59896023Y-118745996D02*
G75*
G02*
X59956019Y-118745996I29998J0D01*
G01*
D19*
G04 #@! TO.C,U403*
X51776449Y-137411590D02*
X54876525Y-137411590D01*
X51777719Y-134311514D02*
X51777719Y-137411590D01*
X52615921Y-134287384D02*
X51777719Y-134287384D01*
X54876525Y-134287384D02*
X54038324Y-134287384D01*
X54876525Y-134311514D02*
X54876525Y-137411590D01*
X54012924Y-134287384D02*
G75*
G02*
X52615920Y-134287383I-698502J217301D01*
G01*
D14*
X50919984Y-134390000D02*
G75*
G02*
X50859990Y-134390000I-29997J0D01*
G01*
X50859990Y-134390000D02*
G75*
G02*
X50919984Y-134390000I29997J0D01*
G01*
D13*
X51458872Y-134365997D02*
G75*
G02*
X51258720Y-134365997I-100076J0D01*
G01*
X51258720Y-134365997D02*
G75*
G02*
X51458872Y-134365997I100076J0D01*
G01*
D14*
G04 #@! TO.C,C207*
X152626102Y-126595472D02*
G75*
G02*
X152566158Y-126595472I-29972J0D01*
G01*
X152566158Y-126595472D02*
G75*
G02*
X152626102Y-126595472I29972J0D01*
G01*
D17*
X152874642Y-127406673D02*
G75*
G02*
X152722242Y-127559073I-152400J0D01*
G01*
X152722242Y-123631870D02*
G75*
G02*
X152874637Y-123784271I-7J-152402D01*
G01*
X151219828Y-127559074D02*
G75*
G02*
X151067427Y-127406673I-1J152400D01*
G01*
X151067428Y-123784271D02*
G75*
G02*
X151219828Y-123631865I152407J-1D01*
G01*
X152874642Y-125996666D02*
X152874642Y-127406673D01*
X152874642Y-125194278D02*
X152874642Y-123784271D01*
X152722242Y-127559074D02*
X151219828Y-127559074D01*
X152722242Y-123631870D02*
X151219828Y-123631870D01*
X151067428Y-127406673D02*
X151067428Y-125996666D01*
X151067428Y-123784271D02*
X151067428Y-125194278D01*
G04 #@! TO.C,R306*
X42934425Y-123799395D02*
X42934425Y-125120605D01*
X42934425Y-125120605D02*
X43893302Y-125120605D01*
X43893302Y-123799395D02*
X42934425Y-123799395D01*
X44745728Y-123799395D02*
X45704605Y-123799395D01*
X45704605Y-123799395D02*
X45704605Y-125120605D01*
X45704605Y-125120605D02*
X44745728Y-125120605D01*
D14*
X45149589Y-124059949D02*
G75*
G02*
X45089645Y-124059949I-29972J0D01*
G01*
X45089645Y-124059949D02*
G75*
G02*
X45149589Y-124059949I29972J0D01*
G01*
D17*
G04 #@! TO.C,R402*
X27014478Y-133176244D02*
X27014478Y-134135121D01*
X27014478Y-135946424D02*
X27014478Y-134987547D01*
X28335688Y-133176244D02*
X27014478Y-133176244D01*
X28335688Y-134135121D02*
X28335688Y-133176244D01*
X28335688Y-134987547D02*
X28335688Y-135946424D01*
X28335688Y-135946424D02*
X27014478Y-135946424D01*
D14*
X28105106Y-135361436D02*
G75*
G02*
X28045162Y-135361436I-29972J0D01*
G01*
X28045162Y-135361436D02*
G75*
G02*
X28105106Y-135361436I29972J0D01*
G01*
G04 #@! TO.C,R207*
X161291058Y-125125574D02*
G75*
G02*
X161231114Y-125125574I-29972J0D01*
G01*
X161231114Y-125125574D02*
G75*
G02*
X161291058Y-125125574I29972J0D01*
G01*
D17*
X161521640Y-125710562D02*
X160200430Y-125710562D01*
X161521640Y-124751685D02*
X161521640Y-125710562D01*
X161521640Y-123899259D02*
X161521640Y-122940382D01*
X161521640Y-122940382D02*
X160200430Y-122940382D01*
X160200430Y-125710562D02*
X160200430Y-124751685D01*
X160200430Y-122940382D02*
X160200430Y-123899259D01*
G04 #@! TD*
%LPC*%
D21*
G04 #@! TO.C,IC603*
X130175000Y-143510000D03*
X128905000Y-143510000D03*
X127635000Y-143510000D03*
X126365000Y-143510000D03*
X125095000Y-143510000D03*
X123825000Y-143510000D03*
X122555000Y-143510000D03*
X121285000Y-143510000D03*
X120015000Y-143510000D03*
X118745000Y-143510000D03*
X118745000Y-152934000D03*
X120015000Y-152934000D03*
X121285000Y-152934000D03*
X122555000Y-152934000D03*
X123825000Y-152934000D03*
X125095000Y-152934000D03*
X126365000Y-152934000D03*
X127635000Y-152934000D03*
X128905000Y-152934000D03*
X130175000Y-152934000D03*
G04 #@! TD*
G04 #@! TO.C,IC602*
X109855000Y-143510000D03*
X108585000Y-143510000D03*
X107315000Y-143510000D03*
X106045000Y-143510000D03*
X104775000Y-143510000D03*
X103505000Y-143510000D03*
X102235000Y-143510000D03*
X100965000Y-143510000D03*
X99695000Y-143510000D03*
X98425000Y-143510000D03*
X98425000Y-152934000D03*
X99695000Y-152934000D03*
X100965000Y-152934000D03*
X102235000Y-152934000D03*
X103505000Y-152934000D03*
X104775000Y-152934000D03*
X106045000Y-152934000D03*
X107315000Y-152934000D03*
X108585000Y-152934000D03*
X109855000Y-152934000D03*
G04 #@! TD*
D22*
G04 #@! TO.C,U307*
X52572917Y-109661987D03*
X53848000Y-109661987D03*
X55123083Y-109661987D03*
D23*
X51786024Y-107762064D03*
X55909976Y-107762064D03*
D24*
X51697886Y-108961962D03*
X55998114Y-108961962D03*
G04 #@! TD*
D22*
G04 #@! TO.C,U306*
X46222917Y-109661987D03*
X47498000Y-109661987D03*
X48773083Y-109661987D03*
D23*
X45436024Y-107762064D03*
X49559976Y-107762064D03*
D24*
X45347886Y-108961962D03*
X49648114Y-108961962D03*
G04 #@! TD*
D25*
G04 #@! TO.C,U603*
X144282180Y-152527072D03*
X144282180Y-153797075D03*
X144282180Y-155067077D03*
X144281926Y-156337080D03*
D26*
X146336028Y-153164106D03*
X146336028Y-155700047D03*
D25*
X149850125Y-152527072D03*
X149850125Y-153797075D03*
X149850125Y-155067077D03*
X149850125Y-156337080D03*
G04 #@! TD*
D27*
G04 #@! TO.C,U602*
X135304958Y-145520416D03*
X136574961Y-145520416D03*
X137844963Y-145520416D03*
X139114966Y-145520416D03*
X135304958Y-139975584D03*
X136574961Y-139975584D03*
X137844963Y-139975584D03*
X139114966Y-139975584D03*
G04 #@! TD*
G04 #@! TO.C,U601*
X141858996Y-145520416D03*
X143128999Y-145520416D03*
X144399001Y-145520416D03*
X145669004Y-145520416D03*
X141858996Y-139975584D03*
X143128999Y-139975584D03*
X144399001Y-139975584D03*
X145669004Y-139975584D03*
G04 #@! TD*
D28*
G04 #@! TO.C,U507*
X134965194Y-117647980D03*
X140505199Y-117647980D03*
X137735324Y-117647980D03*
X132195318Y-117647980D03*
D29*
X129425189Y-117647980D03*
D28*
X139120134Y-114808000D03*
X136350005Y-114808000D03*
X133580129Y-114808000D03*
X130810000Y-114808000D03*
D30*
X147465321Y-116227863D03*
X122465321Y-116227863D03*
G04 #@! TD*
D28*
G04 #@! TO.C,U506*
X100049470Y-117692490D03*
X105589475Y-117692490D03*
X102819600Y-117692490D03*
X97279594Y-117692490D03*
D29*
X94509465Y-117692490D03*
D28*
X104204410Y-114852510D03*
X101434281Y-114852510D03*
X98664405Y-114852510D03*
X95894276Y-114852510D03*
D30*
X112549597Y-116272373D03*
X87549597Y-116272373D03*
G04 #@! TD*
D28*
G04 #@! TO.C,H501*
X66294005Y-137667997D03*
X66294005Y-140208003D03*
X63754000Y-137667997D03*
X63754000Y-140208003D03*
X61213995Y-137667997D03*
D29*
X61213995Y-140208003D03*
G04 #@! TD*
D28*
G04 #@! TO.C,H302*
X42672006Y-140462005D03*
X40132000Y-140462005D03*
X42672006Y-137922000D03*
X40132000Y-137922000D03*
X42672006Y-135381995D03*
D29*
X40132000Y-135381995D03*
G04 #@! TD*
D31*
G04 #@! TO.C,R212*
X155899401Y-122420472D03*
X154392669Y-122420472D03*
G04 #@! TD*
D32*
G04 #@! TO.C,R407*
X65405000Y-147320000D03*
X65405000Y-148826732D03*
G04 #@! TD*
D31*
G04 #@! TO.C,R210*
X157567669Y-122420472D03*
X159074401Y-122420472D03*
G04 #@! TD*
D32*
G04 #@! TO.C,R206*
X115451634Y-126373634D03*
X115451634Y-127880366D03*
G04 #@! TD*
D33*
G04 #@! TO.C,C303*
X60960000Y-118175025D03*
X60960000Y-116774975D03*
G04 #@! TD*
D34*
G04 #@! TO.C,C202*
X117926609Y-128397000D03*
X119326659Y-128397000D03*
G04 #@! TD*
G04 #@! TO.C,C305*
X34163000Y-120777000D03*
X32762950Y-120777000D03*
G04 #@! TD*
D35*
G04 #@! TO.C,H602*
X158750000Y-164365000D03*
G04 #@! TD*
D36*
G04 #@! TO.C,L202*
X153771130Y-131310472D03*
X156520940Y-131310472D03*
G04 #@! TD*
D37*
G04 #@! TO.C,C201*
X117626634Y-130302000D03*
X119626634Y-130302000D03*
G04 #@! TD*
D32*
G04 #@! TO.C,R409*
X70485000Y-147320000D03*
X70485000Y-148826732D03*
G04 #@! TD*
D35*
G04 #@! TO.C,H603*
X29210000Y-110490000D03*
G04 #@! TD*
G04 #@! TO.C,H601*
X158750000Y-110490000D03*
G04 #@! TD*
D32*
G04 #@! TO.C,R204*
X115451634Y-124705366D03*
X115451634Y-123198634D03*
G04 #@! TD*
D31*
G04 #@! TO.C,R307*
X39759634Y-117602000D03*
X41266366Y-117602000D03*
G04 #@! TD*
D38*
G04 #@! TO.C,U504*
X142239990Y-160731988D03*
X147320000Y-160731988D03*
X152400010Y-160731988D03*
G04 #@! TD*
D39*
G04 #@! TO.C,U505*
X39745136Y-158600137D03*
X86785014Y-158600137D03*
D28*
X48030125Y-160020000D03*
X50800000Y-160020000D03*
X53570130Y-160020000D03*
X56340006Y-160020000D03*
X59110135Y-160020000D03*
X61880011Y-160020000D03*
X64650140Y-160020000D03*
X67420016Y-160020000D03*
X70190145Y-160020000D03*
X72960021Y-160020000D03*
X75730150Y-160020000D03*
X78500026Y-160020000D03*
X46645060Y-157180020D03*
X49415190Y-157180020D03*
X52185065Y-157180020D03*
X54954941Y-157180020D03*
X57725070Y-157180020D03*
X60494946Y-157180020D03*
X63265075Y-157180020D03*
X66035205Y-157180020D03*
X68805080Y-157180020D03*
X71574956Y-157180020D03*
X74345086Y-157180020D03*
X77114961Y-157180020D03*
D29*
X79885091Y-157180020D03*
G04 #@! TD*
D40*
G04 #@! TO.C,X401*
X35760159Y-141847955D03*
X33560007Y-141847955D03*
X33560007Y-143547981D03*
X35760159Y-143547981D03*
G04 #@! TD*
D32*
G04 #@! TO.C,R403*
X37200083Y-153492968D03*
X37200083Y-151986236D03*
G04 #@! TD*
D37*
G04 #@! TO.C,C301*
X55864000Y-112014000D03*
X53864000Y-112014000D03*
G04 #@! TD*
D41*
G04 #@! TO.C,U201*
X117986629Y-126356975D03*
X117986629Y-125857102D03*
X117986629Y-125356975D03*
X119266791Y-125356975D03*
X119266791Y-125857102D03*
X119266791Y-126356975D03*
G04 #@! TD*
D38*
G04 #@! TO.C,U501*
X96519990Y-160731988D03*
X101600000Y-160731988D03*
X106680010Y-160731988D03*
G04 #@! TD*
D42*
G04 #@! TO.C,C204*
X130691634Y-124409574D03*
X130691634Y-131114426D03*
G04 #@! TD*
G04 #@! TO.C,C205*
X135771634Y-124409574D03*
X135771634Y-131114426D03*
G04 #@! TD*
D32*
G04 #@! TO.C,R202*
X113546634Y-123198634D03*
X113546634Y-124705366D03*
G04 #@! TD*
D31*
G04 #@! TO.C,R203*
X115570000Y-131572000D03*
X114063268Y-131572000D03*
G04 #@! TD*
D43*
G04 #@! TO.C,C211*
X157863461Y-142740472D03*
X151158609Y-142740472D03*
G04 #@! TD*
D32*
G04 #@! TO.C,R405*
X60325000Y-147320000D03*
X60325000Y-148826732D03*
G04 #@! TD*
G04 #@! TO.C,R209*
X150701035Y-122538838D03*
X150701035Y-121032106D03*
G04 #@! TD*
G04 #@! TO.C,R415*
X67945000Y-143510000D03*
X67945000Y-145016732D03*
G04 #@! TD*
D44*
G04 #@! TO.C,U303*
X37973000Y-123952000D03*
D45*
X40350445Y-122452127D03*
X40350445Y-122952000D03*
X40350445Y-123452127D03*
X40350445Y-123952000D03*
X40350445Y-124452127D03*
X40350445Y-124952000D03*
X40350445Y-125452127D03*
D46*
X39472873Y-126329445D03*
X38973000Y-126329445D03*
X38472873Y-126329445D03*
X37973000Y-126329445D03*
X37472873Y-126329445D03*
X36973000Y-126329445D03*
X36472873Y-126329445D03*
D45*
X35595555Y-125452127D03*
X35595555Y-124952000D03*
X35595555Y-124452127D03*
X35595555Y-123952000D03*
X35595555Y-123452127D03*
X35595555Y-122952000D03*
X35595555Y-122452127D03*
D46*
X36472873Y-121574555D03*
X36973000Y-121574555D03*
X37472873Y-121574555D03*
X37973000Y-121574555D03*
X38472873Y-121574555D03*
X38973000Y-121574555D03*
X39472873Y-121574555D03*
G04 #@! TD*
D34*
G04 #@! TO.C,C212*
X155211060Y-146504702D03*
X153811010Y-146504702D03*
G04 #@! TD*
D35*
G04 #@! TO.C,H604*
X29210000Y-164465000D03*
G04 #@! TD*
D31*
G04 #@! TO.C,R205*
X114063268Y-129667000D03*
X115570000Y-129667000D03*
G04 #@! TD*
G04 #@! TO.C,R301*
X54728366Y-116840000D03*
X53221634Y-116840000D03*
G04 #@! TD*
G04 #@! TO.C,R201*
X116603268Y-121412000D03*
X118110000Y-121412000D03*
G04 #@! TD*
D32*
G04 #@! TO.C,R211*
X152606035Y-122538838D03*
X152606035Y-121032106D03*
G04 #@! TD*
D47*
G04 #@! TO.C,U402*
X29830013Y-137313936D03*
X30480000Y-137313936D03*
X31129988Y-137313936D03*
X31779975Y-137313936D03*
X32430216Y-137313936D03*
X33080204Y-137313936D03*
X33730191Y-137313936D03*
X34380178Y-137313936D03*
X35030166Y-137313936D03*
X35680153Y-137313936D03*
X35680153Y-131572000D03*
X35030166Y-131572000D03*
X34380178Y-131572000D03*
X33730191Y-131572000D03*
X33080204Y-131572000D03*
X32430216Y-131572000D03*
X31779975Y-131572000D03*
X31129988Y-131572000D03*
X30480000Y-131572000D03*
X29830013Y-131572000D03*
G04 #@! TD*
D32*
G04 #@! TO.C,R406*
X62865000Y-147320000D03*
X62865000Y-148826732D03*
G04 #@! TD*
D38*
G04 #@! TO.C,U503*
X126999990Y-160731988D03*
X132080000Y-160731988D03*
X137160010Y-160731988D03*
G04 #@! TD*
D32*
G04 #@! TO.C,R303*
X54610000Y-129141732D03*
X54610000Y-127635000D03*
G04 #@! TD*
G04 #@! TO.C,R417*
X73025000Y-143510000D03*
X73025000Y-145016732D03*
G04 #@! TD*
D48*
G04 #@! TO.C,L201*
X124341634Y-131040131D03*
X124341634Y-124483869D03*
G04 #@! TD*
D32*
G04 #@! TO.C,R412*
X60325000Y-143510000D03*
X60325000Y-145016732D03*
G04 #@! TD*
D49*
G04 #@! TO.C,U305*
X39597926Y-114441894D03*
X38597926Y-114441894D03*
X37097799Y-114441894D03*
X36097799Y-114441894D03*
D50*
X34597977Y-114441894D03*
X35397977Y-114441894D03*
D49*
X36597926Y-114441894D03*
X37597926Y-114441894D03*
X38097799Y-114441894D03*
X39097799Y-114441894D03*
D50*
X40297977Y-114441894D03*
X41097977Y-114441894D03*
D51*
X33528000Y-109347000D03*
X42167980Y-109347000D03*
D52*
X32778013Y-113527010D03*
X42917967Y-113527010D03*
D53*
X34957845Y-112996911D03*
X40737881Y-112996403D03*
G04 #@! TD*
D34*
G04 #@! TO.C,C402*
X37900108Y-139522968D03*
X36500058Y-139522968D03*
G04 #@! TD*
D32*
G04 #@! TO.C,R414*
X65405000Y-143510000D03*
X65405000Y-145016732D03*
G04 #@! TD*
D34*
G04 #@! TO.C,C209*
X154446010Y-120515472D03*
X155846060Y-120515472D03*
G04 #@! TD*
D33*
G04 #@! TO.C,C206*
X139581634Y-127061975D03*
X139581634Y-128462025D03*
G04 #@! TD*
D54*
G04 #@! TO.C,U302*
X48701962Y-119142000D03*
X46802038Y-119142000D03*
X47752000Y-121142000D03*
G04 #@! TD*
D31*
G04 #@! TO.C,R304*
X52324000Y-115062000D03*
X53830732Y-115062000D03*
G04 #@! TD*
D32*
G04 #@! TO.C,R408*
X67945000Y-147320000D03*
X67945000Y-148826732D03*
G04 #@! TD*
D31*
G04 #@! TO.C,R305*
X45203366Y-122428000D03*
X43696634Y-122428000D03*
G04 #@! TD*
D33*
G04 #@! TO.C,C208*
X153876035Y-124895447D03*
X153876035Y-126295497D03*
G04 #@! TD*
D34*
G04 #@! TO.C,C404*
X53975000Y-132715000D03*
X52574950Y-132715000D03*
G04 #@! TD*
D31*
G04 #@! TO.C,R401*
X27175717Y-131521968D03*
X28682449Y-131521968D03*
G04 #@! TD*
D32*
G04 #@! TO.C,R410*
X73025000Y-147320000D03*
X73025000Y-148826732D03*
G04 #@! TD*
D31*
G04 #@! TO.C,R208*
X159074401Y-120515472D03*
X157567669Y-120515472D03*
G04 #@! TD*
D32*
G04 #@! TO.C,R404*
X57785000Y-147320000D03*
X57785000Y-148826732D03*
G04 #@! TD*
D27*
G04 #@! TO.C,U401*
X35295087Y-149450552D03*
X34025084Y-149450552D03*
X32755082Y-149450552D03*
X31485079Y-149450552D03*
X31485079Y-154995384D03*
X32755082Y-154995384D03*
X34025084Y-154995384D03*
X35295087Y-154995384D03*
G04 #@! TD*
D33*
G04 #@! TO.C,C203*
X113546634Y-127827025D03*
X113546634Y-126426975D03*
G04 #@! TD*
D43*
G04 #@! TO.C,C210*
X157863461Y-137660472D03*
X151158609Y-137660472D03*
G04 #@! TD*
D32*
G04 #@! TO.C,R302*
X56515000Y-129141732D03*
X56515000Y-127635000D03*
G04 #@! TD*
D55*
G04 #@! TO.C,U301*
X64274936Y-117098542D03*
X64274936Y-118368545D03*
X64274936Y-119638547D03*
X64274936Y-120908550D03*
X64274936Y-122178552D03*
X64274936Y-123448555D03*
X64274936Y-124718557D03*
X64274936Y-125988560D03*
X64274936Y-127258563D03*
X64274936Y-128528565D03*
X64274936Y-129798568D03*
X64274936Y-131068570D03*
X64274936Y-132338573D03*
X64274936Y-133608575D03*
D56*
X66039986Y-134888484D03*
X67309989Y-134888484D03*
X68579991Y-134888484D03*
X69849994Y-134888484D03*
X71119996Y-134888484D03*
X72389999Y-134888484D03*
X73660001Y-134888484D03*
X74930004Y-134888484D03*
X76200006Y-134888484D03*
X77470009Y-134888484D03*
X78740011Y-134888484D03*
X80010014Y-134858512D03*
D55*
X81775064Y-133608575D03*
X81775064Y-132338573D03*
X81775064Y-131068570D03*
X81775064Y-129798568D03*
X81775064Y-128528565D03*
X81775064Y-127258563D03*
X81775064Y-125988560D03*
X81775064Y-124718557D03*
X81775064Y-123448555D03*
X81775064Y-122178552D03*
X81775064Y-120908550D03*
X81775064Y-119638547D03*
X81775064Y-118368545D03*
X81775064Y-117098542D03*
D57*
X70124822Y-123418583D03*
X70124822Y-124818634D03*
X70124822Y-126218684D03*
X71524873Y-123418583D03*
X71524873Y-124818634D03*
X71524873Y-126218684D03*
X72924924Y-123418583D03*
X72924924Y-124818634D03*
X72924924Y-126218684D03*
G04 #@! TD*
D58*
G04 #@! TO.C,U202*
X155916060Y-124955467D03*
X156415933Y-124955467D03*
X156916060Y-124955467D03*
X156916060Y-126235629D03*
X156415933Y-126235629D03*
X155916060Y-126235629D03*
G04 #@! TD*
D34*
G04 #@! TO.C,C401*
X32625033Y-147142968D03*
X34025083Y-147142968D03*
G04 #@! TD*
G04 #@! TO.C,C403*
X30085033Y-141427968D03*
X31485083Y-141427968D03*
G04 #@! TD*
D32*
G04 #@! TO.C,R416*
X70485000Y-143510000D03*
X70485000Y-145016732D03*
G04 #@! TD*
G04 #@! TO.C,R413*
X62865000Y-143510000D03*
X62865000Y-145016732D03*
G04 #@! TD*
D38*
G04 #@! TO.C,U502*
X111759990Y-160731988D03*
X116840000Y-160731988D03*
X121920010Y-160731988D03*
G04 #@! TD*
D32*
G04 #@! TO.C,R411*
X57785000Y-143510000D03*
X57785000Y-145016732D03*
G04 #@! TD*
D34*
G04 #@! TO.C,C304*
X34200194Y-118775303D03*
X35600244Y-118775303D03*
G04 #@! TD*
D31*
G04 #@! TO.C,R308*
X34163000Y-116967000D03*
X35669732Y-116967000D03*
G04 #@! TD*
D54*
G04 #@! TO.C,U304*
X45399962Y-118380000D03*
X43500038Y-118380000D03*
X44450000Y-120380000D03*
G04 #@! TD*
D59*
G04 #@! TO.C,C302*
X57785000Y-118004975D03*
X57785000Y-114405025D03*
G04 #@! TD*
D60*
G04 #@! TO.C,U403*
X50989987Y-134890127D03*
X50989987Y-135390000D03*
X50989987Y-135889873D03*
X50989987Y-136390000D03*
X50989987Y-136890127D03*
X55690013Y-136889873D03*
X55690013Y-136390000D03*
X55690013Y-135890127D03*
X55690013Y-135390000D03*
X55690013Y-134889873D03*
G04 #@! TD*
D61*
G04 #@! TO.C,C207*
X151971035Y-124595472D03*
X151971035Y-126595472D03*
G04 #@! TD*
D31*
G04 #@! TO.C,R306*
X45072881Y-124460000D03*
X43566149Y-124460000D03*
G04 #@! TD*
D32*
G04 #@! TO.C,R402*
X27675083Y-135314700D03*
X27675083Y-133807968D03*
G04 #@! TD*
G04 #@! TO.C,R207*
X160861035Y-123572106D03*
X160861035Y-125078838D03*
G04 #@! TD*
%LPD*%
M02*
